%TF.GenerationSoftware,KiCad,Pcbnew,(7.0.0)*%
%TF.CreationDate,2023-06-01T22:42:06-06:00*%
%TF.ProjectId,STM32F4_lightsaber_shield,53544d33-3246-4345-9f6c-696768747361,rev?*%
%TF.SameCoordinates,Original*%
%TF.FileFunction,Legend,Bot*%
%TF.FilePolarity,Positive*%
%FSLAX46Y46*%
G04 Gerber Fmt 4.6, Leading zero omitted, Abs format (unit mm)*
G04 Created by KiCad (PCBNEW (7.0.0)) date 2023-06-01 22:42:06*
%MOMM*%
%LPD*%
G01*
G04 APERTURE LIST*
%ADD10C,0.150000*%
%ADD11C,0.120000*%
G04 APERTURE END LIST*
D10*
X82931000Y-32639000D02*
X140335000Y-32639000D01*
X140335000Y-32639000D02*
X140335000Y-108839000D01*
X140335000Y-108839000D02*
X82931000Y-108839000D01*
X82931000Y-108839000D02*
X82931000Y-32639000D01*
%TO.C,J1*%
X100663333Y-48159380D02*
X100663333Y-48873666D01*
X100663333Y-48873666D02*
X100710952Y-49016523D01*
X100710952Y-49016523D02*
X100806190Y-49111761D01*
X100806190Y-49111761D02*
X100949047Y-49159380D01*
X100949047Y-49159380D02*
X101044285Y-49159380D01*
X99663333Y-49159380D02*
X100234761Y-49159380D01*
X99949047Y-49159380D02*
X99949047Y-48159380D01*
X99949047Y-48159380D02*
X100044285Y-48302238D01*
X100044285Y-48302238D02*
X100139523Y-48397476D01*
X100139523Y-48397476D02*
X100234761Y-48445095D01*
%TO.C,J2*%
X131524333Y-47524380D02*
X131524333Y-48238666D01*
X131524333Y-48238666D02*
X131571952Y-48381523D01*
X131571952Y-48381523D02*
X131667190Y-48476761D01*
X131667190Y-48476761D02*
X131810047Y-48524380D01*
X131810047Y-48524380D02*
X131905285Y-48524380D01*
X131095761Y-47619619D02*
X131048142Y-47572000D01*
X131048142Y-47572000D02*
X130952904Y-47524380D01*
X130952904Y-47524380D02*
X130714809Y-47524380D01*
X130714809Y-47524380D02*
X130619571Y-47572000D01*
X130619571Y-47572000D02*
X130571952Y-47619619D01*
X130571952Y-47619619D02*
X130524333Y-47714857D01*
X130524333Y-47714857D02*
X130524333Y-47810095D01*
X130524333Y-47810095D02*
X130571952Y-47952952D01*
X130571952Y-47952952D02*
X131143380Y-48524380D01*
X131143380Y-48524380D02*
X130524333Y-48524380D01*
D11*
%TO.C,J1*%
X101915000Y-82102000D02*
X101272530Y-82102000D01*
X101915000Y-50232000D02*
X101915000Y-82102000D01*
X101915000Y-50232000D02*
X101272530Y-50232000D01*
X100657470Y-82102000D02*
X100002530Y-82102000D01*
X100657470Y-50232000D02*
X100455000Y-50232000D01*
X99695000Y-50167000D02*
X98745000Y-50167000D01*
X99387470Y-82102000D02*
X98745000Y-82102000D01*
X98935000Y-51562000D02*
X98745000Y-51562000D01*
X98745000Y-51562000D02*
X98745000Y-82102000D01*
X98745000Y-50167000D02*
X98745000Y-50927000D01*
%TO.C,J2*%
X132776000Y-81467000D02*
X132133530Y-81467000D01*
X132776000Y-49597000D02*
X132776000Y-81467000D01*
X132776000Y-49597000D02*
X132133530Y-49597000D01*
X131518470Y-81467000D02*
X130863530Y-81467000D01*
X131518470Y-49597000D02*
X131316000Y-49597000D01*
X130556000Y-49532000D02*
X129606000Y-49532000D01*
X130248470Y-81467000D02*
X129606000Y-81467000D01*
X129796000Y-50927000D02*
X129606000Y-50927000D01*
X129606000Y-50927000D02*
X129606000Y-81467000D01*
X129606000Y-49532000D02*
X129606000Y-50292000D01*
%TD*%
M02*
