M48
; DRILL file {KiCad (7.0.0)} date Thu Jun  1 22:41:52 2023
; FORMAT={-:-/ absolute / inch / decimal}
; #@! TF.CreationDate,2023-06-01T22:41:52-06:00
; #@! TF.GenerationSoftware,Kicad,Pcbnew,(7.0.0)
; #@! TF.FileFunction,Plated,1,2,PTH
FMAT,2
INCH
; #@! TA.AperFunction,Plated,PTH,ComponentDrill
T1C0.0276
%
G90
G05
T1
X3.925Y-2.005
X3.925Y-2.055
X3.925Y-2.105
X3.925Y-2.155
X3.925Y-2.205
X3.925Y-2.255
X3.925Y-2.305
X3.925Y-2.355
X3.925Y-2.405
X3.925Y-2.455
X3.925Y-2.505
X3.925Y-2.555
X3.925Y-2.605
X3.925Y-2.655
X3.925Y-2.705
X3.925Y-2.755
X3.925Y-2.805
X3.925Y-2.855
X3.925Y-2.905
X3.925Y-2.955
X3.925Y-3.005
X3.925Y-3.055
X3.925Y-3.105
X3.925Y-3.155
X3.925Y-3.205
X3.975Y-2.005
X3.975Y-2.055
X3.975Y-2.105
X3.975Y-2.155
X3.975Y-2.205
X3.975Y-2.255
X3.975Y-2.305
X3.975Y-2.355
X3.975Y-2.405
X3.975Y-2.455
X3.975Y-2.505
X3.975Y-2.555
X3.975Y-2.605
X3.975Y-2.655
X3.975Y-2.705
X3.975Y-2.755
X3.975Y-2.805
X3.975Y-2.855
X3.975Y-2.905
X3.975Y-2.955
X3.975Y-3.005
X3.975Y-3.055
X3.975Y-3.105
X3.975Y-3.155
X3.975Y-3.205
X4.41Y-3.63
X4.41Y-3.68
X4.41Y-3.73
X4.41Y-3.78
X4.41Y-3.83
X4.41Y-3.88
X4.41Y-3.93
X4.41Y-3.98
X4.445Y-1.52
X4.445Y-1.57
X4.445Y-1.62
X4.445Y-1.67
X5.14Y-1.98
X5.14Y-2.03
X5.14Y-2.08
X5.14Y-2.13
X5.14Y-2.18
X5.14Y-2.23
X5.14Y-2.28
X5.14Y-2.33
X5.14Y-2.38
X5.14Y-2.43
X5.14Y-2.48
X5.14Y-2.53
X5.14Y-2.58
X5.14Y-2.63
X5.14Y-2.68
X5.14Y-2.73
X5.14Y-2.78
X5.14Y-2.83
X5.14Y-2.88
X5.14Y-2.93
X5.14Y-2.98
X5.14Y-3.03
X5.14Y-3.08
X5.14Y-3.13
X5.14Y-3.18
X5.19Y-1.98
X5.19Y-2.03
X5.19Y-2.08
X5.19Y-2.13
X5.19Y-2.18
X5.19Y-2.23
X5.19Y-2.28
X5.19Y-2.33
X5.19Y-2.38
X5.19Y-2.43
X5.19Y-2.48
X5.19Y-2.53
X5.19Y-2.58
X5.19Y-2.63
X5.19Y-2.68
X5.19Y-2.73
X5.19Y-2.78
X5.19Y-2.83
X5.19Y-2.88
X5.19Y-2.93
X5.19Y-2.98
X5.19Y-3.03
X5.19Y-3.08
X5.19Y-3.13
X5.19Y-3.18
T0
M30
