%TF.GenerationSoftware,KiCad,Pcbnew,(7.0.0)*%
%TF.CreationDate,2023-06-01T22:42:06-06:00*%
%TF.ProjectId,STM32F4_lightsaber_shield,53544d33-3246-4345-9f6c-696768747361,rev?*%
%TF.SameCoordinates,Original*%
%TF.FileFunction,Soldermask,Top*%
%TF.FilePolarity,Negative*%
%FSLAX46Y46*%
G04 Gerber Fmt 4.6, Leading zero omitted, Abs format (unit mm)*
G04 Created by KiCad (PCBNEW (7.0.0)) date 2023-06-01 22:42:06*
%MOMM*%
%LPD*%
G01*
G04 APERTURE LIST*
G04 Aperture macros list*
%AMRoundRect*
0 Rectangle with rounded corners*
0 $1 Rounding radius*
0 $2 $3 $4 $5 $6 $7 $8 $9 X,Y pos of 4 corners*
0 Add a 4 corners polygon primitive as box body*
4,1,4,$2,$3,$4,$5,$6,$7,$8,$9,$2,$3,0*
0 Add four circle primitives for the rounded corners*
1,1,$1+$1,$2,$3*
1,1,$1+$1,$4,$5*
1,1,$1+$1,$6,$7*
1,1,$1+$1,$8,$9*
0 Add four rect primitives between the rounded corners*
20,1,$1+$1,$2,$3,$4,$5,0*
20,1,$1+$1,$4,$5,$6,$7,0*
20,1,$1+$1,$6,$7,$8,$9,0*
20,1,$1+$1,$8,$9,$2,$3,0*%
G04 Aperture macros list end*
%ADD10C,0.150000*%
%ADD11R,1.000000X1.000000*%
%ADD12O,1.000000X1.000000*%
%ADD13RoundRect,0.250000X0.262500X0.450000X-0.262500X0.450000X-0.262500X-0.450000X0.262500X-0.450000X0*%
G04 APERTURE END LIST*
D10*
X82677000Y-32512000D02*
X140208000Y-32512000D01*
X140208000Y-32512000D02*
X140208000Y-108458000D01*
X140208000Y-108458000D02*
X82677000Y-108458000D01*
X82677000Y-108458000D02*
X82677000Y-32512000D01*
D11*
%TO.C,J5*%
X112902999Y-38607999D03*
D12*
X112902999Y-39877999D03*
X112902999Y-41147999D03*
X112902999Y-42417999D03*
%TD*%
D13*
%TO.C,R2*%
X106576500Y-69235000D03*
X104751500Y-69235000D03*
%TD*%
%TO.C,R1*%
X106957500Y-65532000D03*
X105132500Y-65532000D03*
%TD*%
%TO.C,R3*%
X106680000Y-73279000D03*
X104855000Y-73279000D03*
%TD*%
D11*
%TO.C,J4*%
X112013999Y-92201999D03*
D12*
X112013999Y-93471999D03*
X112013999Y-94741999D03*
X112013999Y-96011999D03*
X112013999Y-97281999D03*
X112013999Y-98551999D03*
X112013999Y-99821999D03*
X112013999Y-101091999D03*
%TD*%
D11*
%TO.C,J1*%
X99694999Y-50926999D03*
D12*
X100964999Y-50926999D03*
X99694999Y-52196999D03*
X100964999Y-52196999D03*
X99694999Y-53466999D03*
X100964999Y-53466999D03*
X99694999Y-54736999D03*
X100964999Y-54736999D03*
X99694999Y-56006999D03*
X100964999Y-56006999D03*
X99694999Y-57276999D03*
X100964999Y-57276999D03*
X99694999Y-58546999D03*
X100964999Y-58546999D03*
X99694999Y-59816999D03*
X100964999Y-59816999D03*
X99694999Y-61086999D03*
X100964999Y-61086999D03*
X99694999Y-62356999D03*
X100964999Y-62356999D03*
X99694999Y-63626999D03*
X100964999Y-63626999D03*
X99694999Y-64896999D03*
X100964999Y-64896999D03*
X99694999Y-66166999D03*
X100964999Y-66166999D03*
X99694999Y-67436999D03*
X100964999Y-67436999D03*
X99694999Y-68706999D03*
X100964999Y-68706999D03*
X99694999Y-69976999D03*
X100964999Y-69976999D03*
X99694999Y-71246999D03*
X100964999Y-71246999D03*
X99694999Y-72516999D03*
X100964999Y-72516999D03*
X99694999Y-73786999D03*
X100964999Y-73786999D03*
X99694999Y-75056999D03*
X100964999Y-75056999D03*
X99694999Y-76326999D03*
X100964999Y-76326999D03*
X99694999Y-77596999D03*
X100964999Y-77596999D03*
X99694999Y-78866999D03*
X100964999Y-78866999D03*
X99694999Y-80136999D03*
X100964999Y-80136999D03*
X99694999Y-81406999D03*
X100964999Y-81406999D03*
%TD*%
D11*
%TO.C,J2*%
X130555999Y-50291999D03*
D12*
X131825999Y-50291999D03*
X130555999Y-51561999D03*
X131825999Y-51561999D03*
X130555999Y-52831999D03*
X131825999Y-52831999D03*
X130555999Y-54101999D03*
X131825999Y-54101999D03*
X130555999Y-55371999D03*
X131825999Y-55371999D03*
X130555999Y-56641999D03*
X131825999Y-56641999D03*
X130555999Y-57911999D03*
X131825999Y-57911999D03*
X130555999Y-59181999D03*
X131825999Y-59181999D03*
X130555999Y-60451999D03*
X131825999Y-60451999D03*
X130555999Y-61721999D03*
X131825999Y-61721999D03*
X130555999Y-62991999D03*
X131825999Y-62991999D03*
X130555999Y-64261999D03*
X131825999Y-64261999D03*
X130555999Y-65531999D03*
X131825999Y-65531999D03*
X130555999Y-66801999D03*
X131825999Y-66801999D03*
X130555999Y-68071999D03*
X131825999Y-68071999D03*
X130555999Y-69341999D03*
X131825999Y-69341999D03*
X130555999Y-70611999D03*
X131825999Y-70611999D03*
X130555999Y-71881999D03*
X131825999Y-71881999D03*
X130555999Y-73151999D03*
X131825999Y-73151999D03*
X130555999Y-74421999D03*
X131825999Y-74421999D03*
X130555999Y-75691999D03*
X131825999Y-75691999D03*
X130555999Y-76961999D03*
X131825999Y-76961999D03*
X130555999Y-78231999D03*
X131825999Y-78231999D03*
X130555999Y-79501999D03*
X131825999Y-79501999D03*
X130555999Y-80771999D03*
X131825999Y-80771999D03*
%TD*%
M02*
