%TF.GenerationSoftware,KiCad,Pcbnew,(7.0.0)*%
%TF.CreationDate,2023-06-01T22:42:05-06:00*%
%TF.ProjectId,STM32F4_lightsaber_shield,53544d33-3246-4345-9f6c-696768747361,rev?*%
%TF.SameCoordinates,Original*%
%TF.FileFunction,Copper,L1,Top*%
%TF.FilePolarity,Positive*%
%FSLAX46Y46*%
G04 Gerber Fmt 4.6, Leading zero omitted, Abs format (unit mm)*
G04 Created by KiCad (PCBNEW (7.0.0)) date 2023-06-01 22:42:05*
%MOMM*%
%LPD*%
G01*
G04 APERTURE LIST*
G04 Aperture macros list*
%AMRoundRect*
0 Rectangle with rounded corners*
0 $1 Rounding radius*
0 $2 $3 $4 $5 $6 $7 $8 $9 X,Y pos of 4 corners*
0 Add a 4 corners polygon primitive as box body*
4,1,4,$2,$3,$4,$5,$6,$7,$8,$9,$2,$3,0*
0 Add four circle primitives for the rounded corners*
1,1,$1+$1,$2,$3*
1,1,$1+$1,$4,$5*
1,1,$1+$1,$6,$7*
1,1,$1+$1,$8,$9*
0 Add four rect primitives between the rounded corners*
20,1,$1+$1,$2,$3,$4,$5,0*
20,1,$1+$1,$4,$5,$6,$7,0*
20,1,$1+$1,$6,$7,$8,$9,0*
20,1,$1+$1,$8,$9,$2,$3,0*%
G04 Aperture macros list end*
%TA.AperFunction,ComponentPad*%
%ADD10R,1.000000X1.000000*%
%TD*%
%TA.AperFunction,ComponentPad*%
%ADD11O,1.000000X1.000000*%
%TD*%
%TA.AperFunction,SMDPad,CuDef*%
%ADD12RoundRect,0.250000X0.262500X0.450000X-0.262500X0.450000X-0.262500X-0.450000X0.262500X-0.450000X0*%
%TD*%
%TA.AperFunction,Conductor*%
%ADD13C,0.250000*%
%TD*%
G04 APERTURE END LIST*
D10*
%TO.P,J5,1,Pin_1*%
%TO.N,PE9*%
X112902999Y-38607999D03*
D11*
%TO.P,J5,2,Pin_2*%
%TO.N,GND*%
X112902999Y-39877999D03*
%TO.P,J5,3,Pin_3*%
%TO.N,PE11*%
X112902999Y-41147999D03*
%TO.P,J5,4,Pin_4*%
%TO.N,PE13*%
X112902999Y-42417999D03*
%TD*%
D12*
%TO.P,R2,1*%
%TO.N,PE11*%
X106576500Y-69235000D03*
%TO.P,R2,2*%
%TO.N,Net-(J1-Pin_29)*%
X104751500Y-69235000D03*
%TD*%
%TO.P,R1,1*%
%TO.N,PE9*%
X106957500Y-65532000D03*
%TO.P,R1,2*%
%TO.N,Net-(J1-Pin_27)*%
X105132500Y-65532000D03*
%TD*%
%TO.P,R3,1*%
%TO.N,PE13*%
X106680000Y-73279000D03*
%TO.P,R3,2*%
%TO.N,Net-(J1-Pin_31)*%
X104855000Y-73279000D03*
%TD*%
D10*
%TO.P,J4,1,Pin_1*%
%TO.N,3.3V*%
X112013999Y-92201999D03*
D11*
%TO.P,J4,2,Pin_2*%
%TO.N,GND*%
X112013999Y-93471999D03*
%TO.P,J4,3,Pin_3*%
%TO.N,SCL3*%
X112013999Y-94741999D03*
%TO.P,J4,4,Pin_4*%
%TO.N,SDA3*%
X112013999Y-96011999D03*
%TO.P,J4,5,Pin_5*%
%TO.N,unconnected-(J4-Pin_5-Pad5)*%
X112013999Y-97281999D03*
%TO.P,J4,6,Pin_6*%
%TO.N,unconnected-(J4-Pin_6-Pad6)*%
X112013999Y-98551999D03*
%TO.P,J4,7,Pin_7*%
%TO.N,unconnected-(J4-Pin_7-Pad7)*%
X112013999Y-99821999D03*
%TO.P,J4,8,Pin_8*%
%TO.N,unconnected-(J4-Pin_8-Pad8)*%
X112013999Y-101091999D03*
%TD*%
D10*
%TO.P,J1,1,Pin_1*%
%TO.N,GND*%
X99694999Y-50926999D03*
D11*
%TO.P,J1,2,Pin_2*%
%TO.N,unconnected-(J1-Pin_2-Pad2)*%
X100964999Y-50926999D03*
%TO.P,J1,3,Pin_3*%
%TO.N,unconnected-(J1-Pin_3-Pad3)*%
X99694999Y-52196999D03*
%TO.P,J1,4,Pin_4*%
%TO.N,unconnected-(J1-Pin_4-Pad4)*%
X100964999Y-52196999D03*
%TO.P,J1,5,Pin_5*%
%TO.N,unconnected-(J1-Pin_5-Pad5)*%
X99694999Y-53466999D03*
%TO.P,J1,6,Pin_6*%
%TO.N,unconnected-(J1-Pin_6-Pad6)*%
X100964999Y-53466999D03*
%TO.P,J1,7,Pin_7*%
%TO.N,unconnected-(J1-Pin_7-Pad7)*%
X99694999Y-54736999D03*
%TO.P,J1,8,Pin_8*%
%TO.N,unconnected-(J1-Pin_8-Pad8)*%
X100964999Y-54736999D03*
%TO.P,J1,9,Pin_9*%
%TO.N,unconnected-(J1-Pin_9-Pad9)*%
X99694999Y-56006999D03*
%TO.P,J1,10,Pin_10*%
%TO.N,unconnected-(J1-Pin_10-Pad10)*%
X100964999Y-56006999D03*
%TO.P,J1,11,Pin_11*%
%TO.N,unconnected-(J1-Pin_11-Pad11)*%
X99694999Y-57276999D03*
%TO.P,J1,12,Pin_12*%
%TO.N,unconnected-(J1-Pin_12-Pad12)*%
X100964999Y-57276999D03*
%TO.P,J1,13,Pin_13*%
%TO.N,unconnected-(J1-Pin_13-Pad13)*%
X99694999Y-58546999D03*
%TO.P,J1,14,Pin_14*%
%TO.N,unconnected-(J1-Pin_14-Pad14)*%
X100964999Y-58546999D03*
%TO.P,J1,15,Pin_15*%
%TO.N,unconnected-(J1-Pin_15-Pad15)*%
X99694999Y-59816999D03*
%TO.P,J1,16,Pin_16*%
%TO.N,unconnected-(J1-Pin_16-Pad16)*%
X100964999Y-59816999D03*
%TO.P,J1,17,Pin_17*%
%TO.N,unconnected-(J1-Pin_17-Pad17)*%
X99694999Y-61086999D03*
%TO.P,J1,18,Pin_18*%
%TO.N,unconnected-(J1-Pin_18-Pad18)*%
X100964999Y-61086999D03*
%TO.P,J1,19,Pin_19*%
%TO.N,unconnected-(J1-Pin_19-Pad19)*%
X99694999Y-62356999D03*
%TO.P,J1,20,Pin_20*%
%TO.N,unconnected-(J1-Pin_20-Pad20)*%
X100964999Y-62356999D03*
%TO.P,J1,21,Pin_21*%
%TO.N,unconnected-(J1-Pin_21-Pad21)*%
X99694999Y-63626999D03*
%TO.P,J1,22,Pin_22*%
%TO.N,unconnected-(J1-Pin_22-Pad22)*%
X100964999Y-63626999D03*
%TO.P,J1,23,Pin_23*%
%TO.N,unconnected-(J1-Pin_23-Pad23)*%
X99694999Y-64896999D03*
%TO.P,J1,24,Pin_24*%
%TO.N,unconnected-(J1-Pin_24-Pad24)*%
X100964999Y-64896999D03*
%TO.P,J1,25,Pin_25*%
%TO.N,unconnected-(J1-Pin_25-Pad25)*%
X99694999Y-66166999D03*
%TO.P,J1,26,Pin_26*%
%TO.N,unconnected-(J1-Pin_26-Pad26)*%
X100964999Y-66166999D03*
%TO.P,J1,27,Pin_27*%
%TO.N,Net-(J1-Pin_27)*%
X99694999Y-67436999D03*
%TO.P,J1,28,Pin_28*%
%TO.N,unconnected-(J1-Pin_28-Pad28)*%
X100964999Y-67436999D03*
%TO.P,J1,29,Pin_29*%
%TO.N,Net-(J1-Pin_29)*%
X99694999Y-68706999D03*
%TO.P,J1,30,Pin_30*%
%TO.N,unconnected-(J1-Pin_30-Pad30)*%
X100964999Y-68706999D03*
%TO.P,J1,31,Pin_31*%
%TO.N,Net-(J1-Pin_31)*%
X99694999Y-69976999D03*
%TO.P,J1,32,Pin_32*%
%TO.N,unconnected-(J1-Pin_32-Pad32)*%
X100964999Y-69976999D03*
%TO.P,J1,33,Pin_33*%
%TO.N,unconnected-(J1-Pin_33-Pad33)*%
X99694999Y-71246999D03*
%TO.P,J1,34,Pin_34*%
%TO.N,unconnected-(J1-Pin_34-Pad34)*%
X100964999Y-71246999D03*
%TO.P,J1,35,Pin_35*%
%TO.N,unconnected-(J1-Pin_35-Pad35)*%
X99694999Y-72516999D03*
%TO.P,J1,36,Pin_36*%
%TO.N,unconnected-(J1-Pin_36-Pad36)*%
X100964999Y-72516999D03*
%TO.P,J1,37,Pin_37*%
%TO.N,unconnected-(J1-Pin_37-Pad37)*%
X99694999Y-73786999D03*
%TO.P,J1,38,Pin_38*%
%TO.N,unconnected-(J1-Pin_38-Pad38)*%
X100964999Y-73786999D03*
%TO.P,J1,39,Pin_39*%
%TO.N,unconnected-(J1-Pin_39-Pad39)*%
X99694999Y-75056999D03*
%TO.P,J1,40,Pin_40*%
%TO.N,unconnected-(J1-Pin_40-Pad40)*%
X100964999Y-75056999D03*
%TO.P,J1,41,Pin_41*%
%TO.N,unconnected-(J1-Pin_41-Pad41)*%
X99694999Y-76326999D03*
%TO.P,J1,42,Pin_42*%
%TO.N,unconnected-(J1-Pin_42-Pad42)*%
X100964999Y-76326999D03*
%TO.P,J1,43,Pin_43*%
%TO.N,unconnected-(J1-Pin_43-Pad43)*%
X99694999Y-77596999D03*
%TO.P,J1,44,Pin_44*%
%TO.N,unconnected-(J1-Pin_44-Pad44)*%
X100964999Y-77596999D03*
%TO.P,J1,45,Pin_45*%
%TO.N,unconnected-(J1-Pin_45-Pad45)*%
X99694999Y-78866999D03*
%TO.P,J1,46,Pin_46*%
%TO.N,unconnected-(J1-Pin_46-Pad46)*%
X100964999Y-78866999D03*
%TO.P,J1,47,Pin_47*%
%TO.N,unconnected-(J1-Pin_47-Pad47)*%
X99694999Y-80136999D03*
%TO.P,J1,48,Pin_48*%
%TO.N,unconnected-(J1-Pin_48-Pad48)*%
X100964999Y-80136999D03*
%TO.P,J1,49,Pin_49*%
%TO.N,unconnected-(J1-Pin_49-Pad49)*%
X99694999Y-81406999D03*
%TO.P,J1,50,Pin_50*%
%TO.N,unconnected-(J1-Pin_50-Pad50)*%
X100964999Y-81406999D03*
%TD*%
D10*
%TO.P,J2,1,Pin_1*%
%TO.N,unconnected-(J2-Pin_1-Pad1)*%
X130555999Y-50291999D03*
D11*
%TO.P,J2,2,Pin_2*%
%TO.N,GND*%
X131825999Y-50291999D03*
%TO.P,J2,3,Pin_3*%
%TO.N,unconnected-(J2-Pin_3-Pad3)*%
X130555999Y-51561999D03*
%TO.P,J2,4,Pin_4*%
%TO.N,unconnected-(J2-Pin_4-Pad4)*%
X131825999Y-51561999D03*
%TO.P,J2,5,Pin_5*%
%TO.N,unconnected-(J2-Pin_5-Pad5)*%
X130555999Y-52831999D03*
%TO.P,J2,6,Pin_6*%
%TO.N,3.3V*%
X131825999Y-52831999D03*
%TO.P,J2,7,Pin_7*%
%TO.N,unconnected-(J2-Pin_7-Pad7)*%
X130555999Y-54101999D03*
%TO.P,J2,8,Pin_8*%
%TO.N,unconnected-(J2-Pin_8-Pad8)*%
X131825999Y-54101999D03*
%TO.P,J2,9,Pin_9*%
%TO.N,unconnected-(J2-Pin_9-Pad9)*%
X130555999Y-55371999D03*
%TO.P,J2,10,Pin_10*%
%TO.N,unconnected-(J2-Pin_10-Pad10)*%
X131825999Y-55371999D03*
%TO.P,J2,11,Pin_11*%
%TO.N,unconnected-(J2-Pin_11-Pad11)*%
X130555999Y-56641999D03*
%TO.P,J2,12,Pin_12*%
%TO.N,unconnected-(J2-Pin_12-Pad12)*%
X131825999Y-56641999D03*
%TO.P,J2,13,Pin_13*%
%TO.N,unconnected-(J2-Pin_13-Pad13)*%
X130555999Y-57911999D03*
%TO.P,J2,14,Pin_14*%
%TO.N,unconnected-(J2-Pin_14-Pad14)*%
X131825999Y-57911999D03*
%TO.P,J2,15,Pin_15*%
%TO.N,unconnected-(J2-Pin_15-Pad15)*%
X130555999Y-59181999D03*
%TO.P,J2,16,Pin_16*%
%TO.N,unconnected-(J2-Pin_16-Pad16)*%
X131825999Y-59181999D03*
%TO.P,J2,17,Pin_17*%
%TO.N,unconnected-(J2-Pin_17-Pad17)*%
X130555999Y-60451999D03*
%TO.P,J2,18,Pin_18*%
%TO.N,unconnected-(J2-Pin_18-Pad18)*%
X131825999Y-60451999D03*
%TO.P,J2,19,Pin_19*%
%TO.N,unconnected-(J2-Pin_19-Pad19)*%
X130555999Y-61721999D03*
%TO.P,J2,20,Pin_20*%
%TO.N,unconnected-(J2-Pin_20-Pad20)*%
X131825999Y-61721999D03*
%TO.P,J2,21,Pin_21*%
%TO.N,unconnected-(J2-Pin_21-Pad21)*%
X130555999Y-62991999D03*
%TO.P,J2,22,Pin_22*%
%TO.N,unconnected-(J2-Pin_22-Pad22)*%
X131825999Y-62991999D03*
%TO.P,J2,23,Pin_23*%
%TO.N,unconnected-(J2-Pin_23-Pad23)*%
X130555999Y-64261999D03*
%TO.P,J2,24,Pin_24*%
%TO.N,unconnected-(J2-Pin_24-Pad24)*%
X131825999Y-64261999D03*
%TO.P,J2,25,Pin_25*%
%TO.N,unconnected-(J2-Pin_25-Pad25)*%
X130555999Y-65531999D03*
%TO.P,J2,26,Pin_26*%
%TO.N,unconnected-(J2-Pin_26-Pad26)*%
X131825999Y-65531999D03*
%TO.P,J2,27,Pin_27*%
%TO.N,unconnected-(J2-Pin_27-Pad27)*%
X130555999Y-66801999D03*
%TO.P,J2,28,Pin_28*%
%TO.N,unconnected-(J2-Pin_28-Pad28)*%
X131825999Y-66801999D03*
%TO.P,J2,29,Pin_29*%
%TO.N,unconnected-(J2-Pin_29-Pad29)*%
X130555999Y-68071999D03*
%TO.P,J2,30,Pin_30*%
%TO.N,unconnected-(J2-Pin_30-Pad30)*%
X131825999Y-68071999D03*
%TO.P,J2,31,Pin_31*%
%TO.N,unconnected-(J2-Pin_31-Pad31)*%
X130555999Y-69341999D03*
%TO.P,J2,32,Pin_32*%
%TO.N,unconnected-(J2-Pin_32-Pad32)*%
X131825999Y-69341999D03*
%TO.P,J2,33,Pin_33*%
%TO.N,unconnected-(J2-Pin_33-Pad33)*%
X130555999Y-70611999D03*
%TO.P,J2,34,Pin_34*%
%TO.N,unconnected-(J2-Pin_34-Pad34)*%
X131825999Y-70611999D03*
%TO.P,J2,35,Pin_35*%
%TO.N,unconnected-(J2-Pin_35-Pad35)*%
X130555999Y-71881999D03*
%TO.P,J2,36,Pin_36*%
%TO.N,unconnected-(J2-Pin_36-Pad36)*%
X131825999Y-71881999D03*
%TO.P,J2,37,Pin_37*%
%TO.N,unconnected-(J2-Pin_37-Pad37)*%
X130555999Y-73151999D03*
%TO.P,J2,38,Pin_38*%
%TO.N,unconnected-(J2-Pin_38-Pad38)*%
X131825999Y-73151999D03*
%TO.P,J2,39,Pin_39*%
%TO.N,unconnected-(J2-Pin_39-Pad39)*%
X130555999Y-74421999D03*
%TO.P,J2,40,Pin_40*%
%TO.N,unconnected-(J2-Pin_40-Pad40)*%
X131825999Y-74421999D03*
%TO.P,J2,41,Pin_41*%
%TO.N,unconnected-(J2-Pin_41-Pad41)*%
X130555999Y-75691999D03*
%TO.P,J2,42,Pin_42*%
%TO.N,unconnected-(J2-Pin_42-Pad42)*%
X131825999Y-75691999D03*
%TO.P,J2,43,Pin_43*%
%TO.N,SCL3*%
X130555999Y-76961999D03*
%TO.P,J2,44,Pin_44*%
%TO.N,unconnected-(J2-Pin_44-Pad44)*%
X131825999Y-76961999D03*
%TO.P,J2,45,Pin_45*%
%TO.N,unconnected-(J2-Pin_45-Pad45)*%
X130555999Y-78231999D03*
%TO.P,J2,46,Pin_46*%
%TO.N,SDA3*%
X131825999Y-78231999D03*
%TO.P,J2,47,Pin_47*%
%TO.N,unconnected-(J2-Pin_47-Pad47)*%
X130555999Y-79501999D03*
%TO.P,J2,48,Pin_48*%
%TO.N,unconnected-(J2-Pin_48-Pad48)*%
X131825999Y-79501999D03*
%TO.P,J2,49,Pin_49*%
%TO.N,unconnected-(J2-Pin_49-Pad49)*%
X130555999Y-80771999D03*
%TO.P,J2,50,Pin_50*%
%TO.N,unconnected-(J2-Pin_50-Pad50)*%
X131825999Y-80771999D03*
%TD*%
D13*
%TO.N,PE9*%
X110363000Y-38608000D02*
X112903000Y-38608000D01*
X106957500Y-65532000D02*
X106957500Y-42013500D01*
X106957500Y-42013500D02*
X110363000Y-38608000D01*
%TO.N,Net-(J1-Pin_27)*%
X103227500Y-67437000D02*
X99695000Y-67437000D01*
X105132500Y-65532000D02*
X103227500Y-67437000D01*
%TO.N,PE11*%
X110617000Y-41148000D02*
X112903000Y-41148000D01*
X108458000Y-43307000D02*
X110617000Y-41148000D01*
X106576500Y-69235000D02*
X108458000Y-67353500D01*
X108458000Y-67353500D02*
X108458000Y-43307000D01*
%TO.N,Net-(J1-Pin_29)*%
X104223500Y-68707000D02*
X99695000Y-68707000D01*
X104751500Y-69235000D02*
X104223500Y-68707000D01*
%TO.N,PE13*%
X109855000Y-45466000D02*
X112903000Y-42418000D01*
X106680000Y-73279000D02*
X109855000Y-70104000D01*
X109855000Y-70104000D02*
X109855000Y-45466000D01*
%TO.N,Net-(J1-Pin_31)*%
X104855000Y-73279000D02*
X101553000Y-69977000D01*
X101553000Y-69977000D02*
X99695000Y-69977000D01*
%TO.N,GND*%
X94234000Y-82042000D02*
X94234000Y-50292000D01*
X94234000Y-50292000D02*
X96266000Y-48260000D01*
X105664000Y-93472000D02*
X94234000Y-82042000D01*
X112014000Y-93472000D02*
X105664000Y-93472000D01*
X99441000Y-47625000D02*
X99695000Y-47879000D01*
X96266000Y-47625000D02*
X99441000Y-47625000D01*
X99695000Y-47879000D02*
X99695000Y-50927000D01*
X112903000Y-39878000D02*
X118872000Y-39878000D01*
X96266000Y-48260000D02*
X96266000Y-47625000D01*
X118872000Y-39878000D02*
X129286000Y-50292000D01*
%TO.N,unconnected-(J1-Pin_49-Pad49)*%
X99441000Y-81776000D02*
X99441000Y-81026000D01*
%TO.N,3.3V*%
X119380000Y-52832000D02*
X129286000Y-52832000D01*
X112014000Y-92202000D02*
X112014000Y-60198000D01*
X112014000Y-60198000D02*
X119380000Y-52832000D01*
%TO.N,SCL3*%
X133096000Y-78740000D02*
X131318000Y-76962000D01*
X133096000Y-84455000D02*
X133096000Y-78740000D01*
X131318000Y-76962000D02*
X130556000Y-76962000D01*
X112014000Y-94742000D02*
X122809000Y-94742000D01*
X122809000Y-94742000D02*
X133096000Y-84455000D01*
%TD*%
M02*
