%TF.GenerationSoftware,KiCad,Pcbnew,(7.0.0)*%
%TF.CreationDate,2023-04-20T22:31:56-06:00*%
%TF.ProjectId,Phase_B_PCB_Prototype,50686173-655f-4425-9f50-43425f50726f,rev?*%
%TF.SameCoordinates,Original*%
%TF.FileFunction,Soldermask,Top*%
%TF.FilePolarity,Negative*%
%FSLAX46Y46*%
G04 Gerber Fmt 4.6, Leading zero omitted, Abs format (unit mm)*
G04 Created by KiCad (PCBNEW (7.0.0)) date 2023-04-20 22:31:56*
%MOMM*%
%LPD*%
G01*
G04 APERTURE LIST*
G04 Aperture macros list*
%AMRoundRect*
0 Rectangle with rounded corners*
0 $1 Rounding radius*
0 $2 $3 $4 $5 $6 $7 $8 $9 X,Y pos of 4 corners*
0 Add a 4 corners polygon primitive as box body*
4,1,4,$2,$3,$4,$5,$6,$7,$8,$9,$2,$3,0*
0 Add four circle primitives for the rounded corners*
1,1,$1+$1,$2,$3*
1,1,$1+$1,$4,$5*
1,1,$1+$1,$6,$7*
1,1,$1+$1,$8,$9*
0 Add four rect primitives between the rounded corners*
20,1,$1+$1,$2,$3,$4,$5,0*
20,1,$1+$1,$4,$5,$6,$7,0*
20,1,$1+$1,$6,$7,$8,$9,0*
20,1,$1+$1,$8,$9,$2,$3,0*%
G04 Aperture macros list end*
%ADD10C,3.200000*%
%ADD11C,1.500000*%
%ADD12R,1.500000X1.500000*%
%ADD13RoundRect,0.225000X-0.225000X-0.250000X0.225000X-0.250000X0.225000X0.250000X-0.225000X0.250000X0*%
%ADD14RoundRect,0.225000X-0.250000X0.225000X-0.250000X-0.225000X0.250000X-0.225000X0.250000X0.225000X0*%
%ADD15R,1.000000X0.700000*%
%ADD16R,1.400000X1.200000*%
%ADD17RoundRect,0.250000X0.262500X0.450000X-0.262500X0.450000X-0.262500X-0.450000X0.262500X-0.450000X0*%
%ADD18R,2.000000X2.000000*%
%ADD19C,2.000000*%
%ADD20RoundRect,0.150000X-0.512500X-0.150000X0.512500X-0.150000X0.512500X0.150000X-0.512500X0.150000X0*%
%ADD21O,1.700000X1.700000*%
%ADD22R,1.700000X1.700000*%
%ADD23RoundRect,0.225000X0.225000X0.250000X-0.225000X0.250000X-0.225000X-0.250000X0.225000X-0.250000X0*%
%ADD24RoundRect,0.200000X-0.275000X0.200000X-0.275000X-0.200000X0.275000X-0.200000X0.275000X0.200000X0*%
%ADD25R,1.500000X0.550000*%
%ADD26R,0.550000X1.500000*%
%ADD27RoundRect,0.250000X-0.262500X-0.450000X0.262500X-0.450000X0.262500X0.450000X-0.262500X0.450000X0*%
%ADD28RoundRect,0.200000X-0.200000X-0.275000X0.200000X-0.275000X0.200000X0.275000X-0.200000X0.275000X0*%
%ADD29RoundRect,0.243750X-0.243750X-0.456250X0.243750X-0.456250X0.243750X0.456250X-0.243750X0.456250X0*%
%ADD30RoundRect,0.150000X0.150000X-0.512500X0.150000X0.512500X-0.150000X0.512500X-0.150000X-0.512500X0*%
%ADD31RoundRect,0.225000X0.250000X-0.225000X0.250000X0.225000X-0.250000X0.225000X-0.250000X-0.225000X0*%
%ADD32RoundRect,0.243750X0.456250X-0.243750X0.456250X0.243750X-0.456250X0.243750X-0.456250X-0.243750X0*%
%ADD33RoundRect,0.200000X0.275000X-0.200000X0.275000X0.200000X-0.275000X0.200000X-0.275000X-0.200000X0*%
%ADD34R,2.000000X1.500000*%
%ADD35RoundRect,0.250000X1.450000X-0.312500X1.450000X0.312500X-1.450000X0.312500X-1.450000X-0.312500X0*%
%ADD36RoundRect,0.250000X-0.450000X0.262500X-0.450000X-0.262500X0.450000X-0.262500X0.450000X0.262500X0*%
%ADD37RoundRect,0.100000X-0.637500X-0.100000X0.637500X-0.100000X0.637500X0.100000X-0.637500X0.100000X0*%
%ADD38R,2.000000X1.700000*%
%ADD39R,0.500000X2.000000*%
%ADD40C,1.000000*%
G04 APERTURE END LIST*
D10*
%TO.C,REF\u002A\u002A*%
X128270000Y-117094000D03*
%TD*%
%TO.C,REF\u002A\u002A*%
X92837000Y-117348000D03*
%TD*%
%TO.C,REF\u002A\u002A*%
X151892000Y-61468000D03*
%TD*%
%TO.C,REF\u002A\u002A*%
X73660000Y-61341000D03*
%TD*%
D11*
%TO.C,U1*%
X107442000Y-80518000D03*
X104902000Y-80518000D03*
X102362000Y-80518000D03*
X99822000Y-80518000D03*
X97282000Y-80518000D03*
X94742000Y-80518000D03*
X94742000Y-65278000D03*
X97282000Y-65278000D03*
X99822000Y-65278000D03*
X102362000Y-65278000D03*
X104902000Y-65278000D03*
D12*
X107441999Y-65277999D03*
%TD*%
D13*
%TO.C,C9*%
X141719000Y-99822000D03*
X143269000Y-99822000D03*
%TD*%
D14*
%TO.C,C1*%
X136779000Y-81052000D03*
X136779000Y-82602000D03*
%TD*%
D15*
%TO.C,S3*%
X97615499Y-108512999D03*
X97615499Y-112212999D03*
X103615499Y-108512999D03*
X103615499Y-112212999D03*
%TD*%
D13*
%TO.C,C15*%
X123558000Y-107696000D03*
X125108000Y-107696000D03*
%TD*%
D14*
%TO.C,C14*%
X82169000Y-110284000D03*
X82169000Y-111834000D03*
%TD*%
D16*
%TO.C,Y1*%
X132630999Y-82676999D03*
X134830999Y-82676999D03*
X134830999Y-80976999D03*
X132630999Y-80976999D03*
%TD*%
D17*
%TO.C,R12*%
X110593500Y-117885000D03*
X112418500Y-117885000D03*
%TD*%
%TO.C,R11*%
X110593500Y-115951000D03*
X112418500Y-115951000D03*
%TD*%
D18*
%TO.C,LS1*%
X136534999Y-72770999D03*
D19*
X144135000Y-72771000D03*
%TD*%
D20*
%TO.C,U5*%
X84206500Y-110175000D03*
X84206500Y-111125000D03*
X84206500Y-112075000D03*
X86481500Y-112075000D03*
X86481500Y-110175000D03*
%TD*%
D17*
%TO.C,R9*%
X110593500Y-111887000D03*
X112418500Y-111887000D03*
%TD*%
D21*
%TO.C,J3*%
X74314999Y-114182999D03*
X76854999Y-114182999D03*
X74314999Y-111642999D03*
X76854999Y-111642999D03*
X74314999Y-109102999D03*
X76854999Y-109102999D03*
X74314999Y-106562999D03*
D22*
X76854999Y-106562999D03*
%TD*%
D23*
%TO.C,C13*%
X86621500Y-108585000D03*
X85071500Y-108585000D03*
%TD*%
D13*
%TO.C,C3*%
X141719000Y-98298000D03*
X143269000Y-98298000D03*
%TD*%
%TO.C,C10*%
X141084000Y-95123000D03*
X142634000Y-95123000D03*
%TD*%
D24*
%TO.C,R17*%
X79375000Y-111569000D03*
X79375000Y-109919000D03*
%TD*%
D25*
%TO.C,U3*%
X138922999Y-98995999D03*
X138922999Y-98195999D03*
X138922999Y-97395999D03*
X138922999Y-96595999D03*
X138922999Y-95795999D03*
X138922999Y-94995999D03*
X138922999Y-94195999D03*
X138922999Y-93395999D03*
X138922999Y-92595999D03*
X138922999Y-91795999D03*
X138922999Y-90995999D03*
D26*
X137222999Y-89295999D03*
X136422999Y-89295999D03*
X135622999Y-89295999D03*
X134822999Y-89295999D03*
X134022999Y-89295999D03*
X133222999Y-89295999D03*
X132422999Y-89295999D03*
X131622999Y-89295999D03*
X130822999Y-89295999D03*
X130022999Y-89295999D03*
X129222999Y-89295999D03*
D25*
X127522999Y-90995999D03*
X127522999Y-91795999D03*
X127522999Y-92595999D03*
X127522999Y-93395999D03*
X127522999Y-94195999D03*
X127522999Y-94995999D03*
X127522999Y-95795999D03*
X127522999Y-96595999D03*
X127522999Y-97395999D03*
X127522999Y-98195999D03*
X127522999Y-98995999D03*
D26*
X129222999Y-100695999D03*
X130022999Y-100695999D03*
X130822999Y-100695999D03*
X131622999Y-100695999D03*
X132422999Y-100695999D03*
X133222999Y-100695999D03*
X134022999Y-100695999D03*
X134822999Y-100695999D03*
X135622999Y-100695999D03*
X136422999Y-100695999D03*
X137222999Y-100695999D03*
%TD*%
D13*
%TO.C,C7*%
X141084000Y-93599000D03*
X142634000Y-93599000D03*
%TD*%
D27*
%TO.C,R5*%
X125372500Y-109474000D03*
X123547500Y-109474000D03*
%TD*%
D28*
%TO.C,R2*%
X118174000Y-88138000D03*
X119824000Y-88138000D03*
%TD*%
D29*
%TO.C,D2*%
X84231000Y-86360000D03*
X86106000Y-86360000D03*
%TD*%
D24*
%TO.C,R1*%
X99949000Y-94044000D03*
X99949000Y-95694000D03*
%TD*%
D14*
%TO.C,C11*%
X135636000Y-102730000D03*
X135636000Y-104280000D03*
%TD*%
D22*
%TO.C,J2*%
X149478999Y-81929999D03*
D21*
X146938999Y-81929999D03*
X149478999Y-84469999D03*
X146938999Y-84469999D03*
X149478999Y-87009999D03*
X146938999Y-87009999D03*
%TD*%
D30*
%TO.C,U4*%
X145730000Y-103694500D03*
X146680000Y-103694500D03*
X147630000Y-103694500D03*
X147630000Y-101419500D03*
X146680000Y-101419500D03*
X145730000Y-101419500D03*
%TD*%
D17*
%TO.C,R4*%
X89455000Y-86360000D03*
X87630000Y-86360000D03*
%TD*%
D31*
%TO.C,C12*%
X88259500Y-110538000D03*
X88259500Y-112088000D03*
%TD*%
D23*
%TO.C,C5*%
X128791000Y-102616000D03*
X127241000Y-102616000D03*
%TD*%
D32*
%TO.C,D3*%
X139187000Y-114446500D03*
X139187000Y-116321500D03*
%TD*%
D31*
%TO.C,C8*%
X135636000Y-87249000D03*
X135636000Y-85699000D03*
%TD*%
D29*
%TO.C,D1*%
X94397000Y-86360000D03*
X92522000Y-86360000D03*
%TD*%
D33*
%TO.C,R15*%
X147320000Y-106427000D03*
X147320000Y-108077000D03*
%TD*%
D34*
%TO.C,S1*%
X82765999Y-93892999D03*
X97065999Y-93892999D03*
X82765999Y-98892999D03*
X97065999Y-98892999D03*
%TD*%
D17*
%TO.C,R3*%
X95988500Y-86360000D03*
X97813500Y-86360000D03*
%TD*%
D35*
%TO.C,F1*%
X142997000Y-103594500D03*
X142997000Y-107869500D03*
%TD*%
D24*
%TO.C,R13*%
X95789500Y-112204000D03*
X95789500Y-110554000D03*
%TD*%
D23*
%TO.C,C6*%
X125108000Y-91948000D03*
X123558000Y-91948000D03*
%TD*%
D34*
%TO.C,S2*%
X104101999Y-93932999D03*
X118401999Y-93932999D03*
X104101999Y-98932999D03*
X118401999Y-98932999D03*
%TD*%
D17*
%TO.C,R7*%
X110490000Y-107823000D03*
X112315000Y-107823000D03*
%TD*%
D31*
%TO.C,C2*%
X130683000Y-82602000D03*
X130683000Y-81052000D03*
%TD*%
D36*
%TO.C,R14*%
X139187000Y-112935500D03*
X139187000Y-111110500D03*
%TD*%
D13*
%TO.C,C4*%
X137782000Y-102616000D03*
X139332000Y-102616000D03*
%TD*%
D17*
%TO.C,R8*%
X110490000Y-109855000D03*
X112315000Y-109855000D03*
%TD*%
D37*
%TO.C,U2*%
X115501500Y-108596000D03*
X115501500Y-109246000D03*
X115501500Y-109896000D03*
X115501500Y-110546000D03*
X115501500Y-111196000D03*
X115501500Y-111846000D03*
X115501500Y-112496000D03*
X115501500Y-113146000D03*
X121226500Y-113146000D03*
X121226500Y-112496000D03*
X121226500Y-111846000D03*
X121226500Y-111196000D03*
X121226500Y-110546000D03*
X121226500Y-109896000D03*
X121226500Y-109246000D03*
X121226500Y-108596000D03*
%TD*%
D17*
%TO.C,R6*%
X110490000Y-105791000D03*
X112315000Y-105791000D03*
%TD*%
D38*
%TO.C,J1*%
X151256999Y-116201999D03*
X151256999Y-110751999D03*
X142356999Y-116201999D03*
X142356999Y-110751999D03*
D39*
X148406999Y-110651999D03*
X147606999Y-110651999D03*
X146806999Y-110651999D03*
X146006999Y-110651999D03*
X145206999Y-110651999D03*
D40*
X149007000Y-113352000D03*
X144607000Y-113352000D03*
%TD*%
D17*
%TO.C,R10*%
X110593500Y-113919000D03*
X112418500Y-113919000D03*
%TD*%
D33*
%TO.C,R16*%
X145796000Y-106427000D03*
X145796000Y-108077000D03*
%TD*%
M02*
