%TF.GenerationSoftware,KiCad,Pcbnew,(7.0.0)*%
%TF.CreationDate,2023-04-20T12:18:00-06:00*%
%TF.ProjectId,Phase_B_PCB_Prototype,50686173-655f-4425-9f50-43425f50726f,rev?*%
%TF.SameCoordinates,Original*%
%TF.FileFunction,Copper,L1,Top*%
%TF.FilePolarity,Positive*%
%FSLAX46Y46*%
G04 Gerber Fmt 4.6, Leading zero omitted, Abs format (unit mm)*
G04 Created by KiCad (PCBNEW (7.0.0)) date 2023-04-20 12:18:00*
%MOMM*%
%LPD*%
G01*
G04 APERTURE LIST*
G04 Aperture macros list*
%AMRoundRect*
0 Rectangle with rounded corners*
0 $1 Rounding radius*
0 $2 $3 $4 $5 $6 $7 $8 $9 X,Y pos of 4 corners*
0 Add a 4 corners polygon primitive as box body*
4,1,4,$2,$3,$4,$5,$6,$7,$8,$9,$2,$3,0*
0 Add four circle primitives for the rounded corners*
1,1,$1+$1,$2,$3*
1,1,$1+$1,$4,$5*
1,1,$1+$1,$6,$7*
1,1,$1+$1,$8,$9*
0 Add four rect primitives between the rounded corners*
20,1,$1+$1,$2,$3,$4,$5,0*
20,1,$1+$1,$4,$5,$6,$7,0*
20,1,$1+$1,$6,$7,$8,$9,0*
20,1,$1+$1,$8,$9,$2,$3,0*%
G04 Aperture macros list end*
%TA.AperFunction,SMDPad,CuDef*%
%ADD10RoundRect,0.225000X-0.250000X0.225000X-0.250000X-0.225000X0.250000X-0.225000X0.250000X0.225000X0*%
%TD*%
%TA.AperFunction,SMDPad,CuDef*%
%ADD11R,1.000000X0.700000*%
%TD*%
%TA.AperFunction,SMDPad,CuDef*%
%ADD12RoundRect,0.225000X-0.225000X-0.250000X0.225000X-0.250000X0.225000X0.250000X-0.225000X0.250000X0*%
%TD*%
%TA.AperFunction,SMDPad,CuDef*%
%ADD13R,1.400000X1.200000*%
%TD*%
%TA.AperFunction,SMDPad,CuDef*%
%ADD14RoundRect,0.250000X0.262500X0.450000X-0.262500X0.450000X-0.262500X-0.450000X0.262500X-0.450000X0*%
%TD*%
%TA.AperFunction,ComponentPad*%
%ADD15C,1.500000*%
%TD*%
%TA.AperFunction,ComponentPad*%
%ADD16R,1.500000X1.500000*%
%TD*%
%TA.AperFunction,ComponentPad*%
%ADD17R,2.000000X2.000000*%
%TD*%
%TA.AperFunction,ComponentPad*%
%ADD18C,2.000000*%
%TD*%
%TA.AperFunction,SMDPad,CuDef*%
%ADD19RoundRect,0.150000X-0.512500X-0.150000X0.512500X-0.150000X0.512500X0.150000X-0.512500X0.150000X0*%
%TD*%
%TA.AperFunction,ComponentPad*%
%ADD20O,1.700000X1.700000*%
%TD*%
%TA.AperFunction,ComponentPad*%
%ADD21R,1.700000X1.700000*%
%TD*%
%TA.AperFunction,SMDPad,CuDef*%
%ADD22RoundRect,0.225000X0.225000X0.250000X-0.225000X0.250000X-0.225000X-0.250000X0.225000X-0.250000X0*%
%TD*%
%TA.AperFunction,SMDPad,CuDef*%
%ADD23RoundRect,0.200000X-0.275000X0.200000X-0.275000X-0.200000X0.275000X-0.200000X0.275000X0.200000X0*%
%TD*%
%TA.AperFunction,SMDPad,CuDef*%
%ADD24R,1.500000X0.550000*%
%TD*%
%TA.AperFunction,SMDPad,CuDef*%
%ADD25R,0.550000X1.500000*%
%TD*%
%TA.AperFunction,SMDPad,CuDef*%
%ADD26RoundRect,0.250000X-0.262500X-0.450000X0.262500X-0.450000X0.262500X0.450000X-0.262500X0.450000X0*%
%TD*%
%TA.AperFunction,SMDPad,CuDef*%
%ADD27RoundRect,0.200000X-0.200000X-0.275000X0.200000X-0.275000X0.200000X0.275000X-0.200000X0.275000X0*%
%TD*%
%TA.AperFunction,SMDPad,CuDef*%
%ADD28RoundRect,0.243750X-0.243750X-0.456250X0.243750X-0.456250X0.243750X0.456250X-0.243750X0.456250X0*%
%TD*%
%TA.AperFunction,SMDPad,CuDef*%
%ADD29RoundRect,0.150000X0.150000X-0.512500X0.150000X0.512500X-0.150000X0.512500X-0.150000X-0.512500X0*%
%TD*%
%TA.AperFunction,SMDPad,CuDef*%
%ADD30RoundRect,0.225000X0.250000X-0.225000X0.250000X0.225000X-0.250000X0.225000X-0.250000X-0.225000X0*%
%TD*%
%TA.AperFunction,SMDPad,CuDef*%
%ADD31RoundRect,0.243750X0.456250X-0.243750X0.456250X0.243750X-0.456250X0.243750X-0.456250X-0.243750X0*%
%TD*%
%TA.AperFunction,SMDPad,CuDef*%
%ADD32RoundRect,0.200000X0.275000X-0.200000X0.275000X0.200000X-0.275000X0.200000X-0.275000X-0.200000X0*%
%TD*%
%TA.AperFunction,SMDPad,CuDef*%
%ADD33R,2.000000X1.500000*%
%TD*%
%TA.AperFunction,SMDPad,CuDef*%
%ADD34RoundRect,0.250000X1.450000X-0.312500X1.450000X0.312500X-1.450000X0.312500X-1.450000X-0.312500X0*%
%TD*%
%TA.AperFunction,SMDPad,CuDef*%
%ADD35RoundRect,0.250000X-0.450000X0.262500X-0.450000X-0.262500X0.450000X-0.262500X0.450000X0.262500X0*%
%TD*%
%TA.AperFunction,SMDPad,CuDef*%
%ADD36RoundRect,0.100000X-0.637500X-0.100000X0.637500X-0.100000X0.637500X0.100000X-0.637500X0.100000X0*%
%TD*%
%TA.AperFunction,SMDPad,CuDef*%
%ADD37R,2.000000X1.700000*%
%TD*%
%TA.AperFunction,SMDPad,CuDef*%
%ADD38R,0.500000X2.000000*%
%TD*%
%TA.AperFunction,ViaPad*%
%ADD39C,0.600000*%
%TD*%
%TA.AperFunction,ViaPad*%
%ADD40C,1.000000*%
%TD*%
%TA.AperFunction,Conductor*%
%ADD41C,0.203200*%
%TD*%
%TA.AperFunction,Conductor*%
%ADD42C,0.508000*%
%TD*%
%TA.AperFunction,Conductor*%
%ADD43C,0.200000*%
%TD*%
G04 APERTURE END LIST*
D10*
%TO.P,C1,1*%
%TO.N,XTAL2*%
X136779000Y-81052000D03*
%TO.P,C1,2*%
%TO.N,GND*%
X136779000Y-82602000D03*
%TD*%
D11*
%TO.P,S3,4*%
%TO.N,N/C*%
X103456999Y-112847999D03*
%TO.P,S3,2*%
X103456999Y-109147999D03*
%TO.P,S3,3*%
%TO.N,RST*%
X97456999Y-112847999D03*
%TO.P,S3,1*%
%TO.N,GND*%
X97456999Y-109147999D03*
%TD*%
D12*
%TO.P,C15,1*%
%TO.N,+5V*%
X123558000Y-107696000D03*
%TO.P,C15,2*%
%TO.N,GND*%
X125108000Y-107696000D03*
%TD*%
D10*
%TO.P,C14,1*%
%TO.N,+5V*%
X83058000Y-110284000D03*
%TO.P,C14,2*%
%TO.N,GND*%
X83058000Y-111834000D03*
%TD*%
D13*
%TO.P,Y1,1,1*%
%TO.N,XTAL1*%
X132630999Y-82676999D03*
%TO.P,Y1,2,2*%
%TO.N,GND*%
X134830999Y-82676999D03*
%TO.P,Y1,3,3*%
%TO.N,XTAL2*%
X134830999Y-80976999D03*
%TO.P,Y1,4,4*%
%TO.N,GND*%
X132630999Y-80976999D03*
%TD*%
D14*
%TO.P,R12,2*%
%TO.N,Net-(U1-DPX)*%
X110593500Y-117885000D03*
%TO.P,R12,1*%
%TO.N,dp*%
X112418500Y-117885000D03*
%TD*%
%TO.P,R11,2*%
%TO.N,Net-(U1-g)*%
X110593500Y-115951000D03*
%TO.P,R11,1*%
%TO.N,g*%
X112418500Y-115951000D03*
%TD*%
D15*
%TO.P,U1,12,CA1*%
%TO.N,Dig1*%
X107442000Y-80518000D03*
%TO.P,U1,11,a*%
%TO.N,Net-(U1-a)*%
X104902000Y-80518000D03*
%TO.P,U1,10,f*%
%TO.N,Net-(U1-f)*%
X102362000Y-80518000D03*
%TO.P,U1,9,CA2*%
%TO.N,Dig2*%
X99822000Y-80518000D03*
%TO.P,U1,8,CA3*%
%TO.N,Dig3*%
X97282000Y-80518000D03*
%TO.P,U1,7,b*%
%TO.N,Net-(U1-b)*%
X94742000Y-80518000D03*
%TO.P,U1,6,CA4*%
%TO.N,Dig4*%
X94742000Y-65278000D03*
%TO.P,U1,5,g*%
%TO.N,Net-(U1-g)*%
X97282000Y-65278000D03*
%TO.P,U1,4,c*%
%TO.N,Net-(U1-c)*%
X99822000Y-65278000D03*
%TO.P,U1,3,DPX*%
%TO.N,Net-(U1-DPX)*%
X102362000Y-65278000D03*
%TO.P,U1,2,d*%
%TO.N,Net-(U1-d)*%
X104902000Y-65278000D03*
D16*
%TO.P,U1,1,e*%
%TO.N,Net-(U1-e)*%
X107441999Y-65277999D03*
%TD*%
D17*
%TO.P,LS1,1,1*%
%TO.N,Buzzer*%
X136534999Y-72770999D03*
D18*
%TO.P,LS1,2,2*%
%TO.N,GND*%
X144135000Y-72771000D03*
%TD*%
D19*
%TO.P,U5,1,VIN*%
%TO.N,+5V*%
X85095500Y-110175000D03*
%TO.P,U5,2,GND*%
%TO.N,GND*%
X85095500Y-111125000D03*
%TO.P,U5,3,ON/~{OFF}*%
%TO.N,+5V*%
X85095500Y-112075000D03*
%TO.P,U5,4,BP*%
%TO.N,Net-(U5-BP)*%
X87370500Y-112075000D03*
%TO.P,U5,5,VOUT*%
%TO.N,+3.3V*%
X87370500Y-110175000D03*
%TD*%
D14*
%TO.P,R9,2*%
%TO.N,Net-(U1-e)*%
X110593500Y-111887000D03*
%TO.P,R9,1*%
%TO.N,e*%
X112418500Y-111887000D03*
%TD*%
D20*
%TO.P,J3,8,Pin_8*%
%TO.N,+3.3V*%
X75203999Y-114182999D03*
%TO.P,J3,7,Pin_7*%
%TO.N,RX*%
X77743999Y-114182999D03*
%TO.P,J3,6,Pin_6*%
%TO.N,+3.3V*%
X75203999Y-111642999D03*
%TO.P,J3,5,Pin_5*%
%TO.N,Net-(J3-Pin_5)*%
X77743999Y-111642999D03*
%TO.P,J3,4,Pin_4*%
%TO.N,+3.3V*%
X75203999Y-109102999D03*
%TO.P,J3,3,Pin_3*%
%TO.N,unconnected-(J3-Pin_3-Pad3)*%
X77743999Y-109102999D03*
%TO.P,J3,2,Pin_2*%
%TO.N,TX*%
X75203999Y-106562999D03*
D21*
%TO.P,J3,1,Pin_1*%
%TO.N,GND*%
X77743999Y-106562999D03*
%TD*%
D22*
%TO.P,C13,1*%
%TO.N,+3.3V*%
X87510500Y-108585000D03*
%TO.P,C13,2*%
%TO.N,GND*%
X85960500Y-108585000D03*
%TD*%
D12*
%TO.P,C3,1*%
%TO.N,+5V*%
X141719000Y-98298000D03*
%TO.P,C3,2*%
%TO.N,GND*%
X143269000Y-98298000D03*
%TD*%
%TO.P,C10,1*%
%TO.N,/UCAP*%
X141084000Y-95123000D03*
%TO.P,C10,2*%
%TO.N,GND*%
X142634000Y-95123000D03*
%TD*%
D23*
%TO.P,R17,2*%
%TO.N,Net-(J3-Pin_5)*%
X80264000Y-111569000D03*
%TO.P,R17,1*%
%TO.N,+3.3V*%
X80264000Y-109919000D03*
%TD*%
D24*
%TO.P,U3,1,PE6*%
%TO.N,SH_CP*%
X138922999Y-98995999D03*
%TO.P,U3,2,UVCC*%
%TO.N,+5V*%
X138922999Y-98195999D03*
%TO.P,U3,3,D-*%
%TO.N,USB_D-*%
X138922999Y-97395999D03*
%TO.P,U3,4,D+*%
%TO.N,USB_D+*%
X138922999Y-96595999D03*
%TO.P,U3,5,UGND*%
%TO.N,GND*%
X138922999Y-95795999D03*
%TO.P,U3,6,UCAP*%
%TO.N,/UCAP*%
X138922999Y-94995999D03*
%TO.P,U3,7,VBUS*%
%TO.N,+5V*%
X138922999Y-94195999D03*
%TO.P,U3,8,PB0*%
%TO.N,unconnected-(U3-PB0-Pad8)*%
X138922999Y-93395999D03*
%TO.P,U3,9,PB1*%
%TO.N,SCK*%
X138922999Y-92595999D03*
%TO.P,U3,10,PB2*%
%TO.N,MOSI*%
X138922999Y-91795999D03*
%TO.P,U3,11,PB3*%
%TO.N,MISO*%
X138922999Y-90995999D03*
D25*
%TO.P,U3,12,PB7*%
%TO.N,Dig3*%
X137222999Y-89295999D03*
%TO.P,U3,13,~{RESET}*%
%TO.N,RST*%
X136422999Y-89295999D03*
%TO.P,U3,14,VCC*%
%TO.N,+5V*%
X135622999Y-89295999D03*
%TO.P,U3,15,GND*%
%TO.N,GND*%
X134822999Y-89295999D03*
%TO.P,U3,16,XTAL2*%
%TO.N,XTAL2*%
X134022999Y-89295999D03*
%TO.P,U3,17,XTAL1*%
%TO.N,XTAL1*%
X133222999Y-89295999D03*
%TO.P,U3,18,PD0*%
%TO.N,Button_2*%
X132422999Y-89295999D03*
%TO.P,U3,19,PD1*%
%TO.N,Button_1*%
X131622999Y-89295999D03*
%TO.P,U3,20,PD2*%
%TO.N,TX*%
X130822999Y-89295999D03*
%TO.P,U3,21,PD3*%
%TO.N,RX*%
X130022999Y-89295999D03*
%TO.P,U3,22,PD5*%
%TO.N,unconnected-(U3-PD5-Pad22)*%
X129222999Y-89295999D03*
D24*
%TO.P,U3,23,GND*%
%TO.N,GND*%
X127522999Y-90995999D03*
%TO.P,U3,24,AVCC*%
%TO.N,+5V*%
X127522999Y-91795999D03*
%TO.P,U3,25,PD4*%
%TO.N,GREEN_LED*%
X127522999Y-92595999D03*
%TO.P,U3,26,PD6*%
%TO.N,Dig2*%
X127522999Y-93395999D03*
%TO.P,U3,27,PD7*%
%TO.N,Buzzer*%
X127522999Y-94195999D03*
%TO.P,U3,28,PB4*%
%TO.N,ST_CP*%
X127522999Y-94995999D03*
%TO.P,U3,29,PB5*%
%TO.N,DS*%
X127522999Y-95795999D03*
%TO.P,U3,30,PB6*%
%TO.N,Dig4*%
X127522999Y-96595999D03*
%TO.P,U3,31,PC6*%
%TO.N,RED_LED*%
X127522999Y-97395999D03*
%TO.P,U3,32,PC7*%
%TO.N,Dig1*%
X127522999Y-98195999D03*
%TO.P,U3,33,~{HWB}/PE2*%
%TO.N,GND*%
X127522999Y-98995999D03*
D25*
%TO.P,U3,34,VCC*%
%TO.N,+5V*%
X129222999Y-100695999D03*
%TO.P,U3,35,GND*%
%TO.N,GND*%
X130022999Y-100695999D03*
%TO.P,U3,36,PF7*%
%TO.N,unconnected-(U3-PF7-Pad36)*%
X130822999Y-100695999D03*
%TO.P,U3,37,PF6*%
%TO.N,unconnected-(U3-PF6-Pad37)*%
X131622999Y-100695999D03*
%TO.P,U3,38,PF5*%
%TO.N,unconnected-(U3-PF5-Pad38)*%
X132422999Y-100695999D03*
%TO.P,U3,39,PF4*%
%TO.N,unconnected-(U3-PF4-Pad39)*%
X133222999Y-100695999D03*
%TO.P,U3,40,PF1*%
%TO.N,unconnected-(U3-PF1-Pad40)*%
X134022999Y-100695999D03*
%TO.P,U3,41,PF0*%
%TO.N,unconnected-(U3-PF0-Pad41)*%
X134822999Y-100695999D03*
%TO.P,U3,42,AREF*%
%TO.N,/AREF*%
X135622999Y-100695999D03*
%TO.P,U3,43,GND*%
%TO.N,GND*%
X136422999Y-100695999D03*
%TO.P,U3,44,AVCC*%
%TO.N,+5V*%
X137222999Y-100695999D03*
%TD*%
D12*
%TO.P,C7,1*%
%TO.N,+5V*%
X141084000Y-93599000D03*
%TO.P,C7,2*%
%TO.N,GND*%
X142634000Y-93599000D03*
%TD*%
D26*
%TO.P,R5,2*%
%TO.N,Net-(U1-a)*%
X125372500Y-109474000D03*
%TO.P,R5,1*%
%TO.N,a*%
X123547500Y-109474000D03*
%TD*%
D27*
%TO.P,R2,1*%
%TO.N,Button_2*%
X118174000Y-88138000D03*
%TO.P,R2,2*%
%TO.N,GND*%
X119824000Y-88138000D03*
%TD*%
D28*
%TO.P,D2,1,K*%
%TO.N,GND*%
X84231000Y-86360000D03*
%TO.P,D2,2,A*%
%TO.N,Net-(D2-A)*%
X86106000Y-86360000D03*
%TD*%
D23*
%TO.P,R1,1*%
%TO.N,Button_1*%
X99949000Y-94044000D03*
%TO.P,R1,2*%
%TO.N,GND*%
X99949000Y-95694000D03*
%TD*%
D10*
%TO.P,C11,1*%
%TO.N,/AREF*%
X135636000Y-102730000D03*
%TO.P,C11,2*%
%TO.N,GND*%
X135636000Y-104280000D03*
%TD*%
D21*
%TO.P,J2,1,MISO*%
%TO.N,MISO*%
X149478999Y-81929999D03*
D20*
%TO.P,J2,2,VCC*%
%TO.N,+5V*%
X146938999Y-81929999D03*
%TO.P,J2,3,SCK*%
%TO.N,SCK*%
X149478999Y-84469999D03*
%TO.P,J2,4,MOSI*%
%TO.N,MOSI*%
X146938999Y-84469999D03*
%TO.P,J2,5,~{RST}*%
%TO.N,RST*%
X149478999Y-87009999D03*
%TO.P,J2,6,GND*%
%TO.N,GND*%
X146938999Y-87009999D03*
%TD*%
D29*
%TO.P,U4,1,I/O1*%
%TO.N,USB_CONN_D-*%
X145730000Y-103694500D03*
%TO.P,U4,2,GND*%
%TO.N,GND*%
X146680000Y-103694500D03*
%TO.P,U4,3,I/O2*%
%TO.N,USB_CONN_D+*%
X147630000Y-103694500D03*
%TO.P,U4,4,I/O2*%
%TO.N,USB_D+*%
X147630000Y-101419500D03*
%TO.P,U4,5,VBUS*%
%TO.N,+5V*%
X146680000Y-101419500D03*
%TO.P,U4,6,I/O1*%
%TO.N,USB_D-*%
X145730000Y-101419500D03*
%TD*%
D14*
%TO.P,R4,1*%
%TO.N,GREEN_LED*%
X89455000Y-86360000D03*
%TO.P,R4,2*%
%TO.N,Net-(D2-A)*%
X87630000Y-86360000D03*
%TD*%
D30*
%TO.P,C12,2*%
%TO.N,GND*%
X89148500Y-110538000D03*
%TO.P,C12,1*%
%TO.N,Net-(U5-BP)*%
X89148500Y-112088000D03*
%TD*%
D22*
%TO.P,C5,1*%
%TO.N,+5V*%
X128791000Y-102616000D03*
%TO.P,C5,2*%
%TO.N,GND*%
X127241000Y-102616000D03*
%TD*%
D31*
%TO.P,D3,2,A*%
%TO.N,Net-(D3-A)*%
X139187000Y-114446500D03*
%TO.P,D3,1,K*%
%TO.N,GND*%
X139187000Y-116321500D03*
%TD*%
D30*
%TO.P,C8,1*%
%TO.N,+5V*%
X135636000Y-87249000D03*
%TO.P,C8,2*%
%TO.N,GND*%
X135636000Y-85699000D03*
%TD*%
D28*
%TO.P,D1,2,A*%
%TO.N,Net-(D1-A)*%
X94397000Y-86360000D03*
%TO.P,D1,1,K*%
%TO.N,GND*%
X92522000Y-86360000D03*
%TD*%
D32*
%TO.P,R15,2*%
%TO.N,USB_CONN_D+*%
X147320000Y-106427000D03*
%TO.P,R15,1*%
%TO.N,Net-(J1-D+)*%
X147320000Y-108077000D03*
%TD*%
D33*
%TO.P,S1,A1,NO_1*%
%TO.N,unconnected-(S1-NO_1-PadA1)*%
X82765999Y-93892999D03*
%TO.P,S1,B1,NO_2*%
%TO.N,Button_1*%
X97065999Y-93892999D03*
%TO.P,S1,C1,COM_1*%
%TO.N,+5V*%
X82765999Y-98892999D03*
%TO.P,S1,D1,COM_2*%
%TO.N,unconnected-(S1-COM_2-PadD1)*%
X97065999Y-98892999D03*
%TD*%
D14*
%TO.P,R3,2*%
%TO.N,Net-(D1-A)*%
X95988500Y-86360000D03*
%TO.P,R3,1*%
%TO.N,RED_LED*%
X97813500Y-86360000D03*
%TD*%
D34*
%TO.P,F1,2*%
%TO.N,+5V*%
X142997000Y-103594500D03*
%TO.P,F1,1*%
%TO.N,Net-(J1-VBUS)*%
X142997000Y-107869500D03*
%TD*%
D23*
%TO.P,R13,1*%
%TO.N,+5V*%
X95631000Y-111189000D03*
%TO.P,R13,2*%
%TO.N,RST*%
X95631000Y-112839000D03*
%TD*%
D22*
%TO.P,C6,1*%
%TO.N,+5V*%
X125108000Y-91948000D03*
%TO.P,C6,2*%
%TO.N,GND*%
X123558000Y-91948000D03*
%TD*%
D33*
%TO.P,S2,A1,NO_1*%
%TO.N,unconnected-(S2-NO_1-PadA1)*%
X104101999Y-93932999D03*
%TO.P,S2,B1,NO_2*%
%TO.N,Button_2*%
X118401999Y-93932999D03*
%TO.P,S2,C1,COM_1*%
%TO.N,+5V*%
X104101999Y-98932999D03*
%TO.P,S2,D1,COM_2*%
%TO.N,unconnected-(S2-COM_2-PadD1)*%
X118401999Y-98932999D03*
%TD*%
D14*
%TO.P,R7,2*%
%TO.N,Net-(U1-c)*%
X110490000Y-107823000D03*
%TO.P,R7,1*%
%TO.N,c*%
X112315000Y-107823000D03*
%TD*%
D30*
%TO.P,C2,1*%
%TO.N,XTAL1*%
X130683000Y-82602000D03*
%TO.P,C2,2*%
%TO.N,GND*%
X130683000Y-81052000D03*
%TD*%
D35*
%TO.P,R14,2*%
%TO.N,Net-(D3-A)*%
X139187000Y-112935500D03*
%TO.P,R14,1*%
%TO.N,+5V*%
X139187000Y-111110500D03*
%TD*%
D12*
%TO.P,C4,1*%
%TO.N,+5V*%
X137782000Y-102616000D03*
%TO.P,C4,2*%
%TO.N,GND*%
X139332000Y-102616000D03*
%TD*%
D10*
%TO.P,C9,1*%
%TO.N,+5V*%
X131699000Y-107810000D03*
%TO.P,C9,2*%
%TO.N,GND*%
X131699000Y-109360000D03*
%TD*%
D14*
%TO.P,R8,2*%
%TO.N,Net-(U1-d)*%
X110490000Y-109855000D03*
%TO.P,R8,1*%
%TO.N,d*%
X112315000Y-109855000D03*
%TD*%
D36*
%TO.P,U2,1,QB*%
%TO.N,b*%
X115501500Y-108596000D03*
%TO.P,U2,2,QC*%
%TO.N,c*%
X115501500Y-109246000D03*
%TO.P,U2,3,QD*%
%TO.N,d*%
X115501500Y-109896000D03*
%TO.P,U2,4,QE*%
%TO.N,e*%
X115501500Y-110546000D03*
%TO.P,U2,5,QF*%
%TO.N,f*%
X115501500Y-111196000D03*
%TO.P,U2,6,QG*%
%TO.N,g*%
X115501500Y-111846000D03*
%TO.P,U2,7,QH*%
%TO.N,dp*%
X115501500Y-112496000D03*
%TO.P,U2,8,GND*%
%TO.N,GND*%
X115501500Y-113146000D03*
%TO.P,U2,9,QH'*%
%TO.N,unconnected-(U2-QH'-Pad9)*%
X121226500Y-113146000D03*
%TO.P,U2,10,~{SRCLR}*%
%TO.N,+5V*%
X121226500Y-112496000D03*
%TO.P,U2,11,SRCLK*%
%TO.N,SH_CP*%
X121226500Y-111846000D03*
%TO.P,U2,12,RCLK*%
%TO.N,ST_CP*%
X121226500Y-111196000D03*
%TO.P,U2,13,~{OE}*%
%TO.N,GND*%
X121226500Y-110546000D03*
%TO.P,U2,14,SER*%
%TO.N,DS*%
X121226500Y-109896000D03*
%TO.P,U2,15,QA*%
%TO.N,a*%
X121226500Y-109246000D03*
%TO.P,U2,16,VCC*%
%TO.N,+5V*%
X121226500Y-108596000D03*
%TD*%
D14*
%TO.P,R6,2*%
%TO.N,Net-(U1-b)*%
X110490000Y-105791000D03*
%TO.P,R6,1*%
%TO.N,b*%
X112315000Y-105791000D03*
%TD*%
D37*
%TO.P,J1,6,Shield*%
%TO.N,unconnected-(J1-Shield-Pad6)*%
X151256999Y-116201999D03*
X151256999Y-110751999D03*
X142356999Y-116201999D03*
X142356999Y-110751999D03*
D38*
%TO.P,J1,5,GND*%
%TO.N,GND*%
X148406999Y-110651999D03*
%TO.P,J1,4,ID*%
%TO.N,unconnected-(J1-ID-Pad4)*%
X147606999Y-110651999D03*
%TO.P,J1,3,D+*%
%TO.N,Net-(J1-D+)*%
X146806999Y-110651999D03*
%TO.P,J1,2,D-*%
%TO.N,Net-(J1-D-)*%
X146006999Y-110651999D03*
%TO.P,J1,1,VBUS*%
%TO.N,Net-(J1-VBUS)*%
X145206999Y-110651999D03*
%TD*%
D14*
%TO.P,R10,2*%
%TO.N,Net-(U1-f)*%
X110593500Y-113919000D03*
%TO.P,R10,1*%
%TO.N,f*%
X112418500Y-113919000D03*
%TD*%
D32*
%TO.P,R16,2*%
%TO.N,USB_CONN_D-*%
X145796000Y-106427000D03*
%TO.P,R16,1*%
%TO.N,Net-(J1-D-)*%
X145796000Y-108077000D03*
%TD*%
D39*
%TO.N,Net-(U1-a)*%
X112395000Y-91567000D03*
X114681000Y-104267000D03*
X127508000Y-109474000D03*
%TO.N,RST*%
X135382000Y-94234000D03*
X106299000Y-116332000D03*
%TO.N,+5V*%
X123571000Y-105410000D03*
X105537000Y-102235000D03*
%TO.N,TX*%
X89281000Y-104267000D03*
X131445000Y-98044000D03*
%TO.N,RX*%
X130556000Y-97155000D03*
%TO.N,Button_1*%
X98425000Y-88646000D03*
X110744000Y-86106000D03*
X118237000Y-86106000D03*
X128651000Y-86995000D03*
%TO.N,Dig3*%
X96901000Y-75311000D03*
X138430000Y-87249000D03*
%TO.N,ST_CP*%
X124968000Y-95758000D03*
X124206000Y-99060000D03*
%TO.N,Button_2*%
X128524000Y-85598000D03*
X126619000Y-85598000D03*
X118110000Y-89916000D03*
X118110000Y-92456000D03*
%TO.N,Dig2*%
X99949000Y-75819000D03*
%TO.N,Dig4*%
X98044000Y-77089000D03*
%TO.N,Dig1*%
X120777000Y-95758000D03*
%TO.N,Dig4*%
X123571000Y-95250000D03*
%TO.N,Dig2*%
X122301000Y-93853000D03*
%TO.N,RED_LED*%
X102997000Y-89789000D03*
%TO.N,GREEN_LED*%
X101727000Y-88138000D03*
%TO.N,RED_LED*%
X110236000Y-89789000D03*
%TO.N,GREEN_LED*%
X110236000Y-88138000D03*
%TO.N,Net-(U1-b)*%
X106680000Y-90932000D03*
X110236000Y-91186000D03*
D40*
%TO.N,GND*%
X130556000Y-102235000D03*
X125984000Y-90678000D03*
X122301000Y-91948000D03*
X121071000Y-88138000D03*
X125984000Y-99060000D03*
X125984000Y-102743000D03*
X126365000Y-107696000D03*
X143891000Y-95123000D03*
X143891000Y-93599000D03*
X144272000Y-100203000D03*
X146685000Y-105156000D03*
X122682000Y-110744000D03*
X115443000Y-114173000D03*
X79756000Y-106680000D03*
X99949000Y-96774000D03*
X91277000Y-86360000D03*
X83003000Y-86360000D03*
X144145000Y-75057000D03*
X134493000Y-84113000D03*
X131445000Y-79668000D03*
X136779000Y-83859000D03*
X146812000Y-89154000D03*
X148844000Y-108839000D03*
X139319000Y-103886000D03*
X135636000Y-105537000D03*
X131699000Y-110617000D03*
X96139000Y-109220000D03*
X83058000Y-113091000D03*
X89154000Y-109220000D03*
X84709000Y-108818000D03*
X139187000Y-117670000D03*
%TD*%
D41*
%TO.N,Button_2*%
X118174000Y-88138000D02*
X120714000Y-85598000D01*
X120714000Y-85598000D02*
X126619000Y-85598000D01*
%TO.N,ST_CP*%
X124079000Y-99060000D02*
X124206000Y-99060000D01*
X119784200Y-103354800D02*
X124079000Y-99060000D01*
%TO.N,Net-(U1-a)*%
X114681000Y-93853000D02*
X112395000Y-91567000D01*
X114681000Y-104267000D02*
X114681000Y-93853000D01*
X125372500Y-109474000D02*
X127508000Y-109474000D01*
%TO.N,RST*%
X136423000Y-93193000D02*
X136423000Y-89296000D01*
X135382000Y-94234000D02*
X136423000Y-93193000D01*
X99187000Y-116332000D02*
X106299000Y-116332000D01*
X97457000Y-114602000D02*
X99187000Y-116332000D01*
X97457000Y-112848000D02*
X97457000Y-114602000D01*
D42*
%TO.N,+5V*%
X131699000Y-107810000D02*
X131178000Y-107810000D01*
X128397000Y-105029000D02*
X127508000Y-105918000D01*
X128791000Y-104635000D02*
X128397000Y-105029000D01*
X131178000Y-107810000D02*
X128397000Y-105029000D01*
%TO.N,GND*%
X131699000Y-109360000D02*
X131699000Y-110617000D01*
%TO.N,+5V*%
X124079000Y-105918000D02*
X125984000Y-105918000D01*
X123571000Y-105410000D02*
X124079000Y-105918000D01*
X127508000Y-105918000D02*
X125984000Y-105918000D01*
X125984000Y-105918000D02*
X125336000Y-105918000D01*
X125336000Y-105918000D02*
X123558000Y-107696000D01*
X104102000Y-102197000D02*
X104140000Y-102235000D01*
X104102000Y-98933000D02*
X104102000Y-102197000D01*
X104140000Y-102235000D02*
X105537000Y-102235000D01*
X96647000Y-102235000D02*
X104140000Y-102235000D01*
X95567000Y-111125000D02*
X92202000Y-111125000D01*
X92202000Y-111125000D02*
X92202000Y-106680000D01*
X92202000Y-113157000D02*
X92202000Y-111125000D01*
X95631000Y-111189000D02*
X95567000Y-111125000D01*
X88733000Y-98893000D02*
X94361000Y-104521000D01*
X94361000Y-104521000D02*
X96647000Y-102235000D01*
X82766000Y-98893000D02*
X88733000Y-98893000D01*
X92583000Y-106299000D02*
X94361000Y-104521000D01*
X92202000Y-106680000D02*
X92583000Y-106299000D01*
X91440000Y-113919000D02*
X92202000Y-113157000D01*
X86106000Y-113919000D02*
X91440000Y-113919000D01*
X85095500Y-112908500D02*
X86106000Y-113919000D01*
X85095500Y-112075000D02*
X85095500Y-112908500D01*
%TO.N,+3.3V*%
X82169000Y-107315000D02*
X81788000Y-107696000D01*
X87510500Y-107830500D02*
X86995000Y-107315000D01*
X86995000Y-107315000D02*
X82169000Y-107315000D01*
X87510500Y-108900000D02*
X87510500Y-107830500D01*
X87370500Y-109040000D02*
X87510500Y-108900000D01*
X87370500Y-110175000D02*
X87370500Y-109040000D01*
D41*
%TO.N,Button_1*%
X97066000Y-90005000D02*
X97066000Y-93893000D01*
X98425000Y-88646000D02*
X97066000Y-90005000D01*
D42*
%TO.N,GND*%
X143269000Y-98846736D02*
X143269000Y-98298000D01*
X144272000Y-99849736D02*
X143269000Y-98846736D01*
X144272000Y-100203000D02*
X144272000Y-99849736D01*
D41*
%TO.N,Net-(U1-b)*%
X94742000Y-82296000D02*
X94742000Y-80518000D01*
X106680000Y-90932000D02*
X98656800Y-82908800D01*
X98656800Y-82908800D02*
X95354800Y-82908800D01*
X95354800Y-82908800D02*
X94742000Y-82296000D01*
D42*
%TO.N,GND*%
X130023000Y-101702000D02*
X130023000Y-100696000D01*
X130556000Y-102235000D02*
X130023000Y-101702000D01*
D41*
%TO.N,TX*%
X75204000Y-105771000D02*
X75204000Y-106563000D01*
X89281000Y-104267000D02*
X76708000Y-104267000D01*
X76708000Y-104267000D02*
X75204000Y-105771000D01*
%TO.N,RX*%
X130603600Y-91590863D02*
X130603600Y-97107400D01*
X130023000Y-91010262D02*
X130603600Y-91590863D01*
X130603600Y-97107400D02*
X130556000Y-97155000D01*
X130023000Y-89296000D02*
X130023000Y-91010262D01*
%TO.N,TX*%
X131445000Y-90871200D02*
X131445000Y-98044000D01*
X130823000Y-90249200D02*
X131445000Y-90871200D01*
X130823000Y-89296000D02*
X130823000Y-90249200D01*
%TO.N,Dig3*%
X96393000Y-75819000D02*
X96393000Y-79629000D01*
%TO.N,Button_1*%
X99798000Y-93893000D02*
X99949000Y-94044000D01*
X97066000Y-93893000D02*
X99798000Y-93893000D01*
X118237000Y-86106000D02*
X110744000Y-86106000D01*
X130275200Y-86995000D02*
X128651000Y-86995000D01*
X131623000Y-88342800D02*
X130275200Y-86995000D01*
X131623000Y-89296000D02*
X131623000Y-88342800D01*
%TO.N,Dig3*%
X96393000Y-79629000D02*
X97282000Y-80518000D01*
X96901000Y-75311000D02*
X96393000Y-75819000D01*
X137223000Y-88456000D02*
X138430000Y-87249000D01*
X137223000Y-89296000D02*
X137223000Y-88456000D01*
%TO.N,ST_CP*%
X125730000Y-94996000D02*
X127523000Y-94996000D01*
X124968000Y-95758000D02*
X125730000Y-94996000D01*
X119784200Y-110409148D02*
X119784200Y-103354800D01*
X120571052Y-111196000D02*
X119784200Y-110409148D01*
X121226500Y-111196000D02*
X120571052Y-111196000D01*
%TO.N,DS*%
X128714500Y-99432700D02*
X128714500Y-99250500D01*
X128574600Y-99572600D02*
X128714500Y-99432700D01*
X120187400Y-107405966D02*
X128020766Y-99572600D01*
X120187400Y-109512348D02*
X120187400Y-107405966D01*
X120571052Y-109896000D02*
X120187400Y-109512348D01*
X128020766Y-99572600D02*
X128574600Y-99572600D01*
X121226500Y-109896000D02*
X120571052Y-109896000D01*
X129413000Y-98552000D02*
X128714500Y-99250500D01*
%TO.N,Button_2*%
X132423000Y-86703000D02*
X132423000Y-89296000D01*
X128651000Y-85725000D02*
X131445000Y-85725000D01*
X128524000Y-85598000D02*
X128651000Y-85725000D01*
X131445000Y-85725000D02*
X132423000Y-86703000D01*
X118110000Y-88202000D02*
X118174000Y-88138000D01*
X118110000Y-89916000D02*
X118110000Y-88202000D01*
X117983000Y-92456000D02*
X117983000Y-92456000D01*
X118110000Y-92456000D02*
X117983000Y-92456000D01*
X118110000Y-92583000D02*
X118110000Y-92456000D01*
X118402000Y-92875000D02*
X118110000Y-92583000D01*
X118402000Y-93933000D02*
X118402000Y-92875000D01*
%TO.N,GND*%
X134823000Y-84443000D02*
X134493000Y-84113000D01*
X134823000Y-89296000D02*
X134823000Y-84443000D01*
%TO.N,Dig4*%
X94742000Y-67056000D02*
X94742000Y-65278000D01*
X98044000Y-70358000D02*
X94742000Y-67056000D01*
X98044000Y-77089000D02*
X98044000Y-70358000D01*
%TO.N,Dig2*%
X99822000Y-75946000D02*
X99822000Y-80518000D01*
X99949000Y-75819000D02*
X99822000Y-75946000D01*
%TO.N,Dig1*%
X123215000Y-98196000D02*
X120777000Y-95758000D01*
X127523000Y-98196000D02*
X123215000Y-98196000D01*
%TO.N,Dig4*%
X124917000Y-96596000D02*
X123571000Y-95250000D01*
X127523000Y-96596000D02*
X124917000Y-96596000D01*
%TO.N,Dig2*%
X122758000Y-93396000D02*
X127523000Y-93396000D01*
X122301000Y-93853000D02*
X122758000Y-93396000D01*
%TO.N,RED_LED*%
X101103000Y-89789000D02*
X97674000Y-86360000D01*
X102997000Y-89789000D02*
X101103000Y-89789000D01*
%TO.N,GREEN_LED*%
X90979000Y-84836000D02*
X89455000Y-86360000D01*
X98425000Y-84836000D02*
X90979000Y-84836000D01*
X101727000Y-88138000D02*
X98425000Y-84836000D01*
X127369400Y-92749600D02*
X127523000Y-92596000D01*
X115062000Y-88138000D02*
X116309800Y-89385800D01*
X112649000Y-88138000D02*
X115062000Y-88138000D01*
X116309800Y-89385800D02*
X116690800Y-89385800D01*
X116690800Y-89385800D02*
X120054600Y-92749600D01*
X120054600Y-92749600D02*
X127369400Y-92749600D01*
%TO.N,RED_LED*%
X116523790Y-89789000D02*
X110236000Y-89789000D01*
X124130790Y-97396000D02*
X116523790Y-89789000D01*
X127523000Y-97396000D02*
X124130790Y-97396000D01*
%TO.N,Net-(U1-b)*%
X110490000Y-91440000D02*
X110236000Y-91186000D01*
X110490000Y-105791000D02*
X110490000Y-91440000D01*
X106553000Y-90932000D02*
X106680000Y-90932000D01*
%TO.N,Net-(U1-DPX)*%
X106680000Y-113971500D02*
X110593500Y-117885000D01*
X98044000Y-83312000D02*
X106680000Y-91948000D01*
X93472000Y-83312000D02*
X98044000Y-83312000D01*
X88392000Y-78232000D02*
X93472000Y-83312000D01*
X88392000Y-67818000D02*
X88392000Y-78232000D01*
X106680000Y-91948000D02*
X106680000Y-113971500D01*
X99822000Y-62738000D02*
X93472000Y-62738000D01*
X102362000Y-65278000D02*
X99822000Y-62738000D01*
X93472000Y-62738000D02*
X88392000Y-67818000D01*
%TO.N,GREEN_LED*%
X110236000Y-88138000D02*
X112649000Y-88138000D01*
D42*
%TO.N,Buzzer*%
X134493000Y-72771000D02*
X136535000Y-72771000D01*
X127635000Y-79629000D02*
X134493000Y-72771000D01*
X127635000Y-89408000D02*
X127635000Y-79629000D01*
X130048000Y-91821000D02*
X127635000Y-89408000D01*
X130048000Y-92804000D02*
X130048000Y-91821000D01*
X128656000Y-94196000D02*
X130048000Y-92804000D01*
X127523000Y-94196000D02*
X128656000Y-94196000D01*
D41*
%TO.N,DS*%
X129413000Y-96857800D02*
X129413000Y-98552000D01*
X128351200Y-95796000D02*
X129413000Y-96857800D01*
X127523000Y-95796000D02*
X128351200Y-95796000D01*
D42*
%TO.N,+5V*%
X128791000Y-102616000D02*
X128791000Y-104635000D01*
%TO.N,GND*%
X125108000Y-107696000D02*
X126365000Y-107696000D01*
D41*
%TO.N,+5V*%
X137801500Y-112496000D02*
X139187000Y-111110500D01*
X121226500Y-112496000D02*
X137801500Y-112496000D01*
%TO.N,SH_CP*%
X135169000Y-111846000D02*
X121226500Y-111846000D01*
X136271000Y-109474000D02*
X136271000Y-110744000D01*
X140462000Y-100535000D02*
X140462000Y-105283000D01*
X136271000Y-110744000D02*
X135169000Y-111846000D01*
X138923000Y-98996000D02*
X140462000Y-100535000D01*
X140462000Y-105283000D02*
X136271000Y-109474000D01*
%TO.N,GND*%
X143114400Y-95899600D02*
X143891000Y-95123000D01*
X139026600Y-95899600D02*
X143114400Y-95899600D01*
X138923000Y-95796000D02*
X139026600Y-95899600D01*
%TO.N,RST*%
X95640000Y-112848000D02*
X95631000Y-112839000D01*
X97457000Y-112848000D02*
X95640000Y-112848000D01*
D42*
%TO.N,+5V*%
X85664000Y-110175000D02*
X85095500Y-110175000D01*
X86254000Y-111483185D02*
X86254000Y-110765000D01*
X86254000Y-110765000D02*
X85664000Y-110175000D01*
X85662185Y-112075000D02*
X86254000Y-111483185D01*
X85095500Y-112075000D02*
X85662185Y-112075000D01*
X83167000Y-110175000D02*
X83058000Y-110284000D01*
X85095500Y-110175000D02*
X83167000Y-110175000D01*
D41*
%TO.N,Net-(U5-BP)*%
X89135500Y-112075000D02*
X89148500Y-112088000D01*
X87370500Y-112075000D02*
X89135500Y-112075000D01*
%TO.N,Net-(D2-A)*%
X87630000Y-86360000D02*
X86178000Y-86360000D01*
%TO.N,Net-(D1-A)*%
X95849000Y-86360000D02*
X94397000Y-86360000D01*
%TO.N,Net-(U1-c)*%
X100838000Y-66421000D02*
X100838000Y-66294000D01*
X100838000Y-66294000D02*
X99822000Y-65278000D01*
X103251000Y-66675000D02*
X101092000Y-66675000D01*
X103759000Y-66167000D02*
X103251000Y-66675000D01*
X103759000Y-63627000D02*
X103759000Y-66167000D01*
X101092000Y-66675000D02*
X100838000Y-66421000D01*
X104775000Y-62611000D02*
X103759000Y-63627000D01*
X109347000Y-84963000D02*
X110490000Y-83820000D01*
X109347000Y-107696000D02*
X109347000Y-84963000D01*
X108774210Y-62611000D02*
X104775000Y-62611000D01*
X109474000Y-107823000D02*
X109347000Y-107696000D01*
X110490000Y-83820000D02*
X110490000Y-64326790D01*
X110490000Y-64326790D02*
X108774210Y-62611000D01*
X110490000Y-107823000D02*
X109474000Y-107823000D01*
%TO.N,Net-(U1-g)*%
X100873600Y-71409600D02*
X97282000Y-67818000D01*
X100873600Y-81504810D02*
X100873600Y-71409600D01*
X97282000Y-67818000D02*
X97282000Y-65278000D01*
X103591990Y-84223200D02*
X100873600Y-81504810D01*
X107315000Y-112672500D02*
X107315000Y-84223200D01*
X110593500Y-115951000D02*
X107315000Y-112672500D01*
X107315000Y-84223200D02*
X103591990Y-84223200D01*
%TO.N,Net-(U1-f)*%
X102362000Y-82423000D02*
X102362000Y-80518000D01*
X103759000Y-83820000D02*
X102362000Y-82423000D01*
X107950000Y-83820000D02*
X103759000Y-83820000D01*
X107950000Y-111074611D02*
X107950000Y-83820000D01*
X110195989Y-113320600D02*
X107950000Y-111074611D01*
X110760511Y-113320600D02*
X110195989Y-113320600D01*
%TO.N,Net-(U1-d)*%
X108839000Y-63246000D02*
X106934000Y-63246000D01*
X106934000Y-63246000D02*
X104902000Y-65278000D01*
X108943800Y-108308800D02*
X108943800Y-84731200D01*
X108943800Y-84731200D02*
X109982000Y-83693000D01*
X109982000Y-83693000D02*
X109982000Y-64389000D01*
X109982000Y-64389000D02*
X108839000Y-63246000D01*
X110490000Y-109855000D02*
X108943800Y-108308800D01*
%TO.N,Net-(U1-e)*%
X109474000Y-67310000D02*
X107442000Y-65278000D01*
X108540600Y-84372400D02*
X109474000Y-83439000D01*
X108540600Y-109834100D02*
X108540600Y-84372400D01*
X109474000Y-83439000D02*
X109474000Y-67310000D01*
X110593500Y-111887000D02*
X108540600Y-109834100D01*
%TO.N,b*%
X113792000Y-108585000D02*
X115490500Y-108585000D01*
X113792000Y-107268000D02*
X113792000Y-108585000D01*
X115490500Y-108585000D02*
X115501500Y-108596000D01*
X112315000Y-105791000D02*
X113792000Y-107268000D01*
%TO.N,c*%
X113564000Y-109246000D02*
X115501500Y-109246000D01*
X113284000Y-108966000D02*
X113564000Y-109246000D01*
X113284000Y-108204000D02*
X113284000Y-108966000D01*
X112315000Y-107823000D02*
X112903000Y-107823000D01*
X112903000Y-107823000D02*
X113284000Y-108204000D01*
%TO.N,dp*%
X114300000Y-112522000D02*
X115475500Y-112522000D01*
X114300000Y-116003500D02*
X114300000Y-112522000D01*
X112418500Y-117885000D02*
X114300000Y-116003500D01*
X115475500Y-112522000D02*
X115501500Y-112496000D01*
%TO.N,g*%
X115460500Y-111887000D02*
X115501500Y-111846000D01*
X113845305Y-111887000D02*
X115460500Y-111887000D01*
X113845305Y-114524195D02*
X113845305Y-111887000D01*
X112418500Y-115951000D02*
X113845305Y-114524195D01*
%TO.N,f*%
X113442105Y-111156105D02*
X115461605Y-111156105D01*
X113442105Y-112895395D02*
X113442105Y-111156105D01*
X112418500Y-113919000D02*
X113442105Y-112895395D01*
X115461605Y-111156105D02*
X115501500Y-111196000D01*
%TO.N,e*%
X113482000Y-110546000D02*
X115501500Y-110546000D01*
X112418500Y-111887000D02*
X112418500Y-111609500D01*
X112418500Y-111609500D02*
X113482000Y-110546000D01*
%TO.N,d*%
X115460500Y-109855000D02*
X115501500Y-109896000D01*
X112315000Y-109855000D02*
X115460500Y-109855000D01*
D42*
%TO.N,GND*%
X135636000Y-85256000D02*
X134493000Y-84113000D01*
X135636000Y-85699000D02*
X135636000Y-85256000D01*
D41*
%TO.N,XTAL1*%
X132556000Y-82602000D02*
X132631000Y-82677000D01*
X130683000Y-82602000D02*
X132556000Y-82602000D01*
%TO.N,XTAL2*%
X134906000Y-81052000D02*
X134831000Y-80977000D01*
X136779000Y-81052000D02*
X134906000Y-81052000D01*
X134023000Y-88557000D02*
X134023000Y-89296000D01*
X133632600Y-88166600D02*
X134023000Y-88557000D01*
X133632600Y-82075400D02*
X133632600Y-88166600D01*
X134731000Y-80977000D02*
X133632600Y-82075400D01*
X134831000Y-80977000D02*
X134731000Y-80977000D01*
%TO.N,XTAL1*%
X132631000Y-82677000D02*
X133223000Y-83269000D01*
X133223000Y-83269000D02*
X133223000Y-89296000D01*
D42*
%TO.N,+5V*%
X137790000Y-94196000D02*
X137287000Y-93693000D01*
X138923000Y-94196000D02*
X137790000Y-94196000D01*
X138811000Y-88622262D02*
X138811000Y-89408000D01*
X137287000Y-93693000D02*
X137287000Y-90932000D01*
X137287000Y-90932000D02*
X138811000Y-89408000D01*
X145503262Y-81930000D02*
X138811000Y-88622262D01*
X146939000Y-81930000D02*
X145503262Y-81930000D01*
D41*
%TO.N,RST*%
X138557000Y-86233000D02*
X138684000Y-86106000D01*
X136423000Y-88367000D02*
X138557000Y-86233000D01*
X136423000Y-89296000D02*
X136423000Y-88367000D01*
X144399000Y-80391000D02*
X138684000Y-86106000D01*
X145034000Y-79756000D02*
X144399000Y-80391000D01*
X151257000Y-79756000D02*
X145034000Y-79756000D01*
X151638000Y-80137000D02*
X151257000Y-79756000D01*
X151638000Y-86995000D02*
X151638000Y-80137000D01*
X151623000Y-87010000D02*
X151638000Y-86995000D01*
X149479000Y-87010000D02*
X151623000Y-87010000D01*
%TO.N,MISO*%
X142684000Y-90996000D02*
X138923000Y-90996000D01*
X144376800Y-89303200D02*
X142684000Y-90996000D01*
X145034000Y-83185000D02*
X144376800Y-83842200D01*
X148224000Y-83185000D02*
X145034000Y-83185000D01*
X149479000Y-81930000D02*
X148224000Y-83185000D01*
X144376800Y-83842200D02*
X144376800Y-89303200D01*
%TO.N,SCK*%
X146545000Y-92596000D02*
X138923000Y-92596000D01*
X148327400Y-85621600D02*
X148327400Y-90813600D01*
X148327400Y-90813600D02*
X146545000Y-92596000D01*
X149479000Y-84470000D02*
X148327400Y-85621600D01*
%TO.N,MOSI*%
X144730000Y-89535000D02*
X144780000Y-89535000D01*
X142469000Y-91796000D02*
X144730000Y-89535000D01*
X144780000Y-84836000D02*
X144780000Y-89535000D01*
X145146000Y-84470000D02*
X144780000Y-84836000D01*
X146939000Y-84470000D02*
X145146000Y-84470000D01*
X142469000Y-91796000D02*
X138923000Y-91796000D01*
D42*
%TO.N,+5V*%
X146342000Y-102578000D02*
X144013500Y-102578000D01*
X144013500Y-102578000D02*
X142997000Y-103594500D01*
X146680000Y-101419500D02*
X146680000Y-102240000D01*
X146680000Y-102240000D02*
X146342000Y-102578000D01*
%TO.N,GND*%
X146685000Y-103699500D02*
X146680000Y-103694500D01*
X146685000Y-105156000D02*
X146685000Y-103699500D01*
D41*
%TO.N,USB_CONN_D+*%
X147701000Y-105664000D02*
X147701000Y-103765500D01*
X147442000Y-105923000D02*
X147701000Y-105664000D01*
X147442000Y-106427000D02*
X147442000Y-105923000D01*
X147701000Y-103765500D02*
X147630000Y-103694500D01*
%TO.N,USB_CONN_D-*%
X146045000Y-105995815D02*
X145730000Y-105680815D01*
X146045000Y-106427000D02*
X146045000Y-105995815D01*
X145730000Y-105680815D02*
X145730000Y-103694500D01*
%TO.N,Net-(J1-D+)*%
X146807000Y-108712000D02*
X147442000Y-108077000D01*
X146807000Y-110652000D02*
X146807000Y-108712000D01*
%TO.N,Net-(J1-D-)*%
X146007000Y-110652000D02*
X146007000Y-108115000D01*
X146007000Y-108115000D02*
X146045000Y-108077000D01*
D42*
%TO.N,+5V*%
X142997000Y-104399000D02*
X142997000Y-103594500D01*
X139187000Y-108209000D02*
X142997000Y-104399000D01*
X139187000Y-111110500D02*
X139187000Y-108209000D01*
D41*
%TO.N,Net-(D3-A)*%
X139187000Y-112935500D02*
X139187000Y-114446500D01*
D42*
%TO.N,GND*%
X136878000Y-103147251D02*
X137616749Y-103886000D01*
X136878000Y-102536749D02*
X136878000Y-103147251D01*
X137616749Y-103886000D02*
X139319000Y-103886000D01*
X136423000Y-102081749D02*
X136878000Y-102536749D01*
X136423000Y-100696000D02*
X136423000Y-102081749D01*
X139332000Y-103873000D02*
X139319000Y-103886000D01*
X139332000Y-102616000D02*
X139332000Y-103873000D01*
%TO.N,+5V*%
X137782000Y-101255000D02*
X137223000Y-100696000D01*
X137782000Y-102616000D02*
X137782000Y-101255000D01*
%TO.N,/AREF*%
X135636000Y-102730000D02*
X135636000Y-100709000D01*
X135636000Y-100709000D02*
X135623000Y-100696000D01*
%TO.N,GND*%
X135636000Y-104280000D02*
X135636000Y-105537000D01*
X126111000Y-102616000D02*
X125984000Y-102743000D01*
X127241000Y-102616000D02*
X126111000Y-102616000D01*
%TO.N,+5V*%
X129223000Y-100696000D02*
X129223000Y-102184000D01*
X129223000Y-102184000D02*
X128791000Y-102616000D01*
%TO.N,GND*%
X148407000Y-109276000D02*
X148844000Y-108839000D01*
X148407000Y-110652000D02*
X148407000Y-109276000D01*
X142634000Y-95123000D02*
X143891000Y-95123000D01*
X142634000Y-93599000D02*
X143891000Y-93599000D01*
%TO.N,/UCAP*%
X140957000Y-94996000D02*
X141084000Y-95123000D01*
X138923000Y-94996000D02*
X140957000Y-94996000D01*
%TO.N,+5V*%
X140487000Y-94196000D02*
X141084000Y-93599000D01*
X138923000Y-94196000D02*
X140487000Y-94196000D01*
%TO.N,GND*%
X146939000Y-89027000D02*
X146812000Y-89154000D01*
X146939000Y-87010000D02*
X146939000Y-89027000D01*
X144135000Y-75047000D02*
X144145000Y-75057000D01*
X144135000Y-72771000D02*
X144135000Y-75047000D01*
X132631000Y-80854000D02*
X131445000Y-79668000D01*
X132631000Y-80977000D02*
X132631000Y-80854000D01*
X130683000Y-80430000D02*
X131445000Y-79668000D01*
X130683000Y-81052000D02*
X130683000Y-80430000D01*
X136779000Y-82602000D02*
X136779000Y-83859000D01*
X134831000Y-83775000D02*
X134493000Y-84113000D01*
X134831000Y-82677000D02*
X134831000Y-83775000D01*
X135636000Y-85699000D02*
X135356000Y-85699000D01*
%TO.N,+5V*%
X135623000Y-87262000D02*
X135636000Y-87249000D01*
X135623000Y-89296000D02*
X135623000Y-87262000D01*
X125260000Y-91796000D02*
X127523000Y-91796000D01*
X125108000Y-91948000D02*
X125260000Y-91796000D01*
%TO.N,GND*%
X126302000Y-90996000D02*
X125984000Y-90678000D01*
X127523000Y-90996000D02*
X126302000Y-90996000D01*
X127459000Y-99060000D02*
X127523000Y-98996000D01*
X125984000Y-99060000D02*
X127459000Y-99060000D01*
X122301000Y-91948000D02*
X123558000Y-91948000D01*
X119824000Y-88138000D02*
X121071000Y-88138000D01*
D41*
%TO.N,a*%
X123319500Y-109246000D02*
X123547500Y-109474000D01*
X121226500Y-109246000D02*
X123319500Y-109246000D01*
%TO.N,GND*%
X122484000Y-110546000D02*
X122682000Y-110744000D01*
X121226500Y-110546000D02*
X122484000Y-110546000D01*
D42*
X115497500Y-113150000D02*
X115501500Y-113150000D01*
X115443000Y-113204500D02*
X115497500Y-113150000D01*
X115443000Y-114173000D02*
X115443000Y-113204500D01*
X115443000Y-114173000D02*
X115497500Y-114118500D01*
X99949000Y-95694000D02*
X99949000Y-96774000D01*
X83003000Y-86360000D02*
X84303000Y-86360000D01*
X91277000Y-86360000D02*
X92522000Y-86360000D01*
X96211000Y-109148000D02*
X96139000Y-109220000D01*
X97457000Y-109148000D02*
X96211000Y-109148000D01*
X89148500Y-110538000D02*
X89148500Y-109225500D01*
X89148500Y-109225500D02*
X89154000Y-109220000D01*
X83767000Y-111125000D02*
X83058000Y-111834000D01*
X85095500Y-111125000D02*
X83767000Y-111125000D01*
X83058000Y-111834000D02*
X83058000Y-113091000D01*
X84791000Y-108900000D02*
X84709000Y-108818000D01*
X85960500Y-108900000D02*
X84791000Y-108900000D01*
X79639000Y-106563000D02*
X79756000Y-106680000D01*
X77744000Y-106563000D02*
X79639000Y-106563000D01*
%TO.N,+3.3V*%
X73152000Y-116713000D02*
X73152000Y-114046000D01*
X80772000Y-117221000D02*
X73660000Y-117221000D01*
X81788000Y-116205000D02*
X80772000Y-117221000D01*
X73660000Y-117221000D02*
X73152000Y-116713000D01*
X81788000Y-107696000D02*
X81788000Y-116205000D01*
X81788000Y-107696000D02*
X80645000Y-107696000D01*
X73162000Y-111643000D02*
X73152000Y-111633000D01*
X75204000Y-111643000D02*
X73162000Y-111643000D01*
X73152000Y-111633000D02*
X73152000Y-114046000D01*
X73152000Y-109347000D02*
X73152000Y-111633000D01*
X73289000Y-114183000D02*
X73152000Y-114046000D01*
X75204000Y-114183000D02*
X73289000Y-114183000D01*
X73396000Y-109103000D02*
X73152000Y-109347000D01*
X75204000Y-109103000D02*
X73396000Y-109103000D01*
%TO.N,Net-(J3-Pin_5)*%
X77818000Y-111569000D02*
X77744000Y-111643000D01*
X80264000Y-111569000D02*
X77818000Y-111569000D01*
%TO.N,+3.3V*%
X80518000Y-107823000D02*
X80518000Y-109665000D01*
X80645000Y-107696000D02*
X80518000Y-107823000D01*
X80518000Y-109665000D02*
X80264000Y-109919000D01*
%TO.N,+5V*%
X122662000Y-108592000D02*
X121226500Y-108592000D01*
X123558000Y-107696000D02*
X122662000Y-108592000D01*
%TO.N,GND*%
X139187000Y-117670000D02*
X139187000Y-116321500D01*
%TO.N,+5V*%
X141617000Y-98196000D02*
X138923000Y-98196000D01*
X141719000Y-98298000D02*
X141617000Y-98196000D01*
X142997000Y-99576000D02*
X141719000Y-98298000D01*
X142997000Y-103594500D02*
X142997000Y-99576000D01*
%TO.N,Net-(J1-VBUS)*%
X145207000Y-110079500D02*
X142997000Y-107869500D01*
X145207000Y-110652000D02*
X145207000Y-110079500D01*
D43*
%TO.N,USB_D-*%
X140048001Y-97396000D02*
X138923000Y-97396000D01*
X140223001Y-97221000D02*
X140048001Y-97396000D01*
X143409462Y-97221000D02*
X140223001Y-97221000D01*
X144019000Y-98444897D02*
X144019000Y-97830538D01*
X145730000Y-100155897D02*
X144019000Y-98444897D01*
X145730000Y-101419500D02*
X145730000Y-100155897D01*
%TO.N,USB_D+*%
X140048001Y-96596000D02*
X138923000Y-96596000D01*
X140223001Y-96771000D02*
X140048001Y-96596000D01*
X143595832Y-96771000D02*
X140223001Y-96771000D01*
X144468981Y-97644149D02*
X143595832Y-96771000D01*
X147016396Y-100457000D02*
X146667500Y-100457000D01*
X146667500Y-100457000D02*
X144468981Y-98258481D01*
X147280000Y-100720604D02*
X147016396Y-100457000D01*
%TO.N,USB_D-*%
X144019000Y-97830538D02*
X143409462Y-97221000D01*
%TO.N,USB_D+*%
X147630000Y-101419500D02*
X147280000Y-101069500D01*
X147280000Y-101069500D02*
X147280000Y-100720604D01*
X144468981Y-98258481D02*
X144468981Y-97644149D01*
%TD*%
M02*
