%TF.GenerationSoftware,KiCad,Pcbnew,(7.0.0)*%
%TF.CreationDate,2023-04-20T12:18:01-06:00*%
%TF.ProjectId,Phase_B_PCB_Prototype,50686173-655f-4425-9f50-43425f50726f,rev?*%
%TF.SameCoordinates,Original*%
%TF.FileFunction,Legend,Top*%
%TF.FilePolarity,Positive*%
%FSLAX46Y46*%
G04 Gerber Fmt 4.6, Leading zero omitted, Abs format (unit mm)*
G04 Created by KiCad (PCBNEW (7.0.0)) date 2023-04-20 12:18:01*
%MOMM*%
%LPD*%
G01*
G04 APERTURE LIST*
%ADD10C,0.150000*%
%ADD11C,0.254000*%
%ADD12C,0.120000*%
%ADD13C,0.200000*%
%ADD14C,0.127000*%
%ADD15C,0.100000*%
G04 APERTURE END LIST*
D10*
%TO.C,C1*%
X138481142Y-81993666D02*
X138528761Y-82041285D01*
X138528761Y-82041285D02*
X138576380Y-82184142D01*
X138576380Y-82184142D02*
X138576380Y-82279380D01*
X138576380Y-82279380D02*
X138528761Y-82422237D01*
X138528761Y-82422237D02*
X138433523Y-82517475D01*
X138433523Y-82517475D02*
X138338285Y-82565094D01*
X138338285Y-82565094D02*
X138147809Y-82612713D01*
X138147809Y-82612713D02*
X138004952Y-82612713D01*
X138004952Y-82612713D02*
X137814476Y-82565094D01*
X137814476Y-82565094D02*
X137719238Y-82517475D01*
X137719238Y-82517475D02*
X137624000Y-82422237D01*
X137624000Y-82422237D02*
X137576380Y-82279380D01*
X137576380Y-82279380D02*
X137576380Y-82184142D01*
X137576380Y-82184142D02*
X137624000Y-82041285D01*
X137624000Y-82041285D02*
X137671619Y-81993666D01*
X138576380Y-81041285D02*
X138576380Y-81612713D01*
X138576380Y-81326999D02*
X137576380Y-81326999D01*
X137576380Y-81326999D02*
X137719238Y-81422237D01*
X137719238Y-81422237D02*
X137814476Y-81517475D01*
X137814476Y-81517475D02*
X137862095Y-81612713D01*
%TO.C,S3*%
X98933095Y-107507761D02*
X99075952Y-107555380D01*
X99075952Y-107555380D02*
X99314047Y-107555380D01*
X99314047Y-107555380D02*
X99409285Y-107507761D01*
X99409285Y-107507761D02*
X99456904Y-107460142D01*
X99456904Y-107460142D02*
X99504523Y-107364904D01*
X99504523Y-107364904D02*
X99504523Y-107269666D01*
X99504523Y-107269666D02*
X99456904Y-107174428D01*
X99456904Y-107174428D02*
X99409285Y-107126809D01*
X99409285Y-107126809D02*
X99314047Y-107079190D01*
X99314047Y-107079190D02*
X99123571Y-107031571D01*
X99123571Y-107031571D02*
X99028333Y-106983952D01*
X99028333Y-106983952D02*
X98980714Y-106936333D01*
X98980714Y-106936333D02*
X98933095Y-106841095D01*
X98933095Y-106841095D02*
X98933095Y-106745857D01*
X98933095Y-106745857D02*
X98980714Y-106650619D01*
X98980714Y-106650619D02*
X99028333Y-106603000D01*
X99028333Y-106603000D02*
X99123571Y-106555380D01*
X99123571Y-106555380D02*
X99361666Y-106555380D01*
X99361666Y-106555380D02*
X99504523Y-106603000D01*
X99837857Y-106555380D02*
X100456904Y-106555380D01*
X100456904Y-106555380D02*
X100123571Y-106936333D01*
X100123571Y-106936333D02*
X100266428Y-106936333D01*
X100266428Y-106936333D02*
X100361666Y-106983952D01*
X100361666Y-106983952D02*
X100409285Y-107031571D01*
X100409285Y-107031571D02*
X100456904Y-107126809D01*
X100456904Y-107126809D02*
X100456904Y-107364904D01*
X100456904Y-107364904D02*
X100409285Y-107460142D01*
X100409285Y-107460142D02*
X100361666Y-107507761D01*
X100361666Y-107507761D02*
X100266428Y-107555380D01*
X100266428Y-107555380D02*
X99980714Y-107555380D01*
X99980714Y-107555380D02*
X99885476Y-107507761D01*
X99885476Y-107507761D02*
X99837857Y-107460142D01*
%TO.C,C15*%
X123690142Y-106538142D02*
X123642523Y-106585761D01*
X123642523Y-106585761D02*
X123499666Y-106633380D01*
X123499666Y-106633380D02*
X123404428Y-106633380D01*
X123404428Y-106633380D02*
X123261571Y-106585761D01*
X123261571Y-106585761D02*
X123166333Y-106490523D01*
X123166333Y-106490523D02*
X123118714Y-106395285D01*
X123118714Y-106395285D02*
X123071095Y-106204809D01*
X123071095Y-106204809D02*
X123071095Y-106061952D01*
X123071095Y-106061952D02*
X123118714Y-105871476D01*
X123118714Y-105871476D02*
X123166333Y-105776238D01*
X123166333Y-105776238D02*
X123261571Y-105681000D01*
X123261571Y-105681000D02*
X123404428Y-105633380D01*
X123404428Y-105633380D02*
X123499666Y-105633380D01*
X123499666Y-105633380D02*
X123642523Y-105681000D01*
X123642523Y-105681000D02*
X123690142Y-105728619D01*
X124642523Y-106633380D02*
X124071095Y-106633380D01*
X124356809Y-106633380D02*
X124356809Y-105633380D01*
X124356809Y-105633380D02*
X124261571Y-105776238D01*
X124261571Y-105776238D02*
X124166333Y-105871476D01*
X124166333Y-105871476D02*
X124071095Y-105919095D01*
X125547285Y-105633380D02*
X125071095Y-105633380D01*
X125071095Y-105633380D02*
X125023476Y-106109571D01*
X125023476Y-106109571D02*
X125071095Y-106061952D01*
X125071095Y-106061952D02*
X125166333Y-106014333D01*
X125166333Y-106014333D02*
X125404428Y-106014333D01*
X125404428Y-106014333D02*
X125499666Y-106061952D01*
X125499666Y-106061952D02*
X125547285Y-106109571D01*
X125547285Y-106109571D02*
X125594904Y-106204809D01*
X125594904Y-106204809D02*
X125594904Y-106442904D01*
X125594904Y-106442904D02*
X125547285Y-106538142D01*
X125547285Y-106538142D02*
X125499666Y-106585761D01*
X125499666Y-106585761D02*
X125404428Y-106633380D01*
X125404428Y-106633380D02*
X125166333Y-106633380D01*
X125166333Y-106633380D02*
X125071095Y-106585761D01*
X125071095Y-106585761D02*
X125023476Y-106538142D01*
%TO.C,C14*%
X83457142Y-108465857D02*
X83504761Y-108513476D01*
X83504761Y-108513476D02*
X83552380Y-108656333D01*
X83552380Y-108656333D02*
X83552380Y-108751571D01*
X83552380Y-108751571D02*
X83504761Y-108894428D01*
X83504761Y-108894428D02*
X83409523Y-108989666D01*
X83409523Y-108989666D02*
X83314285Y-109037285D01*
X83314285Y-109037285D02*
X83123809Y-109084904D01*
X83123809Y-109084904D02*
X82980952Y-109084904D01*
X82980952Y-109084904D02*
X82790476Y-109037285D01*
X82790476Y-109037285D02*
X82695238Y-108989666D01*
X82695238Y-108989666D02*
X82600000Y-108894428D01*
X82600000Y-108894428D02*
X82552380Y-108751571D01*
X82552380Y-108751571D02*
X82552380Y-108656333D01*
X82552380Y-108656333D02*
X82600000Y-108513476D01*
X82600000Y-108513476D02*
X82647619Y-108465857D01*
X83552380Y-107513476D02*
X83552380Y-108084904D01*
X83552380Y-107799190D02*
X82552380Y-107799190D01*
X82552380Y-107799190D02*
X82695238Y-107894428D01*
X82695238Y-107894428D02*
X82790476Y-107989666D01*
X82790476Y-107989666D02*
X82838095Y-108084904D01*
X82885714Y-106656333D02*
X83552380Y-106656333D01*
X82504761Y-106894428D02*
X83219047Y-107132523D01*
X83219047Y-107132523D02*
X83219047Y-106513476D01*
%TO.C,Y1*%
X133381809Y-79305190D02*
X133381809Y-79781380D01*
X133048476Y-78781380D02*
X133381809Y-79305190D01*
X133381809Y-79305190D02*
X133715142Y-78781380D01*
X134572285Y-79781380D02*
X134000857Y-79781380D01*
X134286571Y-79781380D02*
X134286571Y-78781380D01*
X134286571Y-78781380D02*
X134191333Y-78924238D01*
X134191333Y-78924238D02*
X134096095Y-79019476D01*
X134096095Y-79019476D02*
X134000857Y-79067095D01*
%TO.C,R12*%
X107457642Y-118466380D02*
X107124309Y-117990190D01*
X106886214Y-118466380D02*
X106886214Y-117466380D01*
X106886214Y-117466380D02*
X107267166Y-117466380D01*
X107267166Y-117466380D02*
X107362404Y-117514000D01*
X107362404Y-117514000D02*
X107410023Y-117561619D01*
X107410023Y-117561619D02*
X107457642Y-117656857D01*
X107457642Y-117656857D02*
X107457642Y-117799714D01*
X107457642Y-117799714D02*
X107410023Y-117894952D01*
X107410023Y-117894952D02*
X107362404Y-117942571D01*
X107362404Y-117942571D02*
X107267166Y-117990190D01*
X107267166Y-117990190D02*
X106886214Y-117990190D01*
X108410023Y-118466380D02*
X107838595Y-118466380D01*
X108124309Y-118466380D02*
X108124309Y-117466380D01*
X108124309Y-117466380D02*
X108029071Y-117609238D01*
X108029071Y-117609238D02*
X107933833Y-117704476D01*
X107933833Y-117704476D02*
X107838595Y-117752095D01*
X108790976Y-117561619D02*
X108838595Y-117514000D01*
X108838595Y-117514000D02*
X108933833Y-117466380D01*
X108933833Y-117466380D02*
X109171928Y-117466380D01*
X109171928Y-117466380D02*
X109267166Y-117514000D01*
X109267166Y-117514000D02*
X109314785Y-117561619D01*
X109314785Y-117561619D02*
X109362404Y-117656857D01*
X109362404Y-117656857D02*
X109362404Y-117752095D01*
X109362404Y-117752095D02*
X109314785Y-117894952D01*
X109314785Y-117894952D02*
X108743357Y-118466380D01*
X108743357Y-118466380D02*
X109362404Y-118466380D01*
%TO.C,R11*%
X107457642Y-116630380D02*
X107124309Y-116154190D01*
X106886214Y-116630380D02*
X106886214Y-115630380D01*
X106886214Y-115630380D02*
X107267166Y-115630380D01*
X107267166Y-115630380D02*
X107362404Y-115678000D01*
X107362404Y-115678000D02*
X107410023Y-115725619D01*
X107410023Y-115725619D02*
X107457642Y-115820857D01*
X107457642Y-115820857D02*
X107457642Y-115963714D01*
X107457642Y-115963714D02*
X107410023Y-116058952D01*
X107410023Y-116058952D02*
X107362404Y-116106571D01*
X107362404Y-116106571D02*
X107267166Y-116154190D01*
X107267166Y-116154190D02*
X106886214Y-116154190D01*
X108410023Y-116630380D02*
X107838595Y-116630380D01*
X108124309Y-116630380D02*
X108124309Y-115630380D01*
X108124309Y-115630380D02*
X108029071Y-115773238D01*
X108029071Y-115773238D02*
X107933833Y-115868476D01*
X107933833Y-115868476D02*
X107838595Y-115916095D01*
X109362404Y-116630380D02*
X108790976Y-116630380D01*
X109076690Y-116630380D02*
X109076690Y-115630380D01*
X109076690Y-115630380D02*
X108981452Y-115773238D01*
X108981452Y-115773238D02*
X108886214Y-115868476D01*
X108886214Y-115868476D02*
X108790976Y-115916095D01*
%TO.C,U1*%
X127119380Y-65639904D02*
X127928904Y-65639904D01*
X127928904Y-65639904D02*
X128024142Y-65592285D01*
X128024142Y-65592285D02*
X128071761Y-65544666D01*
X128071761Y-65544666D02*
X128119380Y-65449428D01*
X128119380Y-65449428D02*
X128119380Y-65258952D01*
X128119380Y-65258952D02*
X128071761Y-65163714D01*
X128071761Y-65163714D02*
X128024142Y-65116095D01*
X128024142Y-65116095D02*
X127928904Y-65068476D01*
X127928904Y-65068476D02*
X127119380Y-65068476D01*
X128119380Y-64068476D02*
X128119380Y-64639904D01*
X128119380Y-64354190D02*
X127119380Y-64354190D01*
X127119380Y-64354190D02*
X127262238Y-64449428D01*
X127262238Y-64449428D02*
X127357476Y-64544666D01*
X127357476Y-64544666D02*
X127405095Y-64639904D01*
%TO.C,LS1*%
X139692142Y-65938380D02*
X139215952Y-65938380D01*
X139215952Y-65938380D02*
X139215952Y-64938380D01*
X139977857Y-65890761D02*
X140120714Y-65938380D01*
X140120714Y-65938380D02*
X140358809Y-65938380D01*
X140358809Y-65938380D02*
X140454047Y-65890761D01*
X140454047Y-65890761D02*
X140501666Y-65843142D01*
X140501666Y-65843142D02*
X140549285Y-65747904D01*
X140549285Y-65747904D02*
X140549285Y-65652666D01*
X140549285Y-65652666D02*
X140501666Y-65557428D01*
X140501666Y-65557428D02*
X140454047Y-65509809D01*
X140454047Y-65509809D02*
X140358809Y-65462190D01*
X140358809Y-65462190D02*
X140168333Y-65414571D01*
X140168333Y-65414571D02*
X140073095Y-65366952D01*
X140073095Y-65366952D02*
X140025476Y-65319333D01*
X140025476Y-65319333D02*
X139977857Y-65224095D01*
X139977857Y-65224095D02*
X139977857Y-65128857D01*
X139977857Y-65128857D02*
X140025476Y-65033619D01*
X140025476Y-65033619D02*
X140073095Y-64986000D01*
X140073095Y-64986000D02*
X140168333Y-64938380D01*
X140168333Y-64938380D02*
X140406428Y-64938380D01*
X140406428Y-64938380D02*
X140549285Y-64986000D01*
X141501666Y-65938380D02*
X140930238Y-65938380D01*
X141215952Y-65938380D02*
X141215952Y-64938380D01*
X141215952Y-64938380D02*
X141120714Y-65081238D01*
X141120714Y-65081238D02*
X141025476Y-65176476D01*
X141025476Y-65176476D02*
X140930238Y-65224095D01*
X136144048Y-70217428D02*
X136905953Y-70217428D01*
X136525000Y-70598380D02*
X136525000Y-69836476D01*
%TO.C,U5*%
X85465595Y-113093380D02*
X85465595Y-113902904D01*
X85465595Y-113902904D02*
X85513214Y-113998142D01*
X85513214Y-113998142D02*
X85560833Y-114045761D01*
X85560833Y-114045761D02*
X85656071Y-114093380D01*
X85656071Y-114093380D02*
X85846547Y-114093380D01*
X85846547Y-114093380D02*
X85941785Y-114045761D01*
X85941785Y-114045761D02*
X85989404Y-113998142D01*
X85989404Y-113998142D02*
X86037023Y-113902904D01*
X86037023Y-113902904D02*
X86037023Y-113093380D01*
X86989404Y-113093380D02*
X86513214Y-113093380D01*
X86513214Y-113093380D02*
X86465595Y-113569571D01*
X86465595Y-113569571D02*
X86513214Y-113521952D01*
X86513214Y-113521952D02*
X86608452Y-113474333D01*
X86608452Y-113474333D02*
X86846547Y-113474333D01*
X86846547Y-113474333D02*
X86941785Y-113521952D01*
X86941785Y-113521952D02*
X86989404Y-113569571D01*
X86989404Y-113569571D02*
X87037023Y-113664809D01*
X87037023Y-113664809D02*
X87037023Y-113902904D01*
X87037023Y-113902904D02*
X86989404Y-113998142D01*
X86989404Y-113998142D02*
X86941785Y-114045761D01*
X86941785Y-114045761D02*
X86846547Y-114093380D01*
X86846547Y-114093380D02*
X86608452Y-114093380D01*
X86608452Y-114093380D02*
X86513214Y-114045761D01*
X86513214Y-114045761D02*
X86465595Y-113998142D01*
%TO.C,R9*%
X108441833Y-112312380D02*
X108108500Y-111836190D01*
X107870405Y-112312380D02*
X107870405Y-111312380D01*
X107870405Y-111312380D02*
X108251357Y-111312380D01*
X108251357Y-111312380D02*
X108346595Y-111360000D01*
X108346595Y-111360000D02*
X108394214Y-111407619D01*
X108394214Y-111407619D02*
X108441833Y-111502857D01*
X108441833Y-111502857D02*
X108441833Y-111645714D01*
X108441833Y-111645714D02*
X108394214Y-111740952D01*
X108394214Y-111740952D02*
X108346595Y-111788571D01*
X108346595Y-111788571D02*
X108251357Y-111836190D01*
X108251357Y-111836190D02*
X107870405Y-111836190D01*
X108918024Y-112312380D02*
X109108500Y-112312380D01*
X109108500Y-112312380D02*
X109203738Y-112264761D01*
X109203738Y-112264761D02*
X109251357Y-112217142D01*
X109251357Y-112217142D02*
X109346595Y-112074285D01*
X109346595Y-112074285D02*
X109394214Y-111883809D01*
X109394214Y-111883809D02*
X109394214Y-111502857D01*
X109394214Y-111502857D02*
X109346595Y-111407619D01*
X109346595Y-111407619D02*
X109298976Y-111360000D01*
X109298976Y-111360000D02*
X109203738Y-111312380D01*
X109203738Y-111312380D02*
X109013262Y-111312380D01*
X109013262Y-111312380D02*
X108918024Y-111360000D01*
X108918024Y-111360000D02*
X108870405Y-111407619D01*
X108870405Y-111407619D02*
X108822786Y-111502857D01*
X108822786Y-111502857D02*
X108822786Y-111740952D01*
X108822786Y-111740952D02*
X108870405Y-111836190D01*
X108870405Y-111836190D02*
X108918024Y-111883809D01*
X108918024Y-111883809D02*
X109013262Y-111931428D01*
X109013262Y-111931428D02*
X109203738Y-111931428D01*
X109203738Y-111931428D02*
X109298976Y-111883809D01*
X109298976Y-111883809D02*
X109346595Y-111836190D01*
X109346595Y-111836190D02*
X109394214Y-111740952D01*
%TO.C,J3*%
X76140666Y-103160380D02*
X76140666Y-103874666D01*
X76140666Y-103874666D02*
X76093047Y-104017523D01*
X76093047Y-104017523D02*
X75997809Y-104112761D01*
X75997809Y-104112761D02*
X75854952Y-104160380D01*
X75854952Y-104160380D02*
X75759714Y-104160380D01*
X76521619Y-103160380D02*
X77140666Y-103160380D01*
X77140666Y-103160380D02*
X76807333Y-103541333D01*
X76807333Y-103541333D02*
X76950190Y-103541333D01*
X76950190Y-103541333D02*
X77045428Y-103588952D01*
X77045428Y-103588952D02*
X77093047Y-103636571D01*
X77093047Y-103636571D02*
X77140666Y-103731809D01*
X77140666Y-103731809D02*
X77140666Y-103969904D01*
X77140666Y-103969904D02*
X77093047Y-104065142D01*
X77093047Y-104065142D02*
X77045428Y-104112761D01*
X77045428Y-104112761D02*
X76950190Y-104160380D01*
X76950190Y-104160380D02*
X76664476Y-104160380D01*
X76664476Y-104160380D02*
X76569238Y-104112761D01*
X76569238Y-104112761D02*
X76521619Y-104065142D01*
%TO.C,C13*%
X86092642Y-107587142D02*
X86045023Y-107634761D01*
X86045023Y-107634761D02*
X85902166Y-107682380D01*
X85902166Y-107682380D02*
X85806928Y-107682380D01*
X85806928Y-107682380D02*
X85664071Y-107634761D01*
X85664071Y-107634761D02*
X85568833Y-107539523D01*
X85568833Y-107539523D02*
X85521214Y-107444285D01*
X85521214Y-107444285D02*
X85473595Y-107253809D01*
X85473595Y-107253809D02*
X85473595Y-107110952D01*
X85473595Y-107110952D02*
X85521214Y-106920476D01*
X85521214Y-106920476D02*
X85568833Y-106825238D01*
X85568833Y-106825238D02*
X85664071Y-106730000D01*
X85664071Y-106730000D02*
X85806928Y-106682380D01*
X85806928Y-106682380D02*
X85902166Y-106682380D01*
X85902166Y-106682380D02*
X86045023Y-106730000D01*
X86045023Y-106730000D02*
X86092642Y-106777619D01*
X87045023Y-107682380D02*
X86473595Y-107682380D01*
X86759309Y-107682380D02*
X86759309Y-106682380D01*
X86759309Y-106682380D02*
X86664071Y-106825238D01*
X86664071Y-106825238D02*
X86568833Y-106920476D01*
X86568833Y-106920476D02*
X86473595Y-106968095D01*
X87378357Y-106682380D02*
X87997404Y-106682380D01*
X87997404Y-106682380D02*
X87664071Y-107063333D01*
X87664071Y-107063333D02*
X87806928Y-107063333D01*
X87806928Y-107063333D02*
X87902166Y-107110952D01*
X87902166Y-107110952D02*
X87949785Y-107158571D01*
X87949785Y-107158571D02*
X87997404Y-107253809D01*
X87997404Y-107253809D02*
X87997404Y-107491904D01*
X87997404Y-107491904D02*
X87949785Y-107587142D01*
X87949785Y-107587142D02*
X87902166Y-107634761D01*
X87902166Y-107634761D02*
X87806928Y-107682380D01*
X87806928Y-107682380D02*
X87521214Y-107682380D01*
X87521214Y-107682380D02*
X87425976Y-107634761D01*
X87425976Y-107634761D02*
X87378357Y-107587142D01*
%TO.C,C3*%
X141057333Y-100221142D02*
X141009714Y-100268761D01*
X141009714Y-100268761D02*
X140866857Y-100316380D01*
X140866857Y-100316380D02*
X140771619Y-100316380D01*
X140771619Y-100316380D02*
X140628762Y-100268761D01*
X140628762Y-100268761D02*
X140533524Y-100173523D01*
X140533524Y-100173523D02*
X140485905Y-100078285D01*
X140485905Y-100078285D02*
X140438286Y-99887809D01*
X140438286Y-99887809D02*
X140438286Y-99744952D01*
X140438286Y-99744952D02*
X140485905Y-99554476D01*
X140485905Y-99554476D02*
X140533524Y-99459238D01*
X140533524Y-99459238D02*
X140628762Y-99364000D01*
X140628762Y-99364000D02*
X140771619Y-99316380D01*
X140771619Y-99316380D02*
X140866857Y-99316380D01*
X140866857Y-99316380D02*
X141009714Y-99364000D01*
X141009714Y-99364000D02*
X141057333Y-99411619D01*
X141390667Y-99316380D02*
X142009714Y-99316380D01*
X142009714Y-99316380D02*
X141676381Y-99697333D01*
X141676381Y-99697333D02*
X141819238Y-99697333D01*
X141819238Y-99697333D02*
X141914476Y-99744952D01*
X141914476Y-99744952D02*
X141962095Y-99792571D01*
X141962095Y-99792571D02*
X142009714Y-99887809D01*
X142009714Y-99887809D02*
X142009714Y-100125904D01*
X142009714Y-100125904D02*
X141962095Y-100221142D01*
X141962095Y-100221142D02*
X141914476Y-100268761D01*
X141914476Y-100268761D02*
X141819238Y-100316380D01*
X141819238Y-100316380D02*
X141533524Y-100316380D01*
X141533524Y-100316380D02*
X141438286Y-100268761D01*
X141438286Y-100268761D02*
X141390667Y-100221142D01*
%TO.C,C10*%
X144010142Y-96411142D02*
X143962523Y-96458761D01*
X143962523Y-96458761D02*
X143819666Y-96506380D01*
X143819666Y-96506380D02*
X143724428Y-96506380D01*
X143724428Y-96506380D02*
X143581571Y-96458761D01*
X143581571Y-96458761D02*
X143486333Y-96363523D01*
X143486333Y-96363523D02*
X143438714Y-96268285D01*
X143438714Y-96268285D02*
X143391095Y-96077809D01*
X143391095Y-96077809D02*
X143391095Y-95934952D01*
X143391095Y-95934952D02*
X143438714Y-95744476D01*
X143438714Y-95744476D02*
X143486333Y-95649238D01*
X143486333Y-95649238D02*
X143581571Y-95554000D01*
X143581571Y-95554000D02*
X143724428Y-95506380D01*
X143724428Y-95506380D02*
X143819666Y-95506380D01*
X143819666Y-95506380D02*
X143962523Y-95554000D01*
X143962523Y-95554000D02*
X144010142Y-95601619D01*
X144962523Y-96506380D02*
X144391095Y-96506380D01*
X144676809Y-96506380D02*
X144676809Y-95506380D01*
X144676809Y-95506380D02*
X144581571Y-95649238D01*
X144581571Y-95649238D02*
X144486333Y-95744476D01*
X144486333Y-95744476D02*
X144391095Y-95792095D01*
X145581571Y-95506380D02*
X145676809Y-95506380D01*
X145676809Y-95506380D02*
X145772047Y-95554000D01*
X145772047Y-95554000D02*
X145819666Y-95601619D01*
X145819666Y-95601619D02*
X145867285Y-95696857D01*
X145867285Y-95696857D02*
X145914904Y-95887333D01*
X145914904Y-95887333D02*
X145914904Y-96125428D01*
X145914904Y-96125428D02*
X145867285Y-96315904D01*
X145867285Y-96315904D02*
X145819666Y-96411142D01*
X145819666Y-96411142D02*
X145772047Y-96458761D01*
X145772047Y-96458761D02*
X145676809Y-96506380D01*
X145676809Y-96506380D02*
X145581571Y-96506380D01*
X145581571Y-96506380D02*
X145486333Y-96458761D01*
X145486333Y-96458761D02*
X145438714Y-96411142D01*
X145438714Y-96411142D02*
X145391095Y-96315904D01*
X145391095Y-96315904D02*
X145343476Y-96125428D01*
X145343476Y-96125428D02*
X145343476Y-95887333D01*
X145343476Y-95887333D02*
X145391095Y-95696857D01*
X145391095Y-95696857D02*
X145438714Y-95601619D01*
X145438714Y-95601619D02*
X145486333Y-95554000D01*
X145486333Y-95554000D02*
X145581571Y-95506380D01*
%TO.C,R17*%
X80758380Y-114434857D02*
X80282190Y-114768190D01*
X80758380Y-115006285D02*
X79758380Y-115006285D01*
X79758380Y-115006285D02*
X79758380Y-114625333D01*
X79758380Y-114625333D02*
X79806000Y-114530095D01*
X79806000Y-114530095D02*
X79853619Y-114482476D01*
X79853619Y-114482476D02*
X79948857Y-114434857D01*
X79948857Y-114434857D02*
X80091714Y-114434857D01*
X80091714Y-114434857D02*
X80186952Y-114482476D01*
X80186952Y-114482476D02*
X80234571Y-114530095D01*
X80234571Y-114530095D02*
X80282190Y-114625333D01*
X80282190Y-114625333D02*
X80282190Y-115006285D01*
X80758380Y-113482476D02*
X80758380Y-114053904D01*
X80758380Y-113768190D02*
X79758380Y-113768190D01*
X79758380Y-113768190D02*
X79901238Y-113863428D01*
X79901238Y-113863428D02*
X79996476Y-113958666D01*
X79996476Y-113958666D02*
X80044095Y-114053904D01*
X79758380Y-113149142D02*
X79758380Y-112482476D01*
X79758380Y-112482476D02*
X80758380Y-112911047D01*
%TO.C,U3*%
X132461095Y-101813380D02*
X132461095Y-102622904D01*
X132461095Y-102622904D02*
X132508714Y-102718142D01*
X132508714Y-102718142D02*
X132556333Y-102765761D01*
X132556333Y-102765761D02*
X132651571Y-102813380D01*
X132651571Y-102813380D02*
X132842047Y-102813380D01*
X132842047Y-102813380D02*
X132937285Y-102765761D01*
X132937285Y-102765761D02*
X132984904Y-102718142D01*
X132984904Y-102718142D02*
X133032523Y-102622904D01*
X133032523Y-102622904D02*
X133032523Y-101813380D01*
X133413476Y-101813380D02*
X134032523Y-101813380D01*
X134032523Y-101813380D02*
X133699190Y-102194333D01*
X133699190Y-102194333D02*
X133842047Y-102194333D01*
X133842047Y-102194333D02*
X133937285Y-102241952D01*
X133937285Y-102241952D02*
X133984904Y-102289571D01*
X133984904Y-102289571D02*
X134032523Y-102384809D01*
X134032523Y-102384809D02*
X134032523Y-102622904D01*
X134032523Y-102622904D02*
X133984904Y-102718142D01*
X133984904Y-102718142D02*
X133937285Y-102765761D01*
X133937285Y-102765761D02*
X133842047Y-102813380D01*
X133842047Y-102813380D02*
X133556333Y-102813380D01*
X133556333Y-102813380D02*
X133461095Y-102765761D01*
X133461095Y-102765761D02*
X133413476Y-102718142D01*
%TO.C,C7*%
X143978333Y-92982142D02*
X143930714Y-93029761D01*
X143930714Y-93029761D02*
X143787857Y-93077380D01*
X143787857Y-93077380D02*
X143692619Y-93077380D01*
X143692619Y-93077380D02*
X143549762Y-93029761D01*
X143549762Y-93029761D02*
X143454524Y-92934523D01*
X143454524Y-92934523D02*
X143406905Y-92839285D01*
X143406905Y-92839285D02*
X143359286Y-92648809D01*
X143359286Y-92648809D02*
X143359286Y-92505952D01*
X143359286Y-92505952D02*
X143406905Y-92315476D01*
X143406905Y-92315476D02*
X143454524Y-92220238D01*
X143454524Y-92220238D02*
X143549762Y-92125000D01*
X143549762Y-92125000D02*
X143692619Y-92077380D01*
X143692619Y-92077380D02*
X143787857Y-92077380D01*
X143787857Y-92077380D02*
X143930714Y-92125000D01*
X143930714Y-92125000D02*
X143978333Y-92172619D01*
X144311667Y-92077380D02*
X144978333Y-92077380D01*
X144978333Y-92077380D02*
X144549762Y-93077380D01*
%TO.C,R5*%
X126833333Y-109841380D02*
X126500000Y-109365190D01*
X126261905Y-109841380D02*
X126261905Y-108841380D01*
X126261905Y-108841380D02*
X126642857Y-108841380D01*
X126642857Y-108841380D02*
X126738095Y-108889000D01*
X126738095Y-108889000D02*
X126785714Y-108936619D01*
X126785714Y-108936619D02*
X126833333Y-109031857D01*
X126833333Y-109031857D02*
X126833333Y-109174714D01*
X126833333Y-109174714D02*
X126785714Y-109269952D01*
X126785714Y-109269952D02*
X126738095Y-109317571D01*
X126738095Y-109317571D02*
X126642857Y-109365190D01*
X126642857Y-109365190D02*
X126261905Y-109365190D01*
X127738095Y-108841380D02*
X127261905Y-108841380D01*
X127261905Y-108841380D02*
X127214286Y-109317571D01*
X127214286Y-109317571D02*
X127261905Y-109269952D01*
X127261905Y-109269952D02*
X127357143Y-109222333D01*
X127357143Y-109222333D02*
X127595238Y-109222333D01*
X127595238Y-109222333D02*
X127690476Y-109269952D01*
X127690476Y-109269952D02*
X127738095Y-109317571D01*
X127738095Y-109317571D02*
X127785714Y-109412809D01*
X127785714Y-109412809D02*
X127785714Y-109650904D01*
X127785714Y-109650904D02*
X127738095Y-109746142D01*
X127738095Y-109746142D02*
X127690476Y-109793761D01*
X127690476Y-109793761D02*
X127595238Y-109841380D01*
X127595238Y-109841380D02*
X127357143Y-109841380D01*
X127357143Y-109841380D02*
X127261905Y-109793761D01*
X127261905Y-109793761D02*
X127214286Y-109746142D01*
%TO.C,R2*%
X116292333Y-88505380D02*
X115959000Y-88029190D01*
X115720905Y-88505380D02*
X115720905Y-87505380D01*
X115720905Y-87505380D02*
X116101857Y-87505380D01*
X116101857Y-87505380D02*
X116197095Y-87553000D01*
X116197095Y-87553000D02*
X116244714Y-87600619D01*
X116244714Y-87600619D02*
X116292333Y-87695857D01*
X116292333Y-87695857D02*
X116292333Y-87838714D01*
X116292333Y-87838714D02*
X116244714Y-87933952D01*
X116244714Y-87933952D02*
X116197095Y-87981571D01*
X116197095Y-87981571D02*
X116101857Y-88029190D01*
X116101857Y-88029190D02*
X115720905Y-88029190D01*
X116673286Y-87600619D02*
X116720905Y-87553000D01*
X116720905Y-87553000D02*
X116816143Y-87505380D01*
X116816143Y-87505380D02*
X117054238Y-87505380D01*
X117054238Y-87505380D02*
X117149476Y-87553000D01*
X117149476Y-87553000D02*
X117197095Y-87600619D01*
X117197095Y-87600619D02*
X117244714Y-87695857D01*
X117244714Y-87695857D02*
X117244714Y-87791095D01*
X117244714Y-87791095D02*
X117197095Y-87933952D01*
X117197095Y-87933952D02*
X116625667Y-88505380D01*
X116625667Y-88505380D02*
X117244714Y-88505380D01*
%TO.C,D2*%
X84430405Y-85077380D02*
X84430405Y-84077380D01*
X84430405Y-84077380D02*
X84668500Y-84077380D01*
X84668500Y-84077380D02*
X84811357Y-84125000D01*
X84811357Y-84125000D02*
X84906595Y-84220238D01*
X84906595Y-84220238D02*
X84954214Y-84315476D01*
X84954214Y-84315476D02*
X85001833Y-84505952D01*
X85001833Y-84505952D02*
X85001833Y-84648809D01*
X85001833Y-84648809D02*
X84954214Y-84839285D01*
X84954214Y-84839285D02*
X84906595Y-84934523D01*
X84906595Y-84934523D02*
X84811357Y-85029761D01*
X84811357Y-85029761D02*
X84668500Y-85077380D01*
X84668500Y-85077380D02*
X84430405Y-85077380D01*
X85382786Y-84172619D02*
X85430405Y-84125000D01*
X85430405Y-84125000D02*
X85525643Y-84077380D01*
X85525643Y-84077380D02*
X85763738Y-84077380D01*
X85763738Y-84077380D02*
X85858976Y-84125000D01*
X85858976Y-84125000D02*
X85906595Y-84172619D01*
X85906595Y-84172619D02*
X85954214Y-84267857D01*
X85954214Y-84267857D02*
X85954214Y-84363095D01*
X85954214Y-84363095D02*
X85906595Y-84505952D01*
X85906595Y-84505952D02*
X85335167Y-85077380D01*
X85335167Y-85077380D02*
X85954214Y-85077380D01*
%TO.C,R1*%
X100316380Y-92495666D02*
X99840190Y-92828999D01*
X100316380Y-93067094D02*
X99316380Y-93067094D01*
X99316380Y-93067094D02*
X99316380Y-92686142D01*
X99316380Y-92686142D02*
X99364000Y-92590904D01*
X99364000Y-92590904D02*
X99411619Y-92543285D01*
X99411619Y-92543285D02*
X99506857Y-92495666D01*
X99506857Y-92495666D02*
X99649714Y-92495666D01*
X99649714Y-92495666D02*
X99744952Y-92543285D01*
X99744952Y-92543285D02*
X99792571Y-92590904D01*
X99792571Y-92590904D02*
X99840190Y-92686142D01*
X99840190Y-92686142D02*
X99840190Y-93067094D01*
X100316380Y-91543285D02*
X100316380Y-92114713D01*
X100316380Y-91828999D02*
X99316380Y-91828999D01*
X99316380Y-91828999D02*
X99459238Y-91924237D01*
X99459238Y-91924237D02*
X99554476Y-92019475D01*
X99554476Y-92019475D02*
X99602095Y-92114713D01*
%TO.C,C11*%
X134384142Y-105290857D02*
X134431761Y-105338476D01*
X134431761Y-105338476D02*
X134479380Y-105481333D01*
X134479380Y-105481333D02*
X134479380Y-105576571D01*
X134479380Y-105576571D02*
X134431761Y-105719428D01*
X134431761Y-105719428D02*
X134336523Y-105814666D01*
X134336523Y-105814666D02*
X134241285Y-105862285D01*
X134241285Y-105862285D02*
X134050809Y-105909904D01*
X134050809Y-105909904D02*
X133907952Y-105909904D01*
X133907952Y-105909904D02*
X133717476Y-105862285D01*
X133717476Y-105862285D02*
X133622238Y-105814666D01*
X133622238Y-105814666D02*
X133527000Y-105719428D01*
X133527000Y-105719428D02*
X133479380Y-105576571D01*
X133479380Y-105576571D02*
X133479380Y-105481333D01*
X133479380Y-105481333D02*
X133527000Y-105338476D01*
X133527000Y-105338476D02*
X133574619Y-105290857D01*
X134479380Y-104338476D02*
X134479380Y-104909904D01*
X134479380Y-104624190D02*
X133479380Y-104624190D01*
X133479380Y-104624190D02*
X133622238Y-104719428D01*
X133622238Y-104719428D02*
X133717476Y-104814666D01*
X133717476Y-104814666D02*
X133765095Y-104909904D01*
X134479380Y-103386095D02*
X134479380Y-103957523D01*
X134479380Y-103671809D02*
X133479380Y-103671809D01*
X133479380Y-103671809D02*
X133622238Y-103767047D01*
X133622238Y-103767047D02*
X133717476Y-103862285D01*
X133717476Y-103862285D02*
X133765095Y-103957523D01*
%TO.C,J2*%
X147875666Y-78527380D02*
X147875666Y-79241666D01*
X147875666Y-79241666D02*
X147828047Y-79384523D01*
X147828047Y-79384523D02*
X147732809Y-79479761D01*
X147732809Y-79479761D02*
X147589952Y-79527380D01*
X147589952Y-79527380D02*
X147494714Y-79527380D01*
X148304238Y-78622619D02*
X148351857Y-78575000D01*
X148351857Y-78575000D02*
X148447095Y-78527380D01*
X148447095Y-78527380D02*
X148685190Y-78527380D01*
X148685190Y-78527380D02*
X148780428Y-78575000D01*
X148780428Y-78575000D02*
X148828047Y-78622619D01*
X148828047Y-78622619D02*
X148875666Y-78717857D01*
X148875666Y-78717857D02*
X148875666Y-78813095D01*
X148875666Y-78813095D02*
X148828047Y-78955952D01*
X148828047Y-78955952D02*
X148256619Y-79527380D01*
X148256619Y-79527380D02*
X148875666Y-79527380D01*
%TO.C,U4*%
X143634380Y-101540904D02*
X144443904Y-101540904D01*
X144443904Y-101540904D02*
X144539142Y-101493285D01*
X144539142Y-101493285D02*
X144586761Y-101445666D01*
X144586761Y-101445666D02*
X144634380Y-101350428D01*
X144634380Y-101350428D02*
X144634380Y-101159952D01*
X144634380Y-101159952D02*
X144586761Y-101064714D01*
X144586761Y-101064714D02*
X144539142Y-101017095D01*
X144539142Y-101017095D02*
X144443904Y-100969476D01*
X144443904Y-100969476D02*
X143634380Y-100969476D01*
X143967714Y-100064714D02*
X144634380Y-100064714D01*
X143586761Y-100302809D02*
X144301047Y-100540904D01*
X144301047Y-100540904D02*
X144301047Y-99921857D01*
%TO.C,R4*%
X88375833Y-84949380D02*
X88042500Y-84473190D01*
X87804405Y-84949380D02*
X87804405Y-83949380D01*
X87804405Y-83949380D02*
X88185357Y-83949380D01*
X88185357Y-83949380D02*
X88280595Y-83997000D01*
X88280595Y-83997000D02*
X88328214Y-84044619D01*
X88328214Y-84044619D02*
X88375833Y-84139857D01*
X88375833Y-84139857D02*
X88375833Y-84282714D01*
X88375833Y-84282714D02*
X88328214Y-84377952D01*
X88328214Y-84377952D02*
X88280595Y-84425571D01*
X88280595Y-84425571D02*
X88185357Y-84473190D01*
X88185357Y-84473190D02*
X87804405Y-84473190D01*
X89232976Y-84282714D02*
X89232976Y-84949380D01*
X88994881Y-83901761D02*
X88756786Y-84616047D01*
X88756786Y-84616047D02*
X89375833Y-84616047D01*
%TO.C,C12*%
X90944642Y-111955857D02*
X90992261Y-112003476D01*
X90992261Y-112003476D02*
X91039880Y-112146333D01*
X91039880Y-112146333D02*
X91039880Y-112241571D01*
X91039880Y-112241571D02*
X90992261Y-112384428D01*
X90992261Y-112384428D02*
X90897023Y-112479666D01*
X90897023Y-112479666D02*
X90801785Y-112527285D01*
X90801785Y-112527285D02*
X90611309Y-112574904D01*
X90611309Y-112574904D02*
X90468452Y-112574904D01*
X90468452Y-112574904D02*
X90277976Y-112527285D01*
X90277976Y-112527285D02*
X90182738Y-112479666D01*
X90182738Y-112479666D02*
X90087500Y-112384428D01*
X90087500Y-112384428D02*
X90039880Y-112241571D01*
X90039880Y-112241571D02*
X90039880Y-112146333D01*
X90039880Y-112146333D02*
X90087500Y-112003476D01*
X90087500Y-112003476D02*
X90135119Y-111955857D01*
X91039880Y-111003476D02*
X91039880Y-111574904D01*
X91039880Y-111289190D02*
X90039880Y-111289190D01*
X90039880Y-111289190D02*
X90182738Y-111384428D01*
X90182738Y-111384428D02*
X90277976Y-111479666D01*
X90277976Y-111479666D02*
X90325595Y-111574904D01*
X90135119Y-110622523D02*
X90087500Y-110574904D01*
X90087500Y-110574904D02*
X90039880Y-110479666D01*
X90039880Y-110479666D02*
X90039880Y-110241571D01*
X90039880Y-110241571D02*
X90087500Y-110146333D01*
X90087500Y-110146333D02*
X90135119Y-110098714D01*
X90135119Y-110098714D02*
X90230357Y-110051095D01*
X90230357Y-110051095D02*
X90325595Y-110051095D01*
X90325595Y-110051095D02*
X90468452Y-110098714D01*
X90468452Y-110098714D02*
X91039880Y-110670142D01*
X91039880Y-110670142D02*
X91039880Y-110051095D01*
%TO.C,C5*%
X127849333Y-104318142D02*
X127801714Y-104365761D01*
X127801714Y-104365761D02*
X127658857Y-104413380D01*
X127658857Y-104413380D02*
X127563619Y-104413380D01*
X127563619Y-104413380D02*
X127420762Y-104365761D01*
X127420762Y-104365761D02*
X127325524Y-104270523D01*
X127325524Y-104270523D02*
X127277905Y-104175285D01*
X127277905Y-104175285D02*
X127230286Y-103984809D01*
X127230286Y-103984809D02*
X127230286Y-103841952D01*
X127230286Y-103841952D02*
X127277905Y-103651476D01*
X127277905Y-103651476D02*
X127325524Y-103556238D01*
X127325524Y-103556238D02*
X127420762Y-103461000D01*
X127420762Y-103461000D02*
X127563619Y-103413380D01*
X127563619Y-103413380D02*
X127658857Y-103413380D01*
X127658857Y-103413380D02*
X127801714Y-103461000D01*
X127801714Y-103461000D02*
X127849333Y-103508619D01*
X128754095Y-103413380D02*
X128277905Y-103413380D01*
X128277905Y-103413380D02*
X128230286Y-103889571D01*
X128230286Y-103889571D02*
X128277905Y-103841952D01*
X128277905Y-103841952D02*
X128373143Y-103794333D01*
X128373143Y-103794333D02*
X128611238Y-103794333D01*
X128611238Y-103794333D02*
X128706476Y-103841952D01*
X128706476Y-103841952D02*
X128754095Y-103889571D01*
X128754095Y-103889571D02*
X128801714Y-103984809D01*
X128801714Y-103984809D02*
X128801714Y-104222904D01*
X128801714Y-104222904D02*
X128754095Y-104318142D01*
X128754095Y-104318142D02*
X128706476Y-104365761D01*
X128706476Y-104365761D02*
X128611238Y-104413380D01*
X128611238Y-104413380D02*
X128373143Y-104413380D01*
X128373143Y-104413380D02*
X128277905Y-104365761D01*
X128277905Y-104365761D02*
X128230286Y-104318142D01*
%TO.C,D3*%
X137904380Y-116122094D02*
X136904380Y-116122094D01*
X136904380Y-116122094D02*
X136904380Y-115883999D01*
X136904380Y-115883999D02*
X136952000Y-115741142D01*
X136952000Y-115741142D02*
X137047238Y-115645904D01*
X137047238Y-115645904D02*
X137142476Y-115598285D01*
X137142476Y-115598285D02*
X137332952Y-115550666D01*
X137332952Y-115550666D02*
X137475809Y-115550666D01*
X137475809Y-115550666D02*
X137666285Y-115598285D01*
X137666285Y-115598285D02*
X137761523Y-115645904D01*
X137761523Y-115645904D02*
X137856761Y-115741142D01*
X137856761Y-115741142D02*
X137904380Y-115883999D01*
X137904380Y-115883999D02*
X137904380Y-116122094D01*
X136904380Y-115217332D02*
X136904380Y-114598285D01*
X136904380Y-114598285D02*
X137285333Y-114931618D01*
X137285333Y-114931618D02*
X137285333Y-114788761D01*
X137285333Y-114788761D02*
X137332952Y-114693523D01*
X137332952Y-114693523D02*
X137380571Y-114645904D01*
X137380571Y-114645904D02*
X137475809Y-114598285D01*
X137475809Y-114598285D02*
X137713904Y-114598285D01*
X137713904Y-114598285D02*
X137809142Y-114645904D01*
X137809142Y-114645904D02*
X137856761Y-114693523D01*
X137856761Y-114693523D02*
X137904380Y-114788761D01*
X137904380Y-114788761D02*
X137904380Y-115074475D01*
X137904380Y-115074475D02*
X137856761Y-115169713D01*
X137856761Y-115169713D02*
X137809142Y-115217332D01*
%TO.C,C8*%
X134478142Y-86640666D02*
X134525761Y-86688285D01*
X134525761Y-86688285D02*
X134573380Y-86831142D01*
X134573380Y-86831142D02*
X134573380Y-86926380D01*
X134573380Y-86926380D02*
X134525761Y-87069237D01*
X134525761Y-87069237D02*
X134430523Y-87164475D01*
X134430523Y-87164475D02*
X134335285Y-87212094D01*
X134335285Y-87212094D02*
X134144809Y-87259713D01*
X134144809Y-87259713D02*
X134001952Y-87259713D01*
X134001952Y-87259713D02*
X133811476Y-87212094D01*
X133811476Y-87212094D02*
X133716238Y-87164475D01*
X133716238Y-87164475D02*
X133621000Y-87069237D01*
X133621000Y-87069237D02*
X133573380Y-86926380D01*
X133573380Y-86926380D02*
X133573380Y-86831142D01*
X133573380Y-86831142D02*
X133621000Y-86688285D01*
X133621000Y-86688285D02*
X133668619Y-86640666D01*
X134001952Y-86069237D02*
X133954333Y-86164475D01*
X133954333Y-86164475D02*
X133906714Y-86212094D01*
X133906714Y-86212094D02*
X133811476Y-86259713D01*
X133811476Y-86259713D02*
X133763857Y-86259713D01*
X133763857Y-86259713D02*
X133668619Y-86212094D01*
X133668619Y-86212094D02*
X133621000Y-86164475D01*
X133621000Y-86164475D02*
X133573380Y-86069237D01*
X133573380Y-86069237D02*
X133573380Y-85878761D01*
X133573380Y-85878761D02*
X133621000Y-85783523D01*
X133621000Y-85783523D02*
X133668619Y-85735904D01*
X133668619Y-85735904D02*
X133763857Y-85688285D01*
X133763857Y-85688285D02*
X133811476Y-85688285D01*
X133811476Y-85688285D02*
X133906714Y-85735904D01*
X133906714Y-85735904D02*
X133954333Y-85783523D01*
X133954333Y-85783523D02*
X134001952Y-85878761D01*
X134001952Y-85878761D02*
X134001952Y-86069237D01*
X134001952Y-86069237D02*
X134049571Y-86164475D01*
X134049571Y-86164475D02*
X134097190Y-86212094D01*
X134097190Y-86212094D02*
X134192428Y-86259713D01*
X134192428Y-86259713D02*
X134382904Y-86259713D01*
X134382904Y-86259713D02*
X134478142Y-86212094D01*
X134478142Y-86212094D02*
X134525761Y-86164475D01*
X134525761Y-86164475D02*
X134573380Y-86069237D01*
X134573380Y-86069237D02*
X134573380Y-85878761D01*
X134573380Y-85878761D02*
X134525761Y-85783523D01*
X134525761Y-85783523D02*
X134478142Y-85735904D01*
X134478142Y-85735904D02*
X134382904Y-85688285D01*
X134382904Y-85688285D02*
X134192428Y-85688285D01*
X134192428Y-85688285D02*
X134097190Y-85735904D01*
X134097190Y-85735904D02*
X134049571Y-85783523D01*
X134049571Y-85783523D02*
X134001952Y-85878761D01*
%TO.C,D1*%
X92721405Y-85077380D02*
X92721405Y-84077380D01*
X92721405Y-84077380D02*
X92959500Y-84077380D01*
X92959500Y-84077380D02*
X93102357Y-84125000D01*
X93102357Y-84125000D02*
X93197595Y-84220238D01*
X93197595Y-84220238D02*
X93245214Y-84315476D01*
X93245214Y-84315476D02*
X93292833Y-84505952D01*
X93292833Y-84505952D02*
X93292833Y-84648809D01*
X93292833Y-84648809D02*
X93245214Y-84839285D01*
X93245214Y-84839285D02*
X93197595Y-84934523D01*
X93197595Y-84934523D02*
X93102357Y-85029761D01*
X93102357Y-85029761D02*
X92959500Y-85077380D01*
X92959500Y-85077380D02*
X92721405Y-85077380D01*
X94245214Y-85077380D02*
X93673786Y-85077380D01*
X93959500Y-85077380D02*
X93959500Y-84077380D01*
X93959500Y-84077380D02*
X93864262Y-84220238D01*
X93864262Y-84220238D02*
X93769024Y-84315476D01*
X93769024Y-84315476D02*
X93673786Y-84363095D01*
%TO.C,R15*%
X150608380Y-107894857D02*
X150132190Y-108228190D01*
X150608380Y-108466285D02*
X149608380Y-108466285D01*
X149608380Y-108466285D02*
X149608380Y-108085333D01*
X149608380Y-108085333D02*
X149656000Y-107990095D01*
X149656000Y-107990095D02*
X149703619Y-107942476D01*
X149703619Y-107942476D02*
X149798857Y-107894857D01*
X149798857Y-107894857D02*
X149941714Y-107894857D01*
X149941714Y-107894857D02*
X150036952Y-107942476D01*
X150036952Y-107942476D02*
X150084571Y-107990095D01*
X150084571Y-107990095D02*
X150132190Y-108085333D01*
X150132190Y-108085333D02*
X150132190Y-108466285D01*
X150608380Y-106942476D02*
X150608380Y-107513904D01*
X150608380Y-107228190D02*
X149608380Y-107228190D01*
X149608380Y-107228190D02*
X149751238Y-107323428D01*
X149751238Y-107323428D02*
X149846476Y-107418666D01*
X149846476Y-107418666D02*
X149894095Y-107513904D01*
X149608380Y-106037714D02*
X149608380Y-106513904D01*
X149608380Y-106513904D02*
X150084571Y-106561523D01*
X150084571Y-106561523D02*
X150036952Y-106513904D01*
X150036952Y-106513904D02*
X149989333Y-106418666D01*
X149989333Y-106418666D02*
X149989333Y-106180571D01*
X149989333Y-106180571D02*
X150036952Y-106085333D01*
X150036952Y-106085333D02*
X150084571Y-106037714D01*
X150084571Y-106037714D02*
X150179809Y-105990095D01*
X150179809Y-105990095D02*
X150417904Y-105990095D01*
X150417904Y-105990095D02*
X150513142Y-106037714D01*
X150513142Y-106037714D02*
X150560761Y-106085333D01*
X150560761Y-106085333D02*
X150608380Y-106180571D01*
X150608380Y-106180571D02*
X150608380Y-106418666D01*
X150608380Y-106418666D02*
X150560761Y-106513904D01*
X150560761Y-106513904D02*
X150513142Y-106561523D01*
D11*
%TO.C,S1*%
X88948380Y-96799097D02*
X89129809Y-96859573D01*
X89129809Y-96859573D02*
X89432190Y-96859573D01*
X89432190Y-96859573D02*
X89553142Y-96799097D01*
X89553142Y-96799097D02*
X89613618Y-96738621D01*
X89613618Y-96738621D02*
X89674095Y-96617669D01*
X89674095Y-96617669D02*
X89674095Y-96496716D01*
X89674095Y-96496716D02*
X89613618Y-96375764D01*
X89613618Y-96375764D02*
X89553142Y-96315288D01*
X89553142Y-96315288D02*
X89432190Y-96254811D01*
X89432190Y-96254811D02*
X89190285Y-96194335D01*
X89190285Y-96194335D02*
X89069333Y-96133859D01*
X89069333Y-96133859D02*
X89008856Y-96073383D01*
X89008856Y-96073383D02*
X88948380Y-95952430D01*
X88948380Y-95952430D02*
X88948380Y-95831478D01*
X88948380Y-95831478D02*
X89008856Y-95710526D01*
X89008856Y-95710526D02*
X89069333Y-95650050D01*
X89069333Y-95650050D02*
X89190285Y-95589573D01*
X89190285Y-95589573D02*
X89492666Y-95589573D01*
X89492666Y-95589573D02*
X89674095Y-95650050D01*
X90883619Y-96859573D02*
X90157904Y-96859573D01*
X90520761Y-96859573D02*
X90520761Y-95589573D01*
X90520761Y-95589573D02*
X90399809Y-95771002D01*
X90399809Y-95771002D02*
X90278857Y-95891954D01*
X90278857Y-95891954D02*
X90157904Y-95952430D01*
D10*
%TO.C,R3*%
X96734333Y-88377380D02*
X96401000Y-87901190D01*
X96162905Y-88377380D02*
X96162905Y-87377380D01*
X96162905Y-87377380D02*
X96543857Y-87377380D01*
X96543857Y-87377380D02*
X96639095Y-87425000D01*
X96639095Y-87425000D02*
X96686714Y-87472619D01*
X96686714Y-87472619D02*
X96734333Y-87567857D01*
X96734333Y-87567857D02*
X96734333Y-87710714D01*
X96734333Y-87710714D02*
X96686714Y-87805952D01*
X96686714Y-87805952D02*
X96639095Y-87853571D01*
X96639095Y-87853571D02*
X96543857Y-87901190D01*
X96543857Y-87901190D02*
X96162905Y-87901190D01*
X97067667Y-87377380D02*
X97686714Y-87377380D01*
X97686714Y-87377380D02*
X97353381Y-87758333D01*
X97353381Y-87758333D02*
X97496238Y-87758333D01*
X97496238Y-87758333D02*
X97591476Y-87805952D01*
X97591476Y-87805952D02*
X97639095Y-87853571D01*
X97639095Y-87853571D02*
X97686714Y-87948809D01*
X97686714Y-87948809D02*
X97686714Y-88186904D01*
X97686714Y-88186904D02*
X97639095Y-88282142D01*
X97639095Y-88282142D02*
X97591476Y-88329761D01*
X97591476Y-88329761D02*
X97496238Y-88377380D01*
X97496238Y-88377380D02*
X97210524Y-88377380D01*
X97210524Y-88377380D02*
X97115286Y-88329761D01*
X97115286Y-88329761D02*
X97067667Y-88282142D01*
%TO.C,F1*%
X138158571Y-106065333D02*
X138158571Y-106398666D01*
X138682380Y-106398666D02*
X137682380Y-106398666D01*
X137682380Y-106398666D02*
X137682380Y-105922476D01*
X138682380Y-105017714D02*
X138682380Y-105589142D01*
X138682380Y-105303428D02*
X137682380Y-105303428D01*
X137682380Y-105303428D02*
X137825238Y-105398666D01*
X137825238Y-105398666D02*
X137920476Y-105493904D01*
X137920476Y-105493904D02*
X137968095Y-105589142D01*
%TO.C,R13*%
X94474380Y-112656857D02*
X93998190Y-112990190D01*
X94474380Y-113228285D02*
X93474380Y-113228285D01*
X93474380Y-113228285D02*
X93474380Y-112847333D01*
X93474380Y-112847333D02*
X93522000Y-112752095D01*
X93522000Y-112752095D02*
X93569619Y-112704476D01*
X93569619Y-112704476D02*
X93664857Y-112656857D01*
X93664857Y-112656857D02*
X93807714Y-112656857D01*
X93807714Y-112656857D02*
X93902952Y-112704476D01*
X93902952Y-112704476D02*
X93950571Y-112752095D01*
X93950571Y-112752095D02*
X93998190Y-112847333D01*
X93998190Y-112847333D02*
X93998190Y-113228285D01*
X94474380Y-111704476D02*
X94474380Y-112275904D01*
X94474380Y-111990190D02*
X93474380Y-111990190D01*
X93474380Y-111990190D02*
X93617238Y-112085428D01*
X93617238Y-112085428D02*
X93712476Y-112180666D01*
X93712476Y-112180666D02*
X93760095Y-112275904D01*
X93474380Y-111371142D02*
X93474380Y-110752095D01*
X93474380Y-110752095D02*
X93855333Y-111085428D01*
X93855333Y-111085428D02*
X93855333Y-110942571D01*
X93855333Y-110942571D02*
X93902952Y-110847333D01*
X93902952Y-110847333D02*
X93950571Y-110799714D01*
X93950571Y-110799714D02*
X94045809Y-110752095D01*
X94045809Y-110752095D02*
X94283904Y-110752095D01*
X94283904Y-110752095D02*
X94379142Y-110799714D01*
X94379142Y-110799714D02*
X94426761Y-110847333D01*
X94426761Y-110847333D02*
X94474380Y-110942571D01*
X94474380Y-110942571D02*
X94474380Y-111228285D01*
X94474380Y-111228285D02*
X94426761Y-111323523D01*
X94426761Y-111323523D02*
X94379142Y-111371142D01*
%TO.C,C6*%
X124166333Y-93650142D02*
X124118714Y-93697761D01*
X124118714Y-93697761D02*
X123975857Y-93745380D01*
X123975857Y-93745380D02*
X123880619Y-93745380D01*
X123880619Y-93745380D02*
X123737762Y-93697761D01*
X123737762Y-93697761D02*
X123642524Y-93602523D01*
X123642524Y-93602523D02*
X123594905Y-93507285D01*
X123594905Y-93507285D02*
X123547286Y-93316809D01*
X123547286Y-93316809D02*
X123547286Y-93173952D01*
X123547286Y-93173952D02*
X123594905Y-92983476D01*
X123594905Y-92983476D02*
X123642524Y-92888238D01*
X123642524Y-92888238D02*
X123737762Y-92793000D01*
X123737762Y-92793000D02*
X123880619Y-92745380D01*
X123880619Y-92745380D02*
X123975857Y-92745380D01*
X123975857Y-92745380D02*
X124118714Y-92793000D01*
X124118714Y-92793000D02*
X124166333Y-92840619D01*
X125023476Y-92745380D02*
X124833000Y-92745380D01*
X124833000Y-92745380D02*
X124737762Y-92793000D01*
X124737762Y-92793000D02*
X124690143Y-92840619D01*
X124690143Y-92840619D02*
X124594905Y-92983476D01*
X124594905Y-92983476D02*
X124547286Y-93173952D01*
X124547286Y-93173952D02*
X124547286Y-93554904D01*
X124547286Y-93554904D02*
X124594905Y-93650142D01*
X124594905Y-93650142D02*
X124642524Y-93697761D01*
X124642524Y-93697761D02*
X124737762Y-93745380D01*
X124737762Y-93745380D02*
X124928238Y-93745380D01*
X124928238Y-93745380D02*
X125023476Y-93697761D01*
X125023476Y-93697761D02*
X125071095Y-93650142D01*
X125071095Y-93650142D02*
X125118714Y-93554904D01*
X125118714Y-93554904D02*
X125118714Y-93316809D01*
X125118714Y-93316809D02*
X125071095Y-93221571D01*
X125071095Y-93221571D02*
X125023476Y-93173952D01*
X125023476Y-93173952D02*
X124928238Y-93126333D01*
X124928238Y-93126333D02*
X124737762Y-93126333D01*
X124737762Y-93126333D02*
X124642524Y-93173952D01*
X124642524Y-93173952D02*
X124594905Y-93221571D01*
X124594905Y-93221571D02*
X124547286Y-93316809D01*
D11*
%TO.C,S2*%
X110284380Y-96839097D02*
X110465809Y-96899573D01*
X110465809Y-96899573D02*
X110768190Y-96899573D01*
X110768190Y-96899573D02*
X110889142Y-96839097D01*
X110889142Y-96839097D02*
X110949618Y-96778621D01*
X110949618Y-96778621D02*
X111010095Y-96657669D01*
X111010095Y-96657669D02*
X111010095Y-96536716D01*
X111010095Y-96536716D02*
X110949618Y-96415764D01*
X110949618Y-96415764D02*
X110889142Y-96355288D01*
X110889142Y-96355288D02*
X110768190Y-96294811D01*
X110768190Y-96294811D02*
X110526285Y-96234335D01*
X110526285Y-96234335D02*
X110405333Y-96173859D01*
X110405333Y-96173859D02*
X110344856Y-96113383D01*
X110344856Y-96113383D02*
X110284380Y-95992430D01*
X110284380Y-95992430D02*
X110284380Y-95871478D01*
X110284380Y-95871478D02*
X110344856Y-95750526D01*
X110344856Y-95750526D02*
X110405333Y-95690050D01*
X110405333Y-95690050D02*
X110526285Y-95629573D01*
X110526285Y-95629573D02*
X110828666Y-95629573D01*
X110828666Y-95629573D02*
X111010095Y-95690050D01*
X111493904Y-95750526D02*
X111554380Y-95690050D01*
X111554380Y-95690050D02*
X111675333Y-95629573D01*
X111675333Y-95629573D02*
X111977714Y-95629573D01*
X111977714Y-95629573D02*
X112098666Y-95690050D01*
X112098666Y-95690050D02*
X112159142Y-95750526D01*
X112159142Y-95750526D02*
X112219619Y-95871478D01*
X112219619Y-95871478D02*
X112219619Y-95992430D01*
X112219619Y-95992430D02*
X112159142Y-96173859D01*
X112159142Y-96173859D02*
X111433428Y-96899573D01*
X111433428Y-96899573D02*
X112219619Y-96899573D01*
D10*
%TO.C,R7*%
X108545333Y-108444380D02*
X108212000Y-107968190D01*
X107973905Y-108444380D02*
X107973905Y-107444380D01*
X107973905Y-107444380D02*
X108354857Y-107444380D01*
X108354857Y-107444380D02*
X108450095Y-107492000D01*
X108450095Y-107492000D02*
X108497714Y-107539619D01*
X108497714Y-107539619D02*
X108545333Y-107634857D01*
X108545333Y-107634857D02*
X108545333Y-107777714D01*
X108545333Y-107777714D02*
X108497714Y-107872952D01*
X108497714Y-107872952D02*
X108450095Y-107920571D01*
X108450095Y-107920571D02*
X108354857Y-107968190D01*
X108354857Y-107968190D02*
X107973905Y-107968190D01*
X108878667Y-107444380D02*
X109545333Y-107444380D01*
X109545333Y-107444380D02*
X109116762Y-108444380D01*
%TO.C,C2*%
X129525142Y-81993666D02*
X129572761Y-82041285D01*
X129572761Y-82041285D02*
X129620380Y-82184142D01*
X129620380Y-82184142D02*
X129620380Y-82279380D01*
X129620380Y-82279380D02*
X129572761Y-82422237D01*
X129572761Y-82422237D02*
X129477523Y-82517475D01*
X129477523Y-82517475D02*
X129382285Y-82565094D01*
X129382285Y-82565094D02*
X129191809Y-82612713D01*
X129191809Y-82612713D02*
X129048952Y-82612713D01*
X129048952Y-82612713D02*
X128858476Y-82565094D01*
X128858476Y-82565094D02*
X128763238Y-82517475D01*
X128763238Y-82517475D02*
X128668000Y-82422237D01*
X128668000Y-82422237D02*
X128620380Y-82279380D01*
X128620380Y-82279380D02*
X128620380Y-82184142D01*
X128620380Y-82184142D02*
X128668000Y-82041285D01*
X128668000Y-82041285D02*
X128715619Y-81993666D01*
X128715619Y-81612713D02*
X128668000Y-81565094D01*
X128668000Y-81565094D02*
X128620380Y-81469856D01*
X128620380Y-81469856D02*
X128620380Y-81231761D01*
X128620380Y-81231761D02*
X128668000Y-81136523D01*
X128668000Y-81136523D02*
X128715619Y-81088904D01*
X128715619Y-81088904D02*
X128810857Y-81041285D01*
X128810857Y-81041285D02*
X128906095Y-81041285D01*
X128906095Y-81041285D02*
X129048952Y-81088904D01*
X129048952Y-81088904D02*
X129620380Y-81660332D01*
X129620380Y-81660332D02*
X129620380Y-81041285D01*
%TO.C,R14*%
X137776380Y-112665857D02*
X137300190Y-112999190D01*
X137776380Y-113237285D02*
X136776380Y-113237285D01*
X136776380Y-113237285D02*
X136776380Y-112856333D01*
X136776380Y-112856333D02*
X136824000Y-112761095D01*
X136824000Y-112761095D02*
X136871619Y-112713476D01*
X136871619Y-112713476D02*
X136966857Y-112665857D01*
X136966857Y-112665857D02*
X137109714Y-112665857D01*
X137109714Y-112665857D02*
X137204952Y-112713476D01*
X137204952Y-112713476D02*
X137252571Y-112761095D01*
X137252571Y-112761095D02*
X137300190Y-112856333D01*
X137300190Y-112856333D02*
X137300190Y-113237285D01*
X137776380Y-111713476D02*
X137776380Y-112284904D01*
X137776380Y-111999190D02*
X136776380Y-111999190D01*
X136776380Y-111999190D02*
X136919238Y-112094428D01*
X136919238Y-112094428D02*
X137014476Y-112189666D01*
X137014476Y-112189666D02*
X137062095Y-112284904D01*
X137109714Y-110856333D02*
X137776380Y-110856333D01*
X136728761Y-111094428D02*
X137443047Y-111332523D01*
X137443047Y-111332523D02*
X137443047Y-110713476D01*
%TO.C,C4*%
X138390333Y-104158142D02*
X138342714Y-104205761D01*
X138342714Y-104205761D02*
X138199857Y-104253380D01*
X138199857Y-104253380D02*
X138104619Y-104253380D01*
X138104619Y-104253380D02*
X137961762Y-104205761D01*
X137961762Y-104205761D02*
X137866524Y-104110523D01*
X137866524Y-104110523D02*
X137818905Y-104015285D01*
X137818905Y-104015285D02*
X137771286Y-103824809D01*
X137771286Y-103824809D02*
X137771286Y-103681952D01*
X137771286Y-103681952D02*
X137818905Y-103491476D01*
X137818905Y-103491476D02*
X137866524Y-103396238D01*
X137866524Y-103396238D02*
X137961762Y-103301000D01*
X137961762Y-103301000D02*
X138104619Y-103253380D01*
X138104619Y-103253380D02*
X138199857Y-103253380D01*
X138199857Y-103253380D02*
X138342714Y-103301000D01*
X138342714Y-103301000D02*
X138390333Y-103348619D01*
X139247476Y-103586714D02*
X139247476Y-104253380D01*
X139009381Y-103205761D02*
X138771286Y-103920047D01*
X138771286Y-103920047D02*
X139390333Y-103920047D01*
%TO.C,C9*%
X133401142Y-108751666D02*
X133448761Y-108799285D01*
X133448761Y-108799285D02*
X133496380Y-108942142D01*
X133496380Y-108942142D02*
X133496380Y-109037380D01*
X133496380Y-109037380D02*
X133448761Y-109180237D01*
X133448761Y-109180237D02*
X133353523Y-109275475D01*
X133353523Y-109275475D02*
X133258285Y-109323094D01*
X133258285Y-109323094D02*
X133067809Y-109370713D01*
X133067809Y-109370713D02*
X132924952Y-109370713D01*
X132924952Y-109370713D02*
X132734476Y-109323094D01*
X132734476Y-109323094D02*
X132639238Y-109275475D01*
X132639238Y-109275475D02*
X132544000Y-109180237D01*
X132544000Y-109180237D02*
X132496380Y-109037380D01*
X132496380Y-109037380D02*
X132496380Y-108942142D01*
X132496380Y-108942142D02*
X132544000Y-108799285D01*
X132544000Y-108799285D02*
X132591619Y-108751666D01*
X133496380Y-108275475D02*
X133496380Y-108084999D01*
X133496380Y-108084999D02*
X133448761Y-107989761D01*
X133448761Y-107989761D02*
X133401142Y-107942142D01*
X133401142Y-107942142D02*
X133258285Y-107846904D01*
X133258285Y-107846904D02*
X133067809Y-107799285D01*
X133067809Y-107799285D02*
X132686857Y-107799285D01*
X132686857Y-107799285D02*
X132591619Y-107846904D01*
X132591619Y-107846904D02*
X132544000Y-107894523D01*
X132544000Y-107894523D02*
X132496380Y-107989761D01*
X132496380Y-107989761D02*
X132496380Y-108180237D01*
X132496380Y-108180237D02*
X132544000Y-108275475D01*
X132544000Y-108275475D02*
X132591619Y-108323094D01*
X132591619Y-108323094D02*
X132686857Y-108370713D01*
X132686857Y-108370713D02*
X132924952Y-108370713D01*
X132924952Y-108370713D02*
X133020190Y-108323094D01*
X133020190Y-108323094D02*
X133067809Y-108275475D01*
X133067809Y-108275475D02*
X133115428Y-108180237D01*
X133115428Y-108180237D02*
X133115428Y-107989761D01*
X133115428Y-107989761D02*
X133067809Y-107894523D01*
X133067809Y-107894523D02*
X133020190Y-107846904D01*
X133020190Y-107846904D02*
X132924952Y-107799285D01*
%TO.C,R8*%
X108592333Y-110338380D02*
X108259000Y-109862190D01*
X108020905Y-110338380D02*
X108020905Y-109338380D01*
X108020905Y-109338380D02*
X108401857Y-109338380D01*
X108401857Y-109338380D02*
X108497095Y-109386000D01*
X108497095Y-109386000D02*
X108544714Y-109433619D01*
X108544714Y-109433619D02*
X108592333Y-109528857D01*
X108592333Y-109528857D02*
X108592333Y-109671714D01*
X108592333Y-109671714D02*
X108544714Y-109766952D01*
X108544714Y-109766952D02*
X108497095Y-109814571D01*
X108497095Y-109814571D02*
X108401857Y-109862190D01*
X108401857Y-109862190D02*
X108020905Y-109862190D01*
X109163762Y-109766952D02*
X109068524Y-109719333D01*
X109068524Y-109719333D02*
X109020905Y-109671714D01*
X109020905Y-109671714D02*
X108973286Y-109576476D01*
X108973286Y-109576476D02*
X108973286Y-109528857D01*
X108973286Y-109528857D02*
X109020905Y-109433619D01*
X109020905Y-109433619D02*
X109068524Y-109386000D01*
X109068524Y-109386000D02*
X109163762Y-109338380D01*
X109163762Y-109338380D02*
X109354238Y-109338380D01*
X109354238Y-109338380D02*
X109449476Y-109386000D01*
X109449476Y-109386000D02*
X109497095Y-109433619D01*
X109497095Y-109433619D02*
X109544714Y-109528857D01*
X109544714Y-109528857D02*
X109544714Y-109576476D01*
X109544714Y-109576476D02*
X109497095Y-109671714D01*
X109497095Y-109671714D02*
X109449476Y-109719333D01*
X109449476Y-109719333D02*
X109354238Y-109766952D01*
X109354238Y-109766952D02*
X109163762Y-109766952D01*
X109163762Y-109766952D02*
X109068524Y-109814571D01*
X109068524Y-109814571D02*
X109020905Y-109862190D01*
X109020905Y-109862190D02*
X108973286Y-109957428D01*
X108973286Y-109957428D02*
X108973286Y-110147904D01*
X108973286Y-110147904D02*
X109020905Y-110243142D01*
X109020905Y-110243142D02*
X109068524Y-110290761D01*
X109068524Y-110290761D02*
X109163762Y-110338380D01*
X109163762Y-110338380D02*
X109354238Y-110338380D01*
X109354238Y-110338380D02*
X109449476Y-110290761D01*
X109449476Y-110290761D02*
X109497095Y-110243142D01*
X109497095Y-110243142D02*
X109544714Y-110147904D01*
X109544714Y-110147904D02*
X109544714Y-109957428D01*
X109544714Y-109957428D02*
X109497095Y-109862190D01*
X109497095Y-109862190D02*
X109449476Y-109814571D01*
X109449476Y-109814571D02*
X109354238Y-109766952D01*
%TO.C,U2*%
X117602095Y-106788380D02*
X117602095Y-107597904D01*
X117602095Y-107597904D02*
X117649714Y-107693142D01*
X117649714Y-107693142D02*
X117697333Y-107740761D01*
X117697333Y-107740761D02*
X117792571Y-107788380D01*
X117792571Y-107788380D02*
X117983047Y-107788380D01*
X117983047Y-107788380D02*
X118078285Y-107740761D01*
X118078285Y-107740761D02*
X118125904Y-107693142D01*
X118125904Y-107693142D02*
X118173523Y-107597904D01*
X118173523Y-107597904D02*
X118173523Y-106788380D01*
X118602095Y-106883619D02*
X118649714Y-106836000D01*
X118649714Y-106836000D02*
X118744952Y-106788380D01*
X118744952Y-106788380D02*
X118983047Y-106788380D01*
X118983047Y-106788380D02*
X119078285Y-106836000D01*
X119078285Y-106836000D02*
X119125904Y-106883619D01*
X119125904Y-106883619D02*
X119173523Y-106978857D01*
X119173523Y-106978857D02*
X119173523Y-107074095D01*
X119173523Y-107074095D02*
X119125904Y-107216952D01*
X119125904Y-107216952D02*
X118554476Y-107788380D01*
X118554476Y-107788380D02*
X119173523Y-107788380D01*
%TO.C,R6*%
X108545333Y-106314380D02*
X108212000Y-105838190D01*
X107973905Y-106314380D02*
X107973905Y-105314380D01*
X107973905Y-105314380D02*
X108354857Y-105314380D01*
X108354857Y-105314380D02*
X108450095Y-105362000D01*
X108450095Y-105362000D02*
X108497714Y-105409619D01*
X108497714Y-105409619D02*
X108545333Y-105504857D01*
X108545333Y-105504857D02*
X108545333Y-105647714D01*
X108545333Y-105647714D02*
X108497714Y-105742952D01*
X108497714Y-105742952D02*
X108450095Y-105790571D01*
X108450095Y-105790571D02*
X108354857Y-105838190D01*
X108354857Y-105838190D02*
X107973905Y-105838190D01*
X109402476Y-105314380D02*
X109212000Y-105314380D01*
X109212000Y-105314380D02*
X109116762Y-105362000D01*
X109116762Y-105362000D02*
X109069143Y-105409619D01*
X109069143Y-105409619D02*
X108973905Y-105552476D01*
X108973905Y-105552476D02*
X108926286Y-105742952D01*
X108926286Y-105742952D02*
X108926286Y-106123904D01*
X108926286Y-106123904D02*
X108973905Y-106219142D01*
X108973905Y-106219142D02*
X109021524Y-106266761D01*
X109021524Y-106266761D02*
X109116762Y-106314380D01*
X109116762Y-106314380D02*
X109307238Y-106314380D01*
X109307238Y-106314380D02*
X109402476Y-106266761D01*
X109402476Y-106266761D02*
X109450095Y-106219142D01*
X109450095Y-106219142D02*
X109497714Y-106123904D01*
X109497714Y-106123904D02*
X109497714Y-105885809D01*
X109497714Y-105885809D02*
X109450095Y-105790571D01*
X109450095Y-105790571D02*
X109402476Y-105742952D01*
X109402476Y-105742952D02*
X109307238Y-105695333D01*
X109307238Y-105695333D02*
X109116762Y-105695333D01*
X109116762Y-105695333D02*
X109021524Y-105742952D01*
X109021524Y-105742952D02*
X108973905Y-105790571D01*
X108973905Y-105790571D02*
X108926286Y-105885809D01*
%TO.C,J1*%
X152061666Y-113032380D02*
X152061666Y-113746666D01*
X152061666Y-113746666D02*
X152014047Y-113889523D01*
X152014047Y-113889523D02*
X151918809Y-113984761D01*
X151918809Y-113984761D02*
X151775952Y-114032380D01*
X151775952Y-114032380D02*
X151680714Y-114032380D01*
X153061666Y-114032380D02*
X152490238Y-114032380D01*
X152775952Y-114032380D02*
X152775952Y-113032380D01*
X152775952Y-113032380D02*
X152680714Y-113175238D01*
X152680714Y-113175238D02*
X152585476Y-113270476D01*
X152585476Y-113270476D02*
X152490238Y-113318095D01*
%TO.C,R10*%
X107711642Y-114188380D02*
X107378309Y-113712190D01*
X107140214Y-114188380D02*
X107140214Y-113188380D01*
X107140214Y-113188380D02*
X107521166Y-113188380D01*
X107521166Y-113188380D02*
X107616404Y-113236000D01*
X107616404Y-113236000D02*
X107664023Y-113283619D01*
X107664023Y-113283619D02*
X107711642Y-113378857D01*
X107711642Y-113378857D02*
X107711642Y-113521714D01*
X107711642Y-113521714D02*
X107664023Y-113616952D01*
X107664023Y-113616952D02*
X107616404Y-113664571D01*
X107616404Y-113664571D02*
X107521166Y-113712190D01*
X107521166Y-113712190D02*
X107140214Y-113712190D01*
X108664023Y-114188380D02*
X108092595Y-114188380D01*
X108378309Y-114188380D02*
X108378309Y-113188380D01*
X108378309Y-113188380D02*
X108283071Y-113331238D01*
X108283071Y-113331238D02*
X108187833Y-113426476D01*
X108187833Y-113426476D02*
X108092595Y-113474095D01*
X109283071Y-113188380D02*
X109378309Y-113188380D01*
X109378309Y-113188380D02*
X109473547Y-113236000D01*
X109473547Y-113236000D02*
X109521166Y-113283619D01*
X109521166Y-113283619D02*
X109568785Y-113378857D01*
X109568785Y-113378857D02*
X109616404Y-113569333D01*
X109616404Y-113569333D02*
X109616404Y-113807428D01*
X109616404Y-113807428D02*
X109568785Y-113997904D01*
X109568785Y-113997904D02*
X109521166Y-114093142D01*
X109521166Y-114093142D02*
X109473547Y-114140761D01*
X109473547Y-114140761D02*
X109378309Y-114188380D01*
X109378309Y-114188380D02*
X109283071Y-114188380D01*
X109283071Y-114188380D02*
X109187833Y-114140761D01*
X109187833Y-114140761D02*
X109140214Y-114093142D01*
X109140214Y-114093142D02*
X109092595Y-113997904D01*
X109092595Y-113997904D02*
X109044976Y-113807428D01*
X109044976Y-113807428D02*
X109044976Y-113569333D01*
X109044976Y-113569333D02*
X109092595Y-113378857D01*
X109092595Y-113378857D02*
X109140214Y-113283619D01*
X109140214Y-113283619D02*
X109187833Y-113236000D01*
X109187833Y-113236000D02*
X109283071Y-113188380D01*
%TO.C,R16*%
X149211380Y-107898857D02*
X148735190Y-108232190D01*
X149211380Y-108470285D02*
X148211380Y-108470285D01*
X148211380Y-108470285D02*
X148211380Y-108089333D01*
X148211380Y-108089333D02*
X148259000Y-107994095D01*
X148259000Y-107994095D02*
X148306619Y-107946476D01*
X148306619Y-107946476D02*
X148401857Y-107898857D01*
X148401857Y-107898857D02*
X148544714Y-107898857D01*
X148544714Y-107898857D02*
X148639952Y-107946476D01*
X148639952Y-107946476D02*
X148687571Y-107994095D01*
X148687571Y-107994095D02*
X148735190Y-108089333D01*
X148735190Y-108089333D02*
X148735190Y-108470285D01*
X149211380Y-106946476D02*
X149211380Y-107517904D01*
X149211380Y-107232190D02*
X148211380Y-107232190D01*
X148211380Y-107232190D02*
X148354238Y-107327428D01*
X148354238Y-107327428D02*
X148449476Y-107422666D01*
X148449476Y-107422666D02*
X148497095Y-107517904D01*
X148211380Y-106089333D02*
X148211380Y-106279809D01*
X148211380Y-106279809D02*
X148259000Y-106375047D01*
X148259000Y-106375047D02*
X148306619Y-106422666D01*
X148306619Y-106422666D02*
X148449476Y-106517904D01*
X148449476Y-106517904D02*
X148639952Y-106565523D01*
X148639952Y-106565523D02*
X149020904Y-106565523D01*
X149020904Y-106565523D02*
X149116142Y-106517904D01*
X149116142Y-106517904D02*
X149163761Y-106470285D01*
X149163761Y-106470285D02*
X149211380Y-106375047D01*
X149211380Y-106375047D02*
X149211380Y-106184571D01*
X149211380Y-106184571D02*
X149163761Y-106089333D01*
X149163761Y-106089333D02*
X149116142Y-106041714D01*
X149116142Y-106041714D02*
X149020904Y-105994095D01*
X149020904Y-105994095D02*
X148782809Y-105994095D01*
X148782809Y-105994095D02*
X148687571Y-106041714D01*
X148687571Y-106041714D02*
X148639952Y-106089333D01*
X148639952Y-106089333D02*
X148592333Y-106184571D01*
X148592333Y-106184571D02*
X148592333Y-106375047D01*
X148592333Y-106375047D02*
X148639952Y-106470285D01*
X148639952Y-106470285D02*
X148687571Y-106517904D01*
X148687571Y-106517904D02*
X148782809Y-106565523D01*
D12*
%TO.C,C1*%
X136269000Y-81686420D02*
X136269000Y-81967580D01*
X137289000Y-81686420D02*
X137289000Y-81967580D01*
D13*
%TO.C,S3*%
X96157000Y-109098000D02*
G75*
G03*
X96157000Y-109098000I-100000J0D01*
G01*
D14*
X102857000Y-109998000D02*
X102857000Y-111998000D01*
X98057000Y-109998000D02*
X98057000Y-111998000D01*
X101957000Y-113398000D02*
X102557000Y-112798000D01*
X98957000Y-113398000D02*
X101957000Y-113398000D01*
X98357000Y-112798000D02*
X98957000Y-113398000D01*
X101957000Y-108598000D02*
X102557000Y-109198000D01*
X98957000Y-108598000D02*
X98357000Y-109198000D01*
X101957000Y-108598000D02*
X98957000Y-108598000D01*
D12*
%TO.C,C15*%
X124192420Y-108206000D02*
X124473580Y-108206000D01*
X124192420Y-107186000D02*
X124473580Y-107186000D01*
%TO.C,C14*%
X83568000Y-110918420D02*
X83568000Y-111199580D01*
X82548000Y-110918420D02*
X82548000Y-111199580D01*
%TO.C,Y1*%
X131731000Y-80177000D02*
X131731000Y-83477000D01*
X131731000Y-83477000D02*
X135731000Y-83477000D01*
%TO.C,R12*%
X111733064Y-117150000D02*
X111278936Y-117150000D01*
X111733064Y-118620000D02*
X111278936Y-118620000D01*
%TO.C,R11*%
X111733064Y-115216000D02*
X111278936Y-115216000D01*
X111733064Y-116686000D02*
X111278936Y-116686000D01*
%TO.C,U1*%
X75822000Y-82518000D02*
X126362000Y-82518000D01*
X75822000Y-63278000D02*
X75822000Y-82518000D01*
X126362000Y-63278000D02*
X126362000Y-82518000D01*
X126362000Y-63278000D02*
X75822000Y-63278000D01*
X108442000Y-62898000D02*
X106442000Y-62898000D01*
%TO.C,LS1*%
X146435000Y-72771000D02*
G75*
G03*
X146435000Y-72771000I-6100000J0D01*
G01*
%TO.C,U5*%
X86233000Y-109565000D02*
X84433000Y-109565000D01*
X86233000Y-109565000D02*
X87033000Y-109565000D01*
X86233000Y-112685000D02*
X85433000Y-112685000D01*
X86233000Y-112685000D02*
X87033000Y-112685000D01*
%TO.C,R9*%
X111733064Y-111152000D02*
X111278936Y-111152000D01*
X111733064Y-112622000D02*
X111278936Y-112622000D01*
%TO.C,J3*%
X79074000Y-107833000D02*
X79074000Y-115513000D01*
X79074000Y-105233000D02*
X79074000Y-106563000D01*
X77744000Y-105233000D02*
X79074000Y-105233000D01*
X76474000Y-107833000D02*
X79074000Y-107833000D01*
X76474000Y-105233000D02*
X76474000Y-107833000D01*
X73874000Y-115513000D02*
X79074000Y-115513000D01*
X73874000Y-105233000D02*
X76474000Y-105233000D01*
X73874000Y-105233000D02*
X73874000Y-115513000D01*
%TO.C,C13*%
X86876080Y-109095000D02*
X86594920Y-109095000D01*
X86876080Y-108075000D02*
X86594920Y-108075000D01*
%TO.C,C3*%
X142353420Y-97788000D02*
X142634580Y-97788000D01*
X142353420Y-98808000D02*
X142634580Y-98808000D01*
%TO.C,C10*%
X141718420Y-94613000D02*
X141999580Y-94613000D01*
X141718420Y-95633000D02*
X141999580Y-95633000D01*
%TO.C,R17*%
X79741500Y-110506742D02*
X79741500Y-110981258D01*
X80786500Y-110506742D02*
X80786500Y-110981258D01*
D10*
%TO.C,U3*%
X138398000Y-100171000D02*
X138398000Y-99596000D01*
X138398000Y-100171000D02*
X137723000Y-100171000D01*
X138398000Y-99596000D02*
X139673000Y-99596000D01*
X138398000Y-89821000D02*
X138398000Y-90496000D01*
X138398000Y-89821000D02*
X137723000Y-89821000D01*
X128048000Y-100171000D02*
X128723000Y-100171000D01*
X128048000Y-100171000D02*
X128048000Y-99496000D01*
X128048000Y-89821000D02*
X128723000Y-89821000D01*
X128048000Y-89821000D02*
X128048000Y-90496000D01*
D12*
%TO.C,C7*%
X141718420Y-93089000D02*
X141999580Y-93089000D01*
X141718420Y-94109000D02*
X141999580Y-94109000D01*
%TO.C,R5*%
X124232936Y-110209000D02*
X124687064Y-110209000D01*
X124232936Y-108739000D02*
X124687064Y-108739000D01*
%TO.C,R2*%
X118761742Y-87615500D02*
X119236258Y-87615500D01*
X118761742Y-88660500D02*
X119236258Y-88660500D01*
%TO.C,D2*%
X83483500Y-85400000D02*
X83483500Y-87320000D01*
X83483500Y-87320000D02*
X86168500Y-87320000D01*
X86168500Y-85400000D02*
X83483500Y-85400000D01*
%TO.C,R1*%
X100471500Y-94631742D02*
X100471500Y-95106258D01*
X99426500Y-94631742D02*
X99426500Y-95106258D01*
%TO.C,C11*%
X136146000Y-103364420D02*
X136146000Y-103645580D01*
X135126000Y-103364420D02*
X135126000Y-103645580D01*
%TO.C,J2*%
X145609000Y-80600000D02*
X145609000Y-88340000D01*
X145609000Y-80600000D02*
X148209000Y-80600000D01*
X145609000Y-88340000D02*
X150809000Y-88340000D01*
X148209000Y-80600000D02*
X148209000Y-83200000D01*
X148209000Y-83200000D02*
X150809000Y-83200000D01*
X149479000Y-80600000D02*
X150809000Y-80600000D01*
X150809000Y-80600000D02*
X150809000Y-81930000D01*
X150809000Y-83200000D02*
X150809000Y-88340000D01*
%TO.C,U4*%
X145120000Y-102557000D02*
X145120000Y-104357000D01*
X145120000Y-102557000D02*
X145120000Y-101757000D01*
X148240000Y-102557000D02*
X148240000Y-103357000D01*
X148240000Y-102557000D02*
X148240000Y-101757000D01*
%TO.C,R4*%
X88769564Y-87095000D02*
X88315436Y-87095000D01*
X88769564Y-85625000D02*
X88315436Y-85625000D01*
%TO.C,C12*%
X89658500Y-111453580D02*
X89658500Y-111172420D01*
X88638500Y-111453580D02*
X88638500Y-111172420D01*
%TO.C,C5*%
X128156580Y-103126000D02*
X127875420Y-103126000D01*
X128156580Y-102106000D02*
X127875420Y-102106000D01*
%TO.C,D3*%
X138227000Y-114384000D02*
X138227000Y-117069000D01*
X140147000Y-117069000D02*
X140147000Y-114384000D01*
X138227000Y-117069000D02*
X140147000Y-117069000D01*
%TO.C,C8*%
X135126000Y-86614580D02*
X135126000Y-86333420D01*
X136146000Y-86614580D02*
X136146000Y-86333420D01*
%TO.C,D1*%
X94459500Y-85400000D02*
X91774500Y-85400000D01*
X91774500Y-87320000D02*
X94459500Y-87320000D01*
X91774500Y-85400000D02*
X91774500Y-87320000D01*
%TO.C,R15*%
X147842500Y-107489258D02*
X147842500Y-107014742D01*
X146797500Y-107489258D02*
X146797500Y-107014742D01*
D15*
%TO.C,S1*%
X81316000Y-93793000D02*
X81316000Y-93793000D01*
X81316000Y-93893000D02*
X81316000Y-93893000D01*
D13*
X83916000Y-90393000D02*
X95916000Y-90393000D01*
X83916000Y-92793000D02*
X83916000Y-90393000D01*
X83916000Y-92793000D02*
X83916000Y-92793000D01*
X83916000Y-94993000D02*
X83916000Y-97793000D01*
X83916000Y-99993000D02*
X83916000Y-102393000D01*
X83916000Y-102393000D02*
X95916000Y-102393000D01*
X95916000Y-90393000D02*
X95916000Y-92793000D01*
X95916000Y-94993000D02*
X95916000Y-97793000D01*
X95916000Y-102393000D02*
X95916000Y-99993000D01*
D15*
X81316000Y-93893000D02*
G75*
G03*
X81316000Y-93793000I0J50000D01*
G01*
X81316000Y-93793000D02*
G75*
G03*
X81316000Y-93893000I0J-50000D01*
G01*
D12*
%TO.C,R3*%
X97128064Y-85625000D02*
X96673936Y-85625000D01*
X97128064Y-87095000D02*
X96673936Y-87095000D01*
%TO.C,F1*%
X144707000Y-107118252D02*
X144707000Y-104345748D01*
X141287000Y-107118252D02*
X141287000Y-104345748D01*
%TO.C,R13*%
X96153500Y-111776742D02*
X96153500Y-112251258D01*
X95108500Y-111776742D02*
X95108500Y-112251258D01*
%TO.C,C6*%
X124473580Y-92458000D02*
X124192420Y-92458000D01*
X124473580Y-91438000D02*
X124192420Y-91438000D01*
D15*
%TO.C,S2*%
X102652000Y-93833000D02*
X102652000Y-93833000D01*
X102652000Y-93933000D02*
X102652000Y-93933000D01*
D13*
X105252000Y-90433000D02*
X117252000Y-90433000D01*
X105252000Y-92833000D02*
X105252000Y-90433000D01*
X105252000Y-92833000D02*
X105252000Y-92833000D01*
X105252000Y-95033000D02*
X105252000Y-97833000D01*
X105252000Y-100033000D02*
X105252000Y-102433000D01*
X105252000Y-102433000D02*
X117252000Y-102433000D01*
X117252000Y-90433000D02*
X117252000Y-92833000D01*
X117252000Y-95033000D02*
X117252000Y-97833000D01*
X117252000Y-102433000D02*
X117252000Y-100033000D01*
D15*
X102652000Y-93933000D02*
G75*
G03*
X102652000Y-93833000I0J50000D01*
G01*
X102652000Y-93833000D02*
G75*
G03*
X102652000Y-93933000I0J-50000D01*
G01*
D12*
%TO.C,R7*%
X111629564Y-107088000D02*
X111175436Y-107088000D01*
X111629564Y-108558000D02*
X111175436Y-108558000D01*
%TO.C,C2*%
X130173000Y-81967580D02*
X130173000Y-81686420D01*
X131193000Y-81967580D02*
X131193000Y-81686420D01*
%TO.C,R14*%
X138452000Y-111795936D02*
X138452000Y-112250064D01*
X139922000Y-111795936D02*
X139922000Y-112250064D01*
%TO.C,C4*%
X138416420Y-102106000D02*
X138697580Y-102106000D01*
X138416420Y-103126000D02*
X138697580Y-103126000D01*
%TO.C,C9*%
X132209000Y-108444420D02*
X132209000Y-108725580D01*
X131189000Y-108444420D02*
X131189000Y-108725580D01*
%TO.C,R8*%
X111629564Y-109120000D02*
X111175436Y-109120000D01*
X111629564Y-110590000D02*
X111175436Y-110590000D01*
%TO.C,U2*%
X118364000Y-108136000D02*
X114764000Y-108136000D01*
X118364000Y-108136000D02*
X120564000Y-108136000D01*
X118364000Y-113606000D02*
X116164000Y-113606000D01*
X118364000Y-113606000D02*
X120564000Y-113606000D01*
%TO.C,R6*%
X111629564Y-105056000D02*
X111175436Y-105056000D01*
X111629564Y-106526000D02*
X111175436Y-106526000D01*
%TO.C,J1*%
X150717000Y-119262000D02*
X150717000Y-117312000D01*
X150717000Y-119262000D02*
X142897000Y-119262000D01*
X150717000Y-115092000D02*
X150717000Y-111862000D01*
X148917000Y-109942000D02*
X149997000Y-109942000D01*
X144697000Y-109942000D02*
X144697000Y-109512000D01*
X143617000Y-109942000D02*
X144697000Y-109942000D01*
X142897000Y-119262000D02*
X142897000Y-117312000D01*
X142897000Y-115092000D02*
X142897000Y-111862000D01*
%TO.C,R10*%
X111733064Y-113184000D02*
X111278936Y-113184000D01*
X111733064Y-114654000D02*
X111278936Y-114654000D01*
%TO.C,R16*%
X146318500Y-107489258D02*
X146318500Y-107014742D01*
X145273500Y-107489258D02*
X145273500Y-107014742D01*
%TD*%
M02*
