%TF.GenerationSoftware,KiCad,Pcbnew,(7.0.0)*%
%TF.CreationDate,2023-04-20T12:18:01-06:00*%
%TF.ProjectId,Phase_B_PCB_Prototype,50686173-655f-4425-9f50-43425f50726f,rev?*%
%TF.SameCoordinates,Original*%
%TF.FileFunction,Copper,L2,Bot*%
%TF.FilePolarity,Positive*%
%FSLAX46Y46*%
G04 Gerber Fmt 4.6, Leading zero omitted, Abs format (unit mm)*
G04 Created by KiCad (PCBNEW (7.0.0)) date 2023-04-20 12:18:01*
%MOMM*%
%LPD*%
G01*
G04 APERTURE LIST*
%TA.AperFunction,ComponentPad*%
%ADD10C,1.500000*%
%TD*%
%TA.AperFunction,ComponentPad*%
%ADD11R,1.500000X1.500000*%
%TD*%
%TA.AperFunction,ComponentPad*%
%ADD12R,2.000000X2.000000*%
%TD*%
%TA.AperFunction,ComponentPad*%
%ADD13C,2.000000*%
%TD*%
%TA.AperFunction,ComponentPad*%
%ADD14O,1.700000X1.700000*%
%TD*%
%TA.AperFunction,ComponentPad*%
%ADD15R,1.700000X1.700000*%
%TD*%
%TA.AperFunction,ViaPad*%
%ADD16C,0.600000*%
%TD*%
%TA.AperFunction,ViaPad*%
%ADD17C,1.000000*%
%TD*%
%TA.AperFunction,Conductor*%
%ADD18C,0.203200*%
%TD*%
%TA.AperFunction,Conductor*%
%ADD19C,0.508000*%
%TD*%
G04 APERTURE END LIST*
D10*
%TO.P,U1,12,CA1*%
%TO.N,Dig1*%
X107442000Y-80518000D03*
%TO.P,U1,11,a*%
%TO.N,Net-(U1-a)*%
X104902000Y-80518000D03*
%TO.P,U1,10,f*%
%TO.N,Net-(U1-f)*%
X102362000Y-80518000D03*
%TO.P,U1,9,CA2*%
%TO.N,Dig2*%
X99822000Y-80518000D03*
%TO.P,U1,8,CA3*%
%TO.N,Dig3*%
X97282000Y-80518000D03*
%TO.P,U1,7,b*%
%TO.N,Net-(U1-b)*%
X94742000Y-80518000D03*
%TO.P,U1,6,CA4*%
%TO.N,Dig4*%
X94742000Y-65278000D03*
%TO.P,U1,5,g*%
%TO.N,Net-(U1-g)*%
X97282000Y-65278000D03*
%TO.P,U1,4,c*%
%TO.N,Net-(U1-c)*%
X99822000Y-65278000D03*
%TO.P,U1,3,DPX*%
%TO.N,Net-(U1-DPX)*%
X102362000Y-65278000D03*
%TO.P,U1,2,d*%
%TO.N,Net-(U1-d)*%
X104902000Y-65278000D03*
D11*
%TO.P,U1,1,e*%
%TO.N,Net-(U1-e)*%
X107441999Y-65277999D03*
%TD*%
D12*
%TO.P,LS1,1,1*%
%TO.N,Buzzer*%
X136534999Y-72770999D03*
D13*
%TO.P,LS1,2,2*%
%TO.N,GND*%
X144135000Y-72771000D03*
%TD*%
D14*
%TO.P,J3,8,Pin_8*%
%TO.N,+3.3V*%
X75203999Y-114182999D03*
%TO.P,J3,7,Pin_7*%
%TO.N,RX*%
X77743999Y-114182999D03*
%TO.P,J3,6,Pin_6*%
%TO.N,+3.3V*%
X75203999Y-111642999D03*
%TO.P,J3,5,Pin_5*%
%TO.N,Net-(J3-Pin_5)*%
X77743999Y-111642999D03*
%TO.P,J3,4,Pin_4*%
%TO.N,+3.3V*%
X75203999Y-109102999D03*
%TO.P,J3,3,Pin_3*%
%TO.N,unconnected-(J3-Pin_3-Pad3)*%
X77743999Y-109102999D03*
%TO.P,J3,2,Pin_2*%
%TO.N,TX*%
X75203999Y-106562999D03*
D15*
%TO.P,J3,1,Pin_1*%
%TO.N,GND*%
X77743999Y-106562999D03*
%TD*%
%TO.P,J2,1,MISO*%
%TO.N,MISO*%
X149478999Y-81929999D03*
D14*
%TO.P,J2,2,VCC*%
%TO.N,+5V*%
X146938999Y-81929999D03*
%TO.P,J2,3,SCK*%
%TO.N,SCK*%
X149478999Y-84469999D03*
%TO.P,J2,4,MOSI*%
%TO.N,MOSI*%
X146938999Y-84469999D03*
%TO.P,J2,5,~{RST}*%
%TO.N,RST*%
X149478999Y-87009999D03*
%TO.P,J2,6,GND*%
%TO.N,GND*%
X146938999Y-87009999D03*
%TD*%
D16*
%TO.N,Net-(U1-a)*%
X112395000Y-91567000D03*
X114681000Y-104267000D03*
X127508000Y-109474000D03*
%TO.N,RST*%
X135382000Y-94234000D03*
X106299000Y-116332000D03*
%TO.N,+5V*%
X123571000Y-105410000D03*
X105537000Y-102235000D03*
%TO.N,TX*%
X89281000Y-104267000D03*
X131445000Y-98044000D03*
%TO.N,RX*%
X130556000Y-97155000D03*
%TO.N,Button_1*%
X98425000Y-88646000D03*
X110744000Y-86106000D03*
X118237000Y-86106000D03*
X128651000Y-86995000D03*
%TO.N,Dig3*%
X96901000Y-75311000D03*
X138430000Y-87249000D03*
%TO.N,ST_CP*%
X124968000Y-95758000D03*
X124206000Y-99060000D03*
%TO.N,Button_2*%
X128524000Y-85598000D03*
X126619000Y-85598000D03*
X118110000Y-89916000D03*
X118110000Y-92456000D03*
%TO.N,Dig2*%
X99949000Y-75819000D03*
%TO.N,Dig4*%
X98044000Y-77089000D03*
%TO.N,Dig1*%
X120777000Y-95758000D03*
%TO.N,Dig4*%
X123571000Y-95250000D03*
%TO.N,Dig2*%
X122301000Y-93853000D03*
%TO.N,RED_LED*%
X102997000Y-89789000D03*
%TO.N,GREEN_LED*%
X101727000Y-88138000D03*
%TO.N,RED_LED*%
X110236000Y-89789000D03*
%TO.N,GREEN_LED*%
X110236000Y-88138000D03*
%TO.N,Net-(U1-b)*%
X106680000Y-90932000D03*
X110236000Y-91186000D03*
D17*
%TO.N,GND*%
X130556000Y-102235000D03*
X125984000Y-90678000D03*
X122301000Y-91948000D03*
X121071000Y-88138000D03*
X125984000Y-99060000D03*
X125984000Y-102743000D03*
X126365000Y-107696000D03*
X143891000Y-95123000D03*
X143891000Y-93599000D03*
X144272000Y-100203000D03*
X146685000Y-105156000D03*
X122682000Y-110744000D03*
X115443000Y-114173000D03*
X79756000Y-106680000D03*
X99949000Y-96774000D03*
X91277000Y-86360000D03*
X83003000Y-86360000D03*
X144145000Y-75057000D03*
X134493000Y-84113000D03*
X131445000Y-79668000D03*
X136779000Y-83859000D03*
X146812000Y-89154000D03*
X148844000Y-108839000D03*
X139319000Y-103886000D03*
X135636000Y-105537000D03*
X131699000Y-110617000D03*
X96139000Y-109220000D03*
X83058000Y-113091000D03*
X89154000Y-109220000D03*
X84709000Y-108818000D03*
X139187000Y-117670000D03*
%TD*%
D18*
%TO.N,Button_2*%
X126619000Y-85598000D02*
X128524000Y-85598000D01*
%TO.N,ST_CP*%
X124206000Y-96520000D02*
X124206000Y-99060000D01*
D19*
%TO.N,+5V*%
X120396000Y-102235000D02*
X123571000Y-105410000D01*
D18*
%TO.N,Dig2*%
X122174000Y-93980000D02*
X122301000Y-93853000D01*
X116586000Y-93980000D02*
X122174000Y-93980000D01*
X116586000Y-77407789D02*
X116586000Y-93980000D01*
X114997211Y-75819000D02*
X116586000Y-77407789D01*
X99949000Y-75819000D02*
X114997211Y-75819000D01*
%TO.N,Dig1*%
X111441210Y-80518000D02*
X107442000Y-80518000D01*
X112903000Y-91909791D02*
X112996600Y-91816191D01*
X112903000Y-93472000D02*
X112903000Y-91909791D01*
X112996600Y-91816191D02*
X112996600Y-82073390D01*
X115189000Y-95758000D02*
X112903000Y-93472000D01*
X112996600Y-82073390D02*
X111441210Y-80518000D01*
X120777000Y-95758000D02*
X115189000Y-95758000D01*
%TO.N,Net-(U1-a)*%
X107877587Y-81569600D02*
X105953600Y-81569600D01*
X105953600Y-81569600D02*
X104902000Y-80518000D01*
X108525987Y-80921200D02*
X107877587Y-81569600D01*
X111274200Y-80921200D02*
X108525987Y-80921200D01*
X112395000Y-82042000D02*
X111274200Y-80921200D01*
X112395000Y-91567000D02*
X112395000Y-82042000D01*
X114681000Y-109474000D02*
X114681000Y-104267000D01*
X119126000Y-113919000D02*
X114681000Y-109474000D01*
X123063000Y-113919000D02*
X119126000Y-113919000D01*
X127508000Y-109474000D02*
X123063000Y-113919000D01*
%TO.N,RST*%
X125095000Y-115697000D02*
X134834400Y-105957600D01*
X134834400Y-94781600D02*
X135382000Y-94234000D01*
X119497634Y-115697000D02*
X125095000Y-115697000D01*
X118862634Y-116332000D02*
X119497634Y-115697000D01*
X134834400Y-105957600D02*
X134834400Y-94781600D01*
X106299000Y-116332000D02*
X118862634Y-116332000D01*
D19*
%TO.N,+5V*%
X105537000Y-102235000D02*
X120396000Y-102235000D01*
D18*
%TO.N,Button_1*%
X98933000Y-88646000D02*
X101473000Y-86106000D01*
X101473000Y-86106000D02*
X110744000Y-86106000D01*
X98425000Y-88646000D02*
X98933000Y-88646000D01*
%TO.N,Net-(U1-b)*%
X109982000Y-90932000D02*
X110236000Y-91186000D01*
X106680000Y-90932000D02*
X109982000Y-90932000D01*
%TO.N,TX*%
X128374800Y-101114200D02*
X131445000Y-98044000D01*
X89281000Y-104267000D02*
X92433800Y-101114200D01*
X92433800Y-101114200D02*
X128374800Y-101114200D01*
%TO.N,RX*%
X82296000Y-109601000D02*
X82296000Y-109631000D01*
X82296000Y-109631000D02*
X77744000Y-114183000D01*
X126882366Y-100711000D02*
X91186000Y-100711000D01*
X130556000Y-97155000D02*
X130438366Y-97155000D01*
X130438366Y-97155000D02*
X126882366Y-100711000D01*
X91186000Y-100711000D02*
X82296000Y-109601000D01*
%TO.N,Dig4*%
X116238400Y-95156400D02*
X123477400Y-95156400D01*
X115824000Y-77215999D02*
X115824000Y-94742000D01*
X115824000Y-94742000D02*
X116238400Y-95156400D01*
X115062001Y-76454000D02*
X115824000Y-77215999D01*
X98679000Y-76454000D02*
X115062001Y-76454000D01*
X123477400Y-95156400D02*
X123571000Y-95250000D01*
X98044000Y-77089000D02*
X98679000Y-76454000D01*
%TO.N,Dig3*%
X136779000Y-85598000D02*
X138430000Y-87249000D01*
X130556000Y-85598000D02*
X136779000Y-85598000D01*
X129794000Y-84836000D02*
X130556000Y-85598000D01*
X116989200Y-84836000D02*
X129794000Y-84836000D01*
X116989200Y-76349200D02*
X116989200Y-84836000D01*
X100291791Y-75311000D02*
X115951000Y-75311000D01*
X100198191Y-75217400D02*
X100291791Y-75311000D01*
X99699809Y-75217400D02*
X100198191Y-75217400D01*
X115951000Y-75311000D02*
X116989200Y-76349200D01*
X96901000Y-75311000D02*
X99606209Y-75311000D01*
X99606209Y-75311000D02*
X99699809Y-75217400D01*
%TO.N,Button_1*%
X123952000Y-86106000D02*
X118237000Y-86106000D01*
X124333000Y-86487000D02*
X123952000Y-86106000D01*
X124841000Y-86995000D02*
X124333000Y-86487000D01*
X128651000Y-86995000D02*
X124841000Y-86995000D01*
%TO.N,ST_CP*%
X124206000Y-96520000D02*
X124968000Y-95758000D01*
%TO.N,Button_2*%
X118110000Y-90170000D02*
X118110000Y-89916000D01*
X118110000Y-90424000D02*
X118110000Y-90170000D01*
X118110000Y-92456000D02*
X118110000Y-90424000D01*
%TO.N,RED_LED*%
X106680000Y-89789000D02*
X102997000Y-89789000D01*
%TO.N,GREEN_LED*%
X106553000Y-88138000D02*
X101727000Y-88138000D01*
X106553000Y-88138000D02*
X106680000Y-88138000D01*
%TO.N,RED_LED*%
X110236000Y-89789000D02*
X106680000Y-89789000D01*
%TO.N,GREEN_LED*%
X110236000Y-88138000D02*
X106553000Y-88138000D01*
%TD*%
%TA.AperFunction,Conductor*%
%TO.N,GND*%
G36*
X154675500Y-61433113D02*
G01*
X154720887Y-61478500D01*
X154737500Y-61540500D01*
X154737500Y-119688500D01*
X154720887Y-119750500D01*
X154675500Y-119795887D01*
X154613500Y-119812500D01*
X71065500Y-119812500D01*
X71003500Y-119795887D01*
X70958113Y-119750500D01*
X70941500Y-119688500D01*
X70941500Y-116332000D01*
X105485384Y-116332000D01*
X105486164Y-116338923D01*
X105505002Y-116506123D01*
X105505003Y-116506130D01*
X105505783Y-116513047D01*
X105565957Y-116685015D01*
X105569658Y-116690905D01*
X105569659Y-116690907D01*
X105651953Y-116821877D01*
X105662889Y-116839281D01*
X105791719Y-116968111D01*
X105945985Y-117065043D01*
X106117953Y-117125217D01*
X106299000Y-117145616D01*
X106480047Y-117125217D01*
X106652015Y-117065043D01*
X106806281Y-116968111D01*
X106807110Y-116967281D01*
X106840082Y-116949058D01*
X106881037Y-116942100D01*
X118786885Y-116942100D01*
X118797525Y-116942601D01*
X118804762Y-116944219D01*
X118870260Y-116942161D01*
X118874155Y-116942100D01*
X118897119Y-116942100D01*
X118901017Y-116942100D01*
X118904889Y-116941610D01*
X118905340Y-116941582D01*
X118916406Y-116940710D01*
X118958833Y-116939378D01*
X118977368Y-116933992D01*
X118996409Y-116930048D01*
X119015566Y-116927629D01*
X119055057Y-116911992D01*
X119066071Y-116908221D01*
X119106859Y-116896372D01*
X119123469Y-116886548D01*
X119140942Y-116877989D01*
X119158888Y-116870884D01*
X119193243Y-116845922D01*
X119202999Y-116839515D01*
X119232823Y-116821877D01*
X119239540Y-116817905D01*
X119253178Y-116804266D01*
X119267973Y-116791628D01*
X119283596Y-116780279D01*
X119310666Y-116747555D01*
X119318507Y-116738936D01*
X119714029Y-116343416D01*
X119754255Y-116316539D01*
X119801708Y-116307100D01*
X125019251Y-116307100D01*
X125029891Y-116307601D01*
X125037128Y-116309219D01*
X125102626Y-116307161D01*
X125106521Y-116307100D01*
X125129485Y-116307100D01*
X125133383Y-116307100D01*
X125137255Y-116306610D01*
X125137706Y-116306582D01*
X125148772Y-116305710D01*
X125191199Y-116304378D01*
X125209734Y-116298992D01*
X125228775Y-116295048D01*
X125247932Y-116292629D01*
X125287423Y-116276992D01*
X125298437Y-116273221D01*
X125339225Y-116261372D01*
X125355835Y-116251548D01*
X125373308Y-116242989D01*
X125391254Y-116235884D01*
X125425609Y-116210922D01*
X125435365Y-116204515D01*
X125465189Y-116186877D01*
X125471906Y-116182905D01*
X125485544Y-116169266D01*
X125500339Y-116156628D01*
X125515962Y-116145279D01*
X125543032Y-116112554D01*
X125550884Y-116103925D01*
X135212254Y-106442556D01*
X135220118Y-106435401D01*
X135226383Y-106431426D01*
X135271246Y-106383650D01*
X135273924Y-106380886D01*
X135292947Y-106361865D01*
X135295350Y-106358765D01*
X135295620Y-106358460D01*
X135302826Y-106350021D01*
X135331904Y-106319058D01*
X135341196Y-106302152D01*
X135351884Y-106285881D01*
X135363713Y-106270634D01*
X135380574Y-106231668D01*
X135385715Y-106221176D01*
X135396853Y-106200916D01*
X135406165Y-106183978D01*
X135410967Y-106165272D01*
X135417268Y-106146874D01*
X135424932Y-106129165D01*
X135431577Y-106087208D01*
X135433938Y-106075806D01*
X135444500Y-106034674D01*
X135444500Y-106015381D01*
X135446027Y-105995982D01*
X135447826Y-105984623D01*
X135449047Y-105976916D01*
X135445050Y-105934633D01*
X135444500Y-105922963D01*
X135444500Y-95151387D01*
X135458870Y-95093446D01*
X135498648Y-95048934D01*
X135549462Y-95030079D01*
X135549341Y-95029545D01*
X135553396Y-95028619D01*
X135554616Y-95028167D01*
X135554889Y-95028136D01*
X135563047Y-95027217D01*
X135735015Y-94967043D01*
X135889281Y-94870111D01*
X136018111Y-94741281D01*
X136115043Y-94587015D01*
X136175217Y-94415047D01*
X136195616Y-94234000D01*
X136175217Y-94052953D01*
X136115043Y-93880985D01*
X136018111Y-93726719D01*
X135889281Y-93597889D01*
X135842030Y-93568199D01*
X135740907Y-93504659D01*
X135740905Y-93504658D01*
X135735015Y-93500957D01*
X135728449Y-93498659D01*
X135728446Y-93498658D01*
X135569621Y-93443083D01*
X135569618Y-93443082D01*
X135563047Y-93440783D01*
X135556130Y-93440003D01*
X135556123Y-93440002D01*
X135388923Y-93421164D01*
X135382000Y-93420384D01*
X135375077Y-93421164D01*
X135207876Y-93440002D01*
X135207867Y-93440003D01*
X135200953Y-93440783D01*
X135194383Y-93443081D01*
X135194378Y-93443083D01*
X135035553Y-93498658D01*
X135035547Y-93498660D01*
X135028985Y-93500957D01*
X135023097Y-93504656D01*
X135023092Y-93504659D01*
X134880619Y-93594181D01*
X134880614Y-93594184D01*
X134874719Y-93597889D01*
X134869794Y-93602813D01*
X134869790Y-93602817D01*
X134750817Y-93721790D01*
X134750813Y-93721794D01*
X134745889Y-93726719D01*
X134742184Y-93732614D01*
X134742181Y-93732619D01*
X134652659Y-93875092D01*
X134652656Y-93875097D01*
X134648957Y-93880985D01*
X134646660Y-93887547D01*
X134646658Y-93887553D01*
X134591083Y-94046378D01*
X134591081Y-94046383D01*
X134588783Y-94052953D01*
X134588003Y-94059868D01*
X134588002Y-94059876D01*
X134579488Y-94135441D01*
X134567988Y-94175358D01*
X134543949Y-94209237D01*
X134456559Y-94296627D01*
X134448676Y-94303800D01*
X134442417Y-94307774D01*
X134437077Y-94313459D01*
X134437076Y-94313461D01*
X134397552Y-94355548D01*
X134394848Y-94358339D01*
X134375853Y-94377335D01*
X134373468Y-94380408D01*
X134373194Y-94380720D01*
X134365962Y-94389189D01*
X134336896Y-94420142D01*
X134333139Y-94426974D01*
X134333135Y-94426981D01*
X134327597Y-94437055D01*
X134316918Y-94453312D01*
X134309870Y-94462397D01*
X134309863Y-94462408D01*
X134305087Y-94468566D01*
X134301991Y-94475719D01*
X134301988Y-94475725D01*
X134288227Y-94507525D01*
X134283091Y-94518009D01*
X134266392Y-94548384D01*
X134266386Y-94548397D01*
X134262635Y-94555222D01*
X134260695Y-94562774D01*
X134260695Y-94562776D01*
X134257832Y-94573924D01*
X134251536Y-94592312D01*
X134246967Y-94602871D01*
X134246965Y-94602876D01*
X134243868Y-94610035D01*
X134242647Y-94617738D01*
X134242647Y-94617741D01*
X134237226Y-94651966D01*
X134234858Y-94663400D01*
X134226238Y-94696972D01*
X134226236Y-94696983D01*
X134224300Y-94704526D01*
X134224300Y-94712322D01*
X134224300Y-94723825D01*
X134222773Y-94743223D01*
X134220974Y-94754575D01*
X134220973Y-94754582D01*
X134219754Y-94762284D01*
X134220488Y-94770049D01*
X134220488Y-94770051D01*
X134223750Y-94804556D01*
X134224300Y-94816226D01*
X134224300Y-105653526D01*
X134214861Y-105700979D01*
X134187981Y-105741207D01*
X124878607Y-115050581D01*
X124838379Y-115077461D01*
X124790926Y-115086900D01*
X119573387Y-115086900D01*
X119562742Y-115086397D01*
X119555506Y-115084780D01*
X119547718Y-115085024D01*
X119547711Y-115085024D01*
X119489989Y-115086839D01*
X119486094Y-115086900D01*
X119459251Y-115086900D01*
X119455398Y-115087386D01*
X119455022Y-115087410D01*
X119443875Y-115088287D01*
X119409229Y-115089376D01*
X119409221Y-115089377D01*
X119401435Y-115089622D01*
X119393954Y-115091795D01*
X119393943Y-115091797D01*
X119382897Y-115095007D01*
X119363848Y-115098952D01*
X119352439Y-115100393D01*
X119352435Y-115100394D01*
X119344702Y-115101371D01*
X119337452Y-115104241D01*
X119337449Y-115104242D01*
X119305229Y-115116998D01*
X119294185Y-115120779D01*
X119260904Y-115130448D01*
X119260894Y-115130452D01*
X119253409Y-115132627D01*
X119246696Y-115136596D01*
X119246693Y-115136598D01*
X119236793Y-115142453D01*
X119219329Y-115151008D01*
X119208637Y-115155241D01*
X119208627Y-115155246D01*
X119201380Y-115158116D01*
X119195075Y-115162696D01*
X119195065Y-115162702D01*
X119167030Y-115183070D01*
X119157274Y-115189479D01*
X119127441Y-115207123D01*
X119127436Y-115207126D01*
X119120728Y-115211094D01*
X119115211Y-115216609D01*
X119115213Y-115216609D01*
X119107077Y-115224744D01*
X119092294Y-115237369D01*
X119082986Y-115244132D01*
X119082979Y-115244138D01*
X119076672Y-115248721D01*
X119071705Y-115254723D01*
X119071694Y-115254735D01*
X119049600Y-115281442D01*
X119041740Y-115290080D01*
X118646241Y-115685581D01*
X118606013Y-115712461D01*
X118558560Y-115721900D01*
X106881037Y-115721900D01*
X106840082Y-115714942D01*
X106807110Y-115696718D01*
X106806281Y-115695889D01*
X106652015Y-115598957D01*
X106645449Y-115596659D01*
X106645446Y-115596658D01*
X106486621Y-115541083D01*
X106486618Y-115541082D01*
X106480047Y-115538783D01*
X106473130Y-115538003D01*
X106473123Y-115538002D01*
X106305923Y-115519164D01*
X106299000Y-115518384D01*
X106292077Y-115519164D01*
X106124876Y-115538002D01*
X106124867Y-115538003D01*
X106117953Y-115538783D01*
X106111383Y-115541081D01*
X106111378Y-115541083D01*
X105952553Y-115596658D01*
X105952547Y-115596660D01*
X105945985Y-115598957D01*
X105940097Y-115602656D01*
X105940092Y-115602659D01*
X105797619Y-115692181D01*
X105797614Y-115692184D01*
X105791719Y-115695889D01*
X105786794Y-115700813D01*
X105786790Y-115700817D01*
X105667817Y-115819790D01*
X105667813Y-115819794D01*
X105662889Y-115824719D01*
X105659184Y-115830614D01*
X105659181Y-115830619D01*
X105569659Y-115973092D01*
X105569656Y-115973097D01*
X105565957Y-115978985D01*
X105563660Y-115985547D01*
X105563658Y-115985553D01*
X105508083Y-116144378D01*
X105508081Y-116144383D01*
X105505783Y-116150953D01*
X105505003Y-116157867D01*
X105505002Y-116157876D01*
X105487951Y-116309219D01*
X105485384Y-116332000D01*
X70941500Y-116332000D01*
X70941500Y-114183000D01*
X73840844Y-114183000D01*
X73841268Y-114188117D01*
X73859011Y-114402248D01*
X73859012Y-114402256D01*
X73859436Y-114407368D01*
X73860693Y-114412335D01*
X73860695Y-114412342D01*
X73891228Y-114532911D01*
X73914704Y-114625616D01*
X73916764Y-114630312D01*
X74003080Y-114827096D01*
X74003083Y-114827101D01*
X74005140Y-114831791D01*
X74010870Y-114840561D01*
X74125474Y-115015977D01*
X74125477Y-115015981D01*
X74128278Y-115020268D01*
X74131752Y-115024041D01*
X74131753Y-115024043D01*
X74277288Y-115182135D01*
X74277291Y-115182138D01*
X74280760Y-115185906D01*
X74284801Y-115189051D01*
X74454376Y-115321039D01*
X74454381Y-115321042D01*
X74458424Y-115324189D01*
X74462931Y-115326628D01*
X74462934Y-115326630D01*
X74651919Y-115428903D01*
X74656426Y-115431342D01*
X74869365Y-115504444D01*
X75091431Y-115541500D01*
X75311436Y-115541500D01*
X75316569Y-115541500D01*
X75538635Y-115504444D01*
X75751574Y-115431342D01*
X75949576Y-115324189D01*
X76127240Y-115185906D01*
X76279722Y-115020268D01*
X76370190Y-114881795D01*
X76414982Y-114840561D01*
X76474000Y-114825616D01*
X76533018Y-114840561D01*
X76577809Y-114881795D01*
X76665470Y-115015972D01*
X76665478Y-115015982D01*
X76668278Y-115020268D01*
X76671752Y-115024041D01*
X76671753Y-115024043D01*
X76817288Y-115182135D01*
X76817291Y-115182138D01*
X76820760Y-115185906D01*
X76824801Y-115189051D01*
X76994376Y-115321039D01*
X76994381Y-115321042D01*
X76998424Y-115324189D01*
X77002931Y-115326628D01*
X77002934Y-115326630D01*
X77191919Y-115428903D01*
X77196426Y-115431342D01*
X77409365Y-115504444D01*
X77631431Y-115541500D01*
X77851436Y-115541500D01*
X77856569Y-115541500D01*
X78078635Y-115504444D01*
X78291574Y-115431342D01*
X78489576Y-115324189D01*
X78667240Y-115185906D01*
X78819722Y-115020268D01*
X78942860Y-114831791D01*
X79033296Y-114625616D01*
X79088564Y-114407368D01*
X79107156Y-114183000D01*
X79088564Y-113958632D01*
X79053850Y-113821554D01*
X79054506Y-113758196D01*
X79086374Y-113703435D01*
X82673854Y-110115956D01*
X82681718Y-110108801D01*
X82687983Y-110104826D01*
X82732846Y-110057050D01*
X82735524Y-110054286D01*
X82754547Y-110035265D01*
X82756941Y-110032178D01*
X82757205Y-110031879D01*
X82764436Y-110023411D01*
X82793504Y-109992458D01*
X82802803Y-109975541D01*
X82813479Y-109959287D01*
X82825312Y-109944034D01*
X82828391Y-109936917D01*
X82847405Y-109912405D01*
X88302614Y-104457195D01*
X88355965Y-104425724D01*
X88417886Y-104423987D01*
X88472920Y-104452418D01*
X88507334Y-104503922D01*
X88547957Y-104620015D01*
X88551658Y-104625905D01*
X88551659Y-104625907D01*
X88586021Y-104680593D01*
X88644889Y-104774281D01*
X88773719Y-104903111D01*
X88927985Y-105000043D01*
X89099953Y-105060217D01*
X89281000Y-105080616D01*
X89462047Y-105060217D01*
X89634015Y-105000043D01*
X89788281Y-104903111D01*
X89917111Y-104774281D01*
X90014043Y-104620015D01*
X90074217Y-104448047D01*
X90083511Y-104365557D01*
X90095011Y-104325640D01*
X90119050Y-104291760D01*
X90143810Y-104267000D01*
X113867384Y-104267000D01*
X113868164Y-104273923D01*
X113887002Y-104441123D01*
X113887003Y-104441130D01*
X113887783Y-104448047D01*
X113890082Y-104454618D01*
X113890083Y-104454621D01*
X113907334Y-104503923D01*
X113947957Y-104620015D01*
X113951658Y-104625905D01*
X113951659Y-104625907D01*
X113985907Y-104680413D01*
X114044889Y-104774281D01*
X114045718Y-104775110D01*
X114063942Y-104808082D01*
X114070900Y-104849037D01*
X114070900Y-109398251D01*
X114070398Y-109408891D01*
X114068781Y-109416128D01*
X114069026Y-109423925D01*
X114069026Y-109423926D01*
X114070839Y-109481627D01*
X114070900Y-109485521D01*
X114070900Y-109512383D01*
X114071387Y-109516242D01*
X114071412Y-109516631D01*
X114072288Y-109527760D01*
X114073376Y-109562401D01*
X114073377Y-109562408D01*
X114073622Y-109570199D01*
X114075797Y-109577687D01*
X114075798Y-109577690D01*
X114079007Y-109588735D01*
X114082950Y-109607778D01*
X114084391Y-109619187D01*
X114084394Y-109619198D01*
X114085371Y-109626932D01*
X114088242Y-109634183D01*
X114088243Y-109634187D01*
X114101001Y-109666410D01*
X114104785Y-109677461D01*
X114114451Y-109710734D01*
X114114452Y-109710738D01*
X114116628Y-109718225D01*
X114120598Y-109724939D01*
X114120599Y-109724940D01*
X114126452Y-109734838D01*
X114135007Y-109752300D01*
X114142116Y-109770254D01*
X114146697Y-109776560D01*
X114146702Y-109776568D01*
X114167077Y-109804612D01*
X114173489Y-109814374D01*
X114191120Y-109844186D01*
X114191123Y-109844190D01*
X114195095Y-109850906D01*
X114200613Y-109856424D01*
X114208733Y-109864544D01*
X114221369Y-109879339D01*
X114228131Y-109888646D01*
X114228136Y-109888651D01*
X114232721Y-109894962D01*
X114238730Y-109899933D01*
X114238731Y-109899934D01*
X114265441Y-109922030D01*
X114274082Y-109929893D01*
X118641027Y-114296839D01*
X118648199Y-114304720D01*
X118652174Y-114310983D01*
X118677279Y-114334558D01*
X118699946Y-114355844D01*
X118702743Y-114358555D01*
X118721735Y-114377547D01*
X118724813Y-114379934D01*
X118725106Y-114380193D01*
X118733596Y-114387445D01*
X118758851Y-114411161D01*
X118758856Y-114411164D01*
X118764542Y-114416504D01*
X118771376Y-114420261D01*
X118771379Y-114420263D01*
X118781453Y-114425801D01*
X118797718Y-114436484D01*
X118812966Y-114448312D01*
X118820125Y-114451410D01*
X118820127Y-114451411D01*
X118851925Y-114465171D01*
X118862417Y-114470311D01*
X118899622Y-114490765D01*
X118916106Y-114494997D01*
X118918310Y-114495563D01*
X118936720Y-114501866D01*
X118954434Y-114509532D01*
X118996374Y-114516174D01*
X119007801Y-114518540D01*
X119048926Y-114529100D01*
X119068225Y-114529100D01*
X119087622Y-114530626D01*
X119106684Y-114533646D01*
X119148955Y-114529650D01*
X119160626Y-114529100D01*
X122987251Y-114529100D01*
X122997891Y-114529601D01*
X123005128Y-114531219D01*
X123070626Y-114529161D01*
X123074521Y-114529100D01*
X123097485Y-114529100D01*
X123101383Y-114529100D01*
X123105255Y-114528610D01*
X123105706Y-114528582D01*
X123116772Y-114527710D01*
X123159199Y-114526378D01*
X123177734Y-114520992D01*
X123196775Y-114517048D01*
X123215932Y-114514629D01*
X123255423Y-114498992D01*
X123266437Y-114495221D01*
X123307225Y-114483372D01*
X123323835Y-114473548D01*
X123341308Y-114464989D01*
X123359254Y-114457884D01*
X123393609Y-114432922D01*
X123403365Y-114426515D01*
X123433189Y-114408877D01*
X123439906Y-114404905D01*
X123453544Y-114391266D01*
X123468339Y-114378628D01*
X123483962Y-114367279D01*
X123511032Y-114334554D01*
X123518884Y-114325925D01*
X127532764Y-110312046D01*
X127566641Y-110288009D01*
X127606549Y-110276512D01*
X127689047Y-110267217D01*
X127861015Y-110207043D01*
X128015281Y-110110111D01*
X128144111Y-109981281D01*
X128241043Y-109827015D01*
X128301217Y-109655047D01*
X128321616Y-109474000D01*
X128301217Y-109292953D01*
X128241043Y-109120985D01*
X128144111Y-108966719D01*
X128015281Y-108837889D01*
X127861015Y-108740957D01*
X127854449Y-108738659D01*
X127854446Y-108738658D01*
X127695621Y-108683083D01*
X127695618Y-108683082D01*
X127689047Y-108680783D01*
X127682130Y-108680003D01*
X127682123Y-108680002D01*
X127514923Y-108661164D01*
X127508000Y-108660384D01*
X127501077Y-108661164D01*
X127333876Y-108680002D01*
X127333867Y-108680003D01*
X127326953Y-108680783D01*
X127320383Y-108683081D01*
X127320378Y-108683083D01*
X127161553Y-108738658D01*
X127161547Y-108738660D01*
X127154985Y-108740957D01*
X127149097Y-108744656D01*
X127149092Y-108744659D01*
X127006619Y-108834181D01*
X127006614Y-108834184D01*
X127000719Y-108837889D01*
X126995794Y-108842813D01*
X126995790Y-108842817D01*
X126876817Y-108961790D01*
X126876813Y-108961794D01*
X126871889Y-108966719D01*
X126868184Y-108972614D01*
X126868181Y-108972619D01*
X126778659Y-109115092D01*
X126778656Y-109115097D01*
X126774957Y-109120985D01*
X126772660Y-109127547D01*
X126772658Y-109127553D01*
X126717083Y-109286378D01*
X126717081Y-109286383D01*
X126714783Y-109292953D01*
X126714003Y-109299868D01*
X126714002Y-109299876D01*
X126705488Y-109375441D01*
X126693988Y-109415358D01*
X126669949Y-109449237D01*
X122846607Y-113272581D01*
X122806379Y-113299461D01*
X122758926Y-113308900D01*
X119430074Y-113308900D01*
X119382621Y-113299461D01*
X119342393Y-113272581D01*
X115327419Y-109257607D01*
X115300539Y-109217379D01*
X115291100Y-109169926D01*
X115291100Y-104849037D01*
X115298058Y-104808082D01*
X115316281Y-104775110D01*
X115317111Y-104774281D01*
X115414043Y-104620015D01*
X115474217Y-104448047D01*
X115494616Y-104267000D01*
X115474217Y-104085953D01*
X115414043Y-103913985D01*
X115317111Y-103759719D01*
X115188281Y-103630889D01*
X115034015Y-103533957D01*
X115027449Y-103531659D01*
X115027446Y-103531658D01*
X114868621Y-103476083D01*
X114868618Y-103476082D01*
X114862047Y-103473783D01*
X114855130Y-103473003D01*
X114855123Y-103473002D01*
X114687923Y-103454164D01*
X114681000Y-103453384D01*
X114674077Y-103454164D01*
X114506876Y-103473002D01*
X114506867Y-103473003D01*
X114499953Y-103473783D01*
X114493383Y-103476081D01*
X114493378Y-103476083D01*
X114334553Y-103531658D01*
X114334547Y-103531660D01*
X114327985Y-103533957D01*
X114322097Y-103537656D01*
X114322092Y-103537659D01*
X114179619Y-103627181D01*
X114179614Y-103627184D01*
X114173719Y-103630889D01*
X114168794Y-103635813D01*
X114168790Y-103635817D01*
X114049817Y-103754790D01*
X114049813Y-103754794D01*
X114044889Y-103759719D01*
X114041184Y-103765614D01*
X114041181Y-103765619D01*
X113951659Y-103908092D01*
X113951656Y-103908097D01*
X113947957Y-103913985D01*
X113945660Y-103920547D01*
X113945658Y-103920553D01*
X113890083Y-104079378D01*
X113890081Y-104079383D01*
X113887783Y-104085953D01*
X113887003Y-104092867D01*
X113887002Y-104092876D01*
X113868164Y-104260077D01*
X113867384Y-104267000D01*
X90143810Y-104267000D01*
X92650193Y-101760619D01*
X92690421Y-101733739D01*
X92737874Y-101724300D01*
X104684371Y-101724300D01*
X104741285Y-101738133D01*
X104785500Y-101776545D01*
X104807153Y-101830966D01*
X104801413Y-101889254D01*
X104746083Y-102047378D01*
X104746081Y-102047383D01*
X104743783Y-102053953D01*
X104743003Y-102060867D01*
X104743002Y-102060876D01*
X104724164Y-102228077D01*
X104723384Y-102235000D01*
X104724164Y-102241923D01*
X104743002Y-102409123D01*
X104743003Y-102409130D01*
X104743783Y-102416047D01*
X104803957Y-102588015D01*
X104900889Y-102742281D01*
X105029719Y-102871111D01*
X105183985Y-102968043D01*
X105355953Y-103028217D01*
X105537000Y-103048616D01*
X105718047Y-103028217D01*
X105724626Y-103025915D01*
X105785946Y-103004459D01*
X105826901Y-102997500D01*
X120028801Y-102997500D01*
X120076254Y-103006939D01*
X120116482Y-103033819D01*
X122817556Y-105734894D01*
X122837647Y-105763209D01*
X122837957Y-105763015D01*
X122934889Y-105917281D01*
X123063719Y-106046111D01*
X123217985Y-106143043D01*
X123389953Y-106203217D01*
X123571000Y-106223616D01*
X123752047Y-106203217D01*
X123924015Y-106143043D01*
X124078281Y-106046111D01*
X124207111Y-105917281D01*
X124304043Y-105763015D01*
X124364217Y-105591047D01*
X124384616Y-105410000D01*
X124364217Y-105228953D01*
X124304043Y-105056985D01*
X124207111Y-104902719D01*
X124078281Y-104773889D01*
X124069521Y-104768385D01*
X123929908Y-104680660D01*
X123929909Y-104680660D01*
X123929522Y-104680417D01*
X123929516Y-104680413D01*
X123924015Y-104676957D01*
X123924209Y-104676647D01*
X123895892Y-104656555D01*
X121175319Y-101935981D01*
X121145069Y-101886618D01*
X121140527Y-101828902D01*
X121162682Y-101775415D01*
X121206705Y-101737815D01*
X121263000Y-101724300D01*
X128299051Y-101724300D01*
X128309691Y-101724801D01*
X128316928Y-101726419D01*
X128382426Y-101724361D01*
X128386321Y-101724300D01*
X128409285Y-101724300D01*
X128413183Y-101724300D01*
X128417055Y-101723810D01*
X128417506Y-101723782D01*
X128428572Y-101722910D01*
X128470999Y-101721578D01*
X128489534Y-101716192D01*
X128508575Y-101712248D01*
X128527732Y-101709829D01*
X128567223Y-101694192D01*
X128578237Y-101690421D01*
X128619025Y-101678572D01*
X128635635Y-101668748D01*
X128653108Y-101660189D01*
X128671054Y-101653084D01*
X128705409Y-101628122D01*
X128715165Y-101621715D01*
X128744989Y-101604077D01*
X128751706Y-101600105D01*
X128765344Y-101586466D01*
X128780139Y-101573828D01*
X128795762Y-101562479D01*
X128822832Y-101529754D01*
X128830684Y-101521125D01*
X131469762Y-98882047D01*
X131503639Y-98858011D01*
X131543556Y-98846511D01*
X131626047Y-98837217D01*
X131798015Y-98777043D01*
X131952281Y-98680111D01*
X132081111Y-98551281D01*
X132178043Y-98397015D01*
X132238217Y-98225047D01*
X132258616Y-98044000D01*
X132238217Y-97862953D01*
X132178043Y-97690985D01*
X132081111Y-97536719D01*
X131952281Y-97407889D01*
X131798015Y-97310957D01*
X131791449Y-97308659D01*
X131791446Y-97308658D01*
X131632621Y-97253083D01*
X131632618Y-97253082D01*
X131626047Y-97250783D01*
X131619130Y-97250003D01*
X131619123Y-97250002D01*
X131475513Y-97233822D01*
X131423425Y-97215596D01*
X131384403Y-97176574D01*
X131366178Y-97124488D01*
X131349217Y-96973953D01*
X131289043Y-96801985D01*
X131192111Y-96647719D01*
X131063281Y-96518889D01*
X131022039Y-96492975D01*
X130914907Y-96425659D01*
X130914905Y-96425658D01*
X130909015Y-96421957D01*
X130902449Y-96419659D01*
X130902446Y-96419658D01*
X130743621Y-96364083D01*
X130743618Y-96364082D01*
X130737047Y-96361783D01*
X130730130Y-96361003D01*
X130730123Y-96361002D01*
X130562923Y-96342164D01*
X130556000Y-96341384D01*
X130549077Y-96342164D01*
X130381876Y-96361002D01*
X130381867Y-96361003D01*
X130374953Y-96361783D01*
X130368383Y-96364081D01*
X130368378Y-96364083D01*
X130209553Y-96419658D01*
X130209547Y-96419660D01*
X130202985Y-96421957D01*
X130197097Y-96425656D01*
X130197092Y-96425659D01*
X130054619Y-96515181D01*
X130054614Y-96515184D01*
X130048719Y-96518889D01*
X130043794Y-96523813D01*
X130043790Y-96523817D01*
X129924817Y-96642790D01*
X129924813Y-96642794D01*
X129919889Y-96647719D01*
X129916184Y-96653614D01*
X129916181Y-96653619D01*
X129826661Y-96796088D01*
X129826656Y-96796097D01*
X129822957Y-96801985D01*
X129820659Y-96808553D01*
X129820656Y-96808560D01*
X129775457Y-96937729D01*
X129746097Y-96984455D01*
X126665973Y-100064581D01*
X126625745Y-100091461D01*
X126578292Y-100100900D01*
X124396822Y-100100900D01*
X124336841Y-100085428D01*
X124291828Y-100042872D01*
X124273017Y-99983853D01*
X124285102Y-99923099D01*
X124325066Y-99875771D01*
X124373718Y-99857199D01*
X124373341Y-99855545D01*
X124380121Y-99853997D01*
X124387047Y-99853217D01*
X124559015Y-99793043D01*
X124713281Y-99696111D01*
X124842111Y-99567281D01*
X124939043Y-99413015D01*
X124999217Y-99241047D01*
X125019616Y-99060000D01*
X124999217Y-98878953D01*
X124939043Y-98706985D01*
X124842111Y-98552719D01*
X124841281Y-98551889D01*
X124823058Y-98518918D01*
X124816100Y-98477963D01*
X124816100Y-96824073D01*
X124825539Y-96776620D01*
X124852415Y-96736395D01*
X124992766Y-96596044D01*
X125026641Y-96572010D01*
X125066549Y-96560512D01*
X125149047Y-96551217D01*
X125321015Y-96491043D01*
X125475281Y-96394111D01*
X125604111Y-96265281D01*
X125701043Y-96111015D01*
X125761217Y-95939047D01*
X125781616Y-95758000D01*
X125761217Y-95576953D01*
X125701043Y-95404985D01*
X125604111Y-95250719D01*
X125475281Y-95121889D01*
X125436552Y-95097554D01*
X125326907Y-95028659D01*
X125326905Y-95028658D01*
X125321015Y-95024957D01*
X125314449Y-95022659D01*
X125314446Y-95022658D01*
X125155621Y-94967083D01*
X125155618Y-94967082D01*
X125149047Y-94964783D01*
X125142130Y-94964003D01*
X125142123Y-94964002D01*
X124974923Y-94945164D01*
X124968000Y-94944384D01*
X124961077Y-94945164D01*
X124793876Y-94964002D01*
X124793867Y-94964003D01*
X124786953Y-94964783D01*
X124780383Y-94967081D01*
X124780378Y-94967083D01*
X124621553Y-95022658D01*
X124621547Y-95022660D01*
X124614985Y-95024957D01*
X124609097Y-95028656D01*
X124609088Y-95028661D01*
X124528452Y-95079328D01*
X124476364Y-95097554D01*
X124421526Y-95091375D01*
X124374800Y-95062015D01*
X124345439Y-95015289D01*
X124327261Y-94963340D01*
X124304043Y-94896985D01*
X124207111Y-94742719D01*
X124078281Y-94613889D01*
X124072380Y-94610181D01*
X123929907Y-94520659D01*
X123929905Y-94520658D01*
X123924015Y-94516957D01*
X123917449Y-94514659D01*
X123917446Y-94514658D01*
X123758621Y-94459083D01*
X123758618Y-94459082D01*
X123752047Y-94456783D01*
X123745130Y-94456003D01*
X123745123Y-94456002D01*
X123577923Y-94437164D01*
X123571000Y-94436384D01*
X123564077Y-94437164D01*
X123396876Y-94456002D01*
X123396867Y-94456003D01*
X123389953Y-94456783D01*
X123383383Y-94459081D01*
X123383378Y-94459083D01*
X123224553Y-94514658D01*
X123224547Y-94514660D01*
X123217985Y-94516957D01*
X123212097Y-94520656D01*
X123212090Y-94520660D01*
X123201535Y-94527293D01*
X123135562Y-94546300D01*
X123044589Y-94546300D01*
X122981588Y-94529103D01*
X122936061Y-94482281D01*
X122920638Y-94418822D01*
X122939595Y-94356328D01*
X122972170Y-94304485D01*
X123034043Y-94206015D01*
X123094217Y-94034047D01*
X123114616Y-93853000D01*
X123094217Y-93671953D01*
X123034043Y-93499985D01*
X122937111Y-93345719D01*
X122808281Y-93216889D01*
X122802380Y-93213181D01*
X122659907Y-93123659D01*
X122659905Y-93123658D01*
X122654015Y-93119957D01*
X122647449Y-93117659D01*
X122647446Y-93117658D01*
X122488621Y-93062083D01*
X122488618Y-93062082D01*
X122482047Y-93059783D01*
X122475130Y-93059003D01*
X122475123Y-93059002D01*
X122307923Y-93040164D01*
X122301000Y-93039384D01*
X122294077Y-93040164D01*
X122126876Y-93059002D01*
X122126867Y-93059003D01*
X122119953Y-93059783D01*
X122113383Y-93062081D01*
X122113378Y-93062083D01*
X121954553Y-93117658D01*
X121954547Y-93117660D01*
X121947985Y-93119957D01*
X121942097Y-93123656D01*
X121942092Y-93123659D01*
X121799619Y-93213181D01*
X121799614Y-93213184D01*
X121793719Y-93216889D01*
X121788794Y-93221813D01*
X121788790Y-93221817D01*
X121677027Y-93333581D01*
X121636799Y-93360461D01*
X121589346Y-93369900D01*
X118605596Y-93369900D01*
X118544401Y-93353748D01*
X118499148Y-93309499D01*
X118481627Y-93248682D01*
X118496402Y-93187140D01*
X118539624Y-93140906D01*
X118617281Y-93092111D01*
X118746111Y-92963281D01*
X118843043Y-92809015D01*
X118903217Y-92637047D01*
X118923616Y-92456000D01*
X118903217Y-92274953D01*
X118843043Y-92102985D01*
X118746111Y-91948719D01*
X118745281Y-91947889D01*
X118727058Y-91914918D01*
X118720100Y-91873963D01*
X118720100Y-90498037D01*
X118727058Y-90457082D01*
X118745281Y-90424110D01*
X118746111Y-90423281D01*
X118843043Y-90269015D01*
X118903217Y-90097047D01*
X118923616Y-89916000D01*
X118903217Y-89734953D01*
X118843043Y-89562985D01*
X118746111Y-89408719D01*
X118617281Y-89279889D01*
X118611380Y-89276181D01*
X118468907Y-89186659D01*
X118468905Y-89186658D01*
X118463015Y-89182957D01*
X118456449Y-89180659D01*
X118456446Y-89180658D01*
X118297621Y-89125083D01*
X118297618Y-89125082D01*
X118291047Y-89122783D01*
X118284130Y-89122003D01*
X118284123Y-89122002D01*
X118116923Y-89103164D01*
X118110000Y-89102384D01*
X118103077Y-89103164D01*
X117935876Y-89122002D01*
X117935867Y-89122003D01*
X117928953Y-89122783D01*
X117922383Y-89125081D01*
X117922378Y-89125083D01*
X117763553Y-89180658D01*
X117763547Y-89180660D01*
X117756985Y-89182957D01*
X117751097Y-89186656D01*
X117751092Y-89186659D01*
X117608619Y-89276181D01*
X117608614Y-89276184D01*
X117602719Y-89279889D01*
X117597794Y-89284813D01*
X117597790Y-89284817D01*
X117478817Y-89403790D01*
X117478813Y-89403794D01*
X117473889Y-89408719D01*
X117470184Y-89414614D01*
X117470181Y-89414619D01*
X117442398Y-89458836D01*
X117428096Y-89481599D01*
X117425094Y-89486376D01*
X117378860Y-89529598D01*
X117317318Y-89544373D01*
X117256501Y-89526852D01*
X117212252Y-89481599D01*
X117196100Y-89420404D01*
X117196100Y-86296822D01*
X117211572Y-86236841D01*
X117254128Y-86191828D01*
X117313147Y-86173017D01*
X117373901Y-86185102D01*
X117421229Y-86225066D01*
X117439800Y-86273718D01*
X117441455Y-86273341D01*
X117443003Y-86280124D01*
X117443783Y-86287047D01*
X117446082Y-86293618D01*
X117446083Y-86293621D01*
X117499573Y-86446488D01*
X117503957Y-86459015D01*
X117507658Y-86464905D01*
X117507659Y-86464907D01*
X117572050Y-86567384D01*
X117600889Y-86613281D01*
X117729719Y-86742111D01*
X117883985Y-86839043D01*
X118055953Y-86899217D01*
X118237000Y-86919616D01*
X118418047Y-86899217D01*
X118590015Y-86839043D01*
X118744281Y-86742111D01*
X118745110Y-86741281D01*
X118778082Y-86723058D01*
X118819037Y-86716100D01*
X123647927Y-86716100D01*
X123695380Y-86725539D01*
X123735608Y-86752419D01*
X124356022Y-87372833D01*
X124363197Y-87380718D01*
X124367174Y-87386983D01*
X124405659Y-87423123D01*
X124414963Y-87431860D01*
X124417759Y-87434570D01*
X124436735Y-87453546D01*
X124439802Y-87455925D01*
X124440120Y-87456205D01*
X124448597Y-87463444D01*
X124479542Y-87492504D01*
X124486374Y-87496260D01*
X124486377Y-87496262D01*
X124496457Y-87501803D01*
X124512719Y-87512485D01*
X124527966Y-87524312D01*
X124566939Y-87541177D01*
X124577398Y-87546301D01*
X124614622Y-87566765D01*
X124632200Y-87571277D01*
X124633311Y-87571563D01*
X124651726Y-87577868D01*
X124662268Y-87582430D01*
X124662269Y-87582430D01*
X124669434Y-87585531D01*
X124711370Y-87592172D01*
X124722797Y-87594539D01*
X124745456Y-87600357D01*
X124756370Y-87603160D01*
X124756371Y-87603160D01*
X124763926Y-87605100D01*
X124783225Y-87605100D01*
X124802623Y-87606626D01*
X124821684Y-87609646D01*
X124863955Y-87605650D01*
X124875626Y-87605100D01*
X128068963Y-87605100D01*
X128109918Y-87612058D01*
X128142889Y-87630281D01*
X128143719Y-87631111D01*
X128297985Y-87728043D01*
X128469953Y-87788217D01*
X128651000Y-87808616D01*
X128832047Y-87788217D01*
X129004015Y-87728043D01*
X129158281Y-87631111D01*
X129287111Y-87502281D01*
X129384043Y-87348015D01*
X129444217Y-87176047D01*
X129464616Y-86995000D01*
X129444217Y-86813953D01*
X129384043Y-86641985D01*
X129287111Y-86487719D01*
X129158281Y-86358889D01*
X129135316Y-86344459D01*
X129096294Y-86305436D01*
X129078068Y-86253348D01*
X129084247Y-86198509D01*
X129113606Y-86151785D01*
X129160111Y-86105281D01*
X129257043Y-85951015D01*
X129317217Y-85779047D01*
X129337616Y-85598000D01*
X129336036Y-85583980D01*
X129347537Y-85516297D01*
X129393286Y-85465106D01*
X129459257Y-85446100D01*
X129489927Y-85446100D01*
X129537380Y-85455539D01*
X129577607Y-85482418D01*
X129831731Y-85736543D01*
X130071027Y-85975839D01*
X130078199Y-85983720D01*
X130082174Y-85989983D01*
X130104410Y-86010864D01*
X130129946Y-86034844D01*
X130132742Y-86037554D01*
X130151735Y-86056547D01*
X130154812Y-86058934D01*
X130155095Y-86059183D01*
X130163597Y-86066444D01*
X130194542Y-86095504D01*
X130201376Y-86099261D01*
X130201382Y-86099265D01*
X130211451Y-86104800D01*
X130227713Y-86115481D01*
X130242966Y-86127313D01*
X130281946Y-86144181D01*
X130292405Y-86149305D01*
X130329622Y-86169765D01*
X130348317Y-86174565D01*
X130366719Y-86180866D01*
X130375504Y-86184667D01*
X130384435Y-86188532D01*
X130426383Y-86195175D01*
X130437802Y-86197540D01*
X130478926Y-86208100D01*
X130498225Y-86208100D01*
X130517622Y-86209626D01*
X130536684Y-86212646D01*
X130578955Y-86208650D01*
X130590626Y-86208100D01*
X136474927Y-86208100D01*
X136522380Y-86217539D01*
X136562607Y-86244418D01*
X137078188Y-86760000D01*
X137591949Y-87273761D01*
X137615988Y-87307640D01*
X137627488Y-87347557D01*
X137636002Y-87423123D01*
X137636003Y-87423130D01*
X137636783Y-87430047D01*
X137639082Y-87436618D01*
X137639083Y-87436621D01*
X137694341Y-87594541D01*
X137696957Y-87602015D01*
X137700658Y-87607905D01*
X137700659Y-87607907D01*
X137773819Y-87724340D01*
X137793889Y-87756281D01*
X137922719Y-87885111D01*
X138076985Y-87982043D01*
X138248953Y-88042217D01*
X138430000Y-88062616D01*
X138611047Y-88042217D01*
X138783015Y-87982043D01*
X138937281Y-87885111D01*
X139066111Y-87756281D01*
X139163043Y-87602015D01*
X139223217Y-87430047D01*
X139242089Y-87262551D01*
X145611688Y-87262551D01*
X145612056Y-87273780D01*
X145664168Y-87468263D01*
X145667856Y-87478397D01*
X145763113Y-87682676D01*
X145768501Y-87692008D01*
X145897784Y-87876643D01*
X145904721Y-87884909D01*
X146064090Y-88044278D01*
X146072356Y-88051215D01*
X146256991Y-88180498D01*
X146266323Y-88185886D01*
X146470602Y-88281143D01*
X146480736Y-88284831D01*
X146675219Y-88336943D01*
X146686448Y-88337311D01*
X146689000Y-88326369D01*
X146689000Y-87276326D01*
X146685549Y-87263450D01*
X146672674Y-87260000D01*
X145622631Y-87260000D01*
X145611688Y-87262551D01*
X139242089Y-87262551D01*
X139243616Y-87249000D01*
X139241390Y-87229248D01*
X139223997Y-87074876D01*
X139223217Y-87067953D01*
X139163043Y-86895985D01*
X139066111Y-86741719D01*
X138937281Y-86612889D01*
X138931380Y-86609181D01*
X138788907Y-86519659D01*
X138788905Y-86519658D01*
X138783015Y-86515957D01*
X138776449Y-86513659D01*
X138776446Y-86513658D01*
X138617621Y-86458083D01*
X138617618Y-86458082D01*
X138611047Y-86455783D01*
X138604130Y-86455003D01*
X138604123Y-86455002D01*
X138528557Y-86446488D01*
X138488640Y-86434988D01*
X138454761Y-86410949D01*
X137263971Y-85220159D01*
X137256800Y-85212279D01*
X137252826Y-85206017D01*
X137247138Y-85200676D01*
X137247136Y-85200673D01*
X137205052Y-85161154D01*
X137202255Y-85158443D01*
X137186021Y-85142209D01*
X137183265Y-85139453D01*
X137180187Y-85137065D01*
X137179904Y-85136816D01*
X137171405Y-85129556D01*
X137146147Y-85105838D01*
X137146145Y-85105836D01*
X137140458Y-85100496D01*
X137133626Y-85096740D01*
X137133623Y-85096738D01*
X137123545Y-85091198D01*
X137107282Y-85080515D01*
X137098197Y-85073468D01*
X137092034Y-85068687D01*
X137084875Y-85065589D01*
X137084872Y-85065587D01*
X137053065Y-85051822D01*
X137042581Y-85046686D01*
X137012215Y-85029993D01*
X137012211Y-85029991D01*
X137005378Y-85026235D01*
X136997822Y-85024294D01*
X136997818Y-85024293D01*
X136986684Y-85021434D01*
X136968289Y-85015136D01*
X136957727Y-85010566D01*
X136957719Y-85010563D01*
X136950565Y-85007468D01*
X136942863Y-85006248D01*
X136908635Y-85000826D01*
X136897201Y-84998458D01*
X136863635Y-84989840D01*
X136863625Y-84989838D01*
X136856074Y-84987900D01*
X136848270Y-84987900D01*
X136836775Y-84987900D01*
X136817377Y-84986373D01*
X136806024Y-84984574D01*
X136806017Y-84984573D01*
X136798316Y-84983354D01*
X136790550Y-84984088D01*
X136790548Y-84984088D01*
X136756044Y-84987350D01*
X136744374Y-84987900D01*
X130860074Y-84987900D01*
X130812621Y-84978461D01*
X130772393Y-84951581D01*
X130290812Y-84470000D01*
X145575844Y-84470000D01*
X145576268Y-84475117D01*
X145594011Y-84689248D01*
X145594012Y-84689256D01*
X145594436Y-84694368D01*
X145595693Y-84699335D01*
X145595695Y-84699342D01*
X145648445Y-84907645D01*
X145649704Y-84912616D01*
X145669000Y-84956606D01*
X145738080Y-85114096D01*
X145738083Y-85114101D01*
X145740140Y-85118791D01*
X145767817Y-85161154D01*
X145860474Y-85302977D01*
X145860477Y-85302981D01*
X145863278Y-85307268D01*
X145866752Y-85311041D01*
X145866753Y-85311043D01*
X146012288Y-85469135D01*
X146012291Y-85469138D01*
X146015760Y-85472906D01*
X146066278Y-85512226D01*
X146189376Y-85608039D01*
X146189381Y-85608042D01*
X146193424Y-85611189D01*
X146209881Y-85620095D01*
X146236695Y-85634606D01*
X146282335Y-85677155D01*
X146301475Y-85736545D01*
X146289267Y-85797737D01*
X146248803Y-85845236D01*
X146072352Y-85968788D01*
X146064092Y-85975719D01*
X145904719Y-86135092D01*
X145897784Y-86143357D01*
X145768508Y-86327982D01*
X145763110Y-86337332D01*
X145667856Y-86541602D01*
X145664168Y-86551736D01*
X145612056Y-86746219D01*
X145611688Y-86757448D01*
X145622631Y-86760000D01*
X147065000Y-86760000D01*
X147127000Y-86776613D01*
X147172387Y-86822000D01*
X147189000Y-86884000D01*
X147189000Y-88326369D01*
X147191551Y-88337311D01*
X147202780Y-88336943D01*
X147397263Y-88284831D01*
X147407397Y-88281143D01*
X147611676Y-88185886D01*
X147621008Y-88180498D01*
X147805643Y-88051215D01*
X147813909Y-88044278D01*
X147973278Y-87884909D01*
X147980219Y-87876638D01*
X148103868Y-87700049D01*
X148149072Y-87660726D01*
X148207436Y-87647188D01*
X148265335Y-87662595D01*
X148309252Y-87703351D01*
X148400470Y-87842972D01*
X148400478Y-87842982D01*
X148403278Y-87847268D01*
X148406752Y-87851041D01*
X148406753Y-87851043D01*
X148552288Y-88009135D01*
X148552291Y-88009138D01*
X148555760Y-88012906D01*
X148596066Y-88044278D01*
X148729376Y-88148039D01*
X148729381Y-88148042D01*
X148733424Y-88151189D01*
X148737931Y-88153628D01*
X148737934Y-88153630D01*
X148926919Y-88255903D01*
X148931426Y-88258342D01*
X149144365Y-88331444D01*
X149366431Y-88368500D01*
X149586436Y-88368500D01*
X149591569Y-88368500D01*
X149813635Y-88331444D01*
X150026574Y-88258342D01*
X150224576Y-88151189D01*
X150402240Y-88012906D01*
X150554722Y-87847268D01*
X150677860Y-87658791D01*
X150768296Y-87452616D01*
X150823564Y-87234368D01*
X150842156Y-87010000D01*
X150823564Y-86785632D01*
X150768296Y-86567384D01*
X150677860Y-86361209D01*
X150554722Y-86172732D01*
X150520072Y-86135092D01*
X150405711Y-86010864D01*
X150405708Y-86010861D01*
X150402240Y-86007094D01*
X150362084Y-85975839D01*
X150228623Y-85871960D01*
X150228615Y-85871955D01*
X150224576Y-85868811D01*
X150220064Y-85866369D01*
X150220061Y-85866367D01*
X150188070Y-85849055D01*
X150140564Y-85803474D01*
X150123086Y-85740000D01*
X150140564Y-85676526D01*
X150188070Y-85630945D01*
X150208119Y-85620095D01*
X150224576Y-85611189D01*
X150402240Y-85472906D01*
X150554722Y-85307268D01*
X150677860Y-85118791D01*
X150768296Y-84912616D01*
X150823564Y-84694368D01*
X150842156Y-84470000D01*
X150823564Y-84245632D01*
X150768296Y-84027384D01*
X150677860Y-83821209D01*
X150554722Y-83632732D01*
X150409506Y-83474987D01*
X150380735Y-83422239D01*
X150380142Y-83362152D01*
X150407869Y-83308841D01*
X150457404Y-83274826D01*
X150575204Y-83230889D01*
X150692261Y-83143261D01*
X150779889Y-83026204D01*
X150830989Y-82889201D01*
X150837500Y-82828638D01*
X150837500Y-81031362D01*
X150830989Y-80970799D01*
X150779889Y-80833796D01*
X150692261Y-80716739D01*
X150645398Y-80681658D01*
X150582304Y-80634426D01*
X150582303Y-80634425D01*
X150575204Y-80629111D01*
X150566896Y-80626012D01*
X150566894Y-80626011D01*
X150445463Y-80580719D01*
X150445458Y-80580717D01*
X150438201Y-80578011D01*
X150430497Y-80577182D01*
X150430494Y-80577182D01*
X150380924Y-80571853D01*
X150380918Y-80571852D01*
X150377638Y-80571500D01*
X148580362Y-80571500D01*
X148577082Y-80571852D01*
X148577075Y-80571853D01*
X148527505Y-80577182D01*
X148527500Y-80577182D01*
X148519799Y-80578011D01*
X148512543Y-80580717D01*
X148512536Y-80580719D01*
X148391105Y-80626011D01*
X148391099Y-80626013D01*
X148382796Y-80629111D01*
X148375698Y-80634423D01*
X148375695Y-80634426D01*
X148272835Y-80711426D01*
X148272831Y-80711429D01*
X148265739Y-80716739D01*
X148260429Y-80723831D01*
X148260426Y-80723835D01*
X148183426Y-80826695D01*
X148183423Y-80826698D01*
X148178111Y-80833796D01*
X148175013Y-80842101D01*
X148175009Y-80842109D01*
X148132861Y-80955111D01*
X148096909Y-81006324D01*
X148040528Y-81033461D01*
X147978074Y-81029613D01*
X147925451Y-80995759D01*
X147865711Y-80930864D01*
X147865708Y-80930861D01*
X147862240Y-80927094D01*
X147753053Y-80842109D01*
X147688623Y-80791960D01*
X147688615Y-80791955D01*
X147684576Y-80788811D01*
X147680071Y-80786373D01*
X147680065Y-80786369D01*
X147491080Y-80684096D01*
X147491074Y-80684093D01*
X147486574Y-80681658D01*
X147481733Y-80679996D01*
X147481726Y-80679993D01*
X147278488Y-80610222D01*
X147278487Y-80610221D01*
X147273635Y-80608556D01*
X147268585Y-80607713D01*
X147268576Y-80607711D01*
X147056631Y-80572344D01*
X147056622Y-80572343D01*
X147051569Y-80571500D01*
X146826431Y-80571500D01*
X146821378Y-80572343D01*
X146821368Y-80572344D01*
X146609423Y-80607711D01*
X146609411Y-80607713D01*
X146604365Y-80608556D01*
X146599515Y-80610220D01*
X146599511Y-80610222D01*
X146396273Y-80679993D01*
X146396262Y-80679997D01*
X146391426Y-80681658D01*
X146386929Y-80684091D01*
X146386919Y-80684096D01*
X146197934Y-80786369D01*
X146197922Y-80786376D01*
X146193424Y-80788811D01*
X146189389Y-80791951D01*
X146189376Y-80791960D01*
X146019801Y-80923948D01*
X146019795Y-80923952D01*
X146015760Y-80927094D01*
X146012297Y-80930855D01*
X146012288Y-80930864D01*
X145866753Y-81088956D01*
X145866747Y-81088963D01*
X145863278Y-81092732D01*
X145860481Y-81097012D01*
X145860474Y-81097022D01*
X145742942Y-81276920D01*
X145740140Y-81281209D01*
X145738085Y-81285892D01*
X145738080Y-81285903D01*
X145717041Y-81333869D01*
X145649704Y-81487384D01*
X145648446Y-81492349D01*
X145648445Y-81492354D01*
X145595695Y-81700657D01*
X145595693Y-81700666D01*
X145594436Y-81705632D01*
X145594012Y-81710741D01*
X145594011Y-81710751D01*
X145583578Y-81836661D01*
X145575844Y-81930000D01*
X145576268Y-81935117D01*
X145594011Y-82149248D01*
X145594012Y-82149256D01*
X145594436Y-82154368D01*
X145595693Y-82159335D01*
X145595695Y-82159342D01*
X145648445Y-82367645D01*
X145649704Y-82372616D01*
X145651764Y-82377312D01*
X145738080Y-82574096D01*
X145738083Y-82574101D01*
X145740140Y-82578791D01*
X145757500Y-82605362D01*
X145860474Y-82762977D01*
X145860477Y-82762981D01*
X145863278Y-82767268D01*
X145866752Y-82771041D01*
X145866753Y-82771043D01*
X146012288Y-82929135D01*
X146012291Y-82929138D01*
X146015760Y-82932906D01*
X146019801Y-82936051D01*
X146189376Y-83068039D01*
X146189381Y-83068042D01*
X146193424Y-83071189D01*
X146229930Y-83090945D01*
X146277434Y-83136523D01*
X146294913Y-83199996D01*
X146277437Y-83263471D01*
X146229933Y-83309053D01*
X146197930Y-83326372D01*
X146197925Y-83326374D01*
X146193424Y-83328811D01*
X146189389Y-83331951D01*
X146189376Y-83331960D01*
X146019801Y-83463948D01*
X146019795Y-83463952D01*
X146015760Y-83467094D01*
X146012297Y-83470855D01*
X146012288Y-83470864D01*
X145866753Y-83628956D01*
X145866747Y-83628963D01*
X145863278Y-83632732D01*
X145860481Y-83637012D01*
X145860474Y-83637022D01*
X145772809Y-83771205D01*
X145740140Y-83821209D01*
X145738085Y-83825892D01*
X145738080Y-83825903D01*
X145669000Y-83983393D01*
X145649704Y-84027384D01*
X145648446Y-84032349D01*
X145648445Y-84032354D01*
X145595695Y-84240657D01*
X145595693Y-84240666D01*
X145594436Y-84245632D01*
X145575844Y-84470000D01*
X130290812Y-84470000D01*
X130278971Y-84458159D01*
X130271800Y-84450279D01*
X130267826Y-84444017D01*
X130262138Y-84438676D01*
X130262136Y-84438673D01*
X130220052Y-84399154D01*
X130217255Y-84396443D01*
X130201021Y-84380209D01*
X130201020Y-84380208D01*
X130198265Y-84377453D01*
X130195187Y-84375065D01*
X130194904Y-84374816D01*
X130186405Y-84367556D01*
X130161147Y-84343838D01*
X130161145Y-84343836D01*
X130155458Y-84338496D01*
X130148626Y-84334740D01*
X130148623Y-84334738D01*
X130138545Y-84329198D01*
X130122282Y-84318515D01*
X130113197Y-84311468D01*
X130107034Y-84306687D01*
X130099875Y-84303589D01*
X130099872Y-84303587D01*
X130068065Y-84289822D01*
X130057581Y-84284686D01*
X130027215Y-84267993D01*
X130027211Y-84267991D01*
X130020378Y-84264235D01*
X130012822Y-84262294D01*
X130012818Y-84262293D01*
X130001684Y-84259434D01*
X129983289Y-84253136D01*
X129972727Y-84248566D01*
X129972719Y-84248563D01*
X129965565Y-84245468D01*
X129957863Y-84244248D01*
X129923635Y-84238826D01*
X129912201Y-84236458D01*
X129878635Y-84227840D01*
X129878625Y-84227838D01*
X129871074Y-84225900D01*
X129863270Y-84225900D01*
X129851775Y-84225900D01*
X129832377Y-84224373D01*
X129821024Y-84222574D01*
X129821017Y-84222573D01*
X129813316Y-84221354D01*
X129805550Y-84222088D01*
X129805548Y-84222088D01*
X129771044Y-84225350D01*
X129759374Y-84225900D01*
X117723300Y-84225900D01*
X117661300Y-84209287D01*
X117615913Y-84163900D01*
X117599300Y-84101900D01*
X117599300Y-76424953D01*
X117599802Y-76414308D01*
X117601420Y-76407072D01*
X117599361Y-76341555D01*
X117599300Y-76337660D01*
X117599300Y-76314709D01*
X117599300Y-76310817D01*
X117598811Y-76306952D01*
X117598787Y-76306560D01*
X117597911Y-76295433D01*
X117596578Y-76253001D01*
X117591192Y-76234464D01*
X117587246Y-76215406D01*
X117585806Y-76204007D01*
X117584829Y-76196268D01*
X117569201Y-76156797D01*
X117565418Y-76145747D01*
X117555751Y-76112471D01*
X117555750Y-76112469D01*
X117553573Y-76104975D01*
X117543738Y-76088344D01*
X117535191Y-76070896D01*
X117528084Y-76052946D01*
X117523500Y-76046636D01*
X117523497Y-76046631D01*
X117503127Y-76018594D01*
X117496714Y-76008831D01*
X117479078Y-75979011D01*
X117475106Y-75972294D01*
X117461463Y-75958651D01*
X117448825Y-75943854D01*
X117442068Y-75934554D01*
X117442066Y-75934552D01*
X117437479Y-75928238D01*
X117404752Y-75901164D01*
X117396122Y-75893310D01*
X116435971Y-74933159D01*
X116428800Y-74925279D01*
X116424826Y-74919017D01*
X116419138Y-74913676D01*
X116419136Y-74913673D01*
X116377052Y-74874154D01*
X116374255Y-74871443D01*
X116358021Y-74855209D01*
X116355265Y-74852453D01*
X116352187Y-74850065D01*
X116351904Y-74849816D01*
X116343405Y-74842556D01*
X116318147Y-74818838D01*
X116318145Y-74818836D01*
X116312458Y-74813496D01*
X116305626Y-74809740D01*
X116305623Y-74809738D01*
X116295545Y-74804198D01*
X116279282Y-74793515D01*
X116270197Y-74786468D01*
X116264034Y-74781687D01*
X116256875Y-74778589D01*
X116256872Y-74778587D01*
X116225065Y-74764822D01*
X116214581Y-74759686D01*
X116184215Y-74742993D01*
X116184211Y-74742991D01*
X116177378Y-74739235D01*
X116169822Y-74737294D01*
X116169818Y-74737293D01*
X116158684Y-74734434D01*
X116140289Y-74728136D01*
X116129727Y-74723566D01*
X116129719Y-74723563D01*
X116122565Y-74720468D01*
X116114863Y-74719248D01*
X116080635Y-74713826D01*
X116069201Y-74711458D01*
X116035635Y-74702840D01*
X116035625Y-74702838D01*
X116028074Y-74700900D01*
X116020270Y-74700900D01*
X116008775Y-74700900D01*
X115989377Y-74699373D01*
X115978024Y-74697574D01*
X115978017Y-74697573D01*
X115970316Y-74696354D01*
X115962550Y-74697088D01*
X115962548Y-74697088D01*
X115928044Y-74700350D01*
X115916374Y-74700900D01*
X100564893Y-74700900D01*
X100511946Y-74686415D01*
X100511223Y-74688086D01*
X100472256Y-74671222D01*
X100461772Y-74666086D01*
X100431406Y-74649393D01*
X100431402Y-74649391D01*
X100424569Y-74645635D01*
X100417013Y-74643694D01*
X100417009Y-74643693D01*
X100405875Y-74640834D01*
X100387480Y-74634536D01*
X100376918Y-74629966D01*
X100376910Y-74629963D01*
X100369756Y-74626868D01*
X100362054Y-74625648D01*
X100327826Y-74620226D01*
X100316392Y-74617858D01*
X100282826Y-74609240D01*
X100282816Y-74609238D01*
X100275265Y-74607300D01*
X100267461Y-74607300D01*
X100255966Y-74607300D01*
X100236568Y-74605773D01*
X100225215Y-74603974D01*
X100225208Y-74603973D01*
X100217507Y-74602754D01*
X100209741Y-74603488D01*
X100209739Y-74603488D01*
X100175235Y-74606750D01*
X100163565Y-74607300D01*
X99775557Y-74607300D01*
X99764916Y-74606798D01*
X99757680Y-74605181D01*
X99749881Y-74605426D01*
X99692182Y-74607239D01*
X99688288Y-74607300D01*
X99661426Y-74607300D01*
X99657570Y-74607786D01*
X99657204Y-74607810D01*
X99646041Y-74608688D01*
X99611409Y-74609776D01*
X99611401Y-74609777D01*
X99603610Y-74610022D01*
X99596120Y-74612197D01*
X99596113Y-74612199D01*
X99585068Y-74615408D01*
X99566024Y-74619352D01*
X99554616Y-74620793D01*
X99554613Y-74620793D01*
X99546877Y-74621771D01*
X99539624Y-74624642D01*
X99539622Y-74624643D01*
X99507397Y-74637401D01*
X99496352Y-74641182D01*
X99463074Y-74650851D01*
X99463069Y-74650852D01*
X99455583Y-74653028D01*
X99448876Y-74656994D01*
X99448867Y-74656998D01*
X99438967Y-74662853D01*
X99421503Y-74671408D01*
X99410808Y-74675642D01*
X99410794Y-74675649D01*
X99403555Y-74678516D01*
X99397247Y-74683098D01*
X99392773Y-74685559D01*
X99333031Y-74700900D01*
X97483037Y-74700900D01*
X97442082Y-74693942D01*
X97409110Y-74675718D01*
X97408281Y-74674889D01*
X97394271Y-74666086D01*
X97259907Y-74581659D01*
X97259905Y-74581658D01*
X97254015Y-74577957D01*
X97247449Y-74575659D01*
X97247446Y-74575658D01*
X97088621Y-74520083D01*
X97088618Y-74520082D01*
X97082047Y-74517783D01*
X97075130Y-74517003D01*
X97075123Y-74517002D01*
X96907923Y-74498164D01*
X96901000Y-74497384D01*
X96894077Y-74498164D01*
X96726876Y-74517002D01*
X96726867Y-74517003D01*
X96719953Y-74517783D01*
X96713383Y-74520081D01*
X96713378Y-74520083D01*
X96554553Y-74575658D01*
X96554547Y-74575660D01*
X96547985Y-74577957D01*
X96542097Y-74581656D01*
X96542092Y-74581659D01*
X96399619Y-74671181D01*
X96399614Y-74671184D01*
X96393719Y-74674889D01*
X96388794Y-74679813D01*
X96388790Y-74679817D01*
X96269817Y-74798790D01*
X96269813Y-74798794D01*
X96264889Y-74803719D01*
X96261184Y-74809614D01*
X96261181Y-74809619D01*
X96171659Y-74952092D01*
X96171656Y-74952097D01*
X96167957Y-74957985D01*
X96165660Y-74964547D01*
X96165658Y-74964553D01*
X96110083Y-75123378D01*
X96110081Y-75123383D01*
X96107783Y-75129953D01*
X96107003Y-75136867D01*
X96107002Y-75136876D01*
X96088164Y-75304077D01*
X96087384Y-75311000D01*
X96088164Y-75317923D01*
X96107002Y-75485123D01*
X96107003Y-75485130D01*
X96107783Y-75492047D01*
X96167957Y-75664015D01*
X96264889Y-75818281D01*
X96393719Y-75947111D01*
X96547985Y-76044043D01*
X96719953Y-76104217D01*
X96901000Y-76124616D01*
X97082047Y-76104217D01*
X97254015Y-76044043D01*
X97408281Y-75947111D01*
X97409110Y-75946281D01*
X97442082Y-75928058D01*
X97483037Y-75921100D01*
X98049725Y-75921100D01*
X98106020Y-75934615D01*
X98150043Y-75972215D01*
X98172198Y-76025702D01*
X98167656Y-76083419D01*
X98137407Y-76132779D01*
X98073919Y-76196268D01*
X98019237Y-76250950D01*
X97985358Y-76274988D01*
X97945441Y-76286488D01*
X97869876Y-76295002D01*
X97869868Y-76295003D01*
X97862953Y-76295783D01*
X97856383Y-76298081D01*
X97856378Y-76298083D01*
X97697553Y-76353658D01*
X97697547Y-76353660D01*
X97690985Y-76355957D01*
X97685097Y-76359656D01*
X97685092Y-76359659D01*
X97542619Y-76449181D01*
X97542614Y-76449184D01*
X97536719Y-76452889D01*
X97531794Y-76457813D01*
X97531790Y-76457817D01*
X97412817Y-76576790D01*
X97412813Y-76576794D01*
X97407889Y-76581719D01*
X97404184Y-76587614D01*
X97404181Y-76587619D01*
X97314659Y-76730092D01*
X97314656Y-76730097D01*
X97310957Y-76735985D01*
X97308660Y-76742547D01*
X97308658Y-76742553D01*
X97253083Y-76901378D01*
X97253081Y-76901383D01*
X97250783Y-76907953D01*
X97250003Y-76914867D01*
X97250002Y-76914876D01*
X97232126Y-77073537D01*
X97230384Y-77089000D01*
X97231164Y-77095923D01*
X97250002Y-77263123D01*
X97250003Y-77263130D01*
X97250783Y-77270047D01*
X97253082Y-77276618D01*
X97253083Y-77276621D01*
X97307589Y-77432392D01*
X97310957Y-77442015D01*
X97407889Y-77596281D01*
X97536719Y-77725111D01*
X97690985Y-77822043D01*
X97862953Y-77882217D01*
X98044000Y-77902616D01*
X98225047Y-77882217D01*
X98397015Y-77822043D01*
X98551281Y-77725111D01*
X98680111Y-77596281D01*
X98777043Y-77442015D01*
X98837217Y-77270047D01*
X98846511Y-77187556D01*
X98858012Y-77147638D01*
X98882051Y-77113759D01*
X98895398Y-77100412D01*
X98935627Y-77073537D01*
X98983075Y-77064100D01*
X114757928Y-77064100D01*
X114805381Y-77073539D01*
X114845609Y-77100419D01*
X115177581Y-77432392D01*
X115204461Y-77472620D01*
X115213900Y-77520073D01*
X115213900Y-94620727D01*
X115200385Y-94677022D01*
X115162785Y-94721045D01*
X115109298Y-94743200D01*
X115051582Y-94738658D01*
X115002219Y-94708408D01*
X114353687Y-94059876D01*
X113549419Y-93255607D01*
X113522539Y-93215379D01*
X113513100Y-93167926D01*
X113513100Y-92182891D01*
X113527583Y-92129949D01*
X113525912Y-92129226D01*
X113542770Y-92090268D01*
X113547911Y-92079774D01*
X113555015Y-92066852D01*
X113568365Y-92042569D01*
X113573164Y-92023876D01*
X113579472Y-92005453D01*
X113587131Y-91987757D01*
X113593772Y-91945819D01*
X113596135Y-91934405D01*
X113606700Y-91893265D01*
X113606700Y-91873963D01*
X113608227Y-91854567D01*
X113610025Y-91843215D01*
X113610024Y-91843215D01*
X113611246Y-91835507D01*
X113607250Y-91793235D01*
X113606700Y-91781565D01*
X113606700Y-82149143D01*
X113607202Y-82138498D01*
X113608820Y-82131262D01*
X113606761Y-82065745D01*
X113606700Y-82061850D01*
X113606700Y-82038899D01*
X113606700Y-82035007D01*
X113606211Y-82031142D01*
X113606187Y-82030750D01*
X113605311Y-82019623D01*
X113605256Y-82017879D01*
X113603978Y-81977191D01*
X113598592Y-81958654D01*
X113594646Y-81939596D01*
X113592229Y-81920458D01*
X113576601Y-81880987D01*
X113572818Y-81869937D01*
X113563151Y-81836661D01*
X113563150Y-81836659D01*
X113560973Y-81829165D01*
X113551138Y-81812534D01*
X113542591Y-81795086D01*
X113535484Y-81777136D01*
X113530900Y-81770826D01*
X113530897Y-81770821D01*
X113510527Y-81742784D01*
X113504114Y-81733021D01*
X113490943Y-81710751D01*
X113482506Y-81696484D01*
X113468862Y-81682840D01*
X113456225Y-81668044D01*
X113449468Y-81658744D01*
X113449466Y-81658742D01*
X113444879Y-81652428D01*
X113412152Y-81625354D01*
X113403522Y-81617500D01*
X111926181Y-80140159D01*
X111919010Y-80132279D01*
X111915036Y-80126017D01*
X111909348Y-80120676D01*
X111909346Y-80120673D01*
X111867262Y-80081154D01*
X111864465Y-80078443D01*
X111848231Y-80062209D01*
X111848230Y-80062208D01*
X111845475Y-80059453D01*
X111842397Y-80057065D01*
X111842114Y-80056816D01*
X111833615Y-80049556D01*
X111808357Y-80025838D01*
X111808355Y-80025836D01*
X111802668Y-80020496D01*
X111795836Y-80016740D01*
X111795833Y-80016738D01*
X111785755Y-80011198D01*
X111769492Y-80000515D01*
X111760407Y-79993468D01*
X111754244Y-79988687D01*
X111747085Y-79985589D01*
X111747082Y-79985587D01*
X111715275Y-79971822D01*
X111704791Y-79966686D01*
X111674425Y-79949993D01*
X111674421Y-79949991D01*
X111667588Y-79946235D01*
X111660032Y-79944294D01*
X111660028Y-79944293D01*
X111648894Y-79941434D01*
X111630499Y-79935136D01*
X111619937Y-79930566D01*
X111619929Y-79930563D01*
X111612775Y-79927468D01*
X111605073Y-79926248D01*
X111570845Y-79920826D01*
X111559411Y-79918458D01*
X111525845Y-79909840D01*
X111525835Y-79909838D01*
X111518284Y-79907900D01*
X111510480Y-79907900D01*
X111498985Y-79907900D01*
X111479587Y-79906373D01*
X111468234Y-79904574D01*
X111468227Y-79904573D01*
X111460526Y-79903354D01*
X111452760Y-79904088D01*
X111452758Y-79904088D01*
X111418254Y-79907350D01*
X111406584Y-79907900D01*
X108615698Y-79907900D01*
X108558441Y-79893889D01*
X108514123Y-79855023D01*
X108412858Y-79710401D01*
X108412853Y-79710395D01*
X108409749Y-79705962D01*
X108254038Y-79550251D01*
X108249607Y-79547148D01*
X108249603Y-79547145D01*
X108078091Y-79427051D01*
X108078092Y-79427051D01*
X108073654Y-79423944D01*
X107878981Y-79333167D01*
X107878979Y-79333166D01*
X107878976Y-79333164D01*
X107874076Y-79330880D01*
X107868861Y-79329482D01*
X107868854Y-79329480D01*
X107666603Y-79275286D01*
X107666592Y-79275284D01*
X107661371Y-79273885D01*
X107655979Y-79273413D01*
X107655972Y-79273412D01*
X107447395Y-79255165D01*
X107442000Y-79254693D01*
X107436605Y-79255165D01*
X107228027Y-79273412D01*
X107228018Y-79273413D01*
X107222629Y-79273885D01*
X107217409Y-79275283D01*
X107217396Y-79275286D01*
X107015151Y-79329479D01*
X107015146Y-79329480D01*
X107009924Y-79330880D01*
X107005028Y-79333162D01*
X107005017Y-79333167D01*
X106815249Y-79421657D01*
X106815238Y-79421663D01*
X106810347Y-79423944D01*
X106805924Y-79427040D01*
X106805917Y-79427045D01*
X106634396Y-79547145D01*
X106634386Y-79547152D01*
X106629962Y-79550251D01*
X106626136Y-79554076D01*
X106626130Y-79554082D01*
X106478082Y-79702130D01*
X106478076Y-79702136D01*
X106474251Y-79705962D01*
X106471152Y-79710386D01*
X106471145Y-79710396D01*
X106351045Y-79881917D01*
X106351040Y-79881924D01*
X106347944Y-79886347D01*
X106345663Y-79891238D01*
X106345657Y-79891249D01*
X106284382Y-80022656D01*
X106238625Y-80074832D01*
X106172000Y-80094251D01*
X106105375Y-80074832D01*
X106059618Y-80022656D01*
X105998342Y-79891249D01*
X105998341Y-79891247D01*
X105996056Y-79886347D01*
X105966379Y-79843965D01*
X105872854Y-79710396D01*
X105872852Y-79710393D01*
X105869749Y-79705962D01*
X105714038Y-79550251D01*
X105709607Y-79547148D01*
X105709603Y-79547145D01*
X105538091Y-79427051D01*
X105538092Y-79427051D01*
X105533654Y-79423944D01*
X105338981Y-79333167D01*
X105338979Y-79333166D01*
X105338976Y-79333164D01*
X105334076Y-79330880D01*
X105328861Y-79329482D01*
X105328854Y-79329480D01*
X105126603Y-79275286D01*
X105126592Y-79275284D01*
X105121371Y-79273885D01*
X105115979Y-79273413D01*
X105115972Y-79273412D01*
X104907395Y-79255165D01*
X104902000Y-79254693D01*
X104896605Y-79255165D01*
X104688027Y-79273412D01*
X104688018Y-79273413D01*
X104682629Y-79273885D01*
X104677409Y-79275283D01*
X104677396Y-79275286D01*
X104475151Y-79329479D01*
X104475146Y-79329480D01*
X104469924Y-79330880D01*
X104465028Y-79333162D01*
X104465017Y-79333167D01*
X104275249Y-79421657D01*
X104275238Y-79421663D01*
X104270347Y-79423944D01*
X104265924Y-79427040D01*
X104265917Y-79427045D01*
X104094396Y-79547145D01*
X104094386Y-79547152D01*
X104089962Y-79550251D01*
X104086136Y-79554076D01*
X104086130Y-79554082D01*
X103938082Y-79702130D01*
X103938076Y-79702136D01*
X103934251Y-79705962D01*
X103931152Y-79710386D01*
X103931145Y-79710396D01*
X103811045Y-79881917D01*
X103811040Y-79881924D01*
X103807944Y-79886347D01*
X103805663Y-79891238D01*
X103805657Y-79891249D01*
X103744382Y-80022656D01*
X103698625Y-80074832D01*
X103632000Y-80094251D01*
X103565375Y-80074832D01*
X103519618Y-80022656D01*
X103458342Y-79891249D01*
X103458341Y-79891247D01*
X103456056Y-79886347D01*
X103426379Y-79843965D01*
X103332854Y-79710396D01*
X103332852Y-79710393D01*
X103329749Y-79705962D01*
X103174038Y-79550251D01*
X103169607Y-79547148D01*
X103169603Y-79547145D01*
X102998091Y-79427051D01*
X102998092Y-79427051D01*
X102993654Y-79423944D01*
X102798981Y-79333167D01*
X102798979Y-79333166D01*
X102798976Y-79333164D01*
X102794076Y-79330880D01*
X102788861Y-79329482D01*
X102788854Y-79329480D01*
X102586603Y-79275286D01*
X102586592Y-79275284D01*
X102581371Y-79273885D01*
X102575979Y-79273413D01*
X102575972Y-79273412D01*
X102367395Y-79255165D01*
X102362000Y-79254693D01*
X102356605Y-79255165D01*
X102148027Y-79273412D01*
X102148018Y-79273413D01*
X102142629Y-79273885D01*
X102137409Y-79275283D01*
X102137396Y-79275286D01*
X101935151Y-79329479D01*
X101935146Y-79329480D01*
X101929924Y-79330880D01*
X101925028Y-79333162D01*
X101925017Y-79333167D01*
X101735249Y-79421657D01*
X101735238Y-79421663D01*
X101730347Y-79423944D01*
X101725924Y-79427040D01*
X101725917Y-79427045D01*
X101554396Y-79547145D01*
X101554386Y-79547152D01*
X101549962Y-79550251D01*
X101546136Y-79554076D01*
X101546130Y-79554082D01*
X101398082Y-79702130D01*
X101398076Y-79702136D01*
X101394251Y-79705962D01*
X101391152Y-79710386D01*
X101391145Y-79710396D01*
X101271045Y-79881917D01*
X101271040Y-79881924D01*
X101267944Y-79886347D01*
X101265663Y-79891238D01*
X101265657Y-79891249D01*
X101204382Y-80022656D01*
X101158625Y-80074832D01*
X101092000Y-80094251D01*
X101025375Y-80074832D01*
X100979618Y-80022656D01*
X100918342Y-79891249D01*
X100918341Y-79891247D01*
X100916056Y-79886347D01*
X100886379Y-79843965D01*
X100792854Y-79710396D01*
X100792852Y-79710393D01*
X100789749Y-79705962D01*
X100634038Y-79550251D01*
X100629607Y-79547148D01*
X100629603Y-79547145D01*
X100458091Y-79427051D01*
X100458092Y-79427051D01*
X100453654Y-79423944D01*
X100258981Y-79333167D01*
X100258979Y-79333166D01*
X100258976Y-79333164D01*
X100254076Y-79330880D01*
X100248861Y-79329482D01*
X100248854Y-79329480D01*
X100046603Y-79275286D01*
X100046592Y-79275284D01*
X100041371Y-79273885D01*
X100035979Y-79273413D01*
X100035972Y-79273412D01*
X99827395Y-79255165D01*
X99822000Y-79254693D01*
X99816605Y-79255165D01*
X99608027Y-79273412D01*
X99608018Y-79273413D01*
X99602629Y-79273885D01*
X99597409Y-79275283D01*
X99597396Y-79275286D01*
X99395151Y-79329479D01*
X99395146Y-79329480D01*
X99389924Y-79330880D01*
X99385028Y-79333162D01*
X99385017Y-79333167D01*
X99195249Y-79421657D01*
X99195238Y-79421663D01*
X99190347Y-79423944D01*
X99185924Y-79427040D01*
X99185917Y-79427045D01*
X99014396Y-79547145D01*
X99014386Y-79547152D01*
X99009962Y-79550251D01*
X99006136Y-79554076D01*
X99006130Y-79554082D01*
X98858082Y-79702130D01*
X98858076Y-79702136D01*
X98854251Y-79705962D01*
X98851152Y-79710386D01*
X98851145Y-79710396D01*
X98731045Y-79881917D01*
X98731040Y-79881924D01*
X98727944Y-79886347D01*
X98725663Y-79891238D01*
X98725657Y-79891249D01*
X98664382Y-80022656D01*
X98618625Y-80074832D01*
X98552000Y-80094251D01*
X98485375Y-80074832D01*
X98439618Y-80022656D01*
X98378342Y-79891249D01*
X98378341Y-79891247D01*
X98376056Y-79886347D01*
X98346379Y-79843965D01*
X98252854Y-79710396D01*
X98252852Y-79710393D01*
X98249749Y-79705962D01*
X98094038Y-79550251D01*
X98089607Y-79547148D01*
X98089603Y-79547145D01*
X97918091Y-79427051D01*
X97918092Y-79427051D01*
X97913654Y-79423944D01*
X97718981Y-79333167D01*
X97718979Y-79333166D01*
X97718976Y-79333164D01*
X97714076Y-79330880D01*
X97708861Y-79329482D01*
X97708854Y-79329480D01*
X97506603Y-79275286D01*
X97506592Y-79275284D01*
X97501371Y-79273885D01*
X97495979Y-79273413D01*
X97495972Y-79273412D01*
X97287395Y-79255165D01*
X97282000Y-79254693D01*
X97276605Y-79255165D01*
X97068027Y-79273412D01*
X97068018Y-79273413D01*
X97062629Y-79273885D01*
X97057409Y-79275283D01*
X97057396Y-79275286D01*
X96855151Y-79329479D01*
X96855146Y-79329480D01*
X96849924Y-79330880D01*
X96845028Y-79333162D01*
X96845017Y-79333167D01*
X96655249Y-79421657D01*
X96655238Y-79421663D01*
X96650347Y-79423944D01*
X96645924Y-79427040D01*
X96645917Y-79427045D01*
X96474396Y-79547145D01*
X96474386Y-79547152D01*
X96469962Y-79550251D01*
X96466136Y-79554076D01*
X96466130Y-79554082D01*
X96318082Y-79702130D01*
X96318076Y-79702136D01*
X96314251Y-79705962D01*
X96311152Y-79710386D01*
X96311145Y-79710396D01*
X96191045Y-79881917D01*
X96191040Y-79881924D01*
X96187944Y-79886347D01*
X96185663Y-79891238D01*
X96185657Y-79891249D01*
X96124382Y-80022656D01*
X96078625Y-80074832D01*
X96012000Y-80094251D01*
X95945375Y-80074832D01*
X95899618Y-80022656D01*
X95838342Y-79891249D01*
X95838341Y-79891247D01*
X95836056Y-79886347D01*
X95806379Y-79843965D01*
X95712854Y-79710396D01*
X95712852Y-79710393D01*
X95709749Y-79705962D01*
X95554038Y-79550251D01*
X95549607Y-79547148D01*
X95549603Y-79547145D01*
X95378091Y-79427051D01*
X95378092Y-79427051D01*
X95373654Y-79423944D01*
X95178981Y-79333167D01*
X95178979Y-79333166D01*
X95178976Y-79333164D01*
X95174076Y-79330880D01*
X95168861Y-79329482D01*
X95168854Y-79329480D01*
X94966603Y-79275286D01*
X94966592Y-79275284D01*
X94961371Y-79273885D01*
X94955979Y-79273413D01*
X94955972Y-79273412D01*
X94747395Y-79255165D01*
X94742000Y-79254693D01*
X94736605Y-79255165D01*
X94528027Y-79273412D01*
X94528018Y-79273413D01*
X94522629Y-79273885D01*
X94517409Y-79275283D01*
X94517396Y-79275286D01*
X94315151Y-79329479D01*
X94315146Y-79329480D01*
X94309924Y-79330880D01*
X94305028Y-79333162D01*
X94305017Y-79333167D01*
X94115249Y-79421657D01*
X94115238Y-79421663D01*
X94110347Y-79423944D01*
X94105924Y-79427040D01*
X94105917Y-79427045D01*
X93934396Y-79547145D01*
X93934386Y-79547152D01*
X93929962Y-79550251D01*
X93926136Y-79554076D01*
X93926130Y-79554082D01*
X93778082Y-79702130D01*
X93778076Y-79702136D01*
X93774251Y-79705962D01*
X93771152Y-79710386D01*
X93771145Y-79710396D01*
X93651045Y-79881917D01*
X93651040Y-79881924D01*
X93647944Y-79886347D01*
X93645663Y-79891238D01*
X93645657Y-79891249D01*
X93557167Y-80081017D01*
X93557162Y-80081028D01*
X93554880Y-80085924D01*
X93553480Y-80091146D01*
X93553479Y-80091151D01*
X93499286Y-80293396D01*
X93499283Y-80293409D01*
X93497885Y-80298629D01*
X93497413Y-80304018D01*
X93497412Y-80304027D01*
X93479414Y-80509756D01*
X93478693Y-80518000D01*
X93479165Y-80523395D01*
X93497412Y-80731972D01*
X93497413Y-80731979D01*
X93497885Y-80737371D01*
X93499284Y-80742592D01*
X93499286Y-80742603D01*
X93553480Y-80944854D01*
X93553482Y-80944861D01*
X93554880Y-80950076D01*
X93557164Y-80954976D01*
X93557166Y-80954979D01*
X93591251Y-81028075D01*
X93647944Y-81149654D01*
X93651051Y-81154091D01*
X93771145Y-81325603D01*
X93771148Y-81325607D01*
X93774251Y-81330038D01*
X93929962Y-81485749D01*
X94110346Y-81612056D01*
X94309924Y-81705120D01*
X94315144Y-81706518D01*
X94315145Y-81706519D01*
X94517396Y-81760713D01*
X94517398Y-81760713D01*
X94522629Y-81762115D01*
X94742000Y-81781307D01*
X94961371Y-81762115D01*
X95174076Y-81705120D01*
X95373654Y-81612056D01*
X95554038Y-81485749D01*
X95709749Y-81330038D01*
X95836056Y-81149654D01*
X95899618Y-81013342D01*
X95945375Y-80961167D01*
X96012000Y-80941747D01*
X96078625Y-80961167D01*
X96124381Y-81013342D01*
X96187944Y-81149654D01*
X96191051Y-81154091D01*
X96311145Y-81325603D01*
X96311148Y-81325607D01*
X96314251Y-81330038D01*
X96469962Y-81485749D01*
X96650346Y-81612056D01*
X96849924Y-81705120D01*
X96855144Y-81706518D01*
X96855145Y-81706519D01*
X97057396Y-81760713D01*
X97057398Y-81760713D01*
X97062629Y-81762115D01*
X97282000Y-81781307D01*
X97501371Y-81762115D01*
X97714076Y-81705120D01*
X97913654Y-81612056D01*
X98094038Y-81485749D01*
X98249749Y-81330038D01*
X98376056Y-81149654D01*
X98439618Y-81013342D01*
X98485375Y-80961167D01*
X98552000Y-80941747D01*
X98618625Y-80961167D01*
X98664381Y-81013342D01*
X98727944Y-81149654D01*
X98731051Y-81154091D01*
X98851145Y-81325603D01*
X98851148Y-81325607D01*
X98854251Y-81330038D01*
X99009962Y-81485749D01*
X99190346Y-81612056D01*
X99389924Y-81705120D01*
X99395144Y-81706518D01*
X99395145Y-81706519D01*
X99597396Y-81760713D01*
X99597398Y-81760713D01*
X99602629Y-81762115D01*
X99822000Y-81781307D01*
X100041371Y-81762115D01*
X100254076Y-81705120D01*
X100453654Y-81612056D01*
X100634038Y-81485749D01*
X100789749Y-81330038D01*
X100916056Y-81149654D01*
X100979618Y-81013342D01*
X101025375Y-80961167D01*
X101092000Y-80941747D01*
X101158625Y-80961167D01*
X101204381Y-81013342D01*
X101267944Y-81149654D01*
X101271051Y-81154091D01*
X101391145Y-81325603D01*
X101391148Y-81325607D01*
X101394251Y-81330038D01*
X101549962Y-81485749D01*
X101730346Y-81612056D01*
X101929924Y-81705120D01*
X101935144Y-81706518D01*
X101935145Y-81706519D01*
X102137396Y-81760713D01*
X102137398Y-81760713D01*
X102142629Y-81762115D01*
X102362000Y-81781307D01*
X102581371Y-81762115D01*
X102794076Y-81705120D01*
X102993654Y-81612056D01*
X103174038Y-81485749D01*
X103329749Y-81330038D01*
X103456056Y-81149654D01*
X103519618Y-81013342D01*
X103565375Y-80961167D01*
X103632000Y-80941747D01*
X103698625Y-80961167D01*
X103744381Y-81013342D01*
X103807944Y-81149654D01*
X103811051Y-81154091D01*
X103931145Y-81325603D01*
X103931148Y-81325607D01*
X103934251Y-81330038D01*
X104089962Y-81485749D01*
X104270346Y-81612056D01*
X104469924Y-81705120D01*
X104475144Y-81706518D01*
X104475145Y-81706519D01*
X104677396Y-81760713D01*
X104677398Y-81760713D01*
X104682629Y-81762115D01*
X104902000Y-81781307D01*
X105121371Y-81762115D01*
X105179928Y-81746423D01*
X105244116Y-81746423D01*
X105299705Y-81778517D01*
X105468627Y-81947439D01*
X105475799Y-81955320D01*
X105479774Y-81961583D01*
X105504695Y-81984985D01*
X105527546Y-82006444D01*
X105530343Y-82009155D01*
X105549335Y-82028147D01*
X105552412Y-82030534D01*
X105552695Y-82030783D01*
X105561197Y-82038044D01*
X105592142Y-82067104D01*
X105598976Y-82070861D01*
X105598982Y-82070865D01*
X105609051Y-82076400D01*
X105625313Y-82087081D01*
X105640566Y-82098913D01*
X105679546Y-82115781D01*
X105690005Y-82120905D01*
X105727222Y-82141365D01*
X105745917Y-82146165D01*
X105764319Y-82152466D01*
X105768715Y-82154368D01*
X105782035Y-82160132D01*
X105823983Y-82166775D01*
X105835403Y-82169141D01*
X105865924Y-82176978D01*
X105876526Y-82179700D01*
X105895825Y-82179700D01*
X105915222Y-82181226D01*
X105934284Y-82184246D01*
X105976555Y-82180250D01*
X105988226Y-82179700D01*
X107801838Y-82179700D01*
X107812478Y-82180201D01*
X107819715Y-82181819D01*
X107885213Y-82179761D01*
X107889108Y-82179700D01*
X107912072Y-82179700D01*
X107915970Y-82179700D01*
X107919842Y-82179210D01*
X107920293Y-82179182D01*
X107931359Y-82178310D01*
X107973786Y-82176978D01*
X107992321Y-82171592D01*
X108011362Y-82167648D01*
X108030519Y-82165229D01*
X108070010Y-82149592D01*
X108081024Y-82145821D01*
X108121812Y-82133972D01*
X108138422Y-82124148D01*
X108155895Y-82115589D01*
X108173841Y-82108484D01*
X108208196Y-82083522D01*
X108217952Y-82077115D01*
X108236147Y-82066354D01*
X108254493Y-82055505D01*
X108268131Y-82041866D01*
X108282926Y-82029228D01*
X108298549Y-82017879D01*
X108325619Y-81985155D01*
X108333460Y-81976536D01*
X108742382Y-81567616D01*
X108782608Y-81540739D01*
X108830061Y-81531300D01*
X110970127Y-81531300D01*
X111017580Y-81540739D01*
X111057808Y-81567619D01*
X111748581Y-82258393D01*
X111775461Y-82298621D01*
X111784900Y-82346074D01*
X111784900Y-85915178D01*
X111769428Y-85975159D01*
X111726872Y-86020172D01*
X111667853Y-86038983D01*
X111607099Y-86026898D01*
X111559771Y-85986934D01*
X111541199Y-85938281D01*
X111539545Y-85938659D01*
X111537997Y-85931877D01*
X111537217Y-85924953D01*
X111477043Y-85752985D01*
X111380111Y-85598719D01*
X111251281Y-85469889D01*
X111240790Y-85463297D01*
X111102907Y-85376659D01*
X111102905Y-85376658D01*
X111097015Y-85372957D01*
X111090449Y-85370659D01*
X111090446Y-85370658D01*
X110931621Y-85315083D01*
X110931618Y-85315082D01*
X110925047Y-85312783D01*
X110918130Y-85312003D01*
X110918123Y-85312002D01*
X110750923Y-85293164D01*
X110744000Y-85292384D01*
X110737077Y-85293164D01*
X110569876Y-85312002D01*
X110569867Y-85312003D01*
X110562953Y-85312783D01*
X110556383Y-85315081D01*
X110556378Y-85315083D01*
X110397553Y-85370658D01*
X110397547Y-85370660D01*
X110390985Y-85372957D01*
X110385097Y-85376656D01*
X110385092Y-85376659D01*
X110242614Y-85466184D01*
X110242608Y-85466188D01*
X110236719Y-85469889D01*
X110235889Y-85470718D01*
X110202918Y-85488942D01*
X110161963Y-85495900D01*
X101548748Y-85495900D01*
X101538107Y-85495398D01*
X101530871Y-85493781D01*
X101523072Y-85494026D01*
X101465373Y-85495839D01*
X101461479Y-85495900D01*
X101434617Y-85495900D01*
X101430761Y-85496386D01*
X101430395Y-85496410D01*
X101419232Y-85497288D01*
X101384600Y-85498376D01*
X101384592Y-85498377D01*
X101376801Y-85498622D01*
X101369311Y-85500797D01*
X101369304Y-85500799D01*
X101358259Y-85504008D01*
X101339215Y-85507952D01*
X101327807Y-85509393D01*
X101327804Y-85509393D01*
X101320068Y-85510371D01*
X101312815Y-85513242D01*
X101312813Y-85513243D01*
X101280588Y-85526001D01*
X101269543Y-85529782D01*
X101236265Y-85539451D01*
X101236260Y-85539452D01*
X101228774Y-85541628D01*
X101222067Y-85545594D01*
X101222058Y-85545598D01*
X101212158Y-85551453D01*
X101194694Y-85560008D01*
X101184001Y-85564241D01*
X101183986Y-85564248D01*
X101176746Y-85567116D01*
X101170440Y-85571696D01*
X101170437Y-85571699D01*
X101142400Y-85592069D01*
X101132640Y-85598480D01*
X101102808Y-85616123D01*
X101102804Y-85616126D01*
X101096093Y-85620095D01*
X101090581Y-85625606D01*
X101090578Y-85625609D01*
X101082443Y-85633744D01*
X101067660Y-85646369D01*
X101058352Y-85653132D01*
X101058345Y-85653138D01*
X101052038Y-85657721D01*
X101047071Y-85663723D01*
X101047060Y-85663735D01*
X101024966Y-85690442D01*
X101017106Y-85699080D01*
X98851787Y-87864399D01*
X98791699Y-87897609D01*
X98723151Y-87893759D01*
X98612626Y-87855084D01*
X98612617Y-87855081D01*
X98606047Y-87852783D01*
X98599130Y-87852003D01*
X98599123Y-87852002D01*
X98431923Y-87833164D01*
X98425000Y-87832384D01*
X98418077Y-87833164D01*
X98250876Y-87852002D01*
X98250867Y-87852003D01*
X98243953Y-87852783D01*
X98237383Y-87855081D01*
X98237378Y-87855083D01*
X98078553Y-87910658D01*
X98078547Y-87910660D01*
X98071985Y-87912957D01*
X98066097Y-87916656D01*
X98066092Y-87916659D01*
X97923619Y-88006181D01*
X97923614Y-88006184D01*
X97917719Y-88009889D01*
X97912794Y-88014813D01*
X97912790Y-88014817D01*
X97793817Y-88133790D01*
X97793813Y-88133794D01*
X97788889Y-88138719D01*
X97785184Y-88144614D01*
X97785181Y-88144619D01*
X97695659Y-88287092D01*
X97695656Y-88287097D01*
X97691957Y-88292985D01*
X97689660Y-88299547D01*
X97689658Y-88299553D01*
X97634083Y-88458378D01*
X97634081Y-88458383D01*
X97631783Y-88464953D01*
X97631003Y-88471867D01*
X97631002Y-88471876D01*
X97612164Y-88639077D01*
X97611384Y-88646000D01*
X97612164Y-88652923D01*
X97631002Y-88820123D01*
X97631003Y-88820130D01*
X97631783Y-88827047D01*
X97634082Y-88833618D01*
X97634083Y-88833621D01*
X97668233Y-88931217D01*
X97691957Y-88999015D01*
X97695658Y-89004905D01*
X97695659Y-89004907D01*
X97777953Y-89135877D01*
X97788889Y-89153281D01*
X97917719Y-89282111D01*
X98071985Y-89379043D01*
X98243953Y-89439217D01*
X98425000Y-89459616D01*
X98606047Y-89439217D01*
X98778015Y-89379043D01*
X98932281Y-89282111D01*
X98934565Y-89279826D01*
X98966812Y-89261671D01*
X99005708Y-89254115D01*
X99029199Y-89253378D01*
X99047734Y-89247992D01*
X99066775Y-89244048D01*
X99085932Y-89241629D01*
X99125423Y-89225992D01*
X99136437Y-89222221D01*
X99177225Y-89210372D01*
X99193835Y-89200548D01*
X99211308Y-89191989D01*
X99229254Y-89184884D01*
X99263609Y-89159922D01*
X99273365Y-89153515D01*
X99303189Y-89135877D01*
X99309906Y-89131905D01*
X99323544Y-89118266D01*
X99338339Y-89105628D01*
X99353962Y-89094279D01*
X99381032Y-89061554D01*
X99388884Y-89052925D01*
X100792740Y-87649070D01*
X100852826Y-87615861D01*
X100921373Y-87619710D01*
X100977365Y-87659437D01*
X101003640Y-87722864D01*
X100993135Y-87784697D01*
X100993957Y-87784985D01*
X100992266Y-87789816D01*
X100992265Y-87789819D01*
X100991660Y-87791547D01*
X100991659Y-87791551D01*
X100936083Y-87950378D01*
X100936081Y-87950383D01*
X100933783Y-87956953D01*
X100933003Y-87963867D01*
X100933002Y-87963876D01*
X100914164Y-88131077D01*
X100913384Y-88138000D01*
X100914164Y-88144923D01*
X100933002Y-88312123D01*
X100933003Y-88312130D01*
X100933783Y-88319047D01*
X100936082Y-88325618D01*
X100936083Y-88325621D01*
X100984837Y-88464953D01*
X100993957Y-88491015D01*
X101090889Y-88645281D01*
X101219719Y-88774111D01*
X101373985Y-88871043D01*
X101545953Y-88931217D01*
X101727000Y-88951616D01*
X101908047Y-88931217D01*
X102080015Y-88871043D01*
X102234281Y-88774111D01*
X102235110Y-88773281D01*
X102268082Y-88755058D01*
X102309037Y-88748100D01*
X102806178Y-88748100D01*
X102866159Y-88763572D01*
X102911172Y-88806128D01*
X102929983Y-88865147D01*
X102917898Y-88925901D01*
X102877934Y-88973229D01*
X102829281Y-88991800D01*
X102829659Y-88993455D01*
X102822874Y-88995003D01*
X102815953Y-88995783D01*
X102809383Y-88998081D01*
X102809378Y-88998083D01*
X102650553Y-89053658D01*
X102650547Y-89053660D01*
X102643985Y-89055957D01*
X102638097Y-89059656D01*
X102638092Y-89059659D01*
X102495619Y-89149181D01*
X102495614Y-89149184D01*
X102489719Y-89152889D01*
X102484794Y-89157813D01*
X102484790Y-89157817D01*
X102365817Y-89276790D01*
X102365813Y-89276794D01*
X102360889Y-89281719D01*
X102357184Y-89287614D01*
X102357181Y-89287619D01*
X102267659Y-89430092D01*
X102267656Y-89430097D01*
X102263957Y-89435985D01*
X102261660Y-89442547D01*
X102261658Y-89442553D01*
X102206083Y-89601378D01*
X102206081Y-89601383D01*
X102203783Y-89607953D01*
X102203003Y-89614867D01*
X102203002Y-89614876D01*
X102184164Y-89782077D01*
X102183384Y-89789000D01*
X102184164Y-89795923D01*
X102203002Y-89963123D01*
X102203003Y-89963130D01*
X102203783Y-89970047D01*
X102263957Y-90142015D01*
X102267658Y-90147905D01*
X102267659Y-90147907D01*
X102347459Y-90274907D01*
X102360889Y-90296281D01*
X102489719Y-90425111D01*
X102643985Y-90522043D01*
X102815953Y-90582217D01*
X102997000Y-90602616D01*
X103178047Y-90582217D01*
X103350015Y-90522043D01*
X103504281Y-90425111D01*
X103505110Y-90424281D01*
X103538082Y-90406058D01*
X103579037Y-90399100D01*
X105837105Y-90399100D01*
X105897086Y-90414572D01*
X105942098Y-90457127D01*
X105960910Y-90516145D01*
X105949084Y-90575598D01*
X105946957Y-90578985D01*
X105944662Y-90585543D01*
X105944658Y-90585552D01*
X105889083Y-90744378D01*
X105889081Y-90744383D01*
X105886783Y-90750953D01*
X105886003Y-90757867D01*
X105886002Y-90757876D01*
X105878204Y-90827092D01*
X105866384Y-90932000D01*
X105867164Y-90938923D01*
X105886002Y-91106123D01*
X105886003Y-91106130D01*
X105886783Y-91113047D01*
X105889082Y-91119618D01*
X105889083Y-91119621D01*
X105924400Y-91220553D01*
X105946957Y-91285015D01*
X105950658Y-91290905D01*
X105950659Y-91290907D01*
X105998501Y-91367047D01*
X106043889Y-91439281D01*
X106172719Y-91568111D01*
X106326985Y-91665043D01*
X106498953Y-91725217D01*
X106680000Y-91745616D01*
X106861047Y-91725217D01*
X107033015Y-91665043D01*
X107187281Y-91568111D01*
X107188110Y-91567281D01*
X107221082Y-91549058D01*
X107262037Y-91542100D01*
X109436363Y-91542100D01*
X109496344Y-91557572D01*
X109541356Y-91600127D01*
X109599889Y-91693281D01*
X109728719Y-91822111D01*
X109882985Y-91919043D01*
X110054953Y-91979217D01*
X110236000Y-91999616D01*
X110417047Y-91979217D01*
X110589015Y-91919043D01*
X110743281Y-91822111D01*
X110872111Y-91693281D01*
X110969043Y-91539015D01*
X111029217Y-91367047D01*
X111049616Y-91186000D01*
X111029217Y-91004953D01*
X110969043Y-90832985D01*
X110872111Y-90678719D01*
X110768573Y-90575181D01*
X110736479Y-90519594D01*
X110736479Y-90455406D01*
X110768573Y-90399819D01*
X110769292Y-90399100D01*
X110872111Y-90296281D01*
X110969043Y-90142015D01*
X111029217Y-89970047D01*
X111049616Y-89789000D01*
X111029217Y-89607953D01*
X110969043Y-89435985D01*
X110872111Y-89281719D01*
X110743281Y-89152889D01*
X110737382Y-89149182D01*
X110737374Y-89149176D01*
X110608967Y-89068492D01*
X110566411Y-89023480D01*
X110550939Y-88963498D01*
X110566412Y-88903517D01*
X110608966Y-88858506D01*
X110743281Y-88774111D01*
X110872111Y-88645281D01*
X110969043Y-88491015D01*
X111029217Y-88319047D01*
X111049616Y-88138000D01*
X111029217Y-87956953D01*
X110969043Y-87784985D01*
X110872111Y-87630719D01*
X110743281Y-87501889D01*
X110737380Y-87498181D01*
X110594907Y-87408659D01*
X110594905Y-87408658D01*
X110589015Y-87404957D01*
X110582449Y-87402659D01*
X110582446Y-87402658D01*
X110423621Y-87347083D01*
X110423618Y-87347082D01*
X110417047Y-87344783D01*
X110410130Y-87344003D01*
X110410123Y-87344002D01*
X110242923Y-87325164D01*
X110236000Y-87324384D01*
X110229077Y-87325164D01*
X110061876Y-87344002D01*
X110061867Y-87344003D01*
X110054953Y-87344783D01*
X110048383Y-87347081D01*
X110048378Y-87347083D01*
X109889553Y-87402658D01*
X109889547Y-87402660D01*
X109882985Y-87404957D01*
X109877097Y-87408656D01*
X109877092Y-87408659D01*
X109734614Y-87498184D01*
X109734608Y-87498188D01*
X109728719Y-87501889D01*
X109727889Y-87502718D01*
X109694918Y-87520942D01*
X109653963Y-87527900D01*
X106630074Y-87527900D01*
X102309037Y-87527900D01*
X102268082Y-87520942D01*
X102235110Y-87502718D01*
X102234281Y-87501889D01*
X102225513Y-87496380D01*
X102085907Y-87408659D01*
X102085905Y-87408658D01*
X102080015Y-87404957D01*
X102073449Y-87402659D01*
X102073446Y-87402658D01*
X101914621Y-87347083D01*
X101914618Y-87347082D01*
X101908047Y-87344783D01*
X101901130Y-87344003D01*
X101901123Y-87344002D01*
X101733923Y-87325164D01*
X101727000Y-87324384D01*
X101720077Y-87325164D01*
X101552876Y-87344002D01*
X101552867Y-87344003D01*
X101545953Y-87344783D01*
X101539383Y-87347081D01*
X101539378Y-87347083D01*
X101380542Y-87402662D01*
X101380537Y-87402664D01*
X101378805Y-87403270D01*
X101378801Y-87403271D01*
X101373985Y-87404957D01*
X101373698Y-87404138D01*
X101311853Y-87414638D01*
X101248430Y-87388359D01*
X101208708Y-87332366D01*
X101204862Y-87263822D01*
X101238068Y-87203742D01*
X101689391Y-86752419D01*
X101729620Y-86725539D01*
X101777073Y-86716100D01*
X110161963Y-86716100D01*
X110202918Y-86723058D01*
X110235889Y-86741281D01*
X110236719Y-86742111D01*
X110390985Y-86839043D01*
X110562953Y-86899217D01*
X110744000Y-86919616D01*
X110925047Y-86899217D01*
X111097015Y-86839043D01*
X111251281Y-86742111D01*
X111380111Y-86613281D01*
X111477043Y-86459015D01*
X111537217Y-86287047D01*
X111537997Y-86280121D01*
X111539545Y-86273341D01*
X111541199Y-86273718D01*
X111559771Y-86225066D01*
X111607099Y-86185102D01*
X111667853Y-86173017D01*
X111726872Y-86191828D01*
X111769428Y-86236841D01*
X111784900Y-86296822D01*
X111784900Y-90984963D01*
X111777942Y-91025918D01*
X111759718Y-91058889D01*
X111758889Y-91059719D01*
X111755188Y-91065608D01*
X111755184Y-91065614D01*
X111665659Y-91208092D01*
X111665656Y-91208097D01*
X111661957Y-91213985D01*
X111659660Y-91220547D01*
X111659658Y-91220553D01*
X111604083Y-91379378D01*
X111604081Y-91379383D01*
X111601783Y-91385953D01*
X111601003Y-91392867D01*
X111601002Y-91392876D01*
X111582446Y-91557572D01*
X111581384Y-91567000D01*
X111582164Y-91573923D01*
X111601002Y-91741123D01*
X111601003Y-91741130D01*
X111601783Y-91748047D01*
X111604082Y-91754618D01*
X111604083Y-91754621D01*
X111652596Y-91893265D01*
X111661957Y-91920015D01*
X111665658Y-91925905D01*
X111665659Y-91925907D01*
X111754221Y-92066852D01*
X111758889Y-92074281D01*
X111887719Y-92203111D01*
X112041985Y-92300043D01*
X112209855Y-92358783D01*
X112253241Y-92384927D01*
X112282554Y-92426238D01*
X112292900Y-92475825D01*
X112292900Y-93396251D01*
X112292398Y-93406891D01*
X112290781Y-93414128D01*
X112291026Y-93421925D01*
X112291026Y-93421926D01*
X112292839Y-93479627D01*
X112292900Y-93483521D01*
X112292900Y-93510383D01*
X112293387Y-93514242D01*
X112293412Y-93514631D01*
X112294288Y-93525760D01*
X112295376Y-93560401D01*
X112295377Y-93560408D01*
X112295622Y-93568199D01*
X112297797Y-93575687D01*
X112297798Y-93575690D01*
X112301007Y-93586735D01*
X112304950Y-93605778D01*
X112306391Y-93617187D01*
X112306394Y-93617198D01*
X112307371Y-93624932D01*
X112310242Y-93632183D01*
X112310243Y-93632187D01*
X112323001Y-93664410D01*
X112326785Y-93675461D01*
X112336451Y-93708734D01*
X112336452Y-93708738D01*
X112338628Y-93716225D01*
X112342598Y-93722939D01*
X112342599Y-93722940D01*
X112348452Y-93732838D01*
X112357007Y-93750300D01*
X112364116Y-93768254D01*
X112368697Y-93774560D01*
X112368702Y-93774568D01*
X112389077Y-93802612D01*
X112395489Y-93812374D01*
X112413120Y-93842186D01*
X112413123Y-93842190D01*
X112417095Y-93848906D01*
X112422613Y-93854424D01*
X112430733Y-93862544D01*
X112443369Y-93877339D01*
X112450131Y-93886646D01*
X112450136Y-93886651D01*
X112454721Y-93892962D01*
X112460730Y-93897933D01*
X112460731Y-93897934D01*
X112487441Y-93920030D01*
X112496082Y-93927893D01*
X114704027Y-96135839D01*
X114711199Y-96143720D01*
X114715174Y-96149983D01*
X114751403Y-96184004D01*
X114762946Y-96194844D01*
X114765742Y-96197554D01*
X114784735Y-96216547D01*
X114787813Y-96218934D01*
X114788106Y-96219193D01*
X114796596Y-96226445D01*
X114821851Y-96250161D01*
X114821856Y-96250164D01*
X114827542Y-96255504D01*
X114834376Y-96259261D01*
X114834379Y-96259263D01*
X114844453Y-96264801D01*
X114860718Y-96275484D01*
X114875966Y-96287312D01*
X114908005Y-96301176D01*
X114914924Y-96304170D01*
X114925415Y-96309309D01*
X114962622Y-96329765D01*
X114981315Y-96334564D01*
X114999721Y-96340866D01*
X115017435Y-96348532D01*
X115059383Y-96355175D01*
X115070802Y-96357540D01*
X115111926Y-96368100D01*
X115131225Y-96368100D01*
X115150622Y-96369626D01*
X115169684Y-96372646D01*
X115211955Y-96368650D01*
X115223626Y-96368100D01*
X120194963Y-96368100D01*
X120235918Y-96375058D01*
X120268889Y-96393281D01*
X120269719Y-96394111D01*
X120423985Y-96491043D01*
X120595953Y-96551217D01*
X120777000Y-96571616D01*
X120958047Y-96551217D01*
X121130015Y-96491043D01*
X121284281Y-96394111D01*
X121413111Y-96265281D01*
X121510043Y-96111015D01*
X121570217Y-95939047D01*
X121577251Y-95876616D01*
X121598017Y-95820648D01*
X121642530Y-95780870D01*
X121700471Y-95766500D01*
X122892746Y-95766500D01*
X122940199Y-95775939D01*
X122980427Y-95802819D01*
X123063719Y-95886111D01*
X123217985Y-95983043D01*
X123389953Y-96043217D01*
X123514718Y-96057274D01*
X123564485Y-96062882D01*
X123618447Y-96082309D01*
X123657895Y-96123940D01*
X123674391Y-96178869D01*
X123664405Y-96235345D01*
X123659830Y-96245918D01*
X123654691Y-96256409D01*
X123637992Y-96286784D01*
X123637986Y-96286797D01*
X123634235Y-96293622D01*
X123632295Y-96301174D01*
X123632295Y-96301176D01*
X123629432Y-96312324D01*
X123623136Y-96330712D01*
X123618567Y-96341271D01*
X123618565Y-96341276D01*
X123615468Y-96348435D01*
X123614247Y-96356138D01*
X123614247Y-96356141D01*
X123608826Y-96390366D01*
X123606458Y-96401800D01*
X123597838Y-96435372D01*
X123597836Y-96435383D01*
X123595900Y-96442926D01*
X123595900Y-96450722D01*
X123595900Y-96462225D01*
X123594373Y-96481623D01*
X123592574Y-96492975D01*
X123592573Y-96492982D01*
X123591354Y-96500684D01*
X123592088Y-96508449D01*
X123592088Y-96508451D01*
X123595350Y-96542956D01*
X123595900Y-96554626D01*
X123595900Y-98477963D01*
X123588942Y-98518918D01*
X123570718Y-98551889D01*
X123569889Y-98552719D01*
X123566188Y-98558608D01*
X123566184Y-98558614D01*
X123476659Y-98701092D01*
X123476656Y-98701097D01*
X123472957Y-98706985D01*
X123470660Y-98713547D01*
X123470658Y-98713553D01*
X123415083Y-98872378D01*
X123415081Y-98872383D01*
X123412783Y-98878953D01*
X123412003Y-98885867D01*
X123412002Y-98885876D01*
X123393164Y-99053077D01*
X123392384Y-99060000D01*
X123393164Y-99066923D01*
X123412002Y-99234123D01*
X123412003Y-99234130D01*
X123412783Y-99241047D01*
X123472957Y-99413015D01*
X123569889Y-99567281D01*
X123698719Y-99696111D01*
X123852985Y-99793043D01*
X124024953Y-99853217D01*
X124031877Y-99853997D01*
X124038659Y-99855545D01*
X124038281Y-99857199D01*
X124086934Y-99875771D01*
X124126898Y-99923099D01*
X124138983Y-99983853D01*
X124120172Y-100042872D01*
X124075159Y-100085428D01*
X124015178Y-100100900D01*
X91261753Y-100100900D01*
X91251108Y-100100397D01*
X91243872Y-100098780D01*
X91236084Y-100099024D01*
X91236077Y-100099024D01*
X91178355Y-100100839D01*
X91174460Y-100100900D01*
X91147617Y-100100900D01*
X91143764Y-100101386D01*
X91143388Y-100101410D01*
X91132241Y-100102287D01*
X91097595Y-100103376D01*
X91097587Y-100103377D01*
X91089801Y-100103622D01*
X91082320Y-100105795D01*
X91082309Y-100105797D01*
X91071263Y-100109007D01*
X91052214Y-100112952D01*
X91040805Y-100114393D01*
X91040801Y-100114394D01*
X91033068Y-100115371D01*
X91025818Y-100118241D01*
X91025815Y-100118242D01*
X90993595Y-100130998D01*
X90982551Y-100134779D01*
X90949270Y-100144448D01*
X90949260Y-100144452D01*
X90941775Y-100146627D01*
X90935062Y-100150596D01*
X90935059Y-100150598D01*
X90925159Y-100156453D01*
X90907695Y-100165008D01*
X90897003Y-100169241D01*
X90896993Y-100169246D01*
X90889746Y-100172116D01*
X90883441Y-100176696D01*
X90883431Y-100176702D01*
X90855396Y-100197070D01*
X90845640Y-100203479D01*
X90815807Y-100221123D01*
X90815802Y-100221126D01*
X90809094Y-100225094D01*
X90803577Y-100230609D01*
X90803579Y-100230609D01*
X90795443Y-100238744D01*
X90780660Y-100251369D01*
X90771352Y-100258132D01*
X90771345Y-100258138D01*
X90765038Y-100262721D01*
X90760071Y-100268723D01*
X90760060Y-100268735D01*
X90737966Y-100295442D01*
X90730106Y-100304080D01*
X81918159Y-109116027D01*
X81910276Y-109123200D01*
X81904017Y-109127174D01*
X81898677Y-109132859D01*
X81898676Y-109132861D01*
X81859152Y-109174948D01*
X81856448Y-109177739D01*
X81837453Y-109196735D01*
X81835068Y-109199808D01*
X81834794Y-109200120D01*
X81827562Y-109208589D01*
X81798496Y-109239542D01*
X81794739Y-109246374D01*
X81794735Y-109246381D01*
X81789197Y-109256455D01*
X81778518Y-109272712D01*
X81771466Y-109281803D01*
X81771461Y-109281810D01*
X81766687Y-109287966D01*
X81763609Y-109295077D01*
X81744587Y-109319600D01*
X79317974Y-111746213D01*
X79266654Y-111777081D01*
X79206852Y-111780296D01*
X79152518Y-111755108D01*
X79116326Y-111707393D01*
X79107523Y-111653240D01*
X79106732Y-111653240D01*
X79106732Y-111648373D01*
X79106717Y-111648286D01*
X79107156Y-111643000D01*
X79088564Y-111418632D01*
X79033296Y-111200384D01*
X78942860Y-110994209D01*
X78819722Y-110805732D01*
X78667240Y-110640094D01*
X78654597Y-110630253D01*
X78493623Y-110504960D01*
X78493615Y-110504955D01*
X78489576Y-110501811D01*
X78485064Y-110499369D01*
X78485061Y-110499367D01*
X78453070Y-110482055D01*
X78405564Y-110436474D01*
X78388086Y-110373000D01*
X78405564Y-110309526D01*
X78453070Y-110263945D01*
X78453109Y-110263923D01*
X78489576Y-110244189D01*
X78667240Y-110105906D01*
X78819722Y-109940268D01*
X78942860Y-109751791D01*
X79033296Y-109545616D01*
X79088564Y-109327368D01*
X79107156Y-109103000D01*
X79088564Y-108878632D01*
X79033296Y-108660384D01*
X78942860Y-108454209D01*
X78819722Y-108265732D01*
X78668292Y-108101237D01*
X78639519Y-108048485D01*
X78638926Y-107988399D01*
X78666653Y-107935088D01*
X78716189Y-107901073D01*
X78827777Y-107859452D01*
X78843189Y-107851037D01*
X78944092Y-107775501D01*
X78956501Y-107763092D01*
X79032037Y-107662189D01*
X79040452Y-107646777D01*
X79084888Y-107527641D01*
X79088426Y-107512667D01*
X79093646Y-107464114D01*
X79094000Y-107457518D01*
X79094000Y-106829326D01*
X79090549Y-106816450D01*
X79077674Y-106813000D01*
X77618000Y-106813000D01*
X77556000Y-106796387D01*
X77510613Y-106751000D01*
X77494000Y-106689000D01*
X77494000Y-106296674D01*
X77994000Y-106296674D01*
X77997450Y-106309549D01*
X78010326Y-106313000D01*
X79077674Y-106313000D01*
X79090549Y-106309549D01*
X79094000Y-106296674D01*
X79094000Y-105668482D01*
X79093646Y-105661885D01*
X79088426Y-105613332D01*
X79084888Y-105598358D01*
X79040452Y-105479222D01*
X79032037Y-105463810D01*
X78956501Y-105362907D01*
X78944092Y-105350498D01*
X78843189Y-105274962D01*
X78827777Y-105266547D01*
X78708641Y-105222111D01*
X78693667Y-105218573D01*
X78645114Y-105213353D01*
X78638518Y-105213000D01*
X78010326Y-105213000D01*
X77997450Y-105216450D01*
X77994000Y-105229326D01*
X77994000Y-106296674D01*
X77494000Y-106296674D01*
X77494000Y-105229326D01*
X77490549Y-105216450D01*
X77477674Y-105213000D01*
X76849482Y-105213000D01*
X76842885Y-105213353D01*
X76794332Y-105218573D01*
X76779358Y-105222111D01*
X76660222Y-105266547D01*
X76644810Y-105274962D01*
X76543907Y-105350498D01*
X76531498Y-105362907D01*
X76455962Y-105463810D01*
X76447548Y-105479220D01*
X76404318Y-105595123D01*
X76368366Y-105646336D01*
X76311984Y-105673474D01*
X76249530Y-105669626D01*
X76196907Y-105635772D01*
X76130711Y-105563864D01*
X76130708Y-105563861D01*
X76127240Y-105560094D01*
X76114597Y-105550253D01*
X75953623Y-105424960D01*
X75953615Y-105424955D01*
X75949576Y-105421811D01*
X75945071Y-105419373D01*
X75945065Y-105419369D01*
X75756080Y-105317096D01*
X75756074Y-105317093D01*
X75751574Y-105314658D01*
X75746733Y-105312996D01*
X75746726Y-105312993D01*
X75543488Y-105243222D01*
X75543487Y-105243221D01*
X75538635Y-105241556D01*
X75533585Y-105240713D01*
X75533576Y-105240711D01*
X75321631Y-105205344D01*
X75321622Y-105205343D01*
X75316569Y-105204500D01*
X75091431Y-105204500D01*
X75086378Y-105205343D01*
X75086368Y-105205344D01*
X74874423Y-105240711D01*
X74874411Y-105240713D01*
X74869365Y-105241556D01*
X74864515Y-105243220D01*
X74864511Y-105243222D01*
X74661273Y-105312993D01*
X74661262Y-105312997D01*
X74656426Y-105314658D01*
X74651929Y-105317091D01*
X74651919Y-105317096D01*
X74462934Y-105419369D01*
X74462922Y-105419376D01*
X74458424Y-105421811D01*
X74454389Y-105424951D01*
X74454376Y-105424960D01*
X74284801Y-105556948D01*
X74284795Y-105556952D01*
X74280760Y-105560094D01*
X74277297Y-105563855D01*
X74277288Y-105563864D01*
X74131753Y-105721956D01*
X74131747Y-105721963D01*
X74128278Y-105725732D01*
X74125481Y-105730012D01*
X74125474Y-105730022D01*
X74007942Y-105909920D01*
X74005140Y-105914209D01*
X74003085Y-105918892D01*
X74003080Y-105918903D01*
X73916764Y-106115687D01*
X73914704Y-106120384D01*
X73913446Y-106125349D01*
X73913445Y-106125354D01*
X73860695Y-106333657D01*
X73860693Y-106333666D01*
X73859436Y-106338632D01*
X73859012Y-106343741D01*
X73859011Y-106343751D01*
X73841268Y-106557883D01*
X73840844Y-106563000D01*
X73841268Y-106568117D01*
X73859011Y-106782248D01*
X73859012Y-106782256D01*
X73859436Y-106787368D01*
X73860693Y-106792335D01*
X73860695Y-106792342D01*
X73870061Y-106829326D01*
X73914704Y-107005616D01*
X73916764Y-107010312D01*
X74003080Y-107207096D01*
X74003083Y-107207101D01*
X74005140Y-107211791D01*
X74064505Y-107302656D01*
X74125474Y-107395977D01*
X74125477Y-107395981D01*
X74128278Y-107400268D01*
X74131752Y-107404041D01*
X74131753Y-107404043D01*
X74277288Y-107562135D01*
X74277291Y-107562138D01*
X74280760Y-107565906D01*
X74284801Y-107569051D01*
X74454376Y-107701039D01*
X74454381Y-107701042D01*
X74458424Y-107704189D01*
X74462931Y-107706628D01*
X74462934Y-107706630D01*
X74494930Y-107723945D01*
X74542436Y-107769526D01*
X74559913Y-107833000D01*
X74542436Y-107896474D01*
X74494930Y-107942055D01*
X74462934Y-107959369D01*
X74462922Y-107959376D01*
X74458424Y-107961811D01*
X74454389Y-107964951D01*
X74454376Y-107964960D01*
X74284801Y-108096948D01*
X74284795Y-108096952D01*
X74280760Y-108100094D01*
X74277297Y-108103855D01*
X74277288Y-108103864D01*
X74131753Y-108261956D01*
X74131747Y-108261963D01*
X74128278Y-108265732D01*
X74125481Y-108270012D01*
X74125474Y-108270022D01*
X74037809Y-108404205D01*
X74005140Y-108454209D01*
X74003085Y-108458892D01*
X74003080Y-108458903D01*
X73934000Y-108616393D01*
X73914704Y-108660384D01*
X73913446Y-108665349D01*
X73913445Y-108665354D01*
X73860695Y-108873657D01*
X73860693Y-108873666D01*
X73859436Y-108878632D01*
X73859012Y-108883741D01*
X73859011Y-108883751D01*
X73841268Y-109097883D01*
X73840844Y-109103000D01*
X73841268Y-109108117D01*
X73859011Y-109322248D01*
X73859012Y-109322256D01*
X73859436Y-109327368D01*
X73860693Y-109332335D01*
X73860695Y-109332342D01*
X73898991Y-109483568D01*
X73914704Y-109545616D01*
X73916764Y-109550312D01*
X74003080Y-109747096D01*
X74003083Y-109747101D01*
X74005140Y-109751791D01*
X74054286Y-109827015D01*
X74125474Y-109935977D01*
X74125477Y-109935981D01*
X74128278Y-109940268D01*
X74131752Y-109944041D01*
X74131753Y-109944043D01*
X74277288Y-110102135D01*
X74277291Y-110102138D01*
X74280760Y-110105906D01*
X74331278Y-110145226D01*
X74454376Y-110241039D01*
X74454381Y-110241042D01*
X74458424Y-110244189D01*
X74462931Y-110246628D01*
X74462934Y-110246630D01*
X74494930Y-110263945D01*
X74542436Y-110309526D01*
X74559913Y-110373000D01*
X74542436Y-110436474D01*
X74494930Y-110482055D01*
X74462934Y-110499369D01*
X74462922Y-110499376D01*
X74458424Y-110501811D01*
X74454389Y-110504951D01*
X74454376Y-110504960D01*
X74284801Y-110636948D01*
X74284795Y-110636952D01*
X74280760Y-110640094D01*
X74277297Y-110643855D01*
X74277288Y-110643864D01*
X74131753Y-110801956D01*
X74131747Y-110801963D01*
X74128278Y-110805732D01*
X74125481Y-110810012D01*
X74125474Y-110810022D01*
X74037809Y-110944205D01*
X74005140Y-110994209D01*
X74003085Y-110998892D01*
X74003080Y-110998903D01*
X73934000Y-111156393D01*
X73914704Y-111200384D01*
X73913446Y-111205349D01*
X73913445Y-111205354D01*
X73860695Y-111413657D01*
X73860693Y-111413666D01*
X73859436Y-111418632D01*
X73859012Y-111423741D01*
X73859011Y-111423751D01*
X73841268Y-111637883D01*
X73840844Y-111643000D01*
X73841268Y-111648117D01*
X73859011Y-111862248D01*
X73859012Y-111862256D01*
X73859436Y-111867368D01*
X73860693Y-111872335D01*
X73860695Y-111872342D01*
X73913445Y-112080645D01*
X73914704Y-112085616D01*
X73916764Y-112090312D01*
X74003080Y-112287096D01*
X74003083Y-112287101D01*
X74005140Y-112291791D01*
X74010870Y-112300561D01*
X74125474Y-112475977D01*
X74125477Y-112475981D01*
X74128278Y-112480268D01*
X74131752Y-112484041D01*
X74131753Y-112484043D01*
X74277288Y-112642135D01*
X74277291Y-112642138D01*
X74280760Y-112645906D01*
X74284801Y-112649051D01*
X74454376Y-112781039D01*
X74454381Y-112781042D01*
X74458424Y-112784189D01*
X74462931Y-112786628D01*
X74462934Y-112786630D01*
X74494930Y-112803945D01*
X74542436Y-112849526D01*
X74559913Y-112913000D01*
X74542436Y-112976474D01*
X74494930Y-113022055D01*
X74462934Y-113039369D01*
X74462922Y-113039376D01*
X74458424Y-113041811D01*
X74454389Y-113044951D01*
X74454376Y-113044960D01*
X74284801Y-113176948D01*
X74284795Y-113176952D01*
X74280760Y-113180094D01*
X74277297Y-113183855D01*
X74277288Y-113183864D01*
X74131753Y-113341956D01*
X74131747Y-113341963D01*
X74128278Y-113345732D01*
X74125481Y-113350012D01*
X74125474Y-113350022D01*
X74037809Y-113484205D01*
X74005140Y-113534209D01*
X74003085Y-113538892D01*
X74003080Y-113538903D01*
X73934000Y-113696393D01*
X73914704Y-113740384D01*
X73913446Y-113745349D01*
X73913445Y-113745354D01*
X73860695Y-113953657D01*
X73860693Y-113953666D01*
X73859436Y-113958632D01*
X73859012Y-113963741D01*
X73859011Y-113963751D01*
X73841268Y-114177883D01*
X73840844Y-114183000D01*
X70941500Y-114183000D01*
X70941500Y-73819638D01*
X135026500Y-73819638D01*
X135033011Y-73880201D01*
X135035717Y-73887458D01*
X135035719Y-73887463D01*
X135081011Y-74008894D01*
X135084111Y-74017204D01*
X135171739Y-74134261D01*
X135288796Y-74221889D01*
X135425799Y-74272989D01*
X135486362Y-74279500D01*
X137580328Y-74279500D01*
X137583638Y-74279500D01*
X137644201Y-74272989D01*
X137781204Y-74221889D01*
X137898261Y-74134261D01*
X137985889Y-74017204D01*
X137994451Y-73994248D01*
X143270749Y-73994248D01*
X143278855Y-74005439D01*
X143307717Y-74027903D01*
X143316279Y-74033496D01*
X143525885Y-74146929D01*
X143535239Y-74151032D01*
X143760656Y-74228417D01*
X143770568Y-74230928D01*
X144005643Y-74270155D01*
X144015839Y-74271000D01*
X144254161Y-74271000D01*
X144264356Y-74270155D01*
X144499431Y-74230928D01*
X144509343Y-74228417D01*
X144734760Y-74151032D01*
X144744114Y-74146929D01*
X144953723Y-74033495D01*
X144962281Y-74027903D01*
X144991146Y-74005437D01*
X144999250Y-73994250D01*
X144992589Y-73982142D01*
X144146542Y-73136095D01*
X144135000Y-73129431D01*
X144123457Y-73136095D01*
X143277408Y-73982143D01*
X143270749Y-73994248D01*
X137994451Y-73994248D01*
X138036989Y-73880201D01*
X138043500Y-73819638D01*
X138043500Y-72776117D01*
X142630283Y-72776117D01*
X142649962Y-73013618D01*
X142651646Y-73023712D01*
X142710153Y-73254747D01*
X142713472Y-73264414D01*
X142809208Y-73482673D01*
X142814070Y-73491656D01*
X142903999Y-73629304D01*
X142911963Y-73637024D01*
X142921345Y-73631100D01*
X143769904Y-72782542D01*
X143776568Y-72771000D01*
X144493431Y-72771000D01*
X144500095Y-72782542D01*
X145348653Y-73631100D01*
X145358034Y-73637024D01*
X145366002Y-73629299D01*
X145455924Y-73491664D01*
X145460792Y-73482669D01*
X145556527Y-73264414D01*
X145559846Y-73254747D01*
X145618353Y-73023712D01*
X145620037Y-73013618D01*
X145639717Y-72776117D01*
X145639717Y-72765883D01*
X145620037Y-72528381D01*
X145618353Y-72518287D01*
X145559846Y-72287252D01*
X145556527Y-72277585D01*
X145460792Y-72059330D01*
X145455924Y-72050335D01*
X145366002Y-71912699D01*
X145358034Y-71904974D01*
X145348653Y-71910898D01*
X144500095Y-72759457D01*
X144493431Y-72771000D01*
X143776568Y-72771000D01*
X143769904Y-72759457D01*
X142921345Y-71910898D01*
X142911964Y-71904974D01*
X142903997Y-71912699D01*
X142814072Y-72050338D01*
X142809207Y-72059328D01*
X142713472Y-72277585D01*
X142710153Y-72287252D01*
X142651646Y-72518287D01*
X142649962Y-72528381D01*
X142630283Y-72765883D01*
X142630283Y-72776117D01*
X138043500Y-72776117D01*
X138043500Y-71722362D01*
X138036989Y-71661799D01*
X137994450Y-71547749D01*
X143270748Y-71547749D01*
X143277408Y-71559855D01*
X144123457Y-72405904D01*
X144135000Y-72412568D01*
X144146542Y-72405904D01*
X144992590Y-71559855D01*
X144999250Y-71547749D01*
X144991143Y-71536559D01*
X144962286Y-71514099D01*
X144953719Y-71508503D01*
X144744114Y-71395070D01*
X144734760Y-71390967D01*
X144509343Y-71313582D01*
X144499431Y-71311071D01*
X144264356Y-71271844D01*
X144254161Y-71271000D01*
X144015839Y-71271000D01*
X144005643Y-71271844D01*
X143770568Y-71311071D01*
X143760656Y-71313582D01*
X143535239Y-71390967D01*
X143525885Y-71395070D01*
X143316276Y-71508504D01*
X143307717Y-71514096D01*
X143278854Y-71536560D01*
X143270748Y-71547749D01*
X137994450Y-71547749D01*
X137985889Y-71524796D01*
X137898261Y-71407739D01*
X137881337Y-71395070D01*
X137788304Y-71325426D01*
X137788303Y-71325425D01*
X137781204Y-71320111D01*
X137772896Y-71317012D01*
X137772894Y-71317011D01*
X137651463Y-71271719D01*
X137651458Y-71271717D01*
X137644201Y-71269011D01*
X137636497Y-71268182D01*
X137636494Y-71268182D01*
X137586924Y-71262853D01*
X137586918Y-71262852D01*
X137583638Y-71262500D01*
X135486362Y-71262500D01*
X135483082Y-71262852D01*
X135483075Y-71262853D01*
X135433505Y-71268182D01*
X135433500Y-71268182D01*
X135425799Y-71269011D01*
X135418543Y-71271717D01*
X135418536Y-71271719D01*
X135297105Y-71317011D01*
X135297099Y-71317013D01*
X135288796Y-71320111D01*
X135281698Y-71325423D01*
X135281695Y-71325426D01*
X135178835Y-71402426D01*
X135178831Y-71402429D01*
X135171739Y-71407739D01*
X135166429Y-71414831D01*
X135166426Y-71414835D01*
X135089426Y-71517695D01*
X135089423Y-71517698D01*
X135084111Y-71524796D01*
X135081013Y-71533099D01*
X135081011Y-71533105D01*
X135035719Y-71654536D01*
X135035717Y-71654543D01*
X135033011Y-71661799D01*
X135032182Y-71669500D01*
X135032182Y-71669505D01*
X135026853Y-71719075D01*
X135026500Y-71722362D01*
X135026500Y-73819638D01*
X70941500Y-73819638D01*
X70941500Y-65278000D01*
X93478693Y-65278000D01*
X93479165Y-65283395D01*
X93497412Y-65491972D01*
X93497413Y-65491979D01*
X93497885Y-65497371D01*
X93499284Y-65502592D01*
X93499286Y-65502603D01*
X93553480Y-65704854D01*
X93553482Y-65704861D01*
X93554880Y-65710076D01*
X93557164Y-65714976D01*
X93557166Y-65714979D01*
X93645652Y-65904739D01*
X93647944Y-65909654D01*
X93651051Y-65914091D01*
X93771145Y-66085603D01*
X93771148Y-66085607D01*
X93774251Y-66090038D01*
X93929962Y-66245749D01*
X94110346Y-66372056D01*
X94309924Y-66465120D01*
X94315144Y-66466518D01*
X94315145Y-66466519D01*
X94517396Y-66520713D01*
X94517398Y-66520713D01*
X94522629Y-66522115D01*
X94742000Y-66541307D01*
X94961371Y-66522115D01*
X95174076Y-66465120D01*
X95373654Y-66372056D01*
X95554038Y-66245749D01*
X95709749Y-66090038D01*
X95836056Y-65909654D01*
X95899618Y-65773342D01*
X95945375Y-65721167D01*
X96012000Y-65701747D01*
X96078625Y-65721167D01*
X96124381Y-65773342D01*
X96187944Y-65909654D01*
X96191051Y-65914091D01*
X96311145Y-66085603D01*
X96311148Y-66085607D01*
X96314251Y-66090038D01*
X96469962Y-66245749D01*
X96650346Y-66372056D01*
X96849924Y-66465120D01*
X96855144Y-66466518D01*
X96855145Y-66466519D01*
X97057396Y-66520713D01*
X97057398Y-66520713D01*
X97062629Y-66522115D01*
X97282000Y-66541307D01*
X97501371Y-66522115D01*
X97714076Y-66465120D01*
X97913654Y-66372056D01*
X98094038Y-66245749D01*
X98249749Y-66090038D01*
X98376056Y-65909654D01*
X98439618Y-65773342D01*
X98485375Y-65721167D01*
X98552000Y-65701747D01*
X98618625Y-65721167D01*
X98664381Y-65773342D01*
X98727944Y-65909654D01*
X98731051Y-65914091D01*
X98851145Y-66085603D01*
X98851148Y-66085607D01*
X98854251Y-66090038D01*
X99009962Y-66245749D01*
X99190346Y-66372056D01*
X99389924Y-66465120D01*
X99395144Y-66466518D01*
X99395145Y-66466519D01*
X99597396Y-66520713D01*
X99597398Y-66520713D01*
X99602629Y-66522115D01*
X99822000Y-66541307D01*
X100041371Y-66522115D01*
X100254076Y-66465120D01*
X100453654Y-66372056D01*
X100634038Y-66245749D01*
X100789749Y-66090038D01*
X100916056Y-65909654D01*
X100979618Y-65773342D01*
X101025375Y-65721167D01*
X101092000Y-65701747D01*
X101158625Y-65721167D01*
X101204381Y-65773342D01*
X101267944Y-65909654D01*
X101271051Y-65914091D01*
X101391145Y-66085603D01*
X101391148Y-66085607D01*
X101394251Y-66090038D01*
X101549962Y-66245749D01*
X101730346Y-66372056D01*
X101929924Y-66465120D01*
X101935144Y-66466518D01*
X101935145Y-66466519D01*
X102137396Y-66520713D01*
X102137398Y-66520713D01*
X102142629Y-66522115D01*
X102362000Y-66541307D01*
X102581371Y-66522115D01*
X102794076Y-66465120D01*
X102993654Y-66372056D01*
X103174038Y-66245749D01*
X103329749Y-66090038D01*
X103456056Y-65909654D01*
X103519618Y-65773342D01*
X103565375Y-65721167D01*
X103632000Y-65701747D01*
X103698625Y-65721167D01*
X103744381Y-65773342D01*
X103807944Y-65909654D01*
X103811051Y-65914091D01*
X103931145Y-66085603D01*
X103931148Y-66085607D01*
X103934251Y-66090038D01*
X104089962Y-66245749D01*
X104270346Y-66372056D01*
X104469924Y-66465120D01*
X104475144Y-66466518D01*
X104475145Y-66466519D01*
X104677396Y-66520713D01*
X104677398Y-66520713D01*
X104682629Y-66522115D01*
X104902000Y-66541307D01*
X105121371Y-66522115D01*
X105334076Y-66465120D01*
X105533654Y-66372056D01*
X105714038Y-66245749D01*
X105869749Y-66090038D01*
X105957925Y-65964109D01*
X106005142Y-65923783D01*
X106065990Y-65911404D01*
X106125210Y-65930076D01*
X106167953Y-65975118D01*
X106183500Y-66035234D01*
X106183500Y-66076638D01*
X106183852Y-66079918D01*
X106183853Y-66079924D01*
X106184940Y-66090038D01*
X106190011Y-66137201D01*
X106192717Y-66144458D01*
X106192719Y-66144463D01*
X106238011Y-66265894D01*
X106241111Y-66274204D01*
X106246425Y-66281303D01*
X106246426Y-66281304D01*
X106312035Y-66368948D01*
X106328739Y-66391261D01*
X106445796Y-66478889D01*
X106582799Y-66529989D01*
X106643362Y-66536500D01*
X108237328Y-66536500D01*
X108240638Y-66536500D01*
X108301201Y-66529989D01*
X108438204Y-66478889D01*
X108555261Y-66391261D01*
X108642889Y-66274204D01*
X108693989Y-66137201D01*
X108700500Y-66076638D01*
X108700500Y-64479362D01*
X108693989Y-64418799D01*
X108642889Y-64281796D01*
X108555261Y-64164739D01*
X108438204Y-64077111D01*
X108429896Y-64074012D01*
X108429894Y-64074011D01*
X108308463Y-64028719D01*
X108308458Y-64028717D01*
X108301201Y-64026011D01*
X108293497Y-64025182D01*
X108293494Y-64025182D01*
X108243924Y-64019853D01*
X108243918Y-64019852D01*
X108240638Y-64019500D01*
X106643362Y-64019500D01*
X106640082Y-64019852D01*
X106640075Y-64019853D01*
X106590505Y-64025182D01*
X106590500Y-64025182D01*
X106582799Y-64026011D01*
X106575543Y-64028717D01*
X106575536Y-64028719D01*
X106454105Y-64074011D01*
X106454099Y-64074013D01*
X106445796Y-64077111D01*
X106438698Y-64082423D01*
X106438695Y-64082426D01*
X106335835Y-64159426D01*
X106335831Y-64159429D01*
X106328739Y-64164739D01*
X106323429Y-64171831D01*
X106323426Y-64171835D01*
X106246426Y-64274695D01*
X106246423Y-64274698D01*
X106241111Y-64281796D01*
X106238013Y-64290099D01*
X106238011Y-64290105D01*
X106192719Y-64411536D01*
X106192717Y-64411543D01*
X106190011Y-64418799D01*
X106189182Y-64426500D01*
X106189182Y-64426505D01*
X106184464Y-64470396D01*
X106183500Y-64479362D01*
X106183500Y-64482672D01*
X106183500Y-64520766D01*
X106167953Y-64580882D01*
X106125210Y-64625924D01*
X106065990Y-64644596D01*
X106005142Y-64632217D01*
X105957925Y-64591890D01*
X105872854Y-64470396D01*
X105872852Y-64470393D01*
X105869749Y-64465962D01*
X105714038Y-64310251D01*
X105709607Y-64307148D01*
X105709603Y-64307145D01*
X105538091Y-64187051D01*
X105538092Y-64187051D01*
X105533654Y-64183944D01*
X105507686Y-64171835D01*
X105338979Y-64093166D01*
X105338976Y-64093164D01*
X105334076Y-64090880D01*
X105328861Y-64089482D01*
X105328854Y-64089480D01*
X105126603Y-64035286D01*
X105126592Y-64035284D01*
X105121371Y-64033885D01*
X105115979Y-64033413D01*
X105115972Y-64033412D01*
X104907395Y-64015165D01*
X104902000Y-64014693D01*
X104896605Y-64015165D01*
X104688027Y-64033412D01*
X104688018Y-64033413D01*
X104682629Y-64033885D01*
X104677409Y-64035283D01*
X104677396Y-64035286D01*
X104475151Y-64089479D01*
X104475146Y-64089480D01*
X104469924Y-64090880D01*
X104465028Y-64093162D01*
X104465017Y-64093167D01*
X104275249Y-64181657D01*
X104275238Y-64181663D01*
X104270347Y-64183944D01*
X104265924Y-64187040D01*
X104265917Y-64187045D01*
X104094396Y-64307145D01*
X104094386Y-64307152D01*
X104089962Y-64310251D01*
X104086136Y-64314076D01*
X104086130Y-64314082D01*
X103938082Y-64462130D01*
X103938076Y-64462136D01*
X103934251Y-64465962D01*
X103931152Y-64470386D01*
X103931145Y-64470396D01*
X103811045Y-64641917D01*
X103811040Y-64641924D01*
X103807944Y-64646347D01*
X103805663Y-64651238D01*
X103805657Y-64651249D01*
X103744382Y-64782656D01*
X103698625Y-64834832D01*
X103632000Y-64854251D01*
X103565375Y-64834832D01*
X103519618Y-64782656D01*
X103458342Y-64651249D01*
X103458341Y-64651247D01*
X103456056Y-64646347D01*
X103368123Y-64520766D01*
X103332854Y-64470396D01*
X103332852Y-64470393D01*
X103329749Y-64465962D01*
X103174038Y-64310251D01*
X103169607Y-64307148D01*
X103169603Y-64307145D01*
X102998091Y-64187051D01*
X102998092Y-64187051D01*
X102993654Y-64183944D01*
X102967686Y-64171835D01*
X102798979Y-64093166D01*
X102798976Y-64093164D01*
X102794076Y-64090880D01*
X102788861Y-64089482D01*
X102788854Y-64089480D01*
X102586603Y-64035286D01*
X102586592Y-64035284D01*
X102581371Y-64033885D01*
X102575979Y-64033413D01*
X102575972Y-64033412D01*
X102367395Y-64015165D01*
X102362000Y-64014693D01*
X102356605Y-64015165D01*
X102148027Y-64033412D01*
X102148018Y-64033413D01*
X102142629Y-64033885D01*
X102137409Y-64035283D01*
X102137396Y-64035286D01*
X101935151Y-64089479D01*
X101935146Y-64089480D01*
X101929924Y-64090880D01*
X101925028Y-64093162D01*
X101925017Y-64093167D01*
X101735249Y-64181657D01*
X101735238Y-64181663D01*
X101730347Y-64183944D01*
X101725924Y-64187040D01*
X101725917Y-64187045D01*
X101554396Y-64307145D01*
X101554386Y-64307152D01*
X101549962Y-64310251D01*
X101546136Y-64314076D01*
X101546130Y-64314082D01*
X101398082Y-64462130D01*
X101398076Y-64462136D01*
X101394251Y-64465962D01*
X101391152Y-64470386D01*
X101391145Y-64470396D01*
X101271045Y-64641917D01*
X101271040Y-64641924D01*
X101267944Y-64646347D01*
X101265663Y-64651238D01*
X101265657Y-64651249D01*
X101204382Y-64782656D01*
X101158625Y-64834832D01*
X101092000Y-64854251D01*
X101025375Y-64834832D01*
X100979618Y-64782656D01*
X100918342Y-64651249D01*
X100918341Y-64651247D01*
X100916056Y-64646347D01*
X100828123Y-64520766D01*
X100792854Y-64470396D01*
X100792852Y-64470393D01*
X100789749Y-64465962D01*
X100634038Y-64310251D01*
X100629607Y-64307148D01*
X100629603Y-64307145D01*
X100458091Y-64187051D01*
X100458092Y-64187051D01*
X100453654Y-64183944D01*
X100427686Y-64171835D01*
X100258979Y-64093166D01*
X100258976Y-64093164D01*
X100254076Y-64090880D01*
X100248861Y-64089482D01*
X100248854Y-64089480D01*
X100046603Y-64035286D01*
X100046592Y-64035284D01*
X100041371Y-64033885D01*
X100035979Y-64033413D01*
X100035972Y-64033412D01*
X99827395Y-64015165D01*
X99822000Y-64014693D01*
X99816605Y-64015165D01*
X99608027Y-64033412D01*
X99608018Y-64033413D01*
X99602629Y-64033885D01*
X99597409Y-64035283D01*
X99597396Y-64035286D01*
X99395151Y-64089479D01*
X99395146Y-64089480D01*
X99389924Y-64090880D01*
X99385028Y-64093162D01*
X99385017Y-64093167D01*
X99195249Y-64181657D01*
X99195238Y-64181663D01*
X99190347Y-64183944D01*
X99185924Y-64187040D01*
X99185917Y-64187045D01*
X99014396Y-64307145D01*
X99014386Y-64307152D01*
X99009962Y-64310251D01*
X99006136Y-64314076D01*
X99006130Y-64314082D01*
X98858082Y-64462130D01*
X98858076Y-64462136D01*
X98854251Y-64465962D01*
X98851152Y-64470386D01*
X98851145Y-64470396D01*
X98731045Y-64641917D01*
X98731040Y-64641924D01*
X98727944Y-64646347D01*
X98725663Y-64651238D01*
X98725657Y-64651249D01*
X98664382Y-64782656D01*
X98618625Y-64834832D01*
X98552000Y-64854251D01*
X98485375Y-64834832D01*
X98439618Y-64782656D01*
X98378342Y-64651249D01*
X98378341Y-64651247D01*
X98376056Y-64646347D01*
X98288123Y-64520766D01*
X98252854Y-64470396D01*
X98252852Y-64470393D01*
X98249749Y-64465962D01*
X98094038Y-64310251D01*
X98089607Y-64307148D01*
X98089603Y-64307145D01*
X97918091Y-64187051D01*
X97918092Y-64187051D01*
X97913654Y-64183944D01*
X97887686Y-64171835D01*
X97718979Y-64093166D01*
X97718976Y-64093164D01*
X97714076Y-64090880D01*
X97708861Y-64089482D01*
X97708854Y-64089480D01*
X97506603Y-64035286D01*
X97506592Y-64035284D01*
X97501371Y-64033885D01*
X97495979Y-64033413D01*
X97495972Y-64033412D01*
X97287395Y-64015165D01*
X97282000Y-64014693D01*
X97276605Y-64015165D01*
X97068027Y-64033412D01*
X97068018Y-64033413D01*
X97062629Y-64033885D01*
X97057409Y-64035283D01*
X97057396Y-64035286D01*
X96855151Y-64089479D01*
X96855146Y-64089480D01*
X96849924Y-64090880D01*
X96845028Y-64093162D01*
X96845017Y-64093167D01*
X96655249Y-64181657D01*
X96655238Y-64181663D01*
X96650347Y-64183944D01*
X96645924Y-64187040D01*
X96645917Y-64187045D01*
X96474396Y-64307145D01*
X96474386Y-64307152D01*
X96469962Y-64310251D01*
X96466136Y-64314076D01*
X96466130Y-64314082D01*
X96318082Y-64462130D01*
X96318076Y-64462136D01*
X96314251Y-64465962D01*
X96311152Y-64470386D01*
X96311145Y-64470396D01*
X96191045Y-64641917D01*
X96191040Y-64641924D01*
X96187944Y-64646347D01*
X96185663Y-64651238D01*
X96185657Y-64651249D01*
X96124382Y-64782656D01*
X96078625Y-64834832D01*
X96012000Y-64854251D01*
X95945375Y-64834832D01*
X95899618Y-64782656D01*
X95838342Y-64651249D01*
X95838341Y-64651247D01*
X95836056Y-64646347D01*
X95748123Y-64520766D01*
X95712854Y-64470396D01*
X95712852Y-64470393D01*
X95709749Y-64465962D01*
X95554038Y-64310251D01*
X95549607Y-64307148D01*
X95549603Y-64307145D01*
X95378091Y-64187051D01*
X95378092Y-64187051D01*
X95373654Y-64183944D01*
X95347686Y-64171835D01*
X95178979Y-64093166D01*
X95178976Y-64093164D01*
X95174076Y-64090880D01*
X95168861Y-64089482D01*
X95168854Y-64089480D01*
X94966603Y-64035286D01*
X94966592Y-64035284D01*
X94961371Y-64033885D01*
X94955979Y-64033413D01*
X94955972Y-64033412D01*
X94747395Y-64015165D01*
X94742000Y-64014693D01*
X94736605Y-64015165D01*
X94528027Y-64033412D01*
X94528018Y-64033413D01*
X94522629Y-64033885D01*
X94517409Y-64035283D01*
X94517396Y-64035286D01*
X94315151Y-64089479D01*
X94315146Y-64089480D01*
X94309924Y-64090880D01*
X94305028Y-64093162D01*
X94305017Y-64093167D01*
X94115249Y-64181657D01*
X94115238Y-64181663D01*
X94110347Y-64183944D01*
X94105924Y-64187040D01*
X94105917Y-64187045D01*
X93934396Y-64307145D01*
X93934386Y-64307152D01*
X93929962Y-64310251D01*
X93926136Y-64314076D01*
X93926130Y-64314082D01*
X93778082Y-64462130D01*
X93778076Y-64462136D01*
X93774251Y-64465962D01*
X93771152Y-64470386D01*
X93771145Y-64470396D01*
X93651045Y-64641917D01*
X93651040Y-64641924D01*
X93647944Y-64646347D01*
X93645663Y-64651238D01*
X93645657Y-64651249D01*
X93557167Y-64841017D01*
X93557162Y-64841028D01*
X93554880Y-64845924D01*
X93553480Y-64851146D01*
X93553479Y-64851151D01*
X93499286Y-65053396D01*
X93499283Y-65053409D01*
X93497885Y-65058629D01*
X93497413Y-65064018D01*
X93497412Y-65064027D01*
X93479414Y-65269756D01*
X93478693Y-65278000D01*
X70941500Y-65278000D01*
X70941500Y-61540500D01*
X70958113Y-61478500D01*
X71003500Y-61433113D01*
X71065500Y-61416500D01*
X154613500Y-61416500D01*
X154675500Y-61433113D01*
G37*
%TD.AperFunction*%
%TD*%
M02*
