M48
; DRILL file {KiCad (7.0.0)} date Thu Apr 20 12:17:38 2023
; FORMAT={-:-/ absolute / inch / decimal}
; #@! TF.CreationDate,2023-04-20T12:17:38-06:00
; #@! TF.GenerationSoftware,Kicad,Pcbnew,(7.0.0)
; #@! TF.FileFunction,Plated,1,2,PTH
FMAT,2
INCH
; #@! TA.AperFunction,Plated,PTH,ViaDrill
T1C0.0157
; #@! TA.AperFunction,Plated,PTH,ViaDrill
T2C0.0236
; #@! TA.AperFunction,Plated,PTH,ComponentDrill
T3C0.0394
%
G90
G05
T1
X3.515Y-4.105
X3.815Y-2.965
X3.86Y-3.035
X3.875Y-3.49
X3.935Y-2.985
X4.005Y-3.47
X4.055Y-3.535
X4.155Y-4.025
X4.185Y-4.58
X4.2Y-3.58
X4.34Y-3.47
X4.34Y-3.535
X4.34Y-3.59
X4.36Y-3.39
X4.425Y-3.605
X4.515Y-4.105
X4.65Y-3.54
X4.65Y-3.64
X4.655Y-3.39
X4.755Y-3.77
X4.815Y-3.695
X4.865Y-3.75
X4.865Y-4.15
X4.89Y-3.9
X4.92Y-3.77
X4.985Y-3.37
X5.02Y-4.31
X5.06Y-3.37
X5.065Y-3.425
X5.14Y-3.825
X5.175Y-3.86
X5.33Y-3.71
X5.45Y-3.435
T2
X3.14Y-4.2
X3.2678Y-3.4
X3.27Y-4.4524
X3.335Y-4.2842
X3.51Y-4.3
X3.5936Y-3.4
X3.785Y-4.3
X3.935Y-3.81
X4.545Y-4.495
X4.7666Y-3.47
X4.815Y-3.62
X4.83Y-4.36
X4.96Y-3.57
X4.96Y-3.9
X4.96Y-4.045
X4.975Y-4.24
X5.14Y-4.025
X5.175Y-3.1365
X5.185Y-4.355
X5.295Y-3.3115
X5.34Y-4.155
X5.385Y-3.3015
X5.4798Y-4.6327
X5.485Y-4.09
X5.665Y-3.685
X5.665Y-3.745
X5.675Y-2.955
X5.68Y-3.945
X5.775Y-4.14
X5.78Y-3.51
X5.86Y-4.285
T3
X2.9608Y-4.1954
X2.9608Y-4.2954
X2.9608Y-4.3954
X2.9608Y-4.4954
X3.0608Y-4.1954
X3.0608Y-4.2954
X3.0608Y-4.3954
X3.0608Y-4.4954
X3.73Y-2.57
X3.73Y-3.17
X3.83Y-2.57
X3.83Y-3.17
X3.93Y-2.57
X3.93Y-3.17
X4.03Y-2.57
X4.03Y-3.17
X4.13Y-2.57
X4.13Y-3.17
X4.23Y-2.57
X4.23Y-3.17
X5.3754Y-2.865
X5.6746Y-2.865
X5.785Y-3.2256
X5.785Y-3.3256
X5.785Y-3.4256
X5.885Y-3.2256
X5.885Y-3.3256
X5.885Y-3.4256
T0
M30
