M48
; DRILL file {KiCad (7.0.0)} date Thu Apr 13 09:35:00 2023
; FORMAT={-:-/ absolute / inch / decimal}
; #@! TF.CreationDate,2023-04-13T09:35:00-06:00
; #@! TF.GenerationSoftware,Kicad,Pcbnew,(7.0.0)
; #@! TF.FileFunction,Plated,1,2,PTH
FMAT,2
INCH
; #@! TA.AperFunction,Plated,PTH,ViaDrill
T1C0.0157
; #@! TA.AperFunction,Plated,PTH,ComponentDrill
T2C0.0315
; #@! TA.AperFunction,Plated,PTH,ComponentDrill
T3C0.0354
; #@! TA.AperFunction,Plated,PTH,ComponentDrill
T4C0.0394
; #@! TA.AperFunction,Plated,PTH,ComponentDrill
T5C0.0512
%
G90
G05
T1
X4.137Y-2.237
X4.137Y-2.237
X4.287Y-2.237
X4.487Y-1.987
X4.687Y-3.137
X4.687Y-3.337
X4.937Y-2.037
X4.937Y-2.237
X4.937Y-2.237
X4.937Y-2.237
X4.987Y-1.737
X5.037Y-2.187
X5.087Y-2.037
X5.087Y-2.037
X5.137Y-2.187
X5.137Y-2.737
X5.137Y-3.187
X5.187Y-3.237
X5.187Y-3.487
X5.187Y-3.487
X5.237Y-3.437
X5.287Y-3.237
X5.387Y-2.337
X5.387Y-3.487
X5.487Y-3.187
X5.687Y-2.937
X5.787Y-2.087
X5.787Y-2.887
X5.887Y-2.087
X5.937Y-2.137
X6.087Y-2.587
X6.087Y-2.737
X6.187Y-2.737
X6.237Y-2.587
T2
X4.0303Y-2.537
X4.0303Y-2.937
X4.137Y-2.087
X4.137Y-2.387
X4.187Y-2.537
X4.187Y-2.937
X4.237Y-2.087
X4.237Y-2.387
X4.337Y-2.087
X4.337Y-2.387
X4.3492Y-2.537
X4.3492Y-2.937
X4.437Y-2.087
X4.437Y-2.387
X4.5087Y-2.537
X4.5087Y-2.937
X4.537Y-2.087
X4.537Y-2.387
X4.637Y-2.087
X4.637Y-2.387
X4.6681Y-2.537
X4.6681Y-2.937
X4.737Y-2.087
X4.737Y-2.387
X4.837Y-2.087
X4.837Y-2.387
X4.837Y-2.537
X4.837Y-2.937
X4.987Y-2.537
X4.987Y-2.937
X5.137Y-2.537
X5.137Y-2.937
X5.2874Y-2.087
X5.2874Y-2.487
X5.4374Y-2.087
X5.4374Y-2.487
X6.237Y-2.087
X6.237Y-2.487
X6.487Y-3.187
X6.887Y-3.187
T3
X5.387Y-2.737
X5.487Y-2.737
X5.687Y-2.737
X5.787Y-2.737
T4
X4.677Y-1.937
X4.777Y-1.937
X4.877Y-1.937
X4.977Y-1.937
X5.037Y-3.087
X5.037Y-3.687
X5.037Y-3.837
X5.077Y-1.937
X5.137Y-3.087
X5.137Y-3.687
X5.137Y-3.837
X5.177Y-1.937
X5.237Y-3.087
X5.237Y-3.687
X5.237Y-3.837
X5.277Y-1.937
X5.337Y-3.087
X5.337Y-3.687
X5.337Y-3.837
X5.377Y-1.937
X5.437Y-3.087
X5.437Y-3.687
X5.437Y-3.837
X5.477Y-1.937
X5.537Y-3.087
X5.537Y-3.687
X5.537Y-3.837
X5.577Y-1.937
X5.637Y-3.837
X5.737Y-1.937
X5.737Y-3.837
X5.7374Y-2.287
X5.837Y-1.937
X5.937Y-1.937
X5.937Y-3.837
X6.0366Y-2.287
X6.037Y-1.937
X6.037Y-3.837
X6.137Y-1.937
X6.137Y-3.837
X6.237Y-1.937
X6.237Y-3.837
X6.337Y-1.937
X6.337Y-3.837
X6.437Y-1.937
X6.437Y-3.837
T5
X6.437Y-2.737
X6.437Y-2.9339
X6.4406Y-2.1886
X6.4406Y-2.3854
X6.9291Y-2.737
X6.9291Y-2.9339
X6.9327Y-2.1886
X6.9327Y-2.3854
T0
M30
