%TF.GenerationSoftware,KiCad,Pcbnew,(7.0.0)*%
%TF.CreationDate,2023-04-13T09:35:06-06:00*%
%TF.ProjectId,Phase_A_UnoShield,50686173-655f-4415-9f55-6e6f53686965,rev?*%
%TF.SameCoordinates,Original*%
%TF.FileFunction,Soldermask,Bot*%
%TF.FilePolarity,Negative*%
%FSLAX46Y46*%
G04 Gerber Fmt 4.6, Leading zero omitted, Abs format (unit mm)*
G04 Created by KiCad (PCBNEW (7.0.0)) date 2023-04-13 09:35:06*
%MOMM*%
%LPD*%
G01*
G04 APERTURE LIST*
%ADD10C,1.500000*%
%ADD11R,1.500000X1.500000*%
%ADD12R,1.700000X1.700000*%
%ADD13O,1.700000X1.700000*%
%ADD14R,1.800000X1.800000*%
%ADD15C,1.800000*%
%ADD16R,1.600000X2.400000*%
%ADD17O,1.600000X2.400000*%
%ADD18C,1.600000*%
%ADD19O,1.600000X1.600000*%
%ADD20R,2.000000X2.000000*%
%ADD21C,2.000000*%
%ADD22O,3.048000X1.850000*%
G04 APERTURE END LIST*
D10*
%TO.C,U1*%
X140640000Y-93650000D03*
X138100000Y-93650000D03*
X135560000Y-93650000D03*
X133020000Y-93650000D03*
X130480000Y-93650000D03*
X127940000Y-93650000D03*
X127940000Y-78410000D03*
X130480000Y-78410000D03*
X133020000Y-78410000D03*
X135560000Y-78410000D03*
X138100000Y-78410000D03*
D11*
X140639999Y-78409999D03*
%TD*%
D12*
%TO.C,J1*%
X127939999Y-97459999D03*
D13*
X130479999Y-97459999D03*
X133019999Y-97459999D03*
X135559999Y-97459999D03*
X138099999Y-97459999D03*
X140639999Y-97459999D03*
X143179999Y-97459999D03*
X145719999Y-97459999D03*
%TD*%
D12*
%TO.C,J3*%
X150799999Y-97459999D03*
D13*
X153339999Y-97459999D03*
X155879999Y-97459999D03*
X158419999Y-97459999D03*
X160959999Y-97459999D03*
X163499999Y-97459999D03*
%TD*%
D12*
%TO.C,J2*%
X118795999Y-49199999D03*
D13*
X121335999Y-49199999D03*
X123875999Y-49199999D03*
X126415999Y-49199999D03*
X128955999Y-49199999D03*
X131495999Y-49199999D03*
X134035999Y-49199999D03*
X136575999Y-49199999D03*
X139115999Y-49199999D03*
X141655999Y-49199999D03*
%TD*%
D12*
%TO.C,J4*%
X145719999Y-49199999D03*
D13*
X148259999Y-49199999D03*
X150799999Y-49199999D03*
X153339999Y-49199999D03*
X155879999Y-49199999D03*
X158419999Y-49199999D03*
X160959999Y-49199999D03*
X163499999Y-49199999D03*
%TD*%
D14*
%TO.C,D2*%
X146989999Y-69519999D03*
D15*
X144450000Y-69520000D03*
%TD*%
D16*
%TO.C,U2*%
X105079999Y-60629999D03*
D17*
X107619999Y-60629999D03*
X110159999Y-60629999D03*
X112699999Y-60629999D03*
X115239999Y-60629999D03*
X117779999Y-60629999D03*
X120319999Y-60629999D03*
X122859999Y-60629999D03*
X122859999Y-53009999D03*
X120319999Y-53009999D03*
X117779999Y-53009999D03*
X115239999Y-53009999D03*
X112699999Y-53009999D03*
X110159999Y-53009999D03*
X107619999Y-53009999D03*
X105079999Y-53009999D03*
%TD*%
D18*
%TO.C,R8*%
X110470000Y-64440000D03*
D19*
X110469999Y-74599999D03*
%TD*%
D18*
%TO.C,R5*%
X130480000Y-64440000D03*
D19*
X130479999Y-74599999D03*
%TD*%
D14*
%TO.C,D1*%
X139369999Y-69519999D03*
D15*
X136830000Y-69520000D03*
%TD*%
D18*
%TO.C,R1*%
X158420000Y-53010000D03*
D19*
X158419999Y-63169999D03*
%TD*%
D20*
%TO.C,LS1*%
X145729999Y-58089999D03*
D21*
X153330000Y-58090000D03*
%TD*%
D18*
%TO.C,R2*%
X174930000Y-80950000D03*
D19*
X164769999Y-80949999D03*
%TD*%
D22*
%TO.C,SW1*%
X176089999Y-60589999D03*
X163589999Y-60589999D03*
X176089999Y-55589999D03*
X163589999Y-55589999D03*
%TD*%
%TO.C,SW2*%
X163499999Y-69519999D03*
X175999999Y-69519999D03*
X163499999Y-74519999D03*
X175999999Y-74519999D03*
%TD*%
D18*
%TO.C,R12*%
X126670000Y-64440000D03*
D19*
X126669999Y-74599999D03*
%TD*%
D18*
%TO.C,R10*%
X118570000Y-64440000D03*
D19*
X118569999Y-74599999D03*
%TD*%
D18*
%TO.C,R9*%
X114520000Y-64440000D03*
D19*
X114519999Y-74599999D03*
%TD*%
D18*
%TO.C,R6*%
X102370000Y-64440000D03*
D19*
X102369999Y-74599999D03*
%TD*%
D18*
%TO.C,R3*%
X134300000Y-53010000D03*
D19*
X134299999Y-63169999D03*
%TD*%
D18*
%TO.C,R7*%
X106350000Y-64440000D03*
D19*
X106349999Y-74599999D03*
%TD*%
D18*
%TO.C,R11*%
X122860000Y-64440000D03*
D19*
X122859999Y-74599999D03*
%TD*%
D18*
%TO.C,R4*%
X138110000Y-53010000D03*
D19*
X138109999Y-63169999D03*
%TD*%
M02*
