%TF.GenerationSoftware,KiCad,Pcbnew,(7.0.0)*%
%TF.CreationDate,2023-04-13T09:35:06-06:00*%
%TF.ProjectId,Phase_A_UnoShield,50686173-655f-4415-9f55-6e6f53686965,rev?*%
%TF.SameCoordinates,Original*%
%TF.FileFunction,Legend,Top*%
%TF.FilePolarity,Positive*%
%FSLAX46Y46*%
G04 Gerber Fmt 4.6, Leading zero omitted, Abs format (unit mm)*
G04 Created by KiCad (PCBNEW (7.0.0)) date 2023-04-13 09:35:06*
%MOMM*%
%LPD*%
G01*
G04 APERTURE LIST*
%ADD10C,0.150000*%
%ADD11C,0.100000*%
%ADD12C,0.120000*%
G04 APERTURE END LIST*
D10*
X143941904Y-74700000D02*
X143846666Y-74652380D01*
X143846666Y-74652380D02*
X143703809Y-74652380D01*
X143703809Y-74652380D02*
X143560952Y-74700000D01*
X143560952Y-74700000D02*
X143465714Y-74795238D01*
X143465714Y-74795238D02*
X143418095Y-74890476D01*
X143418095Y-74890476D02*
X143370476Y-75080952D01*
X143370476Y-75080952D02*
X143370476Y-75223809D01*
X143370476Y-75223809D02*
X143418095Y-75414285D01*
X143418095Y-75414285D02*
X143465714Y-75509523D01*
X143465714Y-75509523D02*
X143560952Y-75604761D01*
X143560952Y-75604761D02*
X143703809Y-75652380D01*
X143703809Y-75652380D02*
X143799047Y-75652380D01*
X143799047Y-75652380D02*
X143941904Y-75604761D01*
X143941904Y-75604761D02*
X143989523Y-75557142D01*
X143989523Y-75557142D02*
X143989523Y-75223809D01*
X143989523Y-75223809D02*
X143799047Y-75223809D01*
X144989523Y-75652380D02*
X144656190Y-75176190D01*
X144418095Y-75652380D02*
X144418095Y-74652380D01*
X144418095Y-74652380D02*
X144799047Y-74652380D01*
X144799047Y-74652380D02*
X144894285Y-74700000D01*
X144894285Y-74700000D02*
X144941904Y-74747619D01*
X144941904Y-74747619D02*
X144989523Y-74842857D01*
X144989523Y-74842857D02*
X144989523Y-74985714D01*
X144989523Y-74985714D02*
X144941904Y-75080952D01*
X144941904Y-75080952D02*
X144894285Y-75128571D01*
X144894285Y-75128571D02*
X144799047Y-75176190D01*
X144799047Y-75176190D02*
X144418095Y-75176190D01*
X145418095Y-75128571D02*
X145751428Y-75128571D01*
X145894285Y-75652380D02*
X145418095Y-75652380D01*
X145418095Y-75652380D02*
X145418095Y-74652380D01*
X145418095Y-74652380D02*
X145894285Y-74652380D01*
X146322857Y-75128571D02*
X146656190Y-75128571D01*
X146799047Y-75652380D02*
X146322857Y-75652380D01*
X146322857Y-75652380D02*
X146322857Y-74652380D01*
X146322857Y-74652380D02*
X146799047Y-74652380D01*
X147227619Y-75652380D02*
X147227619Y-74652380D01*
X147227619Y-74652380D02*
X147799047Y-75652380D01*
X147799047Y-75652380D02*
X147799047Y-74652380D01*
X167500476Y-50204761D02*
X167643333Y-50252380D01*
X167643333Y-50252380D02*
X167881428Y-50252380D01*
X167881428Y-50252380D02*
X167976666Y-50204761D01*
X167976666Y-50204761D02*
X168024285Y-50157142D01*
X168024285Y-50157142D02*
X168071904Y-50061904D01*
X168071904Y-50061904D02*
X168071904Y-49966666D01*
X168071904Y-49966666D02*
X168024285Y-49871428D01*
X168024285Y-49871428D02*
X167976666Y-49823809D01*
X167976666Y-49823809D02*
X167881428Y-49776190D01*
X167881428Y-49776190D02*
X167690952Y-49728571D01*
X167690952Y-49728571D02*
X167595714Y-49680952D01*
X167595714Y-49680952D02*
X167548095Y-49633333D01*
X167548095Y-49633333D02*
X167500476Y-49538095D01*
X167500476Y-49538095D02*
X167500476Y-49442857D01*
X167500476Y-49442857D02*
X167548095Y-49347619D01*
X167548095Y-49347619D02*
X167595714Y-49300000D01*
X167595714Y-49300000D02*
X167690952Y-49252380D01*
X167690952Y-49252380D02*
X167929047Y-49252380D01*
X167929047Y-49252380D02*
X168071904Y-49300000D01*
X168357619Y-49252380D02*
X168929047Y-49252380D01*
X168643333Y-50252380D02*
X168643333Y-49252380D01*
X169214762Y-49966666D02*
X169690952Y-49966666D01*
X169119524Y-50252380D02*
X169452857Y-49252380D01*
X169452857Y-49252380D02*
X169786190Y-50252380D01*
X170690952Y-50252380D02*
X170357619Y-49776190D01*
X170119524Y-50252380D02*
X170119524Y-49252380D01*
X170119524Y-49252380D02*
X170500476Y-49252380D01*
X170500476Y-49252380D02*
X170595714Y-49300000D01*
X170595714Y-49300000D02*
X170643333Y-49347619D01*
X170643333Y-49347619D02*
X170690952Y-49442857D01*
X170690952Y-49442857D02*
X170690952Y-49585714D01*
X170690952Y-49585714D02*
X170643333Y-49680952D01*
X170643333Y-49680952D02*
X170595714Y-49728571D01*
X170595714Y-49728571D02*
X170500476Y-49776190D01*
X170500476Y-49776190D02*
X170119524Y-49776190D01*
X170976667Y-49252380D02*
X171548095Y-49252380D01*
X171262381Y-50252380D02*
X171262381Y-49252380D01*
X172595714Y-49204761D02*
X171738572Y-50490476D01*
X172881429Y-50204761D02*
X173024286Y-50252380D01*
X173024286Y-50252380D02*
X173262381Y-50252380D01*
X173262381Y-50252380D02*
X173357619Y-50204761D01*
X173357619Y-50204761D02*
X173405238Y-50157142D01*
X173405238Y-50157142D02*
X173452857Y-50061904D01*
X173452857Y-50061904D02*
X173452857Y-49966666D01*
X173452857Y-49966666D02*
X173405238Y-49871428D01*
X173405238Y-49871428D02*
X173357619Y-49823809D01*
X173357619Y-49823809D02*
X173262381Y-49776190D01*
X173262381Y-49776190D02*
X173071905Y-49728571D01*
X173071905Y-49728571D02*
X172976667Y-49680952D01*
X172976667Y-49680952D02*
X172929048Y-49633333D01*
X172929048Y-49633333D02*
X172881429Y-49538095D01*
X172881429Y-49538095D02*
X172881429Y-49442857D01*
X172881429Y-49442857D02*
X172929048Y-49347619D01*
X172929048Y-49347619D02*
X172976667Y-49300000D01*
X172976667Y-49300000D02*
X173071905Y-49252380D01*
X173071905Y-49252380D02*
X173310000Y-49252380D01*
X173310000Y-49252380D02*
X173452857Y-49300000D01*
X173738572Y-49252380D02*
X174310000Y-49252380D01*
X174024286Y-50252380D02*
X174024286Y-49252380D01*
X174833810Y-49252380D02*
X175024286Y-49252380D01*
X175024286Y-49252380D02*
X175119524Y-49300000D01*
X175119524Y-49300000D02*
X175214762Y-49395238D01*
X175214762Y-49395238D02*
X175262381Y-49585714D01*
X175262381Y-49585714D02*
X175262381Y-49919047D01*
X175262381Y-49919047D02*
X175214762Y-50109523D01*
X175214762Y-50109523D02*
X175119524Y-50204761D01*
X175119524Y-50204761D02*
X175024286Y-50252380D01*
X175024286Y-50252380D02*
X174833810Y-50252380D01*
X174833810Y-50252380D02*
X174738572Y-50204761D01*
X174738572Y-50204761D02*
X174643334Y-50109523D01*
X174643334Y-50109523D02*
X174595715Y-49919047D01*
X174595715Y-49919047D02*
X174595715Y-49585714D01*
X174595715Y-49585714D02*
X174643334Y-49395238D01*
X174643334Y-49395238D02*
X174738572Y-49300000D01*
X174738572Y-49300000D02*
X174833810Y-49252380D01*
X175690953Y-50252380D02*
X175690953Y-49252380D01*
X175690953Y-49252380D02*
X176071905Y-49252380D01*
X176071905Y-49252380D02*
X176167143Y-49300000D01*
X176167143Y-49300000D02*
X176214762Y-49347619D01*
X176214762Y-49347619D02*
X176262381Y-49442857D01*
X176262381Y-49442857D02*
X176262381Y-49585714D01*
X176262381Y-49585714D02*
X176214762Y-49680952D01*
X176214762Y-49680952D02*
X176167143Y-49728571D01*
X176167143Y-49728571D02*
X176071905Y-49776190D01*
X176071905Y-49776190D02*
X175690953Y-49776190D01*
X159472380Y-74361904D02*
X158472380Y-74361904D01*
X159472380Y-73885714D02*
X158472380Y-73885714D01*
X158472380Y-73885714D02*
X159472380Y-73314286D01*
X159472380Y-73314286D02*
X158472380Y-73314286D01*
X159377142Y-72266667D02*
X159424761Y-72314286D01*
X159424761Y-72314286D02*
X159472380Y-72457143D01*
X159472380Y-72457143D02*
X159472380Y-72552381D01*
X159472380Y-72552381D02*
X159424761Y-72695238D01*
X159424761Y-72695238D02*
X159329523Y-72790476D01*
X159329523Y-72790476D02*
X159234285Y-72838095D01*
X159234285Y-72838095D02*
X159043809Y-72885714D01*
X159043809Y-72885714D02*
X158900952Y-72885714D01*
X158900952Y-72885714D02*
X158710476Y-72838095D01*
X158710476Y-72838095D02*
X158615238Y-72790476D01*
X158615238Y-72790476D02*
X158520000Y-72695238D01*
X158520000Y-72695238D02*
X158472380Y-72552381D01*
X158472380Y-72552381D02*
X158472380Y-72457143D01*
X158472380Y-72457143D02*
X158520000Y-72314286D01*
X158520000Y-72314286D02*
X158567619Y-72266667D01*
X159472380Y-71266667D02*
X158996190Y-71600000D01*
X159472380Y-71838095D02*
X158472380Y-71838095D01*
X158472380Y-71838095D02*
X158472380Y-71457143D01*
X158472380Y-71457143D02*
X158520000Y-71361905D01*
X158520000Y-71361905D02*
X158567619Y-71314286D01*
X158567619Y-71314286D02*
X158662857Y-71266667D01*
X158662857Y-71266667D02*
X158805714Y-71266667D01*
X158805714Y-71266667D02*
X158900952Y-71314286D01*
X158900952Y-71314286D02*
X158948571Y-71361905D01*
X158948571Y-71361905D02*
X158996190Y-71457143D01*
X158996190Y-71457143D02*
X158996190Y-71838095D01*
X158948571Y-70838095D02*
X158948571Y-70504762D01*
X159472380Y-70361905D02*
X159472380Y-70838095D01*
X159472380Y-70838095D02*
X158472380Y-70838095D01*
X158472380Y-70838095D02*
X158472380Y-70361905D01*
X159472380Y-69933333D02*
X158472380Y-69933333D01*
X158472380Y-69933333D02*
X159186666Y-69600000D01*
X159186666Y-69600000D02*
X158472380Y-69266667D01*
X158472380Y-69266667D02*
X159472380Y-69266667D01*
X158948571Y-68790476D02*
X158948571Y-68457143D01*
X159472380Y-68314286D02*
X159472380Y-68790476D01*
X159472380Y-68790476D02*
X158472380Y-68790476D01*
X158472380Y-68790476D02*
X158472380Y-68314286D01*
X159472380Y-67885714D02*
X158472380Y-67885714D01*
X158472380Y-67885714D02*
X159472380Y-67314286D01*
X159472380Y-67314286D02*
X158472380Y-67314286D01*
X158472380Y-66980952D02*
X158472380Y-66409524D01*
X159472380Y-66695238D02*
X158472380Y-66695238D01*
X163738095Y-88352380D02*
X163738095Y-87352380D01*
X164309523Y-88352380D02*
X163880952Y-87780952D01*
X164309523Y-87352380D02*
X163738095Y-87923809D01*
X164738095Y-88352380D02*
X164738095Y-87685714D01*
X164738095Y-87352380D02*
X164690476Y-87400000D01*
X164690476Y-87400000D02*
X164738095Y-87447619D01*
X164738095Y-87447619D02*
X164785714Y-87400000D01*
X164785714Y-87400000D02*
X164738095Y-87352380D01*
X164738095Y-87352380D02*
X164738095Y-87447619D01*
X165071428Y-87685714D02*
X165452380Y-87685714D01*
X165214285Y-87352380D02*
X165214285Y-88209523D01*
X165214285Y-88209523D02*
X165261904Y-88304761D01*
X165261904Y-88304761D02*
X165357142Y-88352380D01*
X165357142Y-88352380D02*
X165452380Y-88352380D01*
X166214285Y-88304761D02*
X166119047Y-88352380D01*
X166119047Y-88352380D02*
X165928571Y-88352380D01*
X165928571Y-88352380D02*
X165833333Y-88304761D01*
X165833333Y-88304761D02*
X165785714Y-88257142D01*
X165785714Y-88257142D02*
X165738095Y-88161904D01*
X165738095Y-88161904D02*
X165738095Y-87876190D01*
X165738095Y-87876190D02*
X165785714Y-87780952D01*
X165785714Y-87780952D02*
X165833333Y-87733333D01*
X165833333Y-87733333D02*
X165928571Y-87685714D01*
X165928571Y-87685714D02*
X166119047Y-87685714D01*
X166119047Y-87685714D02*
X166214285Y-87733333D01*
X166642857Y-88352380D02*
X166642857Y-87352380D01*
X167071428Y-88352380D02*
X167071428Y-87828571D01*
X167071428Y-87828571D02*
X167023809Y-87733333D01*
X167023809Y-87733333D02*
X166928571Y-87685714D01*
X166928571Y-87685714D02*
X166785714Y-87685714D01*
X166785714Y-87685714D02*
X166690476Y-87733333D01*
X166690476Y-87733333D02*
X166642857Y-87780952D01*
X167928571Y-88304761D02*
X167833333Y-88352380D01*
X167833333Y-88352380D02*
X167642857Y-88352380D01*
X167642857Y-88352380D02*
X167547619Y-88304761D01*
X167547619Y-88304761D02*
X167500000Y-88209523D01*
X167500000Y-88209523D02*
X167500000Y-87828571D01*
X167500000Y-87828571D02*
X167547619Y-87733333D01*
X167547619Y-87733333D02*
X167642857Y-87685714D01*
X167642857Y-87685714D02*
X167833333Y-87685714D01*
X167833333Y-87685714D02*
X167928571Y-87733333D01*
X167928571Y-87733333D02*
X167976190Y-87828571D01*
X167976190Y-87828571D02*
X167976190Y-87923809D01*
X167976190Y-87923809D02*
X167500000Y-88019047D01*
X168404762Y-87685714D02*
X168404762Y-88352380D01*
X168404762Y-87780952D02*
X168452381Y-87733333D01*
X168452381Y-87733333D02*
X168547619Y-87685714D01*
X168547619Y-87685714D02*
X168690476Y-87685714D01*
X168690476Y-87685714D02*
X168785714Y-87733333D01*
X168785714Y-87733333D02*
X168833333Y-87828571D01*
X168833333Y-87828571D02*
X168833333Y-88352380D01*
X169766667Y-87352380D02*
X170338095Y-87352380D01*
X170052381Y-88352380D02*
X170052381Y-87352380D01*
X170671429Y-88352380D02*
X170671429Y-87685714D01*
X170671429Y-87352380D02*
X170623810Y-87400000D01*
X170623810Y-87400000D02*
X170671429Y-87447619D01*
X170671429Y-87447619D02*
X170719048Y-87400000D01*
X170719048Y-87400000D02*
X170671429Y-87352380D01*
X170671429Y-87352380D02*
X170671429Y-87447619D01*
X171147619Y-88352380D02*
X171147619Y-87685714D01*
X171147619Y-87780952D02*
X171195238Y-87733333D01*
X171195238Y-87733333D02*
X171290476Y-87685714D01*
X171290476Y-87685714D02*
X171433333Y-87685714D01*
X171433333Y-87685714D02*
X171528571Y-87733333D01*
X171528571Y-87733333D02*
X171576190Y-87828571D01*
X171576190Y-87828571D02*
X171576190Y-88352380D01*
X171576190Y-87828571D02*
X171623809Y-87733333D01*
X171623809Y-87733333D02*
X171719047Y-87685714D01*
X171719047Y-87685714D02*
X171861904Y-87685714D01*
X171861904Y-87685714D02*
X171957143Y-87733333D01*
X171957143Y-87733333D02*
X172004762Y-87828571D01*
X172004762Y-87828571D02*
X172004762Y-88352380D01*
X172861904Y-88304761D02*
X172766666Y-88352380D01*
X172766666Y-88352380D02*
X172576190Y-88352380D01*
X172576190Y-88352380D02*
X172480952Y-88304761D01*
X172480952Y-88304761D02*
X172433333Y-88209523D01*
X172433333Y-88209523D02*
X172433333Y-87828571D01*
X172433333Y-87828571D02*
X172480952Y-87733333D01*
X172480952Y-87733333D02*
X172576190Y-87685714D01*
X172576190Y-87685714D02*
X172766666Y-87685714D01*
X172766666Y-87685714D02*
X172861904Y-87733333D01*
X172861904Y-87733333D02*
X172909523Y-87828571D01*
X172909523Y-87828571D02*
X172909523Y-87923809D01*
X172909523Y-87923809D02*
X172433333Y-88019047D01*
X173338095Y-88352380D02*
X173338095Y-87685714D01*
X173338095Y-87876190D02*
X173385714Y-87780952D01*
X173385714Y-87780952D02*
X173433333Y-87733333D01*
X173433333Y-87733333D02*
X173528571Y-87685714D01*
X173528571Y-87685714D02*
X173623809Y-87685714D01*
X174461905Y-87685714D02*
X174700000Y-88352380D01*
X174700000Y-88352380D02*
X174938095Y-87685714D01*
X175842857Y-88352380D02*
X175271429Y-88352380D01*
X175557143Y-88352380D02*
X175557143Y-87352380D01*
X175557143Y-87352380D02*
X175461905Y-87495238D01*
X175461905Y-87495238D02*
X175366667Y-87590476D01*
X175366667Y-87590476D02*
X175271429Y-87638095D01*
X176271429Y-88257142D02*
X176319048Y-88304761D01*
X176319048Y-88304761D02*
X176271429Y-88352380D01*
X176271429Y-88352380D02*
X176223810Y-88304761D01*
X176223810Y-88304761D02*
X176271429Y-88257142D01*
X176271429Y-88257142D02*
X176271429Y-88352380D01*
X176938095Y-87352380D02*
X177033333Y-87352380D01*
X177033333Y-87352380D02*
X177128571Y-87400000D01*
X177128571Y-87400000D02*
X177176190Y-87447619D01*
X177176190Y-87447619D02*
X177223809Y-87542857D01*
X177223809Y-87542857D02*
X177271428Y-87733333D01*
X177271428Y-87733333D02*
X177271428Y-87971428D01*
X177271428Y-87971428D02*
X177223809Y-88161904D01*
X177223809Y-88161904D02*
X177176190Y-88257142D01*
X177176190Y-88257142D02*
X177128571Y-88304761D01*
X177128571Y-88304761D02*
X177033333Y-88352380D01*
X177033333Y-88352380D02*
X176938095Y-88352380D01*
X176938095Y-88352380D02*
X176842857Y-88304761D01*
X176842857Y-88304761D02*
X176795238Y-88257142D01*
X176795238Y-88257142D02*
X176747619Y-88161904D01*
X176747619Y-88161904D02*
X176700000Y-87971428D01*
X176700000Y-87971428D02*
X176700000Y-87733333D01*
X176700000Y-87733333D02*
X176747619Y-87542857D01*
X176747619Y-87542857D02*
X176795238Y-87447619D01*
X176795238Y-87447619D02*
X176842857Y-87400000D01*
X176842857Y-87400000D02*
X176938095Y-87352380D01*
X167417142Y-88926785D02*
X167917142Y-88926785D01*
X167917142Y-88926785D02*
X167417142Y-89676785D01*
X167417142Y-89676785D02*
X167917142Y-89676785D01*
X168524286Y-89676785D02*
X168524286Y-89283928D01*
X168524286Y-89283928D02*
X168488571Y-89212500D01*
X168488571Y-89212500D02*
X168417143Y-89176785D01*
X168417143Y-89176785D02*
X168274286Y-89176785D01*
X168274286Y-89176785D02*
X168202857Y-89212500D01*
X168524286Y-89641071D02*
X168452857Y-89676785D01*
X168452857Y-89676785D02*
X168274286Y-89676785D01*
X168274286Y-89676785D02*
X168202857Y-89641071D01*
X168202857Y-89641071D02*
X168167143Y-89569642D01*
X168167143Y-89569642D02*
X168167143Y-89498214D01*
X168167143Y-89498214D02*
X168202857Y-89426785D01*
X168202857Y-89426785D02*
X168274286Y-89391071D01*
X168274286Y-89391071D02*
X168452857Y-89391071D01*
X168452857Y-89391071D02*
X168524286Y-89355357D01*
X169202857Y-89641071D02*
X169131428Y-89676785D01*
X169131428Y-89676785D02*
X168988571Y-89676785D01*
X168988571Y-89676785D02*
X168917142Y-89641071D01*
X168917142Y-89641071D02*
X168881428Y-89605357D01*
X168881428Y-89605357D02*
X168845714Y-89533928D01*
X168845714Y-89533928D02*
X168845714Y-89319642D01*
X168845714Y-89319642D02*
X168881428Y-89248214D01*
X168881428Y-89248214D02*
X168917142Y-89212500D01*
X168917142Y-89212500D02*
X168988571Y-89176785D01*
X168988571Y-89176785D02*
X169131428Y-89176785D01*
X169131428Y-89176785D02*
X169202857Y-89212500D01*
X169524285Y-89676785D02*
X169524285Y-88926785D01*
X169845714Y-89676785D02*
X169845714Y-89283928D01*
X169845714Y-89283928D02*
X169809999Y-89212500D01*
X169809999Y-89212500D02*
X169738571Y-89176785D01*
X169738571Y-89176785D02*
X169631428Y-89176785D01*
X169631428Y-89176785D02*
X169559999Y-89212500D01*
X169559999Y-89212500D02*
X169524285Y-89248214D01*
X170902856Y-89283928D02*
X171009999Y-89319642D01*
X171009999Y-89319642D02*
X171045713Y-89355357D01*
X171045713Y-89355357D02*
X171081427Y-89426785D01*
X171081427Y-89426785D02*
X171081427Y-89533928D01*
X171081427Y-89533928D02*
X171045713Y-89605357D01*
X171045713Y-89605357D02*
X171009999Y-89641071D01*
X171009999Y-89641071D02*
X170938570Y-89676785D01*
X170938570Y-89676785D02*
X170652856Y-89676785D01*
X170652856Y-89676785D02*
X170652856Y-88926785D01*
X170652856Y-88926785D02*
X170902856Y-88926785D01*
X170902856Y-88926785D02*
X170974285Y-88962500D01*
X170974285Y-88962500D02*
X171009999Y-88998214D01*
X171009999Y-88998214D02*
X171045713Y-89069642D01*
X171045713Y-89069642D02*
X171045713Y-89141071D01*
X171045713Y-89141071D02*
X171009999Y-89212500D01*
X171009999Y-89212500D02*
X170974285Y-89248214D01*
X170974285Y-89248214D02*
X170902856Y-89283928D01*
X170902856Y-89283928D02*
X170652856Y-89283928D01*
X171724285Y-89676785D02*
X171724285Y-89283928D01*
X171724285Y-89283928D02*
X171688570Y-89212500D01*
X171688570Y-89212500D02*
X171617142Y-89176785D01*
X171617142Y-89176785D02*
X171474285Y-89176785D01*
X171474285Y-89176785D02*
X171402856Y-89212500D01*
X171724285Y-89641071D02*
X171652856Y-89676785D01*
X171652856Y-89676785D02*
X171474285Y-89676785D01*
X171474285Y-89676785D02*
X171402856Y-89641071D01*
X171402856Y-89641071D02*
X171367142Y-89569642D01*
X171367142Y-89569642D02*
X171367142Y-89498214D01*
X171367142Y-89498214D02*
X171402856Y-89426785D01*
X171402856Y-89426785D02*
X171474285Y-89391071D01*
X171474285Y-89391071D02*
X171652856Y-89391071D01*
X171652856Y-89391071D02*
X171724285Y-89355357D01*
X172009998Y-89176785D02*
X172188570Y-89676785D01*
X172367141Y-89176785D02*
X172188570Y-89676785D01*
X172188570Y-89676785D02*
X172117141Y-89855357D01*
X172117141Y-89855357D02*
X172081427Y-89891071D01*
X172081427Y-89891071D02*
X172009998Y-89926785D01*
X172759999Y-89676785D02*
X172688570Y-89641071D01*
X172688570Y-89641071D02*
X172652856Y-89569642D01*
X172652856Y-89569642D02*
X172652856Y-88926785D01*
X173331427Y-89641071D02*
X173259999Y-89676785D01*
X173259999Y-89676785D02*
X173117142Y-89676785D01*
X173117142Y-89676785D02*
X173045713Y-89641071D01*
X173045713Y-89641071D02*
X173009999Y-89569642D01*
X173009999Y-89569642D02*
X173009999Y-89283928D01*
X173009999Y-89283928D02*
X173045713Y-89212500D01*
X173045713Y-89212500D02*
X173117142Y-89176785D01*
X173117142Y-89176785D02*
X173259999Y-89176785D01*
X173259999Y-89176785D02*
X173331427Y-89212500D01*
X173331427Y-89212500D02*
X173367142Y-89283928D01*
X173367142Y-89283928D02*
X173367142Y-89355357D01*
X173367142Y-89355357D02*
X173009999Y-89426785D01*
X173688570Y-89676785D02*
X173688570Y-89176785D01*
X173688570Y-89319642D02*
X173724284Y-89248214D01*
X173724284Y-89248214D02*
X173759999Y-89212500D01*
X173759999Y-89212500D02*
X173831427Y-89176785D01*
X173831427Y-89176785D02*
X173902856Y-89176785D01*
D11*
X168699047Y-91001190D02*
X168699047Y-90501190D01*
X168699047Y-90501190D02*
X168865714Y-90858333D01*
X168865714Y-90858333D02*
X169032380Y-90501190D01*
X169032380Y-90501190D02*
X169032380Y-91001190D01*
X169484762Y-91001190D02*
X169484762Y-90739285D01*
X169484762Y-90739285D02*
X169460952Y-90691666D01*
X169460952Y-90691666D02*
X169413333Y-90667857D01*
X169413333Y-90667857D02*
X169318095Y-90667857D01*
X169318095Y-90667857D02*
X169270476Y-90691666D01*
X169484762Y-90977380D02*
X169437143Y-91001190D01*
X169437143Y-91001190D02*
X169318095Y-91001190D01*
X169318095Y-91001190D02*
X169270476Y-90977380D01*
X169270476Y-90977380D02*
X169246667Y-90929761D01*
X169246667Y-90929761D02*
X169246667Y-90882142D01*
X169246667Y-90882142D02*
X169270476Y-90834523D01*
X169270476Y-90834523D02*
X169318095Y-90810714D01*
X169318095Y-90810714D02*
X169437143Y-90810714D01*
X169437143Y-90810714D02*
X169484762Y-90786904D01*
X169722857Y-91001190D02*
X169722857Y-90667857D01*
X169722857Y-90763095D02*
X169746667Y-90715476D01*
X169746667Y-90715476D02*
X169770476Y-90691666D01*
X169770476Y-90691666D02*
X169818095Y-90667857D01*
X169818095Y-90667857D02*
X169865714Y-90667857D01*
X170246667Y-90977380D02*
X170199048Y-91001190D01*
X170199048Y-91001190D02*
X170103810Y-91001190D01*
X170103810Y-91001190D02*
X170056191Y-90977380D01*
X170056191Y-90977380D02*
X170032381Y-90953571D01*
X170032381Y-90953571D02*
X170008572Y-90905952D01*
X170008572Y-90905952D02*
X170008572Y-90763095D01*
X170008572Y-90763095D02*
X170032381Y-90715476D01*
X170032381Y-90715476D02*
X170056191Y-90691666D01*
X170056191Y-90691666D02*
X170103810Y-90667857D01*
X170103810Y-90667857D02*
X170199048Y-90667857D01*
X170199048Y-90667857D02*
X170246667Y-90691666D01*
X170460952Y-91001190D02*
X170460952Y-90501190D01*
X170675238Y-91001190D02*
X170675238Y-90739285D01*
X170675238Y-90739285D02*
X170651428Y-90691666D01*
X170651428Y-90691666D02*
X170603809Y-90667857D01*
X170603809Y-90667857D02*
X170532381Y-90667857D01*
X170532381Y-90667857D02*
X170484762Y-90691666D01*
X170484762Y-90691666D02*
X170460952Y-90715476D01*
X171189524Y-90548809D02*
X171213333Y-90525000D01*
X171213333Y-90525000D02*
X171260952Y-90501190D01*
X171260952Y-90501190D02*
X171380000Y-90501190D01*
X171380000Y-90501190D02*
X171427619Y-90525000D01*
X171427619Y-90525000D02*
X171451428Y-90548809D01*
X171451428Y-90548809D02*
X171475238Y-90596428D01*
X171475238Y-90596428D02*
X171475238Y-90644047D01*
X171475238Y-90644047D02*
X171451428Y-90715476D01*
X171451428Y-90715476D02*
X171165714Y-91001190D01*
X171165714Y-91001190D02*
X171475238Y-91001190D01*
X171784761Y-90501190D02*
X171832380Y-90501190D01*
X171832380Y-90501190D02*
X171879999Y-90525000D01*
X171879999Y-90525000D02*
X171903809Y-90548809D01*
X171903809Y-90548809D02*
X171927618Y-90596428D01*
X171927618Y-90596428D02*
X171951428Y-90691666D01*
X171951428Y-90691666D02*
X171951428Y-90810714D01*
X171951428Y-90810714D02*
X171927618Y-90905952D01*
X171927618Y-90905952D02*
X171903809Y-90953571D01*
X171903809Y-90953571D02*
X171879999Y-90977380D01*
X171879999Y-90977380D02*
X171832380Y-91001190D01*
X171832380Y-91001190D02*
X171784761Y-91001190D01*
X171784761Y-91001190D02*
X171737142Y-90977380D01*
X171737142Y-90977380D02*
X171713333Y-90953571D01*
X171713333Y-90953571D02*
X171689523Y-90905952D01*
X171689523Y-90905952D02*
X171665714Y-90810714D01*
X171665714Y-90810714D02*
X171665714Y-90691666D01*
X171665714Y-90691666D02*
X171689523Y-90596428D01*
X171689523Y-90596428D02*
X171713333Y-90548809D01*
X171713333Y-90548809D02*
X171737142Y-90525000D01*
X171737142Y-90525000D02*
X171784761Y-90501190D01*
X172141904Y-90548809D02*
X172165713Y-90525000D01*
X172165713Y-90525000D02*
X172213332Y-90501190D01*
X172213332Y-90501190D02*
X172332380Y-90501190D01*
X172332380Y-90501190D02*
X172379999Y-90525000D01*
X172379999Y-90525000D02*
X172403808Y-90548809D01*
X172403808Y-90548809D02*
X172427618Y-90596428D01*
X172427618Y-90596428D02*
X172427618Y-90644047D01*
X172427618Y-90644047D02*
X172403808Y-90715476D01*
X172403808Y-90715476D02*
X172118094Y-91001190D01*
X172118094Y-91001190D02*
X172427618Y-91001190D01*
X172594284Y-90501190D02*
X172903808Y-90501190D01*
X172903808Y-90501190D02*
X172737141Y-90691666D01*
X172737141Y-90691666D02*
X172808570Y-90691666D01*
X172808570Y-90691666D02*
X172856189Y-90715476D01*
X172856189Y-90715476D02*
X172879998Y-90739285D01*
X172879998Y-90739285D02*
X172903808Y-90786904D01*
X172903808Y-90786904D02*
X172903808Y-90905952D01*
X172903808Y-90905952D02*
X172879998Y-90953571D01*
X172879998Y-90953571D02*
X172856189Y-90977380D01*
X172856189Y-90977380D02*
X172808570Y-91001190D01*
X172808570Y-91001190D02*
X172665713Y-91001190D01*
X172665713Y-91001190D02*
X172618094Y-90977380D01*
X172618094Y-90977380D02*
X172594284Y-90953571D01*
D10*
X137639523Y-75652380D02*
X137306190Y-75176190D01*
X137068095Y-75652380D02*
X137068095Y-74652380D01*
X137068095Y-74652380D02*
X137449047Y-74652380D01*
X137449047Y-74652380D02*
X137544285Y-74700000D01*
X137544285Y-74700000D02*
X137591904Y-74747619D01*
X137591904Y-74747619D02*
X137639523Y-74842857D01*
X137639523Y-74842857D02*
X137639523Y-74985714D01*
X137639523Y-74985714D02*
X137591904Y-75080952D01*
X137591904Y-75080952D02*
X137544285Y-75128571D01*
X137544285Y-75128571D02*
X137449047Y-75176190D01*
X137449047Y-75176190D02*
X137068095Y-75176190D01*
X138068095Y-75128571D02*
X138401428Y-75128571D01*
X138544285Y-75652380D02*
X138068095Y-75652380D01*
X138068095Y-75652380D02*
X138068095Y-74652380D01*
X138068095Y-74652380D02*
X138544285Y-74652380D01*
X138972857Y-75652380D02*
X138972857Y-74652380D01*
X138972857Y-74652380D02*
X139210952Y-74652380D01*
X139210952Y-74652380D02*
X139353809Y-74700000D01*
X139353809Y-74700000D02*
X139449047Y-74795238D01*
X139449047Y-74795238D02*
X139496666Y-74890476D01*
X139496666Y-74890476D02*
X139544285Y-75080952D01*
X139544285Y-75080952D02*
X139544285Y-75223809D01*
X139544285Y-75223809D02*
X139496666Y-75414285D01*
X139496666Y-75414285D02*
X139449047Y-75509523D01*
X139449047Y-75509523D02*
X139353809Y-75604761D01*
X139353809Y-75604761D02*
X139210952Y-75652380D01*
X139210952Y-75652380D02*
X138972857Y-75652380D01*
%TO.C,U1*%
X160317380Y-78771904D02*
X161126904Y-78771904D01*
X161126904Y-78771904D02*
X161222142Y-78724285D01*
X161222142Y-78724285D02*
X161269761Y-78676666D01*
X161269761Y-78676666D02*
X161317380Y-78581428D01*
X161317380Y-78581428D02*
X161317380Y-78390952D01*
X161317380Y-78390952D02*
X161269761Y-78295714D01*
X161269761Y-78295714D02*
X161222142Y-78248095D01*
X161222142Y-78248095D02*
X161126904Y-78200476D01*
X161126904Y-78200476D02*
X160317380Y-78200476D01*
X161317380Y-77200476D02*
X161317380Y-77771904D01*
X161317380Y-77486190D02*
X160317380Y-77486190D01*
X160317380Y-77486190D02*
X160460238Y-77581428D01*
X160460238Y-77581428D02*
X160555476Y-77676666D01*
X160555476Y-77676666D02*
X160603095Y-77771904D01*
%TO.C,D2*%
X144981905Y-73847380D02*
X144981905Y-72847380D01*
X144981905Y-72847380D02*
X145220000Y-72847380D01*
X145220000Y-72847380D02*
X145362857Y-72895000D01*
X145362857Y-72895000D02*
X145458095Y-72990238D01*
X145458095Y-72990238D02*
X145505714Y-73085476D01*
X145505714Y-73085476D02*
X145553333Y-73275952D01*
X145553333Y-73275952D02*
X145553333Y-73418809D01*
X145553333Y-73418809D02*
X145505714Y-73609285D01*
X145505714Y-73609285D02*
X145458095Y-73704523D01*
X145458095Y-73704523D02*
X145362857Y-73799761D01*
X145362857Y-73799761D02*
X145220000Y-73847380D01*
X145220000Y-73847380D02*
X144981905Y-73847380D01*
X145934286Y-72942619D02*
X145981905Y-72895000D01*
X145981905Y-72895000D02*
X146077143Y-72847380D01*
X146077143Y-72847380D02*
X146315238Y-72847380D01*
X146315238Y-72847380D02*
X146410476Y-72895000D01*
X146410476Y-72895000D02*
X146458095Y-72942619D01*
X146458095Y-72942619D02*
X146505714Y-73037857D01*
X146505714Y-73037857D02*
X146505714Y-73133095D01*
X146505714Y-73133095D02*
X146458095Y-73275952D01*
X146458095Y-73275952D02*
X145886667Y-73847380D01*
X145886667Y-73847380D02*
X146505714Y-73847380D01*
%TO.C,U2*%
X102117380Y-57581904D02*
X102926904Y-57581904D01*
X102926904Y-57581904D02*
X103022142Y-57534285D01*
X103022142Y-57534285D02*
X103069761Y-57486666D01*
X103069761Y-57486666D02*
X103117380Y-57391428D01*
X103117380Y-57391428D02*
X103117380Y-57200952D01*
X103117380Y-57200952D02*
X103069761Y-57105714D01*
X103069761Y-57105714D02*
X103022142Y-57058095D01*
X103022142Y-57058095D02*
X102926904Y-57010476D01*
X102926904Y-57010476D02*
X102117380Y-57010476D01*
X102212619Y-56581904D02*
X102165000Y-56534285D01*
X102165000Y-56534285D02*
X102117380Y-56439047D01*
X102117380Y-56439047D02*
X102117380Y-56200952D01*
X102117380Y-56200952D02*
X102165000Y-56105714D01*
X102165000Y-56105714D02*
X102212619Y-56058095D01*
X102212619Y-56058095D02*
X102307857Y-56010476D01*
X102307857Y-56010476D02*
X102403095Y-56010476D01*
X102403095Y-56010476D02*
X102545952Y-56058095D01*
X102545952Y-56058095D02*
X103117380Y-56629523D01*
X103117380Y-56629523D02*
X103117380Y-56010476D01*
%TO.C,R8*%
X113207380Y-69686666D02*
X112731190Y-70019999D01*
X113207380Y-70258094D02*
X112207380Y-70258094D01*
X112207380Y-70258094D02*
X112207380Y-69877142D01*
X112207380Y-69877142D02*
X112255000Y-69781904D01*
X112255000Y-69781904D02*
X112302619Y-69734285D01*
X112302619Y-69734285D02*
X112397857Y-69686666D01*
X112397857Y-69686666D02*
X112540714Y-69686666D01*
X112540714Y-69686666D02*
X112635952Y-69734285D01*
X112635952Y-69734285D02*
X112683571Y-69781904D01*
X112683571Y-69781904D02*
X112731190Y-69877142D01*
X112731190Y-69877142D02*
X112731190Y-70258094D01*
X112635952Y-69115237D02*
X112588333Y-69210475D01*
X112588333Y-69210475D02*
X112540714Y-69258094D01*
X112540714Y-69258094D02*
X112445476Y-69305713D01*
X112445476Y-69305713D02*
X112397857Y-69305713D01*
X112397857Y-69305713D02*
X112302619Y-69258094D01*
X112302619Y-69258094D02*
X112255000Y-69210475D01*
X112255000Y-69210475D02*
X112207380Y-69115237D01*
X112207380Y-69115237D02*
X112207380Y-68924761D01*
X112207380Y-68924761D02*
X112255000Y-68829523D01*
X112255000Y-68829523D02*
X112302619Y-68781904D01*
X112302619Y-68781904D02*
X112397857Y-68734285D01*
X112397857Y-68734285D02*
X112445476Y-68734285D01*
X112445476Y-68734285D02*
X112540714Y-68781904D01*
X112540714Y-68781904D02*
X112588333Y-68829523D01*
X112588333Y-68829523D02*
X112635952Y-68924761D01*
X112635952Y-68924761D02*
X112635952Y-69115237D01*
X112635952Y-69115237D02*
X112683571Y-69210475D01*
X112683571Y-69210475D02*
X112731190Y-69258094D01*
X112731190Y-69258094D02*
X112826428Y-69305713D01*
X112826428Y-69305713D02*
X113016904Y-69305713D01*
X113016904Y-69305713D02*
X113112142Y-69258094D01*
X113112142Y-69258094D02*
X113159761Y-69210475D01*
X113159761Y-69210475D02*
X113207380Y-69115237D01*
X113207380Y-69115237D02*
X113207380Y-68924761D01*
X113207380Y-68924761D02*
X113159761Y-68829523D01*
X113159761Y-68829523D02*
X113112142Y-68781904D01*
X113112142Y-68781904D02*
X113016904Y-68734285D01*
X113016904Y-68734285D02*
X112826428Y-68734285D01*
X112826428Y-68734285D02*
X112731190Y-68781904D01*
X112731190Y-68781904D02*
X112683571Y-68829523D01*
X112683571Y-68829523D02*
X112635952Y-68924761D01*
%TO.C,R5*%
X133217380Y-69686666D02*
X132741190Y-70019999D01*
X133217380Y-70258094D02*
X132217380Y-70258094D01*
X132217380Y-70258094D02*
X132217380Y-69877142D01*
X132217380Y-69877142D02*
X132265000Y-69781904D01*
X132265000Y-69781904D02*
X132312619Y-69734285D01*
X132312619Y-69734285D02*
X132407857Y-69686666D01*
X132407857Y-69686666D02*
X132550714Y-69686666D01*
X132550714Y-69686666D02*
X132645952Y-69734285D01*
X132645952Y-69734285D02*
X132693571Y-69781904D01*
X132693571Y-69781904D02*
X132741190Y-69877142D01*
X132741190Y-69877142D02*
X132741190Y-70258094D01*
X132217380Y-68781904D02*
X132217380Y-69258094D01*
X132217380Y-69258094D02*
X132693571Y-69305713D01*
X132693571Y-69305713D02*
X132645952Y-69258094D01*
X132645952Y-69258094D02*
X132598333Y-69162856D01*
X132598333Y-69162856D02*
X132598333Y-68924761D01*
X132598333Y-68924761D02*
X132645952Y-68829523D01*
X132645952Y-68829523D02*
X132693571Y-68781904D01*
X132693571Y-68781904D02*
X132788809Y-68734285D01*
X132788809Y-68734285D02*
X133026904Y-68734285D01*
X133026904Y-68734285D02*
X133122142Y-68781904D01*
X133122142Y-68781904D02*
X133169761Y-68829523D01*
X133169761Y-68829523D02*
X133217380Y-68924761D01*
X133217380Y-68924761D02*
X133217380Y-69162856D01*
X133217380Y-69162856D02*
X133169761Y-69258094D01*
X133169761Y-69258094D02*
X133122142Y-69305713D01*
%TO.C,D1*%
X137361905Y-73847380D02*
X137361905Y-72847380D01*
X137361905Y-72847380D02*
X137600000Y-72847380D01*
X137600000Y-72847380D02*
X137742857Y-72895000D01*
X137742857Y-72895000D02*
X137838095Y-72990238D01*
X137838095Y-72990238D02*
X137885714Y-73085476D01*
X137885714Y-73085476D02*
X137933333Y-73275952D01*
X137933333Y-73275952D02*
X137933333Y-73418809D01*
X137933333Y-73418809D02*
X137885714Y-73609285D01*
X137885714Y-73609285D02*
X137838095Y-73704523D01*
X137838095Y-73704523D02*
X137742857Y-73799761D01*
X137742857Y-73799761D02*
X137600000Y-73847380D01*
X137600000Y-73847380D02*
X137361905Y-73847380D01*
X138885714Y-73847380D02*
X138314286Y-73847380D01*
X138600000Y-73847380D02*
X138600000Y-72847380D01*
X138600000Y-72847380D02*
X138504762Y-72990238D01*
X138504762Y-72990238D02*
X138409524Y-73085476D01*
X138409524Y-73085476D02*
X138314286Y-73133095D01*
%TO.C,R1*%
X161157380Y-58256666D02*
X160681190Y-58589999D01*
X161157380Y-58828094D02*
X160157380Y-58828094D01*
X160157380Y-58828094D02*
X160157380Y-58447142D01*
X160157380Y-58447142D02*
X160205000Y-58351904D01*
X160205000Y-58351904D02*
X160252619Y-58304285D01*
X160252619Y-58304285D02*
X160347857Y-58256666D01*
X160347857Y-58256666D02*
X160490714Y-58256666D01*
X160490714Y-58256666D02*
X160585952Y-58304285D01*
X160585952Y-58304285D02*
X160633571Y-58351904D01*
X160633571Y-58351904D02*
X160681190Y-58447142D01*
X160681190Y-58447142D02*
X160681190Y-58828094D01*
X161157380Y-57304285D02*
X161157380Y-57875713D01*
X161157380Y-57589999D02*
X160157380Y-57589999D01*
X160157380Y-57589999D02*
X160300238Y-57685237D01*
X160300238Y-57685237D02*
X160395476Y-57780475D01*
X160395476Y-57780475D02*
X160443095Y-57875713D01*
%TO.C,LS1*%
X148887142Y-51257380D02*
X148410952Y-51257380D01*
X148410952Y-51257380D02*
X148410952Y-50257380D01*
X149172857Y-51209761D02*
X149315714Y-51257380D01*
X149315714Y-51257380D02*
X149553809Y-51257380D01*
X149553809Y-51257380D02*
X149649047Y-51209761D01*
X149649047Y-51209761D02*
X149696666Y-51162142D01*
X149696666Y-51162142D02*
X149744285Y-51066904D01*
X149744285Y-51066904D02*
X149744285Y-50971666D01*
X149744285Y-50971666D02*
X149696666Y-50876428D01*
X149696666Y-50876428D02*
X149649047Y-50828809D01*
X149649047Y-50828809D02*
X149553809Y-50781190D01*
X149553809Y-50781190D02*
X149363333Y-50733571D01*
X149363333Y-50733571D02*
X149268095Y-50685952D01*
X149268095Y-50685952D02*
X149220476Y-50638333D01*
X149220476Y-50638333D02*
X149172857Y-50543095D01*
X149172857Y-50543095D02*
X149172857Y-50447857D01*
X149172857Y-50447857D02*
X149220476Y-50352619D01*
X149220476Y-50352619D02*
X149268095Y-50305000D01*
X149268095Y-50305000D02*
X149363333Y-50257380D01*
X149363333Y-50257380D02*
X149601428Y-50257380D01*
X149601428Y-50257380D02*
X149744285Y-50305000D01*
X150696666Y-51257380D02*
X150125238Y-51257380D01*
X150410952Y-51257380D02*
X150410952Y-50257380D01*
X150410952Y-50257380D02*
X150315714Y-50400238D01*
X150315714Y-50400238D02*
X150220476Y-50495476D01*
X150220476Y-50495476D02*
X150125238Y-50543095D01*
X145339048Y-55536428D02*
X146100953Y-55536428D01*
X145720000Y-55917380D02*
X145720000Y-55155476D01*
%TO.C,R2*%
X169683333Y-83687380D02*
X169350000Y-83211190D01*
X169111905Y-83687380D02*
X169111905Y-82687380D01*
X169111905Y-82687380D02*
X169492857Y-82687380D01*
X169492857Y-82687380D02*
X169588095Y-82735000D01*
X169588095Y-82735000D02*
X169635714Y-82782619D01*
X169635714Y-82782619D02*
X169683333Y-82877857D01*
X169683333Y-82877857D02*
X169683333Y-83020714D01*
X169683333Y-83020714D02*
X169635714Y-83115952D01*
X169635714Y-83115952D02*
X169588095Y-83163571D01*
X169588095Y-83163571D02*
X169492857Y-83211190D01*
X169492857Y-83211190D02*
X169111905Y-83211190D01*
X170064286Y-82782619D02*
X170111905Y-82735000D01*
X170111905Y-82735000D02*
X170207143Y-82687380D01*
X170207143Y-82687380D02*
X170445238Y-82687380D01*
X170445238Y-82687380D02*
X170540476Y-82735000D01*
X170540476Y-82735000D02*
X170588095Y-82782619D01*
X170588095Y-82782619D02*
X170635714Y-82877857D01*
X170635714Y-82877857D02*
X170635714Y-82973095D01*
X170635714Y-82973095D02*
X170588095Y-83115952D01*
X170588095Y-83115952D02*
X170016667Y-83687380D01*
X170016667Y-83687380D02*
X170635714Y-83687380D01*
%TO.C,SW1*%
X168676667Y-65569761D02*
X168819524Y-65617380D01*
X168819524Y-65617380D02*
X169057619Y-65617380D01*
X169057619Y-65617380D02*
X169152857Y-65569761D01*
X169152857Y-65569761D02*
X169200476Y-65522142D01*
X169200476Y-65522142D02*
X169248095Y-65426904D01*
X169248095Y-65426904D02*
X169248095Y-65331666D01*
X169248095Y-65331666D02*
X169200476Y-65236428D01*
X169200476Y-65236428D02*
X169152857Y-65188809D01*
X169152857Y-65188809D02*
X169057619Y-65141190D01*
X169057619Y-65141190D02*
X168867143Y-65093571D01*
X168867143Y-65093571D02*
X168771905Y-65045952D01*
X168771905Y-65045952D02*
X168724286Y-64998333D01*
X168724286Y-64998333D02*
X168676667Y-64903095D01*
X168676667Y-64903095D02*
X168676667Y-64807857D01*
X168676667Y-64807857D02*
X168724286Y-64712619D01*
X168724286Y-64712619D02*
X168771905Y-64665000D01*
X168771905Y-64665000D02*
X168867143Y-64617380D01*
X168867143Y-64617380D02*
X169105238Y-64617380D01*
X169105238Y-64617380D02*
X169248095Y-64665000D01*
X169581429Y-64617380D02*
X169819524Y-65617380D01*
X169819524Y-65617380D02*
X170010000Y-64903095D01*
X170010000Y-64903095D02*
X170200476Y-65617380D01*
X170200476Y-65617380D02*
X170438572Y-64617380D01*
X171343333Y-65617380D02*
X170771905Y-65617380D01*
X171057619Y-65617380D02*
X171057619Y-64617380D01*
X171057619Y-64617380D02*
X170962381Y-64760238D01*
X170962381Y-64760238D02*
X170867143Y-64855476D01*
X170867143Y-64855476D02*
X170771905Y-64903095D01*
%TO.C,SW2*%
X168246667Y-65179761D02*
X168389524Y-65227380D01*
X168389524Y-65227380D02*
X168627619Y-65227380D01*
X168627619Y-65227380D02*
X168722857Y-65179761D01*
X168722857Y-65179761D02*
X168770476Y-65132142D01*
X168770476Y-65132142D02*
X168818095Y-65036904D01*
X168818095Y-65036904D02*
X168818095Y-64941666D01*
X168818095Y-64941666D02*
X168770476Y-64846428D01*
X168770476Y-64846428D02*
X168722857Y-64798809D01*
X168722857Y-64798809D02*
X168627619Y-64751190D01*
X168627619Y-64751190D02*
X168437143Y-64703571D01*
X168437143Y-64703571D02*
X168341905Y-64655952D01*
X168341905Y-64655952D02*
X168294286Y-64608333D01*
X168294286Y-64608333D02*
X168246667Y-64513095D01*
X168246667Y-64513095D02*
X168246667Y-64417857D01*
X168246667Y-64417857D02*
X168294286Y-64322619D01*
X168294286Y-64322619D02*
X168341905Y-64275000D01*
X168341905Y-64275000D02*
X168437143Y-64227380D01*
X168437143Y-64227380D02*
X168675238Y-64227380D01*
X168675238Y-64227380D02*
X168818095Y-64275000D01*
X169151429Y-64227380D02*
X169389524Y-65227380D01*
X169389524Y-65227380D02*
X169580000Y-64513095D01*
X169580000Y-64513095D02*
X169770476Y-65227380D01*
X169770476Y-65227380D02*
X170008572Y-64227380D01*
X170341905Y-64322619D02*
X170389524Y-64275000D01*
X170389524Y-64275000D02*
X170484762Y-64227380D01*
X170484762Y-64227380D02*
X170722857Y-64227380D01*
X170722857Y-64227380D02*
X170818095Y-64275000D01*
X170818095Y-64275000D02*
X170865714Y-64322619D01*
X170865714Y-64322619D02*
X170913333Y-64417857D01*
X170913333Y-64417857D02*
X170913333Y-64513095D01*
X170913333Y-64513095D02*
X170865714Y-64655952D01*
X170865714Y-64655952D02*
X170294286Y-65227380D01*
X170294286Y-65227380D02*
X170913333Y-65227380D01*
%TO.C,R12*%
X129407380Y-70162857D02*
X128931190Y-70496190D01*
X129407380Y-70734285D02*
X128407380Y-70734285D01*
X128407380Y-70734285D02*
X128407380Y-70353333D01*
X128407380Y-70353333D02*
X128455000Y-70258095D01*
X128455000Y-70258095D02*
X128502619Y-70210476D01*
X128502619Y-70210476D02*
X128597857Y-70162857D01*
X128597857Y-70162857D02*
X128740714Y-70162857D01*
X128740714Y-70162857D02*
X128835952Y-70210476D01*
X128835952Y-70210476D02*
X128883571Y-70258095D01*
X128883571Y-70258095D02*
X128931190Y-70353333D01*
X128931190Y-70353333D02*
X128931190Y-70734285D01*
X129407380Y-69210476D02*
X129407380Y-69781904D01*
X129407380Y-69496190D02*
X128407380Y-69496190D01*
X128407380Y-69496190D02*
X128550238Y-69591428D01*
X128550238Y-69591428D02*
X128645476Y-69686666D01*
X128645476Y-69686666D02*
X128693095Y-69781904D01*
X128502619Y-68829523D02*
X128455000Y-68781904D01*
X128455000Y-68781904D02*
X128407380Y-68686666D01*
X128407380Y-68686666D02*
X128407380Y-68448571D01*
X128407380Y-68448571D02*
X128455000Y-68353333D01*
X128455000Y-68353333D02*
X128502619Y-68305714D01*
X128502619Y-68305714D02*
X128597857Y-68258095D01*
X128597857Y-68258095D02*
X128693095Y-68258095D01*
X128693095Y-68258095D02*
X128835952Y-68305714D01*
X128835952Y-68305714D02*
X129407380Y-68877142D01*
X129407380Y-68877142D02*
X129407380Y-68258095D01*
%TO.C,R10*%
X121307380Y-70162857D02*
X120831190Y-70496190D01*
X121307380Y-70734285D02*
X120307380Y-70734285D01*
X120307380Y-70734285D02*
X120307380Y-70353333D01*
X120307380Y-70353333D02*
X120355000Y-70258095D01*
X120355000Y-70258095D02*
X120402619Y-70210476D01*
X120402619Y-70210476D02*
X120497857Y-70162857D01*
X120497857Y-70162857D02*
X120640714Y-70162857D01*
X120640714Y-70162857D02*
X120735952Y-70210476D01*
X120735952Y-70210476D02*
X120783571Y-70258095D01*
X120783571Y-70258095D02*
X120831190Y-70353333D01*
X120831190Y-70353333D02*
X120831190Y-70734285D01*
X121307380Y-69210476D02*
X121307380Y-69781904D01*
X121307380Y-69496190D02*
X120307380Y-69496190D01*
X120307380Y-69496190D02*
X120450238Y-69591428D01*
X120450238Y-69591428D02*
X120545476Y-69686666D01*
X120545476Y-69686666D02*
X120593095Y-69781904D01*
X120307380Y-68591428D02*
X120307380Y-68496190D01*
X120307380Y-68496190D02*
X120355000Y-68400952D01*
X120355000Y-68400952D02*
X120402619Y-68353333D01*
X120402619Y-68353333D02*
X120497857Y-68305714D01*
X120497857Y-68305714D02*
X120688333Y-68258095D01*
X120688333Y-68258095D02*
X120926428Y-68258095D01*
X120926428Y-68258095D02*
X121116904Y-68305714D01*
X121116904Y-68305714D02*
X121212142Y-68353333D01*
X121212142Y-68353333D02*
X121259761Y-68400952D01*
X121259761Y-68400952D02*
X121307380Y-68496190D01*
X121307380Y-68496190D02*
X121307380Y-68591428D01*
X121307380Y-68591428D02*
X121259761Y-68686666D01*
X121259761Y-68686666D02*
X121212142Y-68734285D01*
X121212142Y-68734285D02*
X121116904Y-68781904D01*
X121116904Y-68781904D02*
X120926428Y-68829523D01*
X120926428Y-68829523D02*
X120688333Y-68829523D01*
X120688333Y-68829523D02*
X120497857Y-68781904D01*
X120497857Y-68781904D02*
X120402619Y-68734285D01*
X120402619Y-68734285D02*
X120355000Y-68686666D01*
X120355000Y-68686666D02*
X120307380Y-68591428D01*
%TO.C,R9*%
X117257380Y-69686666D02*
X116781190Y-70019999D01*
X117257380Y-70258094D02*
X116257380Y-70258094D01*
X116257380Y-70258094D02*
X116257380Y-69877142D01*
X116257380Y-69877142D02*
X116305000Y-69781904D01*
X116305000Y-69781904D02*
X116352619Y-69734285D01*
X116352619Y-69734285D02*
X116447857Y-69686666D01*
X116447857Y-69686666D02*
X116590714Y-69686666D01*
X116590714Y-69686666D02*
X116685952Y-69734285D01*
X116685952Y-69734285D02*
X116733571Y-69781904D01*
X116733571Y-69781904D02*
X116781190Y-69877142D01*
X116781190Y-69877142D02*
X116781190Y-70258094D01*
X117257380Y-69210475D02*
X117257380Y-69019999D01*
X117257380Y-69019999D02*
X117209761Y-68924761D01*
X117209761Y-68924761D02*
X117162142Y-68877142D01*
X117162142Y-68877142D02*
X117019285Y-68781904D01*
X117019285Y-68781904D02*
X116828809Y-68734285D01*
X116828809Y-68734285D02*
X116447857Y-68734285D01*
X116447857Y-68734285D02*
X116352619Y-68781904D01*
X116352619Y-68781904D02*
X116305000Y-68829523D01*
X116305000Y-68829523D02*
X116257380Y-68924761D01*
X116257380Y-68924761D02*
X116257380Y-69115237D01*
X116257380Y-69115237D02*
X116305000Y-69210475D01*
X116305000Y-69210475D02*
X116352619Y-69258094D01*
X116352619Y-69258094D02*
X116447857Y-69305713D01*
X116447857Y-69305713D02*
X116685952Y-69305713D01*
X116685952Y-69305713D02*
X116781190Y-69258094D01*
X116781190Y-69258094D02*
X116828809Y-69210475D01*
X116828809Y-69210475D02*
X116876428Y-69115237D01*
X116876428Y-69115237D02*
X116876428Y-68924761D01*
X116876428Y-68924761D02*
X116828809Y-68829523D01*
X116828809Y-68829523D02*
X116781190Y-68781904D01*
X116781190Y-68781904D02*
X116685952Y-68734285D01*
%TO.C,R6*%
X105107380Y-69686666D02*
X104631190Y-70019999D01*
X105107380Y-70258094D02*
X104107380Y-70258094D01*
X104107380Y-70258094D02*
X104107380Y-69877142D01*
X104107380Y-69877142D02*
X104155000Y-69781904D01*
X104155000Y-69781904D02*
X104202619Y-69734285D01*
X104202619Y-69734285D02*
X104297857Y-69686666D01*
X104297857Y-69686666D02*
X104440714Y-69686666D01*
X104440714Y-69686666D02*
X104535952Y-69734285D01*
X104535952Y-69734285D02*
X104583571Y-69781904D01*
X104583571Y-69781904D02*
X104631190Y-69877142D01*
X104631190Y-69877142D02*
X104631190Y-70258094D01*
X104107380Y-68829523D02*
X104107380Y-69019999D01*
X104107380Y-69019999D02*
X104155000Y-69115237D01*
X104155000Y-69115237D02*
X104202619Y-69162856D01*
X104202619Y-69162856D02*
X104345476Y-69258094D01*
X104345476Y-69258094D02*
X104535952Y-69305713D01*
X104535952Y-69305713D02*
X104916904Y-69305713D01*
X104916904Y-69305713D02*
X105012142Y-69258094D01*
X105012142Y-69258094D02*
X105059761Y-69210475D01*
X105059761Y-69210475D02*
X105107380Y-69115237D01*
X105107380Y-69115237D02*
X105107380Y-68924761D01*
X105107380Y-68924761D02*
X105059761Y-68829523D01*
X105059761Y-68829523D02*
X105012142Y-68781904D01*
X105012142Y-68781904D02*
X104916904Y-68734285D01*
X104916904Y-68734285D02*
X104678809Y-68734285D01*
X104678809Y-68734285D02*
X104583571Y-68781904D01*
X104583571Y-68781904D02*
X104535952Y-68829523D01*
X104535952Y-68829523D02*
X104488333Y-68924761D01*
X104488333Y-68924761D02*
X104488333Y-69115237D01*
X104488333Y-69115237D02*
X104535952Y-69210475D01*
X104535952Y-69210475D02*
X104583571Y-69258094D01*
X104583571Y-69258094D02*
X104678809Y-69305713D01*
%TO.C,R3*%
X137037380Y-58256666D02*
X136561190Y-58589999D01*
X137037380Y-58828094D02*
X136037380Y-58828094D01*
X136037380Y-58828094D02*
X136037380Y-58447142D01*
X136037380Y-58447142D02*
X136085000Y-58351904D01*
X136085000Y-58351904D02*
X136132619Y-58304285D01*
X136132619Y-58304285D02*
X136227857Y-58256666D01*
X136227857Y-58256666D02*
X136370714Y-58256666D01*
X136370714Y-58256666D02*
X136465952Y-58304285D01*
X136465952Y-58304285D02*
X136513571Y-58351904D01*
X136513571Y-58351904D02*
X136561190Y-58447142D01*
X136561190Y-58447142D02*
X136561190Y-58828094D01*
X136037380Y-57923332D02*
X136037380Y-57304285D01*
X136037380Y-57304285D02*
X136418333Y-57637618D01*
X136418333Y-57637618D02*
X136418333Y-57494761D01*
X136418333Y-57494761D02*
X136465952Y-57399523D01*
X136465952Y-57399523D02*
X136513571Y-57351904D01*
X136513571Y-57351904D02*
X136608809Y-57304285D01*
X136608809Y-57304285D02*
X136846904Y-57304285D01*
X136846904Y-57304285D02*
X136942142Y-57351904D01*
X136942142Y-57351904D02*
X136989761Y-57399523D01*
X136989761Y-57399523D02*
X137037380Y-57494761D01*
X137037380Y-57494761D02*
X137037380Y-57780475D01*
X137037380Y-57780475D02*
X136989761Y-57875713D01*
X136989761Y-57875713D02*
X136942142Y-57923332D01*
%TO.C,R7*%
X109087380Y-69686666D02*
X108611190Y-70019999D01*
X109087380Y-70258094D02*
X108087380Y-70258094D01*
X108087380Y-70258094D02*
X108087380Y-69877142D01*
X108087380Y-69877142D02*
X108135000Y-69781904D01*
X108135000Y-69781904D02*
X108182619Y-69734285D01*
X108182619Y-69734285D02*
X108277857Y-69686666D01*
X108277857Y-69686666D02*
X108420714Y-69686666D01*
X108420714Y-69686666D02*
X108515952Y-69734285D01*
X108515952Y-69734285D02*
X108563571Y-69781904D01*
X108563571Y-69781904D02*
X108611190Y-69877142D01*
X108611190Y-69877142D02*
X108611190Y-70258094D01*
X108087380Y-69353332D02*
X108087380Y-68686666D01*
X108087380Y-68686666D02*
X109087380Y-69115237D01*
%TO.C,R11*%
X125597380Y-70162857D02*
X125121190Y-70496190D01*
X125597380Y-70734285D02*
X124597380Y-70734285D01*
X124597380Y-70734285D02*
X124597380Y-70353333D01*
X124597380Y-70353333D02*
X124645000Y-70258095D01*
X124645000Y-70258095D02*
X124692619Y-70210476D01*
X124692619Y-70210476D02*
X124787857Y-70162857D01*
X124787857Y-70162857D02*
X124930714Y-70162857D01*
X124930714Y-70162857D02*
X125025952Y-70210476D01*
X125025952Y-70210476D02*
X125073571Y-70258095D01*
X125073571Y-70258095D02*
X125121190Y-70353333D01*
X125121190Y-70353333D02*
X125121190Y-70734285D01*
X125597380Y-69210476D02*
X125597380Y-69781904D01*
X125597380Y-69496190D02*
X124597380Y-69496190D01*
X124597380Y-69496190D02*
X124740238Y-69591428D01*
X124740238Y-69591428D02*
X124835476Y-69686666D01*
X124835476Y-69686666D02*
X124883095Y-69781904D01*
X125597380Y-68258095D02*
X125597380Y-68829523D01*
X125597380Y-68543809D02*
X124597380Y-68543809D01*
X124597380Y-68543809D02*
X124740238Y-68639047D01*
X124740238Y-68639047D02*
X124835476Y-68734285D01*
X124835476Y-68734285D02*
X124883095Y-68829523D01*
%TO.C,R4*%
X140847380Y-58256666D02*
X140371190Y-58589999D01*
X140847380Y-58828094D02*
X139847380Y-58828094D01*
X139847380Y-58828094D02*
X139847380Y-58447142D01*
X139847380Y-58447142D02*
X139895000Y-58351904D01*
X139895000Y-58351904D02*
X139942619Y-58304285D01*
X139942619Y-58304285D02*
X140037857Y-58256666D01*
X140037857Y-58256666D02*
X140180714Y-58256666D01*
X140180714Y-58256666D02*
X140275952Y-58304285D01*
X140275952Y-58304285D02*
X140323571Y-58351904D01*
X140323571Y-58351904D02*
X140371190Y-58447142D01*
X140371190Y-58447142D02*
X140371190Y-58828094D01*
X140180714Y-57399523D02*
X140847380Y-57399523D01*
X139799761Y-57637618D02*
X140514047Y-57875713D01*
X140514047Y-57875713D02*
X140514047Y-57256666D01*
D12*
%TO.C,U1*%
X109020000Y-95650000D02*
X159560000Y-95650000D01*
X109020000Y-76410000D02*
X109020000Y-95650000D01*
X159560000Y-76410000D02*
X159560000Y-95650000D01*
X159560000Y-76410000D02*
X109020000Y-76410000D01*
X141640000Y-76030000D02*
X139640000Y-76030000D01*
%TO.C,J1*%
X129210000Y-98790000D02*
X147050000Y-98790000D01*
X129210000Y-98790000D02*
X129210000Y-96130000D01*
X147050000Y-98790000D02*
X147050000Y-96130000D01*
X126610000Y-97460000D02*
X126610000Y-96130000D01*
X126610000Y-96130000D02*
X127940000Y-96130000D01*
X129210000Y-96130000D02*
X147050000Y-96130000D01*
%TO.C,J3*%
X152070000Y-98790000D02*
X164830000Y-98790000D01*
X152070000Y-98790000D02*
X152070000Y-96130000D01*
X164830000Y-98790000D02*
X164830000Y-96130000D01*
X149470000Y-97460000D02*
X149470000Y-96130000D01*
X149470000Y-96130000D02*
X150800000Y-96130000D01*
X152070000Y-96130000D02*
X164830000Y-96130000D01*
%TO.C,J2*%
X120066000Y-50530000D02*
X142986000Y-50530000D01*
X120066000Y-50530000D02*
X120066000Y-47870000D01*
X142986000Y-50530000D02*
X142986000Y-47870000D01*
X117466000Y-49200000D02*
X117466000Y-47870000D01*
X117466000Y-47870000D02*
X118796000Y-47870000D01*
X120066000Y-47870000D02*
X142986000Y-47870000D01*
%TO.C,J4*%
X146990000Y-50530000D02*
X164830000Y-50530000D01*
X146990000Y-50530000D02*
X146990000Y-47870000D01*
X164830000Y-50530000D02*
X164830000Y-47870000D01*
X144390000Y-49200000D02*
X144390000Y-47870000D01*
X144390000Y-47870000D02*
X145720000Y-47870000D01*
X146990000Y-47870000D02*
X164830000Y-47870000D01*
%TO.C,D2*%
X148280000Y-71065000D02*
X148280000Y-67975000D01*
X142730001Y-69519538D02*
G75*
G03*
X148279999Y-71064830I2989999J-462D01*
G01*
X148280000Y-67975170D02*
G75*
G03*
X142730000Y-69520462I-2560000J-1544830D01*
G01*
X148220000Y-69520000D02*
G75*
G03*
X148220000Y-69520000I-2500000J0D01*
G01*
%TO.C,U2*%
X103690000Y-62070000D02*
X124250000Y-62070000D01*
X124250000Y-62070000D02*
X124250000Y-51570000D01*
X103750000Y-59070000D02*
X124190000Y-59070000D01*
X124190000Y-59070000D02*
X124190000Y-54570000D01*
X103750000Y-57820000D02*
X103750000Y-59070000D01*
X103750000Y-54570000D02*
X103750000Y-55820000D01*
X124190000Y-54570000D02*
X103750000Y-54570000D01*
X103690000Y-51570000D02*
X103690000Y-62070000D01*
X124250000Y-51570000D02*
X103690000Y-51570000D01*
X103750000Y-57820000D02*
G75*
G03*
X103750000Y-55820000I0J1000000D01*
G01*
%TO.C,R8*%
X110470000Y-65480000D02*
X110470000Y-66250000D01*
X111840000Y-66250000D02*
X109100000Y-66250000D01*
X109100000Y-66250000D02*
X109100000Y-72790000D01*
X111840000Y-72790000D02*
X111840000Y-66250000D01*
X109100000Y-72790000D02*
X111840000Y-72790000D01*
X110470000Y-73560000D02*
X110470000Y-72790000D01*
%TO.C,R5*%
X130480000Y-65480000D02*
X130480000Y-66250000D01*
X131850000Y-66250000D02*
X129110000Y-66250000D01*
X129110000Y-66250000D02*
X129110000Y-72790000D01*
X131850000Y-72790000D02*
X131850000Y-66250000D01*
X129110000Y-72790000D02*
X131850000Y-72790000D01*
X130480000Y-73560000D02*
X130480000Y-72790000D01*
%TO.C,D1*%
X140660000Y-71065000D02*
X140660000Y-67975000D01*
X135110001Y-69519538D02*
G75*
G03*
X140659999Y-71064830I2989999J-462D01*
G01*
X140660000Y-67975170D02*
G75*
G03*
X135110000Y-69520462I-2560000J-1544830D01*
G01*
X140600000Y-69520000D02*
G75*
G03*
X140600000Y-69520000I-2500000J0D01*
G01*
%TO.C,R1*%
X158420000Y-54050000D02*
X158420000Y-54820000D01*
X159790000Y-54820000D02*
X157050000Y-54820000D01*
X157050000Y-54820000D02*
X157050000Y-61360000D01*
X159790000Y-61360000D02*
X159790000Y-54820000D01*
X157050000Y-61360000D02*
X159790000Y-61360000D01*
X158420000Y-62130000D02*
X158420000Y-61360000D01*
%TO.C,LS1*%
X155630000Y-58090000D02*
G75*
G03*
X155630000Y-58090000I-6100000J0D01*
G01*
%TO.C,R2*%
X173890000Y-80950000D02*
X173120000Y-80950000D01*
X173120000Y-82320000D02*
X173120000Y-79580000D01*
X173120000Y-79580000D02*
X166580000Y-79580000D01*
X166580000Y-82320000D02*
X173120000Y-82320000D01*
X166580000Y-79580000D02*
X166580000Y-82320000D01*
X165810000Y-80950000D02*
X166580000Y-80950000D01*
%TO.C,SW1*%
X175990000Y-64240000D02*
X163690000Y-64240000D01*
X175990000Y-61520000D02*
X175990000Y-64240000D01*
X175990000Y-56520000D02*
X175990000Y-59660000D01*
X175990000Y-51940000D02*
X175990000Y-54660000D01*
X163690000Y-64240000D02*
X163690000Y-61520000D01*
X163690000Y-59660000D02*
X163690000Y-56520000D01*
X163690000Y-54660000D02*
X163690000Y-51940000D01*
X163690000Y-51940000D02*
X175990000Y-51940000D01*
X174319050Y-58050000D02*
G75*
G03*
X174319050Y-58050000I-4579050J0D01*
G01*
%TO.C,SW2*%
X163600000Y-65870000D02*
X175900000Y-65870000D01*
X163600000Y-68590000D02*
X163600000Y-65870000D01*
X163600000Y-73590000D02*
X163600000Y-70450000D01*
X163600000Y-78170000D02*
X163600000Y-75450000D01*
X175900000Y-65870000D02*
X175900000Y-68590000D01*
X175900000Y-70450000D02*
X175900000Y-73590000D01*
X175900000Y-75450000D02*
X175900000Y-78170000D01*
X175900000Y-78170000D02*
X163600000Y-78170000D01*
X174429050Y-72060000D02*
G75*
G03*
X174429050Y-72060000I-4579050J0D01*
G01*
%TO.C,R12*%
X126670000Y-65480000D02*
X126670000Y-66250000D01*
X128040000Y-66250000D02*
X125300000Y-66250000D01*
X125300000Y-66250000D02*
X125300000Y-72790000D01*
X128040000Y-72790000D02*
X128040000Y-66250000D01*
X125300000Y-72790000D02*
X128040000Y-72790000D01*
X126670000Y-73560000D02*
X126670000Y-72790000D01*
%TO.C,R10*%
X118570000Y-65480000D02*
X118570000Y-66250000D01*
X119940000Y-66250000D02*
X117200000Y-66250000D01*
X117200000Y-66250000D02*
X117200000Y-72790000D01*
X119940000Y-72790000D02*
X119940000Y-66250000D01*
X117200000Y-72790000D02*
X119940000Y-72790000D01*
X118570000Y-73560000D02*
X118570000Y-72790000D01*
%TO.C,R9*%
X114520000Y-65480000D02*
X114520000Y-66250000D01*
X115890000Y-66250000D02*
X113150000Y-66250000D01*
X113150000Y-66250000D02*
X113150000Y-72790000D01*
X115890000Y-72790000D02*
X115890000Y-66250000D01*
X113150000Y-72790000D02*
X115890000Y-72790000D01*
X114520000Y-73560000D02*
X114520000Y-72790000D01*
%TO.C,R6*%
X102370000Y-65480000D02*
X102370000Y-66250000D01*
X103740000Y-66250000D02*
X101000000Y-66250000D01*
X101000000Y-66250000D02*
X101000000Y-72790000D01*
X103740000Y-72790000D02*
X103740000Y-66250000D01*
X101000000Y-72790000D02*
X103740000Y-72790000D01*
X102370000Y-73560000D02*
X102370000Y-72790000D01*
%TO.C,R3*%
X134300000Y-54050000D02*
X134300000Y-54820000D01*
X135670000Y-54820000D02*
X132930000Y-54820000D01*
X132930000Y-54820000D02*
X132930000Y-61360000D01*
X135670000Y-61360000D02*
X135670000Y-54820000D01*
X132930000Y-61360000D02*
X135670000Y-61360000D01*
X134300000Y-62130000D02*
X134300000Y-61360000D01*
%TO.C,R7*%
X106350000Y-65480000D02*
X106350000Y-66250000D01*
X107720000Y-66250000D02*
X104980000Y-66250000D01*
X104980000Y-66250000D02*
X104980000Y-72790000D01*
X107720000Y-72790000D02*
X107720000Y-66250000D01*
X104980000Y-72790000D02*
X107720000Y-72790000D01*
X106350000Y-73560000D02*
X106350000Y-72790000D01*
%TO.C,R11*%
X122860000Y-65480000D02*
X122860000Y-66250000D01*
X124230000Y-66250000D02*
X121490000Y-66250000D01*
X121490000Y-66250000D02*
X121490000Y-72790000D01*
X124230000Y-72790000D02*
X124230000Y-66250000D01*
X121490000Y-72790000D02*
X124230000Y-72790000D01*
X122860000Y-73560000D02*
X122860000Y-72790000D01*
%TO.C,R4*%
X138110000Y-54050000D02*
X138110000Y-54820000D01*
X139480000Y-54820000D02*
X136740000Y-54820000D01*
X136740000Y-54820000D02*
X136740000Y-61360000D01*
X139480000Y-61360000D02*
X139480000Y-54820000D01*
X136740000Y-61360000D02*
X139480000Y-61360000D01*
X138110000Y-62130000D02*
X138110000Y-61360000D01*
%TD*%
M02*
